<?xml version="1.0" encoding="UTF-8" standalone="no"?>
<svg
   xmlns:dc="http://purl.org/dc/elements/1.1/"
   xmlns:cc="http://creativecommons.org/ns#"
   xmlns:rdf="http://www.w3.org/1999/02/22-rdf-syntax-ns#"
   xmlns:svg="http://www.w3.org/2000/svg"
   xmlns="http://www.w3.org/2000/svg"
   viewBox="0 0 1122.52 793.70667"
   height="793.70667"
   width="1122.52"
   xml:space="preserve"
   id="svg2"
   version="1.1"><metadata
     id="metadata8"><rdf:RDF><cc:Work
         rdf:about=""><dc:format>image/svg+xml</dc:format><dc:type
           rdf:resource="http://purl.org/dc/dcmitype/StillImage" /></cc:Work></rdf:RDF></metadata><defs
     id="defs6"><clipPath
       id="clipPath36"
       clipPathUnits="userSpaceOnUse"><path
         id="path34"
         d="M 0,595.28 H 841.89 V 0 H 0 Z" /></clipPath><clipPath
       id="clipPath134"
       clipPathUnits="userSpaceOnUse"><path
         id="path132"
         d="M 0,595.28 H 841.89 V 0 H 0 Z" /></clipPath></defs><g
     transform="matrix(1.3333333,0,0,-1.3333333,0,793.70667)"
     id="g10"><text
       id="text28"
       style="font-variant:normal;font-weight:normal;font-stretch:normal;font-size:15px;font-family:'Permanent Marker';-inkscape-font-specification:PermanentMarker-Regular;writing-mode:lr-tb;fill:#FFFFFF;fill-opacity:1;fill-rule:nonzero;stroke:none"
       transform="matrix(1,0,0,-1,165.1636,523.4419)"><tspan
         id="tspan12"
         y="0"
         x="0 7.4749999 15.08 22.412001 29.094 34.9375 43.114498 154.791 162.01511 170.19209 177.12109 183.58211 190.8842 198.33321 205.26221 232.687 240.175 246.948 257.53 261.69 270.16599 277.19901 285.14459 292.7496 299.56161 307.22119 311.3812 339.677 347.62 355.797 363.129 369.35599 376.38901 383.43759 389.35391 396.90689 403.93991 408.09991 415.65289 422.98489 451.99701 459.47198 463.63199 469.52881 475.7558 482.4144 489.44739 496.7482 504.1972 511.12619 540.03302 547.521 554.29401 564.87598 569.03601 577.51202 584.54498 592.4906 600.09558 628.966 636.45398 643.22699 649.07568 656.7301 660.89008">FunctorFoldableSemigroupoidContravariantFilterableSemigroupSetoid</tspan><tspan
         id="tspan14"
         y="72.007004"
         x="-156.065 -146.9377 -141.04871 -119.522 -110.396 -103.584 -96.772003 -90.221298 -69.927002 -60.995998 -56.835999 -50.921001 -43.316002 -35.984001 -29.302 -23.4624 -15.2854 4.303 12.454 19.045 25.271999 32.044998 39.376999">AltApplyBifunctorExtend</tspan><tspan
         id="tspan16"
         y="143.507"
         x="-159.627 -151.30701 -144.9006 -137.29559 -115.856 -106.73 -99.917999 -93.106003 -86.177002 -82.016998 -75.334999 -68.413803 -62.186798 -58.026798 -51.721802 -31.759001 -23.816 -16.25 -8.6969995 -4.5370002">PlusApplicativeChain</tspan><tspan
         id="tspan18"
         y="216.008"
         x="-159.04201 -149.916 -144.0231 -137.7961 -131.1375 -124.1045 -116.7725 -109.8604 -103.6334 -99.473396 -93.168404">Alternative</tspan><tspan
         id="tspan20"
         y="216.008"
         x="-73.475998 -60.813999 -52.637001 -45.305 -37.751999" fill="#856bfb">Monad</tspan><tspan
         id="tspan22"
         y="216.008"
         x="-17.485001 -9.5419998 -1.976 5.5770001 9.7370005 17.069 25.466999 32.141201">ChainRec</tspan><tspan
         id="tspan24"
         y="143.507"
         x="16.796 24.739 32.916 43.498001 51.674999 59.007 66.559998">Comonad</tspan><tspan
         id="tspan26"
         y="72.007004"
         x="59.175999 67.496002 74.528999 82.706001 88.621002 96.225998 103.558 110.24 116.0757 124.2527 145.18401 153.075 160.108 167.14619 173.4512 179.4832 186.13921 193.1722 200.47169 207.9207 214.8497 247.013 254.95599 261.86679 268.09381 274.86679 283.3428 291.51981 298.31491">ProfunctorTravserableCategory</tspan></text>
<g
       id="g30"><g
         clip-path="url(#clipPath36)"
         id="g32"><g
           transform="translate(190.3369,521.28)"
           id="g38"><path
             id="path40"
             style="fill:#FFFFFF;fill-opacity:1;fill-rule:nonzero;stroke:none"
             d="m 0,0 0.017,-2 10e-4,-0.109 -0.113,-0.008 c -15.227,-1.028 -30.371,-3.125 -45.374,-5.846 -15.003,-2.736 -29.87,-6.233 -44.435,-10.697 -14.559,-4.485 -28.766,-10.043 -42.431,-16.691 -6.822,-3.345 -13.488,-7.014 -19.897,-11.108 -1.615,-1.002 -3.157,-2.115 -4.741,-3.168 -0.782,-0.541 -1.586,-1.054 -2.352,-1.616 l -2.279,-1.717 c -1.51,-1.155 -3.103,-2.216 -4.535,-3.472 l -4.413,-3.641 -0.137,0.146 c 2.767,2.632 5.535,5.286 8.527,7.68 l 2.219,1.828 c 0.748,0.598 1.533,1.147 2.298,1.723 1.55,1.126 3.061,2.312 4.646,3.389 l 4.79,3.186 c 1.604,1.052 3.279,1.986 4.916,2.985 l 2.473,1.471 2.525,1.376 c 1.691,0.902 3.349,1.874 5.071,2.717 6.835,3.487 13.897,6.499 21.053,9.236 7.166,2.721 14.464,5.056 21.803,7.224 14.694,4.289 29.65,7.607 44.723,10.153 15.083,2.48 30.277,4.308 45.54,5.076 L -0.217,-2 -0.2,0 Z" /></g><g
           transform="translate(125.9653,461.2995)"
           id="g42"><path
             id="path44"
             style="fill:#FFFFFF;fill-opacity:1;fill-rule:nonzero;stroke:none"
             d="m 0,0 c 1.408,7.556 3.879,14.974 7.649,21.744 1.87,3.394 4.121,6.564 6.541,9.594 2.452,3.009 5.198,5.769 8.106,8.343 5.827,5.134 12.456,9.396 19.587,12.481 3.571,1.528 7.235,2.829 10.978,3.827 3.74,1 7.541,1.786 11.398,2.091 l 0.025,-0.199 C 56.812,56.121 49.589,53.554 42.704,50.338 35.849,47.089 29.187,43.332 23.333,38.462 20.425,36.021 17.666,33.388 15.185,30.501 12.737,27.593 10.442,24.536 8.515,21.243 4.573,14.71 1.862,7.447 0.196,-0.039 Z" /></g><g
           transform="translate(190.3364,519.2844)"
           id="g46"><path
             id="path48"
             style="fill:#FFFFFF;fill-opacity:1;fill-rule:nonzero;stroke:none"
             d="m 0,0 c 0.336,-4.748 0.641,-9.497 0.925,-14.249 0.248,-4.753 0.472,-9.508 0.66,-14.266 0.172,-4.758 0.477,-9.522 0.294,-14.293 -0.093,-2.385 -0.218,-4.771 -0.47,-7.155 -0.122,-1.192 -0.272,-2.382 -0.478,-3.57 -0.235,-1.178 -0.427,-2.383 -0.936,-3.505 l -0.189,0.067 c 0.198,1.154 0.223,2.339 0.216,3.522 0.018,1.18 -0.007,2.366 -0.018,3.55 l -0.125,7.109 c -0.101,4.742 0.1,9.492 0.106,14.246 0.013,4.753 -0.011,9.508 -0.06,14.264 -0.017,4.757 -0.055,9.514 -0.125,14.271 z" /></g><g
           transform="translate(190.2632,519.3767)"
           id="g50"><path
             id="path52"
             style="fill:#FFFFFF;fill-opacity:1;fill-rule:nonzero;stroke:none"
             d="m 0,0 c 3.768,-1.041 7.441,-2.378 11.06,-3.85 3.617,-1.476 7.171,-3.112 10.649,-4.906 6.936,-3.62 13.567,-7.847 19.76,-12.667 3.088,-2.421 6.089,-4.961 8.935,-7.676 2.815,-2.743 5.523,-5.611 7.95,-8.712 0.626,-0.758 1.206,-1.554 1.785,-2.349 0.574,-0.799 1.179,-1.573 1.727,-2.39 1.066,-1.655 2.209,-3.254 3.151,-4.982 2.035,-3.359 3.721,-6.915 5.221,-10.521 l -0.18,-0.087 c -3.925,6.744 -8.239,13.186 -13.254,19.065 -4.971,5.899 -10.364,11.464 -16.336,16.403 -5.986,4.912 -12.443,9.266 -19.232,13.035 -3.389,1.897 -6.864,3.644 -10.412,5.236 -3.548,1.586 -7.167,3.045 -10.877,4.208 z" /></g><g
           transform="translate(191.2275,519.3801)"
           id="g54"><path
             id="path56"
             style="fill:#FFFFFF;fill-opacity:1;fill-rule:nonzero;stroke:none"
             d="m 0,0 c 14.379,0.283 28.76,-0.877 43,-2.915 7.118,-1.054 14.198,-2.374 21.221,-3.963 7.016,-1.62 13.968,-3.529 20.831,-5.732 13.703,-4.425 27.124,-10.042 39.458,-17.6 l 4.581,-2.893 4.446,-3.098 c 1.503,-1.002 2.916,-2.13 4.346,-3.231 1.414,-1.122 2.894,-2.159 4.226,-3.382 5.556,-4.616 10.622,-9.78 15.323,-15.219 l -0.148,-0.134 -3.861,3.753 c -0.647,0.62 -1.264,1.269 -1.934,1.865 l -2.023,1.769 c -1.354,1.173 -2.643,2.414 -4.039,3.534 l -4.193,3.347 c -5.702,4.304 -11.525,8.465 -17.753,11.973 -1.508,0.956 -3.084,1.798 -4.648,2.658 -1.574,0.842 -3.104,1.767 -4.718,2.532 l -4.776,2.426 c -1.607,0.779 -3.239,1.508 -4.857,2.265 -6.506,2.95 -13.14,5.654 -19.933,7.916 -6.783,2.282 -13.668,4.276 -20.627,5.985 -6.965,1.679 -13.998,3.091 -21.075,4.241 C 28.698,-1.609 14.362,-0.184 0.006,-0.2 Z" /></g><g
           transform="translate(17.9731,467.0251)"
           id="g58"><path
             id="path60"
             style="fill:#FFFFFF;fill-opacity:1;fill-rule:nonzero;stroke:none"
             d="m 0,0 c 0.377,-1.037 0.735,-2.077 1.163,-3.075 0.202,-0.499 0.421,-0.994 0.665,-1.435 0.111,-0.222 0.251,-0.431 0.353,-0.536 0.038,-0.03 0.044,-10e-4 -0.071,0.067 -0.084,0.01 -0.041,0.014 -0.007,0.027 l 0.09,0.024 c 0.377,0.115 0.855,0.396 1.29,0.661 0.448,0.264 0.92,0.508 1.422,0.697 1.012,0.375 2.058,0.717 3.279,0.802 l 0.103,-0.17 C 7.624,-3.977 6.757,-4.708 5.823,-5.346 4.858,-5.98 3.806,-6.28 2.473,-6.503 2.379,-6.514 2.26,-6.515 2.155,-6.517 c -0.104,0 -0.197,-0.013 -0.412,0.051 -0.401,0.094 -0.586,0.35 -0.722,0.524 -0.218,0.341 -0.322,0.628 -0.417,0.912 -0.179,0.572 -0.297,1.122 -0.401,1.675 -0.18,1.11 -0.332,2.205 -0.399,3.316 z" /></g><g
           transform="translate(130.8945,464.8152)"
           id="g62"><path
             id="path64"
             style="fill:#FFFFFF;fill-opacity:1;fill-rule:nonzero;stroke:none"
             d="m 0,0 c -0.683,-0.879 -1.427,-1.695 -2.203,-2.51 -0.399,-0.396 -0.807,-0.784 -1.278,-1.155 -0.239,-0.181 -0.487,-0.358 -0.86,-0.516 -0.21,-0.067 -0.507,-0.173 -0.891,-0.025 -0.213,0.069 -0.283,0.133 -0.369,0.191 -0.086,0.061 -0.183,0.129 -0.254,0.192 -0.974,0.937 -1.672,1.78 -2.11,2.847 -0.41,1.054 -0.711,2.148 -0.672,3.379 l 0.182,0.083 c 0.959,-0.76 1.629,-1.634 2.252,-2.515 0.306,-0.44 0.558,-0.908 0.778,-1.379 0.21,-0.465 0.445,-0.967 0.691,-1.274 l 0.061,-0.071 c 0.02,-0.03 0.053,-0.058 -0.021,-0.018 -0.134,0.008 -0.145,-0.019 -0.097,-0.016 0.143,0.029 0.377,0.123 0.595,0.244 0.449,0.225 0.91,0.51 1.36,0.807 0.916,0.582 1.799,1.237 2.697,1.879 z" /></g><g
           transform="translate(193.7632,463.572)"
           id="g66"><path
             id="path68"
             style="fill:#FFFFFF;fill-opacity:1;fill-rule:nonzero;stroke:none"
             d="M 0,0 C -0.54,-0.558 -1.117,-1.062 -1.719,-1.562 -2.028,-1.801 -2.333,-2.049 -2.698,-2.261 -2.796,-2.314 -2.879,-2.369 -2.993,-2.42 l -0.165,-0.077 c -0.092,-0.029 -0.24,-0.066 -0.321,-0.068 -0.383,-0.027 -0.623,0.034 -0.861,0.084 -0.91,0.206 -1.666,0.484 -2.245,1.049 -0.576,0.552 -1.081,1.175 -1.365,2.051 l 0.123,0.157 c 0.91,-0.044 1.628,-0.3 2.311,-0.577 0.685,-0.248 1.213,-0.782 1.721,-1.096 0.117,-0.07 0.247,-0.113 0.242,-0.13 0.014,-0.008 -0.043,-0.012 -0.043,-0.026 l 0.101,0.016 c 0.066,0.008 0.153,0.037 0.229,0.054 0.323,0.095 0.681,0.209 1.027,0.339 0.707,0.246 1.409,0.54 2.128,0.81 z" /></g><g
           transform="translate(262.4687,464.2351)"
           id="g70"><path
             id="path72"
             style="fill:#FFFFFF;fill-opacity:1;fill-rule:nonzero;stroke:none"
             d="m 0,0 c -0.099,-0.715 -0.284,-1.402 -0.545,-2.107 -0.15,-0.346 -0.306,-0.699 -0.601,-1.055 -0.142,-0.173 -0.35,-0.363 -0.668,-0.504 -0.464,-0.163 -0.822,-0.039 -1.063,0.032 -0.942,0.355 -1.563,0.757 -1.982,1.401 -0.397,0.635 -0.693,1.326 -0.69,2.208 l 0.16,0.119 c 0.84,-0.222 1.43,-0.601 1.974,-0.983 0.265,-0.195 0.496,-0.41 0.684,-0.648 0.182,-0.234 0.375,-0.485 0.514,-0.595 0.071,-0.063 0.072,-0.049 -0.057,-0.1 0.004,-0.015 0.092,-0.012 0.192,0.063 0.205,0.126 0.444,0.351 0.657,0.594 0.448,0.486 0.839,1.067 1.238,1.644 z" /></g><g
           transform="translate(349.3633,464.6247)"
           id="g74"><path
             id="path76"
             style="fill:#FFFFFF;fill-opacity:1;fill-rule:nonzero;stroke:none"
             d="M 0,0 C 0.223,-0.687 0.357,-1.385 0.429,-2.134 0.445,-2.511 0.46,-2.896 0.35,-3.345 0.297,-3.563 0.193,-3.824 -0.032,-4.09 c -0.346,-0.349 -0.722,-0.394 -0.97,-0.436 -1.003,-0.091 -1.737,-0.001 -2.395,0.396 -0.634,0.398 -1.202,0.89 -1.584,1.685 l 0.092,0.177 c 0.852,0.166 1.548,0.084 2.205,-0.023 0.324,-0.06 0.624,-0.153 0.898,-0.284 0.265,-0.131 0.549,-0.273 0.722,-0.311 0.091,-0.026 0.086,-0.013 -0.008,-0.115 0.01,-0.011 0.088,0.03 0.146,0.141 0.129,0.202 0.246,0.509 0.331,0.82 0.192,0.634 0.289,1.326 0.396,2.02 z" /></g><g
           transform="translate(190.2593,519.1824)"
           id="g78"><path
             id="path80"
             style="fill:#FFFFFF;fill-opacity:1;fill-rule:nonzero;stroke:none"
             d="m 0,0 c -10.858,-2.812 -21.536,-6.293 -32.061,-10.141 -10.531,-3.84 -20.883,-8.151 -31.023,-12.897 l -7.556,-3.66 -7.42,-3.92 c -2.503,-1.251 -4.903,-2.686 -7.336,-4.064 l -3.659,-2.046 -1.83,-1.023 -1.782,-1.103 -7.18,-4.334 c -2.399,-1.44 -4.64,-3.114 -7.005,-4.613 l -3.508,-2.309 c -1.169,-0.77 -2.254,-1.655 -3.39,-2.473 -2.27,-1.64 -4.52,-3.312 -6.819,-4.932 l -0.129,0.153 c 4.265,3.64 8.423,7.477 13.041,10.699 1.129,0.842 2.261,1.68 3.405,2.5 1.146,0.818 2.264,1.68 3.462,2.42 l 7.087,4.6 1.787,1.128 1.833,1.048 3.667,2.096 c 2.455,1.38 4.903,2.774 7.435,4.006 l 7.552,3.774 7.677,3.506 c 10.271,4.587 20.733,8.726 31.357,12.387 10.642,3.606 21.413,6.837 32.35,9.393 z" /></g><g
           transform="translate(72.895,462.2434)"
           id="g82"><path
             id="path84"
             style="fill:#FFFFFF;fill-opacity:1;fill-rule:nonzero;stroke:none"
             d="m 0,0 c -0.439,-0.389 -0.915,-0.714 -1.42,-1.034 -0.258,-0.152 -0.523,-0.293 -0.821,-0.416 -0.151,-0.063 -0.305,-0.113 -0.483,-0.154 -0.185,-0.03 -0.33,-0.099 -0.717,-0.026 -0.656,0.19 -0.931,0.557 -1.199,0.829 -0.254,0.29 -0.406,0.599 -0.46,0.921 -0.094,0.642 -0.012,1.285 0.455,1.944 l 0.198,0.03 c 0.652,-0.445 0.989,-0.896 1.257,-1.313 0.131,-0.206 0.191,-0.416 0.217,-0.613 0.015,-0.196 0.094,-0.321 -0.018,-0.309 -0.118,-0.005 0.024,-0.044 0.115,-0.048 0.101,-0.014 0.22,-0.006 0.343,-0.009 0.248,0.002 0.515,0.038 0.784,0.073 0.546,0.062 1.096,0.192 1.657,0.303 z" /></g><g
           transform="translate(348.6626,519.3674)"
           id="g86"><path
             id="path88"
             style="fill:#FFFFFF;fill-opacity:1;fill-rule:nonzero;stroke:none"
             d="m 0,0 c 1.536,-1.992 2.686,-4.234 3.66,-6.538 0.533,-1.137 0.895,-2.338 1.345,-3.509 0.381,-1.193 0.727,-2.399 1.078,-3.604 1.261,-4.862 1.834,-9.876 2.056,-14.885 C 8.412,-33.551 8.221,-38.59 7.55,-43.564 7.132,-46.037 6.646,-48.498 6.112,-50.94 5.467,-53.361 4.754,-55.763 3.976,-58.135 l -0.195,0.047 c 0.249,2.494 0.564,4.958 0.948,7.403 0.242,2.468 0.561,4.918 0.836,7.368 0.377,4.911 1.066,9.808 0.974,14.743 -0.019,4.922 -0.382,9.87 -1.43,14.695 -0.28,1.199 -0.557,2.402 -0.869,3.596 -0.38,1.172 -0.673,2.379 -1.137,3.524 -0.836,2.318 -1.86,4.602 -3.258,6.633 z" /></g><g
           transform="translate(355.5864,463.4504)"
           id="g90"><path
             id="path92"
             style="fill:#FFFFFF;fill-opacity:1;fill-rule:nonzero;stroke:none"
             d="M 0,0 C -0.316,-0.649 -0.705,-1.245 -1.173,-1.833 -1.422,-2.116 -1.68,-2.404 -2.071,-2.65 -2.26,-2.77 -2.516,-2.886 -2.862,-2.921 c -0.492,-0.011 -0.794,0.217 -1.001,0.359 -0.785,0.631 -1.251,1.205 -1.449,1.948 -0.181,0.726 -0.247,1.475 0.029,2.313 l 0.19,0.064 c 0.729,-0.473 1.172,-1.015 1.571,-1.548 0.191,-0.268 0.343,-0.544 0.448,-0.828 0.101,-0.279 0.206,-0.577 0.304,-0.725 0.048,-0.082 0.054,-0.069 -0.085,-0.078 0,-0.015 0.084,-0.039 0.203,10e-4 0.234,0.056 0.53,0.195 0.808,0.36 0.577,0.323 1.129,0.754 1.687,1.179 z" /></g><g
           transform="translate(437.5117,462.9162)"
           id="g94"><path
             id="path96"
             style="fill:#FFFFFF;fill-opacity:1;fill-rule:nonzero;stroke:none"
             d="m 0,0 c -0.647,4.753 -0.572,9.564 -0.465,14.333 0.046,2.388 0.187,4.771 0.294,7.152 0.124,2.375 0.306,4.767 0.389,7.107 0.088,2.308 -0.012,4.702 -0.069,7.072 l -0.17,7.137 C -0.127,47.563 -0.195,52.332 -0.09,57.114 0.636,52.385 1.138,47.639 1.538,42.883 1.916,38.112 2.28,33.397 2.216,28.519 1.952,23.703 1.511,18.991 1.087,14.242 0.687,9.498 0.181,4.773 0,0" /></g><g
           transform="translate(440.5312,467.0647)"
           id="g98"><path
             id="path100"
             style="fill:#FFFFFF;fill-opacity:1;fill-rule:nonzero;stroke:none"
             d="m 0,0 c -0.135,-0.801 -0.39,-1.571 -0.776,-2.329 -0.198,-0.379 -0.449,-0.743 -0.788,-1.077 -0.338,-0.329 -0.811,-0.63 -1.387,-0.704 -0.587,-0.08 -1.107,0.049 -1.596,0.212 -0.486,0.166 -0.934,0.404 -1.247,0.748 -0.597,0.706 -0.923,1.568 -0.774,2.576 l 0.177,0.093 c 0.916,-0.361 1.523,-0.781 2.041,-1.182 0.251,-0.202 0.428,-0.453 0.634,-0.657 0.2,-0.196 0.458,-0.331 0.66,-0.343 0.428,-0.068 1.057,0.31 1.548,0.849 0.511,0.532 0.936,1.195 1.318,1.876 z" /></g><g
           transform="translate(738.9043,460.9162)"
           id="g102"><path
             id="path104"
             style="fill:#FFFFFF;fill-opacity:1;fill-rule:nonzero;stroke:none"
             d="m 0,0 c -0.714,4.761 -1.187,9.542 -1.561,14.33 -0.366,4.795 -0.646,9.571 -0.654,14.428 0.004,0.605 0.031,1.228 0.074,1.865 l 0.152,1.787 0.283,3.576 0.57,7.158 0.565,7.165 0.295,3.586 0.14,1.794 0.068,0.898 0.021,0.448 c 0.003,0.073 0.001,0.154 -0.003,0.217 0.013,0.059 -0.028,-0.084 -0.04,-0.138 l 0.01,0.113 c -0.008,0.023 0.037,0.131 0.064,0.042 0.024,-0.082 0.034,-0.153 0.044,-0.229 L 0.083,56.59 0.166,55.689 0.277,53.887 C 0.343,52.685 0.373,51.483 0.411,50.281 0.457,47.877 0.47,45.473 0.423,43.069 0.402,40.665 0.285,38.265 0.184,35.862 0.125,34.661 0.041,33.462 -0.04,32.262 l -0.129,-1.799 c -0.031,-0.56 -0.047,-1.134 -0.047,-1.729 -0.04,-2.359 0.034,-4.759 0.08,-7.148 l 0.128,-7.184 C 0.072,9.609 0.112,4.812 0,0" /></g><g
           transform="translate(741.915,465.0437)"
           id="g106"><path
             id="path108"
             style="fill:#FFFFFF;fill-opacity:1;fill-rule:nonzero;stroke:none"
             d="m 0,0 c -0.305,-0.762 -0.665,-1.492 -1.045,-2.226 -0.191,-0.368 -0.403,-0.724 -0.639,-1.083 -0.119,-0.178 -0.244,-0.358 -0.393,-0.538 -0.162,-0.177 -0.3,-0.359 -0.642,-0.554 -0.11,-0.047 -0.191,-0.101 -0.399,-0.12 -0.125,-0.05 -0.539,0.073 -0.583,0.129 -0.054,0.03 -0.128,0.08 -0.159,0.103 l -0.077,0.054 -0.145,0.106 c -0.179,0.131 -0.348,0.253 -0.522,0.371 -0.35,0.234 -0.696,0.465 -0.955,0.78 -0.499,0.646 -0.887,1.391 -0.985,2.403 l 0.147,0.137 c 1.001,-0.164 1.716,-0.59 2.333,-1.104 0.298,-0.265 0.512,-0.613 0.731,-0.948 0.108,-0.167 0.225,-0.328 0.34,-0.472 l 0.078,-0.097 0.037,-0.045 c 0.007,-0.01 -0.025,0.013 -0.038,0.013 l -0.028,0.004 c -0.032,0.017 -0.067,0.03 -0.103,0.039 -0.084,0.015 -0.132,0.013 -0.17,0.011 -0.106,-0.021 -0.094,-0.027 -0.111,-0.04 0.019,-0.015 0.182,0.081 0.307,0.183 0.135,0.105 0.278,0.225 0.417,0.356 0.281,0.258 0.549,0.548 0.827,0.834 0.551,0.578 1.07,1.197 1.605,1.808 z" /></g><g
           transform="translate(813.5889,460.9162)"
           id="g110"><path
             id="path112"
             style="fill:#FFFFFF;fill-opacity:1;fill-rule:nonzero;stroke:none"
             d="m 0,0 c -0.726,4.762 -1.554,9.474 -2.14,14.267 -0.28,2.383 -0.545,4.849 -0.307,7.345 0.2,2.422 0.528,4.813 0.837,7.194 0.679,4.756 1.377,9.459 1.619,14.203 0.119,2.379 0.192,4.767 0.193,7.158 0.014,1.197 -0.006,2.393 -0.029,3.591 -0.011,0.599 -0.031,1.198 -0.061,1.797 l -0.049,0.898 -0.042,0.446 c -0.01,0.074 -0.021,0.148 -0.038,0.22 -0.007,0.032 -0.021,0.08 -0.036,0.089 -0.018,-0.013 -0.028,-0.061 -0.037,-0.094 0.008,0.037 -0.007,0.076 0.034,0.112 0.055,-0.017 0.055,-0.063 0.076,-0.095 0.029,-0.07 0.051,-0.143 0.074,-0.215 L 0.213,56.477 0.412,55.592 C 0.528,54.999 0.629,54.404 0.725,53.808 0.914,52.615 1.051,51.416 1.182,50.214 1.412,47.811 1.554,45.396 1.567,42.975 1.642,38.11 1.011,33.28 0.37,28.532 0.023,26.157 -0.309,23.792 -0.565,21.434 -0.895,19.148 -0.686,16.797 -0.589,14.405 -0.301,9.638 0.102,4.821 0,0" /></g><g
           transform="translate(817.3223,464.2946)"
           id="g114"><path
             id="path116"
             style="fill:#FFFFFF;fill-opacity:1;fill-rule:nonzero;stroke:none"
             d="m 0,0 c -0.452,-0.669 -0.952,-1.295 -1.471,-1.921 -0.26,-0.314 -0.537,-0.613 -0.836,-0.909 -0.318,-0.296 -0.578,-0.586 -1.13,-0.845 -0.14,-0.05 -0.34,-0.158 -0.746,-0.069 l -0.4,0.133 c -0.19,0.061 -0.382,0.119 -0.578,0.167 -0.392,0.097 -0.791,0.179 -1.135,0.373 -0.68,0.407 -1.29,0.958 -1.736,1.864 l 0.086,0.181 c 0.984,0.225 1.803,0.095 2.554,-0.179 0.371,-0.145 0.687,-0.404 1.01,-0.647 0.161,-0.122 0.328,-0.234 0.495,-0.343 l 0.126,-0.082 0.063,-0.04 0.03,-0.02 c -0.024,0.013 -0.052,0.024 -0.079,0.031 -0.214,0.04 -0.209,-0.026 -0.166,-0.005 0.188,0.028 0.563,0.233 0.873,0.415 0.324,0.193 0.644,0.416 0.971,0.633 0.651,0.441 1.281,0.926 1.924,1.401 z" /></g><g
           transform="translate(741.2559,394.8425)"
           id="g118"><path
             id="path120"
             style="fill:#FFFFFF;fill-opacity:1;fill-rule:nonzero;stroke:none"
             d="m 0,0 c -0.281,-0.835 -0.623,-1.64 -0.984,-2.451 -0.181,-0.407 -0.389,-0.8 -0.617,-1.2 -0.117,-0.2 -0.237,-0.402 -0.391,-0.601 -0.182,-0.202 -0.267,-0.408 -0.748,-0.649 -0.086,-0.029 -0.125,-0.056 -0.255,-0.069 -0.106,-0.015 -0.266,-0.006 -0.294,0.003 -0.115,0.015 -0.224,0.041 -0.312,0.072 -0.19,0.063 -0.33,0.141 -0.467,0.218 -0.261,0.158 -0.474,0.315 -0.676,0.476 -0.407,0.318 -0.744,0.663 -0.971,1.072 -0.435,0.822 -0.686,1.719 -0.547,2.774 l 0.179,0.089 c 0.929,-0.485 1.539,-1.094 2.07,-1.708 0.262,-0.306 0.439,-0.659 0.618,-0.98 0.091,-0.156 0.19,-0.304 0.28,-0.399 l 0.095,-0.102 c 0.011,-0.013 0.007,-0.015 -10e-4,-0.021 0.024,-0.01 -0.082,0.012 -0.133,-0.004 -0.075,-0.018 -0.065,-0.013 -0.099,-0.029 -0.081,-0.07 0.136,0.056 0.246,0.168 0.135,0.123 0.28,0.263 0.419,0.413 0.282,0.3 0.549,0.631 0.823,0.96 0.549,0.662 1.059,1.366 1.587,2.061 z" /></g></g></g><text
       id="text126"
       style="font-variant:normal;font-weight:normal;font-stretch:normal;font-size:15px;font-family:'Permanent Marker';-inkscape-font-specification:PermanentMarker-Regular;writing-mode:lr-tb;fill:#FFFFFF;fill-opacity:1;fill-rule:nonzero;stroke:none"
       transform="matrix(1,0,0,-1,716.4453,451.4419)"><tspan
         id="tspan122"
         y="0"
         x="0 10.582 18.759001 26.091 33.757099 37.917099 85.292999 94.964996 101.998">MonoidOrd</tspan><tspan
         id="tspan124"
         y="71.5"
         x="2.3789999 12.636 19.669001 27.592501 35.197498">Group</tspan></text>
<g
       id="g128"><g
         clip-path="url(#clipPath134)"
         id="g130"><g
           transform="translate(738.4004,446.5974)"
           id="g136"><path
             id="path138"
             style="fill:#FFFFFF;fill-opacity:1;fill-rule:nonzero;stroke:none"
             d="m 0,0 c -0.515,-4.637 -0.659,-9.313 -0.735,-13.976 -0.09,-4.664 -0.03,-9.331 0.112,-13.992 l 0.131,-3.495 0.201,-3.493 0.171,-3.492 0.112,-3.495 c 0.04,-2.332 0.114,-4.663 0.099,-7.002 0.035,-2.336 0.01,-4.679 -0.09,-7.031 l -0.2,-0.016 c -0.91,4.617 -1.447,9.279 -1.807,13.952 -0.351,4.676 -0.279,9.371 -0.217,14.057 0.059,4.686 0.198,9.371 0.489,14.048 0.343,4.673 0.755,9.344 1.537,13.967 z" /></g><g
           transform="translate(17.9746,445.7727)"
           id="g140"><path
             id="path142"
             style="fill:#FFFFFF;fill-opacity:1;fill-rule:nonzero;stroke:none"
             d="m 0,0 c -0.187,-4.67 -0.303,-9.344 -0.379,-14.015 -0.11,-4.671 -0.153,-9.341 -0.136,-14.007 -0.001,-4.668 0.264,-9.326 0.253,-13.977 0.012,-4.658 0.02,-9.294 0.261,-13.976 l -0.197,-0.035 c -1.335,4.541 -1.783,9.271 -2.063,13.95 -0.275,4.693 -0.034,9.387 0.146,14.065 0.184,4.681 0.427,9.355 0.737,14.024 0.342,4.667 0.725,9.329 1.179,13.986 z" /></g><g
           transform="translate(62.9888,447.2697)"
           id="g144"><path
             id="path146"
             style="fill:#FFFFFF;fill-opacity:1;fill-rule:nonzero;stroke:none"
             d="m 0,0 c -0.117,-2.64 0.172,-5.297 0.724,-7.872 0.553,-2.578 1.403,-5.082 2.528,-7.445 1.144,-2.358 2.602,-4.538 4.271,-6.531 0.9,-0.94 1.741,-1.933 2.759,-2.748 0.959,-0.83 1.978,-1.748 3.003,-2.677 0.536,-0.437 0.962,-0.977 1.417,-1.491 0.439,-0.527 0.932,-1.017 1.326,-1.578 0.777,-1.128 1.618,-2.228 2.238,-3.453 0.699,-1.188 1.22,-2.455 1.755,-3.716 0.251,-0.637 0.431,-1.297 0.648,-1.943 l 0.313,-0.975 0.248,-0.99 c 0.665,-2.643 1.012,-5.343 1.123,-8.039 0.111,-2.694 0,-5.394 -0.471,-8.041 l -0.199,0.019 c -0.231,5.309 -0.912,10.558 -2.384,15.542 -0.719,2.49 -1.598,4.934 -2.782,7.216 -0.521,1.185 -1.25,2.243 -1.925,3.34 -0.346,0.544 -0.787,1.013 -1.175,1.526 -0.404,0.5 -0.78,1.027 -1.265,1.452 -0.913,0.891 -1.834,1.793 -2.852,2.74 -1.03,0.894 -1.878,1.968 -2.777,2.985 -1.667,2.147 -3.093,4.471 -4.181,6.948 -1.039,2.496 -1.777,5.101 -2.208,7.749 -0.428,2.647 -0.585,5.335 -0.333,8.003 z" /></g><g
           transform="translate(122.3984,448.3669)"
           id="g148"><path
             id="path150"
             style="fill:#FFFFFF;fill-opacity:1;fill-rule:nonzero;stroke:none"
             d="m 0,0 c 2.617,-1.141 5.003,-2.724 7.255,-4.457 2.244,-1.748 4.361,-3.676 6.206,-5.846 1.829,-2.19 3.389,-4.578 4.954,-6.926 1.565,-2.352 3.139,-4.694 4.606,-7.132 2.943,-4.871 4.909,-10.355 5.912,-15.993 0.874,-5.662 0.715,-11.472 -0.537,-16.995 l -0.198,0.024 c -0.009,5.646 -0.367,11.182 -1.367,16.607 -0.52,2.706 -1.102,5.402 -1.91,8.047 -0.859,2.625 -1.786,5.237 -2.874,7.81 -1.131,2.548 -2.487,5.015 -4.161,7.257 -1.673,2.245 -3.661,4.232 -5.647,6.171 -3.902,3.952 -7.944,7.731 -12.338,11.259 z" /></g><g
           transform="translate(189.8911,447.2741)"
           id="g152"><path
             id="path154"
             style="fill:#FFFFFF;fill-opacity:1;fill-rule:nonzero;stroke:none"
             d="m 0,0 0.902,-7.366 c 0.329,-2.441 0.667,-4.871 0.959,-7.316 0.253,-2.449 0.439,-4.932 0.93,-7.358 0.27,-1.207 0.566,-2.409 0.907,-3.597 0.375,-1.18 0.832,-2.335 1.244,-3.499 0.404,-1.167 0.952,-2.285 1.399,-3.433 0.474,-1.139 0.872,-2.303 1.384,-3.424 l 1.461,-3.387 1.535,-3.35 c 0.928,-2.28 2.067,-4.457 3.061,-6.719 0.479,-1.142 1.08,-2.218 1.606,-3.342 0.534,-1.118 1.061,-2.245 1.555,-3.399 l -0.169,-0.108 c -3.133,3.891 -5.857,8.139 -7.989,12.672 -0.511,1.143 -1.082,2.261 -1.52,3.435 l -1.297,3.525 c -0.458,1.165 -0.796,2.373 -1.145,3.574 -0.336,1.206 -0.681,2.406 -0.927,3.635 -0.287,1.216 -0.53,2.442 -0.854,3.643 -0.259,1.218 -0.556,2.425 -0.883,3.627 -0.614,2.408 -1.437,4.787 -1.942,7.242 -0.282,1.221 -0.446,2.464 -0.581,3.708 -0.163,1.241 -0.21,2.496 -0.279,3.745 -0.062,2.504 -0.023,5.021 0.443,7.504 z" /></g><g
           transform="translate(82.9805,395.4665)"
           id="g156"><path
             id="path158"
             style="fill:#FFFFFF;fill-opacity:1;fill-rule:nonzero;stroke:none"
             d="M 0,0 C 0.377,-1.037 0.735,-2.077 1.163,-3.075 1.365,-3.574 1.584,-4.07 1.828,-4.51 1.939,-4.732 2.08,-4.942 2.181,-5.046 2.219,-5.076 2.225,-5.047 2.11,-4.979 2.026,-4.97 2.069,-4.966 2.103,-4.952 l 0.09,0.024 c 0.377,0.114 0.855,0.396 1.29,0.661 0.448,0.263 0.92,0.507 1.422,0.697 1.012,0.375 2.058,0.717 3.279,0.802 L 8.287,-2.939 C 7.624,-3.977 6.757,-4.709 5.823,-5.347 4.858,-5.98 3.806,-6.28 2.473,-6.503 2.379,-6.514 2.26,-6.516 2.155,-6.517 c -0.104,0 -0.197,-0.013 -0.412,0.05 -0.401,0.095 -0.586,0.35 -0.721,0.525 -0.219,0.34 -0.323,0.627 -0.418,0.912 -0.179,0.572 -0.297,1.122 -0.401,1.675 -0.18,1.11 -0.332,2.205 -0.399,3.315 z" /></g><g
           transform="translate(21.8467,391.5803)"
           id="g160"><path
             id="path162"
             style="fill:#FFFFFF;fill-opacity:1;fill-rule:nonzero;stroke:none"
             d="m 0,0 c -0.54,-0.558 -1.117,-1.062 -1.718,-1.562 -0.31,-0.239 -0.615,-0.487 -0.98,-0.699 -0.098,-0.053 -0.18,-0.108 -0.294,-0.159 l -0.166,-0.077 c -0.092,-0.029 -0.24,-0.066 -0.321,-0.068 -0.383,-0.027 -0.623,0.034 -0.861,0.084 -0.909,0.206 -1.666,0.484 -2.245,1.049 -0.575,0.552 -1.081,1.175 -1.365,2.051 l 0.124,0.157 c 0.909,-0.044 1.627,-0.3 2.31,-0.577 0.685,-0.248 1.214,-0.782 1.722,-1.096 0.116,-0.07 0.247,-0.113 0.241,-0.13 0.014,-0.008 -0.043,-0.012 -0.043,-0.026 l 0.102,0.016 c 0.065,0.008 0.152,0.037 0.228,0.054 0.324,0.095 0.681,0.209 1.027,0.339 0.707,0.246 1.409,0.54 2.128,0.81 z" /></g><g
           transform="translate(153.9829,394.4231)"
           id="g164"><path
             id="path166"
             style="fill:#FFFFFF;fill-opacity:1;fill-rule:nonzero;stroke:none"
             d="m 0,0 c -0.136,-0.801 -0.39,-1.571 -0.777,-2.329 -0.197,-0.378 -0.448,-0.743 -0.788,-1.077 -0.338,-0.329 -0.81,-0.63 -1.386,-0.704 -0.587,-0.08 -1.108,0.049 -1.596,0.213 -0.486,0.166 -0.935,0.403 -1.247,0.748 -0.597,0.705 -0.923,1.567 -0.774,2.575 l 0.176,0.093 c 0.917,-0.36 1.524,-0.781 2.042,-1.182 0.251,-0.202 0.427,-0.453 0.634,-0.657 0.2,-0.195 0.458,-0.331 0.66,-0.343 0.428,-0.068 1.056,0.31 1.548,0.85 0.51,0.532 0.936,1.194 1.318,1.875 z" /></g><g
           transform="translate(201.5425,393.301)"
           id="g168"><path
             id="path170"
             style="fill:#FFFFFF;fill-opacity:1;fill-rule:nonzero;stroke:none"
             d="m 0,0 c 1.009,-0.445 2.008,-0.907 3.024,-1.289 0.5,-0.2 1.01,-0.384 1.496,-0.514 0.237,-0.073 0.485,-0.117 0.631,-0.116 0.048,0.006 0.032,0.031 -0.098,-0.005 -0.065,-0.054 -0.037,-0.02 -0.024,0.014 l 0.046,0.082 c 0.178,0.35 0.305,0.891 0.416,1.388 0.119,0.505 0.27,1.015 0.48,1.508 0.43,0.99 0.908,1.982 1.691,2.922 L 7.857,3.946 C 8.147,2.749 8.076,1.617 7.889,0.501 7.679,-0.633 7.167,-1.601 6.405,-2.717 6.348,-2.792 6.266,-2.879 6.195,-2.956 6.123,-3.031 6.067,-3.107 5.873,-3.218 5.527,-3.442 5.215,-3.399 4.995,-3.375 c -0.397,0.077 -0.676,0.2 -0.947,0.329 -0.536,0.267 -1.015,0.563 -1.486,0.87 -0.926,0.639 -1.821,1.287 -2.669,2.008 z" /></g><g
           transform="translate(17.9741,374.5178)"
           id="g172"><path
             id="path174"
             style="fill:#FFFFFF;fill-opacity:1;fill-rule:nonzero;stroke:none"
             d="m 0,0 c -0.404,-5.166 -0.307,-10.368 0.159,-15.508 0.459,-5.137 1.336,-10.248 2.916,-15.114 0.781,-2.439 1.785,-4.774 2.945,-7.04 1.167,-2.253 2.424,-4.446 3.97,-6.418 1.512,-2.012 3.354,-3.674 5.337,-5.404 0.968,-0.87 2.009,-1.903 2.506,-3.252 0.48,-1.344 0.415,-2.73 0.167,-4.011 l -0.199,0.018 c -0.036,1.289 -0.168,2.591 -0.768,3.632 -0.567,1.052 -1.539,1.802 -2.565,2.558 -2.104,1.459 -4.271,3.16 -5.992,5.228 -3.484,4.14 -5.571,9.145 -6.982,14.213 -1.414,5.083 -2.1,10.308 -2.355,15.521 -0.208,5.219 -0.016,10.44 0.663,15.601 z" /></g><g
           transform="translate(38.6904,319.9792)"
           id="g176"><path
             id="path178"
             style="fill:#FFFFFF;fill-opacity:1;fill-rule:nonzero;stroke:none"
             d="m 0,0 c -0.38,-0.637 -0.812,-1.226 -1.273,-1.823 -0.246,-0.289 -0.481,-0.577 -0.823,-0.861 -0.103,-0.073 -0.175,-0.14 -0.344,-0.218 -0.181,-0.085 -0.332,-0.114 -0.492,-0.134 -0.325,-0.037 -0.636,0.033 -0.892,0.127 -1.001,0.414 -1.641,1.005 -1.963,1.75 -0.302,0.742 -0.456,1.524 -0.24,2.409 l 0.185,0.075 c 0.771,-0.441 1.27,-0.948 1.731,-1.424 0.46,-0.442 0.683,-1.088 0.978,-1.338 0.067,-0.06 0.114,-0.09 0.15,-0.109 0.019,-0.009 0.048,-0.016 0.033,-0.027 0,-0.016 0.08,0.016 0.131,0.033 0.262,0.109 0.574,0.291 0.867,0.478 0.61,0.364 1.196,0.794 1.806,1.199 z" /></g><g
           transform="translate(47.5396,321.1101)"
           id="g180"><path
             id="path182"
             style="fill:#FFFFFF;fill-opacity:1;fill-rule:nonzero;stroke:none"
             d="m 0,0 c -0.615,-0.476 -1.25,-0.916 -1.886,-1.362 -0.641,-0.447 -1.273,-0.867 -1.995,-1.267 -0.164,-0.091 -0.473,-0.22 -0.742,-0.264 -0.273,-0.056 -0.551,-0.065 -0.803,-0.044 -0.512,0.03 -1.015,0.104 -1.414,0.329 -0.769,0.483 -1.287,1.232 -1.371,2.253 l 0.146,0.137 c 0.992,-0.068 1.674,-0.296 2.237,-0.572 0.269,-0.146 0.481,-0.377 0.72,-0.494 0.12,-0.063 0.233,-0.094 0.338,-0.11 0.118,-0.028 0.17,-0.016 0.36,0.038 0.685,0.207 1.416,0.492 2.138,0.743 l 2.176,0.789 z" /></g><g
           transform="translate(82.9678,376.0822)"
           id="g184"><path
             id="path186"
             style="fill:#FFFFFF;fill-opacity:1;fill-rule:nonzero;stroke:none"
             d="m 0,0 c 2.716,-4.318 5.205,-8.772 7.596,-13.281 2.349,-4.529 4.606,-9.111 6.703,-13.767 2.088,-4.657 4.256,-9.3 5.874,-14.152 1.672,-4.829 3.065,-9.759 4.079,-14.778 l -0.191,-0.058 c -1.05,2.339 -1.978,4.708 -2.935,7.066 l -2.829,7.076 c -1.871,4.716 -3.553,9.506 -5.467,14.212 -1.903,4.711 -3.969,9.355 -6.129,13.956 -2.144,4.61 -4.392,9.18 -6.872,13.622 z" /></g><g
           transform="translate(102.707,323.6482)"
           id="g188"><path
             id="path190"
             style="fill:#FFFFFF;fill-opacity:1;fill-rule:nonzero;stroke:none"
             d="m 0,0 c 0.855,-0.697 1.695,-1.408 2.573,-2.046 0.43,-0.326 0.871,-0.639 1.306,-0.892 0.209,-0.135 0.437,-0.243 0.578,-0.28 0.047,-0.007 0.038,0.021 -0.096,0.021 -0.077,-0.035 -0.041,-0.009 -0.02,0.019 l 0.066,0.067 c 0.265,0.291 0.531,0.778 0.77,1.228 0.249,0.456 0.53,0.907 0.864,1.327 0.677,0.84 1.401,1.669 2.406,2.368 L 8.624,1.718 C 8.585,0.486 8.215,-0.586 7.739,-1.612 7.235,-2.65 6.484,-3.446 5.454,-4.321 5.378,-4.378 5.277,-4.44 5.187,-4.496 5.098,-4.548 5.024,-4.607 4.808,-4.663 4.415,-4.787 4.125,-4.662 3.919,-4.582 c -0.362,0.181 -0.598,0.374 -0.825,0.57 -0.447,0.4 -0.829,0.812 -1.202,1.234 -0.723,0.861 -1.414,1.724 -2.04,2.644 z" /></g><g
           transform="translate(81.2974,375.9421)"
           id="g192"><path
             id="path194"
             style="fill:#FFFFFF;fill-opacity:1;fill-rule:nonzero;stroke:none"
             d="m 0,0 c -2.281,-1.804 -4.4,-3.758 -6.439,-5.793 -0.526,-0.49 -1.028,-1.005 -1.52,-1.532 l -1.512,-1.539 c -0.968,-1.066 -1.961,-2.108 -2.977,-3.133 l -3.006,-3.135 c -0.963,-1.083 -1.922,-2.175 -2.832,-3.306 -0.906,-1.134 -1.698,-2.354 -2.505,-3.561 -0.827,-1.192 -1.521,-2.473 -2.225,-3.743 L -25.1,-29.56 c -0.657,-1.293 -1.343,-2.567 -2.031,-3.839 -0.34,-0.639 -0.697,-1.267 -1.021,-1.914 l -0.947,-1.954 c -0.628,-1.303 -1.3,-2.583 -1.961,-3.869 -1.301,-2.584 -2.54,-5.2 -3.909,-7.763 -1.257,-2.615 -2.53,-5.228 -3.944,-7.799 l -0.186,0.072 c 0.796,2.814 1.732,5.585 2.685,8.355 1.084,2.715 2.21,5.419 3.44,8.076 1.348,2.599 2.652,5.223 4.2,7.713 0.754,1.256 1.511,2.509 2.296,3.744 0.795,1.229 1.697,2.392 2.54,3.587 l 1.268,1.788 c 0.441,0.583 0.892,1.159 1.32,1.749 0.882,1.164 1.678,2.387 2.543,3.562 0.863,1.177 1.675,2.394 2.486,3.619 l 2.625,3.537 c 0.944,1.125 1.927,2.22 2.957,3.27 1.077,1.005 2.098,2.064 3.258,2.98 2.25,1.891 4.663,3.645 7.386,4.822 z" /></g><g
           transform="translate(150.7632,375.9563)"
           id="g196"><path
             id="path198"
             style="fill:#FFFFFF;fill-opacity:1;fill-rule:nonzero;stroke:none"
             d="m 0,0 c -3.941,-3.919 -7.608,-8.11 -11.078,-12.439 -3.476,-4.324 -6.75,-8.808 -9.674,-13.501 -2.926,-4.695 -5.409,-9.625 -7.649,-14.631 -1.107,-2.51 -2.122,-5.063 -2.971,-7.679 -0.236,-0.648 -0.398,-1.315 -0.602,-1.974 -0.208,-0.659 -0.377,-1.326 -0.527,-1.999 -0.39,-1.332 -0.603,-2.695 -0.913,-4.062 l -0.199,0.017 c -0.054,5.621 1.314,11.229 3.367,16.468 2.064,5.264 5.011,10.103 8.153,14.733 3.133,4.647 6.597,9.047 10.249,13.27 3.697,4.185 7.571,8.206 11.709,11.944 z" /></g><g
           transform="translate(153.0693,376.1023)"
           id="g200"><path
             id="path202"
             style="fill:#FFFFFF;fill-opacity:1;fill-rule:nonzero;stroke:none"
             d="m 0,0 c 3.749,-3.602 7.041,-7.655 10.008,-11.936 2.912,-4.317 5.486,-8.891 7.496,-13.731 2.017,-4.82 3.68,-9.882 4.233,-15.137 0.17,-1.306 0.208,-2.627 0.293,-3.938 -0.023,-1.318 0.053,-2.631 -0.074,-3.943 -0.099,-2.625 -0.582,-5.22 -1.176,-7.752 l -0.198,0.029 c 0.164,5.194 0.027,10.308 -0.827,15.337 -0.164,1.262 -0.416,2.51 -0.665,3.758 -0.267,1.243 -0.499,2.498 -0.833,3.728 -0.57,2.487 -1.353,4.926 -2.24,7.327 -1.781,4.804 -4.135,9.402 -6.847,13.776 -2.71,4.375 -5.772,8.571 -9.309,12.337 z" /></g><g
           transform="translate(121.2217,321.7483)"
           id="g204"><path
             id="path206"
             style="fill:#FFFFFF;fill-opacity:1;fill-rule:nonzero;stroke:none"
             d="m 0,0 c -0.54,-0.558 -1.117,-1.062 -1.718,-1.562 -0.31,-0.239 -0.615,-0.487 -0.98,-0.699 -0.098,-0.053 -0.18,-0.108 -0.294,-0.159 l -0.166,-0.077 c -0.092,-0.029 -0.24,-0.066 -0.321,-0.068 -0.383,-0.027 -0.623,0.034 -0.861,0.084 -0.909,0.206 -1.666,0.484 -2.245,1.049 -0.575,0.552 -1.081,1.175 -1.365,2.051 l 0.124,0.157 c 0.909,-0.043 1.627,-0.3 2.31,-0.577 0.685,-0.248 1.214,-0.782 1.722,-1.096 0.116,-0.07 0.247,-0.113 0.241,-0.13 0.014,-0.008 -0.043,-0.012 -0.043,-0.026 l 0.102,0.016 c 0.065,0.008 0.152,0.037 0.228,0.054 0.324,0.095 0.681,0.209 1.027,0.339 0.707,0.246 1.409,0.54 2.128,0.811 z" /></g><g
           transform="translate(176.6797,322.948)"
           id="g208"><path
             id="path210"
             style="fill:#FFFFFF;fill-opacity:1;fill-rule:nonzero;stroke:none"
             d="m 0,0 c -0.135,-0.8 -0.39,-1.571 -0.776,-2.329 -0.197,-0.378 -0.449,-0.743 -0.789,-1.077 -0.337,-0.329 -0.81,-0.63 -1.386,-0.704 -0.587,-0.08 -1.107,0.049 -1.596,0.213 -0.486,0.166 -0.934,0.403 -1.247,0.748 -0.597,0.705 -0.923,1.567 -0.774,2.575 l 0.177,0.094 c 0.916,-0.361 1.523,-0.782 2.042,-1.183 0.251,-0.202 0.427,-0.453 0.633,-0.656 0.2,-0.196 0.458,-0.332 0.66,-0.344 0.428,-0.068 1.056,0.31 1.549,0.85 0.509,0.532 0.935,1.194 1.317,1.875 z" /></g></g></g></g></svg>