<?xml version="1.0" encoding="utf-8"?>
<!-- Generator: Adobe Illustrator 21.1.0, SVG Export Plug-In . SVG Version: 6.00 Build 0)  -->
<svg version="1.1" id="Ebene_1" xmlns="http://www.w3.org/2000/svg" xmlns:xlink="http://www.w3.org/1999/xlink" x="0px" y="0px"
	 viewBox="0 0 141.7 34" style="enable-background:new 0 0 141.7 34;" xml:space="preserve">
<style type="text/css">
	.st0{fill:#fefefe;}
</style>
<g>
	<path class="st0" d="M4.9,10.9c-0.2-0.1-0.4-0.3-0.5-0.6S4.1,9.9,4.1,9.7c0-0.2,0.1-0.3,0.1-0.4S4.4,9.1,4.5,9s0.2-0.1,0.3-0.2s0.2-0.1,0.3-0.1
		l0.2,0.1c0,0,0.1,0.1,0.1,0.1S5.6,9,5.6,9c0.1,0,0.1-0.1,0.1-0.1s0-0.1,0.1-0.2c0-0.1,0.1-0.2,0.1-0.3S6,8.2,6,8.2C6,8.1,6,8,6,8
		s0-0.1,0-0.1C6,7.8,6,7.8,6,7.8s-0.1,0-0.1,0c0,0,0,0-0.1,0s-0.1,0-0.1,0C5.6,7.6,5.5,7.6,5.5,7.5S5.4,7.4,5.4,7.3S5.3,7.2,5.3,7.1
		S5.2,7.1,5.2,7L5,6.9l0.1-0.1c0,0,0,0,0-0.1s0-0.1,0-0.1c0-0.1,0-0.2,0-0.2l0-0.1c0.1-0.1,0.1-0.2,0.1-0.2l0.1-0.1
		c0.2,0,0.4-0.1,0.6-0.2s0.4-0.1,0.6-0.2S6.8,5.5,7,5.4s0.4-0.1,0.6-0.2c0.1-0.1,0.1-0.1,0.2-0.1s0.1,0,0.2,0c0.1,0,0.1,0,0.2,0
		s0.1,0,0.1-0.1C8.3,5,8.5,5,8.6,4.9c0.2-0.1,0.5-0.1,0.9-0.2s0.8-0.1,1.3-0.2l0.2,0c0,0,0.1,0,0.1,0s0.1,0,0.1,0
		c0.4,0,0.7,0.1,0.8,0.4c0.1,0,0.1,0.1,0.2,0.1s0.1,0.1,0.2,0.2c0,0,0.1,0.1,0.1,0.1s0.1,0,0.1,0.1l0.1,0.1c0.1,0.2,0.1,0.4,0,0.6
		c0,0.1-0.1,0.1-0.2,0.2s-0.1,0-0.2,0l-0.2,0.1c-0.1,0-0.2,0-0.2,0s-0.1,0-0.2,0c-0.2,0-0.5,0-0.8,0s-0.6,0.1-0.9,0.1
		S9.6,6.6,9.3,6.6S8.7,6.8,8.5,6.9C8.4,6.9,8.4,7,8.3,7c0,0-0.1,0-0.1,0.1c0,0.1,0,0.1,0,0.2s0,0.1,0,0.2c0,0,0,0.1,0,0.1
		s0,0.1,0,0.1C7.9,7.9,7.8,8.1,7.8,8.4L7.8,8.5c0,0-0.1,0.1-0.1,0.1s0,0.1,0,0.2l0,0.1c0.2,0,0.3,0,0.5-0.1s0.3,0,0.5-0.1
		c0.2,0,0.4-0.1,0.7-0.1s0.5,0,0.7,0h0.5l-0.1,0.1l0.1,0L10.5,9c0.1,0,0.1,0,0.1,0.1s0.1,0,0.1,0l0.1,0.1c0,0,0.1,0.1,0.1,0.1
		s0.1,0.1,0.1,0.2l0,0.1l-0.6,0.7l-0.1,0.1l-0.1,0c-0.1,0-0.3,0-0.4,0c-0.1,0-0.1,0-0.2,0.1s-0.1,0-0.2,0c-0.2,0-0.3,0.1-0.5,0.1
		s-0.3,0-0.4,0.1c-0.2,0-0.3,0.1-0.5,0.1s-0.3,0.1-0.5,0.1c-0.1,0-0.1,0-0.2,0s0,0,0,0c-0.1,0-0.2,0-0.2,0s-0.2,0-0.2,0.1
		c0,0-0.1,0.1-0.1,0.1s0,0.1,0,0.1c0,0.1,0,0.1-0.1,0.2s-0.1,0.1-0.1,0.2l0,0.2c-0.1,0-0.1,0-0.1,0s0,0,0,0c0,0.1,0,0.1,0,0.2
		s0,0.1-0.1,0.2c0,0,0,0.1,0,0.1s0,0,0,0.1c0.1,0.1,0.1,0.3,0.1,0.5c0,0.1-0.1,0.3-0.2,0.4S6,13.3,5.9,13.4c-0.1,0-0.2,0-0.3,0
		s-0.1,0-0.2-0.1c0,0-0.1,0-0.1,0s-0.1,0-0.1,0l-0.1-0.1C5,13.1,5,13,5,13s-0.1-0.1-0.1-0.1c0-0.1-0.1-0.1-0.1-0.2s-0.1-0.1-0.1-0.2
		c-0.1-0.3-0.1-0.5,0-0.7s0.1-0.4,0.1-0.5c0-0.1,0-0.1,0-0.2S4.9,11,4.9,10.9z"/>
	<path class="st0" d="M17.9,9.8c0,0.1,0,0.2,0,0.3s0.1,0.2,0.1,0.3s0.1,0.2,0.1,0.3s0.1,0.2,0.1,0.3c0,0.1,0,0.2,0,0.4s0,0.3-0.1,0.4
		s-0.1,0.2-0.2,0.3s-0.1,0.2-0.2,0.2c-0.1,0.1-0.2,0.3-0.4,0.3s-0.3,0.2-0.4,0.3c-0.1,0.1-0.2,0.1-0.3,0.1s-0.2,0-0.3,0.1
		c-0.1,0-0.2,0.1-0.3,0.1s-0.2,0.1-0.4,0.1s-0.3,0.1-0.4,0.1s-0.2,0-0.3,0c-0.2,0.1-0.5,0.1-0.7,0.2s-0.5,0-0.8-0.1
		c-0.3,0-0.5,0-0.8,0s-0.4-0.2-0.6-0.3s-0.3-0.3-0.5-0.5s-0.2-0.4-0.3-0.6c-0.1-0.4,0-0.8,0-1.2s0.2-0.7,0.4-1s0.4-0.6,0.6-0.9
		s0.4-0.5,0.7-0.8c0,0,0.1,0,0.1,0s0.1,0,0.1-0.1s0-0.1,0.1-0.1s0.1-0.1,0.1-0.1c0.1-0.1,0.1-0.2,0.2-0.3s0.2-0.1,0.3-0.3
		c0.1,0,0.1,0,0.2-0.1s0.1-0.1,0.1-0.1s0.1-0.1,0.1-0.1S14.3,7,14.4,7V6.9c0.1-0.1,0.2-0.1,0.3-0.2s0.1-0.2,0.2-0.3
		c0.1,0,0.1,0,0.2,0s0.1,0,0.2,0c0.1-0.1,0.1-0.2,0.2-0.2s0.1-0.1,0.2-0.2C15.8,6,15.9,6,16,6s0.2,0.1,0.3,0.2c0,0.1,0,0.1,0.1,0.2
		s0.1,0.1,0.1,0.1s0.1,0.1,0.1,0.1s0.1,0.1,0.1,0.2c0,0,0.1,0,0.1,0s0,0,0.1,0c0,0.1,0.1,0.2,0.1,0.2S17,7,17,7.1
		c0,0.1-0.1,0.2-0.1,0.2s-0.1,0.1-0.1,0.2c0,0.1,0,0.1,0,0.1s0.1,0,0.1,0.1c0,0.1,0,0.1,0,0.2c0.2,0.3,0.4,0.6,0.5,1
		S17.7,9.5,17.9,9.8z M16.4,10.9c0-0.1,0.1-0.2,0.1-0.2s0.1-0.1,0.1-0.2c0-0.1-0.1-0.1-0.1-0.1s0-0.1,0-0.2
		c-0.2-0.2-0.3-0.5-0.4-0.8s-0.3-0.5-0.4-0.8c0,0,0,0.1-0.1,0.1s-0.1,0-0.1,0c0,0.1,0,0.1-0.1,0.1s-0.1,0-0.1,0s-0.1,0-0.1,0
		S15,8.7,15,8.7c-0.2,0.2-0.5,0.4-0.7,0.5s-0.4,0.4-0.6,0.6c0,0-0.1,0-0.1,0s0,0-0.1,0c-0.1,0.1-0.1,0.3-0.2,0.4s-0.2,0.2-0.3,0.4
		s-0.2,0.3-0.2,0.4s-0.1,0.3-0.1,0.5c0.1,0.1,0.3,0.2,0.5,0.2s0.4,0,0.6,0s0.4,0,0.6-0.1s0.4-0.1,0.5-0.1c0.3-0.1,0.6-0.2,0.8-0.3
		S16.1,11,16.4,10.9z"/>
	<path class="st0" d="M20.5,12.1c-0.1,0.3-0.2,0.5-0.2,0.7s-0.2,0.3-0.3,0.5c-0.1,0-0.2,0-0.2,0s-0.1,0.1-0.1,0.1c-0.1,0-0.1,0-0.2,0
		s-0.1,0-0.1-0.1s-0.1,0-0.1-0.1s-0.1,0-0.2,0c0-0.1,0-0.1-0.1-0.2s-0.1-0.1-0.2-0.1c0-0.1,0-0.1,0-0.2s0-0.1,0-0.1s0-0.1,0-0.1
		s0-0.1,0-0.1c0,0-0.1,0-0.1-0.1s-0.1-0.1-0.1-0.2c0-0.1,0-0.3,0.1-0.4s0.1-0.2,0.1-0.4s0.1-0.2,0.1-0.3s0-0.2,0-0.3
		c0,0,0.1,0,0.1,0s0-0.1,0-0.1s0-0.1,0-0.2s0-0.1,0-0.1c0.1-0.2,0.1-0.4,0.2-0.6s0.1-0.4,0.1-0.6s0.1-0.4,0.1-0.6s0.1-0.4,0.2-0.6
		c0.1,0,0.2,0,0.3,0s0.2,0.1,0.2,0.1c0.2-0.2,0.4-0.3,0.5-0.6s0.3-0.4,0.5-0.7s0.3-0.4,0.5-0.6s0.5-0.3,0.8-0.3
		c0.2,0.1,0.3,0.2,0.5,0.4s0.3,0.3,0.5,0.5c0.1,0,0.1,0.1,0.2,0.1s0.1,0.1,0.2,0.1v0.1C23.9,7.3,24,7.4,24,7.5s0.1,0.2,0.2,0.4
		s0.1,0.3,0.1,0.4s0.1,0.3,0.2,0.4c0,0,0,0.1,0,0.1s0,0.1,0,0.1s0,0.1,0,0.1s0,0.1,0,0.1c0,0.3-0.1,0.6-0.3,0.8s-0.4,0.4-0.7,0.5
		s-0.6,0.3-0.9,0.3s-0.6,0.2-0.9,0.3c0,0,0,0,0,0s0,0,0,0.1c0.2,0.1,0.3,0.2,0.4,0.3s0.2,0.1,0.3,0.2s0.2,0.1,0.3,0.1
		s0.3,0.1,0.5,0.1s0.4,0.1,0.5,0.1s0.2,0.1,0.3,0.1s0.2,0,0.3,0s0.2,0,0.4,0c0.1,0.1,0.1,0.2,0.2,0.3s0.1,0.2,0.1,0.3s0,0.2,0,0.3
		s0,0.2-0.1,0.2c0,0,0,0,0.1,0s0.1,0,0.1,0c0,0-0.1,0.1-0.1,0.1s-0.1,0.1-0.1,0.1s-0.1,0.1-0.1,0.1s-0.1,0.1-0.2,0.1
		c-0.2,0.1-0.5,0.1-0.9,0s-0.8-0.2-1.4-0.5c-0.3-0.1-0.5-0.2-0.7-0.3s-0.3-0.2-0.5-0.2s-0.2-0.2-0.4-0.3S20.6,12.2,20.5,12.1z
		 M22.1,8.1c-0.1,0.1-0.2,0.2-0.3,0.3s-0.2,0.2-0.3,0.3s-0.2,0.2-0.3,0.4s-0.1,0.3-0.2,0.5c0.3,0,0.6-0.1,0.9-0.2s0.6-0.2,0.8-0.3
		c0-0.2-0.1-0.4-0.3-0.6S22.3,8.1,22.1,8.1z"/>
	<path class="st0" d="M30.2,12.9c-0.1-0.1-0.1-0.1-0.1-0.2s-0.1-0.2-0.2-0.2c0-0.1,0-0.3-0.1-0.4s-0.1-0.3-0.1-0.5s0-0.3-0.1-0.5s0-0.3,0-0.4
		c0-0.1,0-0.1,0.1-0.2s0.1-0.1,0.1-0.2s0.1-0.1,0.1-0.2s0-0.1,0-0.2c0,0,0.1,0,0.1-0.1s0-0.1,0.1,0c0.1-0.2,0.1-0.3,0.2-0.5
		s0.1-0.3,0.2-0.4s0.1-0.3,0.2-0.4s0.1-0.3,0.2-0.5c-0.1-0.1-0.2-0.3-0.3-0.4s-0.1-0.3-0.1-0.4s-0.1-0.3-0.1-0.5s0-0.3-0.1-0.5
		c0.1-0.1,0.2-0.3,0.3-0.3s0.3-0.2,0.4-0.2s0.3-0.1,0.5-0.1s0.4-0.1,0.6-0.1c0.4-0.1,0.7-0.2,1-0.3S33.8,5,34.1,5s0.6-0.1,0.9-0.1
		s0.7-0.1,1.1-0.2c0,0,0,0,0,0s0,0,0.1,0c0,0.1,0.1,0.1,0.1,0.1c0,0,0,0,0-0.1s0,0,0-0.1c0,0,0,0,0.1,0s0.1,0,0.1,0s0,0,0.1,0
		s0,0,0-0.1c0.1,0.2,0.2,0.3,0.4,0.4s0.3,0.2,0.5,0.3c0,0.1,0,0.1,0,0.2s0,0.1,0,0.1s0,0.1,0,0.1s0,0.1,0,0.1
		c-0.1,0.2-0.3,0.4-0.4,0.5s-0.3,0.2-0.5,0.3S36,6.7,35.8,6.7s-0.4,0.1-0.6,0.1S34.8,6.9,34.6,7S34.2,7.1,34,7.2c-0.1,0-0.1,0-0.2,0
		s-0.1,0-0.2,0s-0.1,0-0.2,0s-0.1,0-0.2,0c-0.1,0.1-0.1,0.1-0.2,0.1s-0.2,0-0.3,0.1c0,0.1,0.1,0.2,0.1,0.3s0,0.2,0,0.2
		c0.3,0,0.7,0,1.1,0s0.8-0.1,1.2-0.1c0,0,0,0.1,0,0.1s0,0,0,0.1c0.1,0,0.1,0.1,0.2,0.2s0.1,0.1,0.2,0.2s0.1,0.1,0.2,0.2
		s0.2,0.1,0.2,0.1c0,0.1,0.1,0.2,0.1,0.2s0,0.2,0,0.3c-0.2,0.1-0.3,0.2-0.5,0.3S35.2,9.7,35,9.7s-0.3,0.2-0.5,0.2S34.1,10,33.9,10
		c0,0-0.1,0-0.1,0s-0.1,0-0.1,0c-0.1,0-0.2,0.1-0.3,0s-0.2,0-0.3,0C33,10,32.8,10,32.7,10s-0.3,0-0.4-0.1c-0.1,0.2-0.3,0.4-0.4,0.6
		s-0.2,0.5-0.3,0.7c0.3,0,0.6,0.1,0.8,0.1s0.4,0,0.6,0s0.4,0,0.6-0.1s0.4,0,0.7,0c0.2-0.1,0.4-0.2,0.7-0.2s0.5-0.1,0.7-0.2
		c0.1,0,0.1,0.1,0.2,0.1s0.1,0.1,0.2,0.2s0.1,0.1,0.2,0.2s0.1,0.1,0.2,0c0,0,0.1,0.1,0.1,0.1s0,0.1,0,0.2s0,0.1,0.1,0.1s0.1,0,0.1,0
		c-0.1,0.3-0.3,0.5-0.5,0.7s-0.4,0.3-0.6,0.4s-0.5,0.2-0.8,0.2s-0.6,0.1-1,0.2c-0.1,0-0.2,0-0.2,0s-0.1,0-0.2,0
		c-0.2,0-0.5,0.1-0.8,0.1s-0.6,0.1-0.9,0s-0.6,0-0.9-0.1S30.4,13.1,30.2,12.9z"/>
	<path class="st0" d="M40.9,11.3c0,0.1,0,0.2-0.1,0.3s-0.1,0.2-0.2,0.3s-0.1,0.2-0.2,0.3s-0.1,0.2-0.2,0.2c0,0.1,0,0.2,0,0.2s0,0.1,0,0.2
		c-0.1,0.3-0.3,0.5-0.5,0.6s-0.5,0.1-0.7-0.1c-0.1-0.1-0.2-0.1-0.2-0.2s-0.1-0.2-0.2-0.2c0-0.1,0-0.3,0-0.4s-0.1-0.2-0.2-0.2
		c0-0.2-0.1-0.3-0.1-0.5s-0.1-0.4-0.1-0.6s-0.1-0.4-0.1-0.6s0-0.4,0-0.5c0-0.1,0-0.1,0-0.2S38,9.8,37.9,9.7c0-0.2,0-0.4,0-0.6
		s0-0.4,0-0.6c0-0.2,0-0.4,0-0.6s0-0.4-0.1-0.6s0-0.4,0-0.5s0-0.3,0.1-0.4c0-0.1,0.1-0.2,0.2-0.2s0.2-0.1,0.2-0.2
		c0.2,0,0.3,0.1,0.4,0.2s0.1,0.2,0.1,0.4c0.2,0.1,0.3,0.2,0.4,0.4s0.2,0.3,0.2,0.5s0.1,0.4,0.1,0.6s0,0.4,0.1,0.7s0,0.4,0,0.6
		s0,0.4,0.1,0.5c0.3-0.4,0.5-0.8,0.7-1.1s0.4-0.6,0.6-0.9s0.4-0.6,0.7-0.9s0.6-0.6,1-1c0.1,0,0.1,0,0.2,0s0.1,0,0.1,0.1s0.1,0,0.1,0
		s0.1,0,0.2,0c0,0.1,0.1,0.1,0.1,0.2s0,0.1,0,0.1s0,0.1,0,0.1s0.1,0.1,0.1,0.2c0,0,0,0.1,0,0.1s0,0.1,0,0.1s0,0.1,0,0.1s0,0,0.1,0
		c0,0.1-0.1,0.2-0.1,0.3s-0.1,0.2-0.1,0.3C43.4,8,43.2,8.2,43,8.5S42.5,9,42.3,9.3s-0.4,0.5-0.6,0.8s-0.4,0.6-0.5,0.9
		c0,0-0.1,0-0.1,0s0,0-0.1,0.1S41,11.2,40.9,11.3C41,11.2,41,11.3,40.9,11.3z"/>
	<path class="st0" d="M49.4,6.7c0,0.1,0,0.1,0,0.1s0,0.1,0,0.1s0,0,0,0.1s0,0.1,0,0.1c-0.2,0.3-0.4,0.4-0.6,0.5s-0.4,0.2-0.7,0.2S47.6,8,47.4,8
		s-0.5,0.1-0.8,0.3c-0.1,0-0.2,0-0.3,0s-0.2,0.1-0.4,0c0,0-0.1,0.1-0.2,0.1s-0.1,0-0.2,0.1c0,0.1,0,0.1,0,0.2s0,0.1,0,0.2
		c0.3,0,0.6,0,0.9,0s0.7-0.1,1-0.1c0,0,0,0.1,0,0.1s0,0,0,0.1c0.1,0,0.1,0.1,0.2,0.1s0.1,0.1,0.2,0.2S48,9.4,48,9.4s0.1,0,0.2,0
		c0,0.1,0.1,0.1,0.1,0.2s0,0.2,0,0.2c-0.1,0.1-0.3,0.2-0.4,0.3s-0.3,0.2-0.4,0.2s-0.3,0.1-0.4,0.2s-0.3,0.1-0.5,0.1c0,0-0.1,0-0.1,0
		s0,0-0.1,0c-0.1,0-0.2,0.1-0.3,0s-0.2,0-0.3,0c-0.1,0-0.2-0.1-0.3-0.1s-0.2,0-0.3,0c-0.1,0.2-0.2,0.3-0.3,0.5s-0.2,0.4-0.3,0.6
		c0.3,0,0.5,0.1,0.7,0s0.3,0,0.5,0s0.3,0,0.5-0.1s0.4,0,0.6,0c0.2-0.1,0.3-0.1,0.6-0.2s0.4-0.1,0.6-0.1c0.1,0,0.1,0.1,0.2,0.1
		s0.1,0.1,0.1,0.2s0.1,0.1,0.1,0.1s0.1,0.1,0.2,0c0,0,0.1,0.1,0.1,0.1s0,0.1,0,0.1s0,0.1,0,0.1s0.1,0,0.1,0
		c-0.1,0.3-0.3,0.5-0.4,0.6s-0.3,0.2-0.5,0.3s-0.4,0.1-0.7,0.2s-0.5,0.1-0.8,0.1c-0.1,0-0.1,0-0.2,0s-0.1,0-0.2,0
		c-0.2,0-0.4,0.1-0.6,0.1s-0.5,0-0.8,0s-0.5,0-0.7-0.1s-0.4-0.2-0.6-0.3c-0.1-0.1-0.1-0.1-0.1-0.2s-0.1-0.1-0.2-0.2
		c0-0.1,0-0.2,0-0.3s0-0.3-0.1-0.4s0-0.3-0.1-0.4s0-0.3,0-0.4c0-0.1,0.1-0.2,0.1-0.3s0.1-0.2,0.1-0.3c0,0,0.1,0,0.1-0.1s0,0,0.1,0
		c0-0.1,0.1-0.3,0.2-0.4s0.1-0.2,0.2-0.4s0.1-0.2,0.2-0.4s0.1-0.3,0.2-0.4c-0.1-0.1-0.2-0.2-0.2-0.3s-0.1-0.2-0.1-0.4s0-0.2-0.1-0.4
		s0-0.3-0.1-0.4c0.1-0.1,0.2-0.2,0.3-0.3s0.2-0.1,0.4-0.2s0.3-0.1,0.4-0.1s0.3-0.1,0.5-0.1c0.3-0.1,0.6-0.2,0.8-0.2s0.5-0.1,0.7-0.1
		s0.5-0.1,0.7-0.1s0.6-0.1,0.9-0.1c0.1,0.1,0.1,0.1,0.2,0.1c0-0.1,0.1-0.1,0.1-0.1s0.1,0,0.1-0.1c0.1,0.1,0.2,0.2,0.3,0.3
		S49.3,6.7,49.4,6.7z"/>
	<path class="st0" d="M50.9,12.1c-0.1,0.3-0.2,0.5-0.2,0.7s-0.2,0.3-0.3,0.5c-0.1,0-0.2,0-0.2,0s-0.1,0.1-0.1,0.1c-0.1,0-0.1,0-0.2,0
		s-0.1,0-0.1-0.1s-0.1,0-0.1-0.1s-0.1,0-0.2,0c0-0.1,0-0.1-0.1-0.2s-0.1-0.1-0.2-0.1c0-0.1,0-0.1,0-0.2s0-0.1,0-0.1s0-0.1,0-0.1
		s0-0.1,0-0.1c0,0-0.1,0-0.1-0.1s-0.1-0.1-0.1-0.2c0-0.1,0-0.3,0.1-0.4s0.1-0.2,0.1-0.4s0.1-0.2,0.1-0.3s0-0.2,0-0.3
		c0,0,0.1,0,0.1,0s0-0.1,0-0.1s0-0.1,0-0.2s0-0.1,0-0.1c0.1-0.2,0.1-0.4,0.2-0.6s0.1-0.4,0.1-0.6s0.1-0.4,0.1-0.6S50,8.1,50.1,8
		c0.1,0,0.2,0,0.3,0s0.2,0.1,0.2,0.1C50.8,8,51,7.8,51.1,7.6s0.3-0.4,0.5-0.7s0.3-0.4,0.5-0.6s0.5-0.3,0.8-0.3
		c0.2,0.1,0.3,0.2,0.5,0.4s0.3,0.3,0.5,0.5C54,6.9,54,6.9,54,7s0.1,0.1,0.2,0.1v0.1c0.1,0.1,0.2,0.2,0.2,0.3s0.1,0.2,0.2,0.4
		s0.1,0.3,0.1,0.4s0.1,0.3,0.2,0.4c0,0,0,0.1,0,0.1s0,0.1,0,0.1s0,0.1,0,0.1s0,0.1,0,0.1c0,0.3-0.1,0.6-0.3,0.8s-0.4,0.4-0.7,0.5
		s-0.6,0.3-0.9,0.3s-0.6,0.2-0.9,0.3c0,0,0,0,0,0s0,0,0,0.1c0.2,0.1,0.3,0.2,0.4,0.3s0.2,0.1,0.3,0.2s0.2,0.1,0.3,0.1
		s0.3,0.1,0.5,0.1s0.4,0.1,0.5,0.1s0.2,0.1,0.3,0.1s0.2,0,0.3,0s0.2,0,0.4,0c0.1,0.1,0.1,0.2,0.2,0.3s0.1,0.2,0.1,0.3s0,0.2,0,0.3
		s0,0.2-0.1,0.2c0,0,0,0,0.1,0s0.1,0,0.1,0c0,0-0.1,0.1-0.1,0.1s-0.1,0.1-0.1,0.1s-0.1,0.1-0.1,0.1s-0.1,0.1-0.2,0.1
		c-0.2,0.1-0.5,0.1-0.9,0s-0.8-0.2-1.4-0.5c-0.3-0.1-0.5-0.2-0.7-0.3s-0.3-0.2-0.5-0.2s-0.2-0.2-0.4-0.3S51,12.2,50.9,12.1z
		 M52.6,8.1c-0.1,0.1-0.2,0.2-0.3,0.3S52.1,8.6,52,8.7s-0.2,0.2-0.3,0.4s-0.1,0.3-0.2,0.5c0.3,0,0.6-0.1,0.9-0.2S53,9.1,53.2,9
		c0-0.2-0.1-0.4-0.3-0.6S52.7,8.1,52.6,8.1z"/>
	<path class="st0" d="M59,10.2c-0.1,0-0.1,0.1-0.1,0.2s-0.1,0.1-0.1,0.2c0,0.1-0.1,0.2-0.1,0.2s-0.1,0.1-0.2,0.2c0,0.1-0.1,0.2-0.1,0.3
		s-0.1,0.1-0.2,0.2c-0.1,0.3-0.3,0.7-0.6,1c0,0.1,0,0.1-0.1,0.2s-0.1,0.1-0.1,0.2c0,0,0,0,0,0.1s0,0,0,0.1l0,0.1
		c0,0.1-0.1,0.1-0.1,0.2s-0.1,0.1-0.1,0.1c0,0,0,0.1-0.1,0.1l-0.2,0.1c-0.6-0.1-0.9-0.4-1-0.9l0-0.1c0,0,0-0.1,0-0.1s0-0.1,0-0.1
		c0-0.1,0.1-0.2,0.1-0.3s0.1-0.2,0.2-0.3c0-0.1,0.1-0.1,0.1-0.3s0.1-0.3,0.3-0.5c0.1-0.2,0.2-0.3,0.3-0.4s0.1-0.2,0.2-0.3
		c-0.1-0.1-0.2-0.2-0.3-0.3c-0.1-0.2-0.2-0.4-0.3-0.6S56.3,9,56.2,8.9c0-0.1,0-0.2,0-0.3s0-0.1,0-0.2c0-0.1,0-0.2-0.1-0.3
		s0-0.2,0-0.3C56,7.8,56,7.8,56,7.7l0-0.1c0-0.1,0-0.1,0-0.2s0-0.2-0.1-0.3c0-0.1,0-0.2-0.1-0.3s0-0.2,0-0.3s0-0.2,0.1-0.3
		s0.1-0.2,0.2-0.2l0.2,0c0.1,0,0.1,0.1,0.2,0.1s0.1,0.1,0.2,0.1c0.1,0,0.2,0.1,0.2,0.1s0.2,0.1,0.2,0.2l0.1,0.2l0.2,0.1V7
		c0,0,0,0.1,0,0.1c0,0.1,0,0.2,0,0.2l0,0.1c0,0.1,0,0.2,0,0.3s0,0.2,0.1,0.3s0,0.2,0.1,0.3s0,0.2,0,0.3c0,0,0.1-0.1,0.1-0.1
		c0,0,0,0,0,0s0,0,0,0l0.7-0.9l0-0.1l0.2-0.2C59,7.1,59.1,7.1,59.1,7s0.1-0.1,0.1-0.2l0.1-0.1C59.6,6.3,60,6.1,60.5,6l0.2,0l0,0.2
		c0,0.1,0.1,0.2,0.2,0.2s0.2,0.1,0.3,0.2l0.1,0.1c0,0.1,0.1,0.1,0.1,0.2s0,0.1,0,0.1l0,0.1c-0.1,0.2-0.1,0.3-0.2,0.4
		S61,7.6,60.9,7.7c-0.1,0.1-0.1,0.1-0.2,0.2S60.6,8,60.6,8.1l-0.1,0.1c-0.2,0.1-0.3,0.2-0.3,0.4l0,0.1H60c0,0,0,0-0.1,0
		s-0.1,0.1-0.1,0.2C59.8,9,59.7,9,59.7,9.1s0,0-0.1,0.1c0,0,0,0.1,0,0.1s0,0.1,0,0.1c-0.1,0.1-0.2,0.2-0.2,0.2s-0.1,0.1-0.1,0.2
		s-0.1,0.1-0.1,0.2s-0.1,0.1-0.1,0.2L59,10.2z"/>
	<path class="st0" d="M68.4,11.3c0,0.1,0,0.2-0.1,0.3s-0.1,0.2-0.2,0.3S68,12,68,12.1s-0.1,0.2-0.2,0.2c0,0.1,0,0.2,0,0.2s0,0.1,0,0.2
		c-0.1,0.3-0.3,0.5-0.5,0.6s-0.5,0.1-0.7-0.1c-0.1-0.1-0.2-0.1-0.2-0.2s-0.1-0.2-0.2-0.2c0-0.1,0-0.3,0-0.4s-0.1-0.2-0.2-0.2
		c0-0.2-0.1-0.3-0.1-0.5s-0.1-0.4-0.1-0.6s-0.1-0.4-0.1-0.6s0-0.4,0-0.5c0-0.1,0-0.1,0-0.2s-0.1-0.1-0.1-0.2c0-0.2,0-0.4,0-0.6
		s0-0.4,0-0.6c0-0.2,0-0.4,0-0.6s0-0.4-0.1-0.6s0-0.4,0-0.5s0-0.3,0.1-0.4c0-0.1,0.1-0.2,0.2-0.2s0.2-0.1,0.2-0.2
		c0.2,0,0.3,0.1,0.4,0.2s0.1,0.2,0.1,0.4c0.2,0.1,0.3,0.2,0.4,0.4s0.2,0.3,0.2,0.5S67,8.1,67,8.3s0,0.4,0.1,0.7s0,0.4,0,0.6
		s0,0.4,0.1,0.5c0.3-0.4,0.5-0.8,0.7-1.1s0.4-0.6,0.6-0.9s0.4-0.6,0.7-0.9s0.6-0.6,1-1c0.1,0,0.1,0,0.2,0s0.1,0,0.1,0.1s0.1,0,0.1,0
		s0.1,0,0.2,0c0,0.1,0.1,0.1,0.1,0.2s0,0.1,0,0.1s0,0.1,0,0.1s0.1,0.1,0.1,0.2c0,0,0,0.1,0,0.1s0,0.1,0,0.1s0,0.1,0,0.1s0,0,0.1,0
		c0,0.1-0.1,0.2-0.1,0.3S71,7.6,71,7.8c-0.2,0.2-0.4,0.5-0.6,0.7S70,9,69.8,9.3s-0.4,0.5-0.6,0.8s-0.4,0.6-0.5,0.9c0,0-0.1,0-0.1,0
		s0,0-0.1,0.1S68.5,11.2,68.4,11.3C68.5,11.2,68.4,11.3,68.4,11.3z"/>
	<path class="st0" d="M76.2,12.3c0,0.1-0.1,0.3-0.2,0.4s-0.2,0.3-0.3,0.4s-0.3,0.2-0.4,0.3s-0.3,0.1-0.5,0.1c-0.1,0-0.2,0-0.2-0.1
		s-0.1-0.1-0.1-0.1c0,0,0,0-0.1,0s0,0-0.1,0l-0.1-0.1l0-0.2c0-0.1,0-0.1,0-0.1s-0.1-0.1-0.1-0.1c0,0,0,0-0.1-0.1s0,0-0.1-0.1
		l-0.2-0.2l0.3-0.1c0.2-0.1,0.3-0.1,0.4-0.2s0.1-0.2,0.1-0.4c-0.2,0-0.3,0-0.4,0s-0.2,0.1-0.3,0.1c-0.1,0-0.3,0.1-0.4,0.1
		s-0.3,0-0.5,0c-0.1,0-0.1,0-0.2,0s-0.1,0-0.2,0l-0.1,0c0-0.1,0-0.1,0-0.1s0,0,0,0c0,0-0.1-0.1-0.1-0.2s-0.1-0.2,0-0.3
		c0-0.1-0.1-0.1-0.1-0.2c0,0.1-0.1,0.2-0.1,0.3l0,0.1l-0.1,0c0,0,0,0,0,0.1s0,0,0,0.1l-0.1,0.2c0,0,0,0,0,0s0,0,0,0
		c0,0.1,0,0.1-0.1,0.2s0,0.1-0.1,0.2c0,0.1-0.1,0.2-0.1,0.3s0,0.2,0,0.3l0,0.1c0,0-0.1,0.1-0.1,0.1s-0.1,0.1-0.1,0.1c0,0,0,0-0.1,0
		s0,0-0.1,0l0,0.1l-0.1,0c-0.1,0-0.1,0-0.2,0s-0.1,0-0.1,0l-0.1,0c-0.1-0.1-0.2-0.1-0.2-0.2s-0.1-0.1-0.2-0.1
		c-0.1-0.1-0.1-0.2-0.1-0.2s0-0.1,0-0.1c0,0,0-0.1,0-0.1s0-0.1,0-0.1l-0.2-0.1l0.1-0.1l0-0.2c0.2-0.4,0.3-0.8,0.5-1.1
		s0.4-0.7,0.5-1.1C70.9,9.8,71,9.6,71,9.5s0.1-0.3,0.2-0.4c0,0,0-0.1,0-0.1s0-0.1,0-0.1c0.1-0.1,0.2-0.3,0.2-0.4s0.1-0.2,0.2-0.3
		c0.1-0.1,0.1-0.3,0.2-0.4s0.2-0.3,0.3-0.4l0.2-0.1c0,0,0.1,0,0.1,0s0.1,0,0.1,0l0.2,0C72.8,7.3,73,7.1,73.2,7s0.3-0.4,0.5-0.7
		l0.1-0.2l0.2,0.1c0,0,0.1,0,0.2,0.1s0.1,0,0.2,0.1c0.1,0,0.3,0.1,0.4,0.1S75,6.6,75,6.6c0,0.1,0.1,0.2,0.1,0.3s0,0.1,0,0.2
		c0,0.1,0,0.3,0.1,0.4s0,0.3,0,0.4c0,0.1,0.1,0.3,0.1,0.4s0.1,0.3,0.1,0.4c0,0.2,0.1,0.4,0.1,0.5s0.1,0.3,0.2,0.5c0.1,0,0.1,0,0.1,0
		c0,0,0.1,0,0.1,0s0.1,0,0.1,0l0.1,0l0,0.1c0,0,0,0.1,0.1,0.1c0.1,0,0.2,0,0.2,0.1s0.1,0.1,0.1,0.1c0,0,0.1,0.1,0.1,0.1l0.2,0.1
		l-0.1,0.2c-0.1,0.1-0.2,0.3-0.3,0.4s-0.3,0.2-0.5,0.3c0,0,0,0.1,0,0.1s0,0.1,0,0.1c0,0.1,0,0.3,0.1,0.4S76.2,12.1,76.2,12.3
		L76.2,12.3z M72.8,10.3c0.2,0,0.4,0,0.6-0.1s0.4-0.1,0.6-0.1c-0.1-0.2-0.1-0.5-0.2-0.7s-0.1-0.5-0.2-0.8l-0.1,0.1
		c-0.2,0.2-0.3,0.3-0.5,0.6s-0.3,0.4-0.4,0.6c0,0.1-0.1,0.1-0.1,0.2s-0.1,0.1-0.1,0.2c0,0,0.1,0,0.1,0S72.7,10.3,72.8,10.3z"/>
	<path class="st0" d="M80,13.2c-0.2,0.1-0.5,0.1-0.7,0.2s-0.5,0.1-0.8,0.1c-0.4,0-0.7-0.1-0.9-0.3c0-0.1-0.1-0.1-0.1-0.2c0,0,0-0.1-0.1-0.1
		s0-0.1,0-0.1c-0.1-0.1-0.2-0.2-0.2-0.4s-0.1-0.3-0.1-0.4s0-0.3,0-0.5s0-0.3,0.1-0.4c0,0,0-0.1,0-0.1s0-0.1,0-0.1
		c0-0.1,0.1-0.2,0.1-0.4s0.1-0.2,0.1-0.3c0-0.1,0-0.1,0-0.2s0.1-0.2,0.1-0.2c0.1-0.3,0.2-0.5,0.3-0.8S78,8.5,78,8.3
		c0.1-0.4,0.3-0.7,0.4-1s0.2-0.7,0.3-1.1c0.1,0,0.1-0.1,0.1-0.1c0,0,0.1,0,0.1,0c0.1,0.1,0.3,0.1,0.5,0.2s0.3,0.1,0.5,0.1
		c0.1,0,0.1,0.1,0.1,0.1s0,0,0,0.1c0.1,0.1,0.2,0.2,0.2,0.3s0.1,0.2,0.1,0.4c0,0.1-0.1,0.1-0.1,0.1c0,0.2-0.1,0.3-0.1,0.4
		S80.1,8,80,8.1c-0.1,0.1-0.1,0.2-0.2,0.4s-0.1,0.3-0.1,0.4c0,0-0.1,0.1-0.1,0.1s0,0.1,0,0.1s0,0.1-0.1,0.1s0,0.1-0.1,0.1
		c0,0.2-0.1,0.4-0.1,0.5s-0.1,0.3-0.2,0.4c-0.1,0.2-0.2,0.5-0.3,0.7s-0.1,0.5-0.1,0.8c0,0,0.1,0,0.1,0s0.1,0,0.1,0
		c0.1,0,0.2,0,0.2,0c0.2-0.1,0.5-0.2,0.8-0.2s0.6,0,0.8,0c0.1,0,0.2,0,0.3,0s0.2,0,0.3,0c0.1,0,0.1,0.1,0.1,0.1s0,0,0.1,0
		c0.1,0,0.1,0,0.1,0c0.1,0.1,0.2,0.1,0.3,0.2s0.2,0.1,0.3,0.1c0.1,0,0.2,0.1,0.3,0.1s0.2,0.1,0.2,0.1l0.1,0.5
		c0.1,0.1,0.1,0.1,0.1,0.1c0,0.1,0,0.1,0,0.1l0,0.1c-0.1,0-0.2,0.1-0.2,0.1s-0.1,0.1-0.1,0.1c-0.1,0-0.1,0-0.1,0s-0.1,0-0.1,0
		c-0.1,0-0.2,0-0.4,0.1c-0.2-0.1-0.4-0.1-0.7-0.1c-0.1,0-0.2,0-0.3,0s-0.2,0-0.3,0c-0.1,0-0.2,0-0.3,0s-0.2,0-0.3,0L80,13.2z"/>
	<path class="st0" d="M89.8,6.6c0,0.2,0,0.3,0.1,0.4s0.1,0.2,0.1,0.4c0,0.1,0.1,0.2,0.1,0.3s0.1,0.2,0.1,0.4c-0.1,0.2-0.1,0.4-0.1,0.6
		S90,9.1,89.9,9.3c-0.1,0.3-0.2,0.5-0.4,0.7s-0.2,0.4-0.3,0.6c0,0-0.1,0.1-0.1,0.1s-0.1,0.1-0.1,0.2c0,0,0,0.1-0.1,0.1S89,11,89,11
		l-0.2-0.1l0,0.3l-0.2,0l-0.1,0.1c-0.1,0.3-0.3,0.5-0.5,0.7s-0.3,0.3-0.6,0.5s-0.4,0.3-0.7,0.4s-0.6,0.2-0.9,0.4c-0.1,0-0.2,0-0.3,0
		s-0.2,0-0.3,0c-0.1,0-0.3,0-0.6,0c0-0.1-0.1-0.1-0.1-0.1s-0.1,0-0.1,0c-0.1-0.1-0.2-0.2-0.3-0.3s-0.1-0.3-0.2-0.4
		c0-0.1-0.1-0.2-0.1-0.2s-0.1-0.2-0.1-0.2l0.2-0.1l-0.3-0.3c0,0,0,0-0.1-0.1s0,0-0.1-0.1l0-0.2c0-0.5,0-1,0-1.5s0.1-0.8,0.2-1.2V8.5
		c0-0.2,0-0.3,0.1-0.4s0-0.2,0.1-0.3c0-0.2,0.1-0.3,0.1-0.5c0.1,0,0.2-0.1,0.2-0.1s0.1-0.1,0.1-0.2c0.1,0,0.2,0,0.2,0
		s0.1,0.1,0.1,0.2c0,0.1,0.1,0.1,0.1,0.2s0.1,0.2,0.3,0.2c0,0.1,0,0.1,0.1,0.2s0.1,0.1,0.1,0.2c0.1,0.1,0.1,0.3,0.2,0.4
		s0.1,0.3,0.1,0.4c-0.1,0.1-0.1,0.3-0.2,0.5s-0.1,0.4-0.1,0.6s0,0.4,0,0.6s0.1,0.3,0.1,0.5l0.1,0.2l0.2,0c0.2-0.1,0.4-0.1,0.6-0.2
		s0.4-0.2,0.5-0.3s0.3-0.2,0.5-0.4s0.3-0.3,0.5-0.5s0.3-0.4,0.4-0.6s0.2-0.5,0.3-0.7s0.1-0.5,0.2-0.7s0.1-0.5,0.1-0.7
		c0.1,0,0.2-0.1,0.2-0.3l0-0.1c0,0,0-0.1,0-0.2c0-0.1,0.2-0.3,0.3-0.3c0.1,0.1,0.2,0.2,0.3,0.3S89.7,6.6,89.8,6.6z"/>
	<path class="st0" d="M96.4,6.7c0,0.1,0,0.1,0,0.1s0,0.1,0,0.1s0,0,0,0.1s0,0.1,0,0.1c-0.2,0.3-0.4,0.4-0.6,0.5s-0.4,0.2-0.7,0.2S94.7,8,94.4,8
		s-0.5,0.1-0.8,0.3c-0.1,0-0.2,0-0.3,0s-0.2,0.1-0.4,0c0,0-0.1,0.1-0.2,0.1s-0.1,0-0.2,0.1c0,0.1,0,0.1,0,0.2s0,0.1,0,0.2
		c0.3,0,0.6,0,0.9,0s0.7-0.1,1-0.1c0,0,0,0.1,0,0.1s0,0,0,0.1c0.1,0,0.1,0.1,0.2,0.1s0.1,0.1,0.2,0.2S95,9.4,95,9.4s0.1,0,0.2,0
		c0,0.1,0.1,0.1,0.1,0.2s0,0.2,0,0.2c-0.1,0.1-0.3,0.2-0.4,0.3s-0.3,0.2-0.4,0.2s-0.3,0.1-0.4,0.2s-0.3,0.1-0.5,0.1c0,0-0.1,0-0.1,0
		s0,0-0.1,0c-0.1,0-0.2,0.1-0.3,0s-0.2,0-0.3,0c-0.1,0-0.2-0.1-0.3-0.1s-0.2,0-0.3,0c-0.1,0.2-0.2,0.3-0.3,0.5s-0.2,0.4-0.3,0.6
		c0.3,0,0.5,0.1,0.7,0s0.3,0,0.5,0s0.3,0,0.5-0.1s0.4,0,0.6,0c0.2-0.1,0.3-0.1,0.6-0.2s0.4-0.1,0.6-0.1c0.1,0,0.1,0.1,0.2,0.1
		s0.1,0.1,0.1,0.2s0.1,0.1,0.1,0.1s0.1,0.1,0.2,0c0,0,0.1,0.1,0.1,0.1s0,0.1,0,0.1s0,0.1,0,0.1s0.1,0,0.1,0
		c-0.1,0.3-0.3,0.5-0.4,0.6S95.1,13,95,13.1s-0.4,0.1-0.7,0.2s-0.5,0.1-0.8,0.1c-0.1,0-0.1,0-0.2,0s-0.1,0-0.2,0
		c-0.2,0-0.4,0.1-0.6,0.1s-0.5,0-0.8,0s-0.5,0-0.7-0.1s-0.4-0.2-0.6-0.3c-0.1-0.1-0.1-0.1-0.1-0.2s-0.1-0.1-0.2-0.2
		c0-0.1,0-0.2,0-0.3s0-0.3-0.1-0.4s0-0.3-0.1-0.4s0-0.3,0-0.4c0-0.1,0.1-0.2,0.1-0.3s0.1-0.2,0.1-0.3c0,0,0.1,0,0.1-0.1s0,0,0.1,0
		c0-0.1,0.1-0.3,0.2-0.4s0.1-0.2,0.2-0.4s0.1-0.2,0.2-0.4s0.1-0.3,0.2-0.4c-0.1-0.1-0.2-0.2-0.2-0.3s-0.1-0.2-0.1-0.4s0-0.2-0.1-0.4
		s0-0.3-0.1-0.4c0.1-0.1,0.2-0.2,0.3-0.3s0.2-0.1,0.4-0.2s0.3-0.1,0.4-0.1s0.3-0.1,0.5-0.1c0.3-0.1,0.6-0.2,0.8-0.2s0.5-0.1,0.7-0.1
		s0.5-0.1,0.7-0.1s0.6-0.1,0.9-0.1c0.1,0.1,0.1,0.1,0.2,0.1c0-0.1,0.1-0.1,0.1-0.1s0.1,0,0.1-0.1c0.1,0.1,0.2,0.2,0.3,0.3
		S96.3,6.7,96.4,6.7z"/>
	<path class="st0" d="M96.2,11.6c0,0,0.1,0.1,0.2,0.1s0.2,0.1,0.4,0.2s0.2,0.1,0.4,0.1s0.2,0.1,0.2,0.1c0.1,0.2,0.1,0.3,0.1,0.4s0,0.2,0.1,0.4
		c0,0-0.1,0.1-0.1,0.2s0,0.2,0,0.2c0,0.1,0,0.1,0,0.1s0,0-0.1,0.1c0,0,0,0,0,0.1s0,0.1,0,0.1c0,0,0,0.1-0.1,0.1s0,0-0.1,0.1
		c0,0.1-0.1,0.1-0.1,0.2s0,0,0,0s0,0,0,0s0,0.1-0.1,0.1c-0.1,0.1-0.1,0.2-0.2,0.3s-0.1,0.2-0.2,0.3c-0.1,0.1-0.2,0.2-0.4,0.4
		s-0.3,0.2-0.5,0.3c-0.1,0-0.2-0.1-0.3-0.2s-0.3-0.1-0.4-0.2s-0.2-0.2-0.3-0.3s-0.1-0.2,0-0.3c0.1-0.1,0.3-0.3,0.4-0.5
		s0.2-0.4,0.3-0.7s0.1-0.5,0.2-0.7s0.1-0.5,0.2-0.7c0,0,0.1,0,0.1,0s0.1,0,0.1-0.1S96.1,11.7,96.2,11.6
		C96.2,11.6,96.2,11.6,96.2,11.6z"/>
	<path class="st0" d="M11,22.1c-0.2,0-0.4,0-0.6,0s-0.4,0.1-0.7,0.1c-0.2,0-0.3,0-0.5,0.1s-0.3,0-0.4,0c-0.1,0.2-0.1,0.3-0.2,0.5
		S8.6,23,8.5,23.1c-0.1,0.1-0.1,0.3-0.2,0.4S8.3,23.8,8.2,24c-0.1,0.1-0.1,0.2-0.2,0.3s-0.1,0.2-0.1,0.4c-0.1,0.1-0.2,0.2-0.2,0.4
		s-0.1,0.2-0.1,0.3l0,0.1c0,0-0.1,0.1-0.1,0.1s0,0.1-0.1,0.1c0,0.1,0,0.2-0.1,0.3c0,0,0,0.1,0,0.1s0,0.1,0,0.1c0,0.1,0,0.1-0.1,0.2
		c0,0,0,0.1,0,0.1s0,0.1,0,0.1c0,0.1,0,0.2,0,0.2c0,0,0,0.1,0.1,0.1s0,0.1,0,0.1c0,0,0.1,0.1,0.1,0.1c0,0,0.1,0.1,0.1,0.1l0.1,0.1
		c0,0.2,0,0.4-0.1,0.5C7.4,27.9,7.2,28,6.9,28H6.8c0,0-0.1-0.1-0.1-0.1c-0.1,0-0.1,0-0.2-0.1s-0.1,0-0.1-0.1c-0.1,0-0.2-0.1-0.2-0.1
		l-0.1-0.1c0-0.1,0-0.1,0-0.1C6.1,27.4,6,27.3,6,27.2s0-0.2-0.1-0.3c0-0.1,0-0.1-0.1-0.2s0-0.1-0.1-0.2c0-0.5,0-0.8,0.1-1.1
		s0.2-0.6,0.3-0.9c0.1-0.2,0.1-0.3,0.2-0.5s0.1-0.3,0.2-0.5l0.1-0.1c0.1-0.1,0.1-0.2,0.1-0.3s0.1-0.2,0.1-0.3c0-0.1,0-0.1,0.1-0.2
		s0-0.1,0.1-0.1c0,0-0.1,0-0.1,0s-0.1,0-0.1,0c0,0-0.1,0-0.1,0s-0.1,0-0.1,0c-0.1,0-0.1,0-0.1,0c-0.1,0-0.2,0.1-0.3,0.1H6.1
		c0,0,0,0-0.1,0s0,0-0.1,0c-0.1,0-0.1,0-0.2,0c-0.1,0-0.2,0-0.3,0H5.4c0,0,0,0-0.1,0s0,0-0.1,0c-0.1,0-0.1,0-0.2,0s-0.1,0-0.2-0.1
		c-0.1-0.1-0.2-0.2-0.2-0.2l-0.1-0.1c0,0,0-0.1,0-0.1s0-0.1,0-0.1c0-0.1-0.1-0.2-0.1-0.3s0-0.2,0-0.3c0-0.1,0-0.1,0-0.1
		s0-0.1,0.1-0.1l0-0.2l0.2,0H5c0.3,0,0.5,0,0.8,0s0.5,0,0.8-0.1c0.2,0,0.3,0,0.5,0s0.3,0,0.5,0c0-0.1,0.1-0.1,0.1-0.2l0.1-0.1
		c0.1,0,0.2,0,0.3,0.1s0.1,0.1,0.1,0.1c0.2,0,0.3,0,0.5-0.1s0.4,0,0.5-0.1c0.3,0,0.5-0.1,0.8-0.1s0.5,0,0.8,0c0.1,0,0.2,0,0.3,0
		s0.2,0,0.3,0l0.1,0.1c0,0,0.1,0.1,0.1,0.1s0.1,0.1,0.1,0.1c0.1,0.1,0.2,0.2,0.3,0.3s0.1,0.3,0.1,0.5c-0.1,0.1-0.1,0.1-0.1,0.2
		L11.9,22l-0.1,0c0,0-0.1,0-0.1,0s-0.1,0-0.1,0c0,0-0.1,0-0.1,0s-0.1,0-0.1,0c-0.1,0-0.1,0-0.2,0S11.1,22.1,11,22.1z"/>
	<path class="st0" d="M16.1,26.6c0,0.2,0,0.4-0.1,0.5s-0.1,0.2-0.3,0.3s-0.2,0.2-0.4,0.2s-0.3,0.1-0.4,0.2c-0.1,0-0.1-0.1-0.2-0.1
		s-0.1-0.1-0.2-0.1c-0.1-0.2-0.2-0.4-0.3-0.5s-0.1-0.3-0.1-0.5c0,0,0-0.1,0-0.1s0-0.2,0-0.3s0-0.2,0-0.3s0-0.1,0-0.1
		c-0.2,0-0.4,0.1-0.6,0.1s-0.4,0.1-0.6,0.2s-0.4,0.2-0.5,0.3s-0.3,0.2-0.4,0.2c0,0,0,0.1,0,0.2s-0.1,0.2-0.1,0.3S12,27.3,12,27.3
		s-0.1,0.1-0.2,0.1c0,0,0,0,0,0.1s0,0.1,0,0.1c-0.1,0-0.2,0.1-0.3,0.1s-0.2,0.1-0.3,0.1s-0.2,0.1-0.3,0.1s-0.2,0-0.4-0.1
		c0,0,0-0.1-0.1-0.1s-0.1-0.1-0.1-0.1s-0.1-0.1-0.1-0.1s0,0,0-0.1c0,0-0.1,0,0-0.1s0-0.1,0.1,0c-0.1-0.1-0.1-0.2-0.2-0.3
		s-0.1-0.2-0.1-0.3c0,0,0,0,0-0.1s0-0.1,0-0.1s0-0.1,0-0.1s0,0,0.1,0c0-0.1,0-0.1,0-0.2s0-0.1,0-0.1s0-0.1,0-0.1s0-0.1,0-0.1
		c0.1-0.2,0.2-0.4,0.2-0.6s0.1-0.4,0.1-0.5c0.1-0.1,0.1-0.1,0.1-0.2s0.1-0.2,0.1-0.3s0-0.2,0-0.3s0-0.2,0-0.2c0,0,0.1-0.1,0.1,0
		c0-0.3,0.1-0.5,0.1-0.9s0.1-0.6,0.1-0.9s0.1-0.6,0.2-0.8s0.3-0.4,0.5-0.4c0,0.2,0.1,0.3,0.2,0.4s0.2,0.2,0.2,0.4s0.2,0.2,0.3,0.3
		s0.2,0.3,0.3,0.4c0,0.1,0,0.3,0,0.5s-0.1,0.4-0.1,0.6s-0.1,0.4-0.1,0.6s-0.1,0.3-0.1,0.5c0,0,0,0.1,0.1,0.1s0,0,0,0.1
		c0.2,0,0.4-0.1,0.6-0.1s0.4-0.1,0.6-0.1s0.4-0.1,0.6-0.2s0.4-0.1,0.5-0.2c0-0.3,0.1-0.6,0.2-0.9s0.1-0.6,0-0.9c0,0,0.1-0.1,0.1-0.1
		s0.1-0.1,0.1-0.1c0-0.1-0.1-0.3,0-0.5s0-0.3,0.1-0.5s0.1-0.3,0.2-0.4s0.2-0.2,0.4-0.2c0.1,0.1,0.2,0.3,0.2,0.4s0.1,0.3,0.2,0.4
		s0.1,0.3,0.2,0.4s0.2,0.2,0.3,0.3c0,0.2,0,0.5,0.1,0.7s0,0.5,0,0.7c-0.1,0.3-0.1,0.6-0.2,0.9s-0.1,0.6-0.2,0.9
		c-0.1,0.1-0.1,0.1-0.1,0.2s-0.1,0.2-0.1,0.2s-0.1,0.2-0.1,0.2S16.1,26,16,26c0,0.1,0,0.2,0,0.3S16.1,26.5,16.1,26.6z"/>
	<path class="st0" d="M23.3,26.7c0,0.1-0.1,0.3-0.2,0.4s-0.2,0.3-0.3,0.4s-0.3,0.2-0.4,0.3s-0.3,0.1-0.5,0.1c-0.1,0-0.2,0-0.2-0.1
		s-0.1-0.1-0.1-0.1c0,0,0,0-0.1,0s0,0-0.1,0l-0.1-0.1l0-0.2c0-0.1,0-0.1,0-0.1s-0.1-0.1-0.1-0.1c0,0,0,0-0.1-0.1s0,0-0.1-0.1
		l-0.2-0.2l0.3-0.1c0.2-0.1,0.3-0.1,0.4-0.2s0.1-0.2,0.1-0.4c-0.2,0-0.3,0-0.4,0s-0.2,0.1-0.3,0.1c-0.1,0-0.3,0.1-0.4,0.1
		s-0.3,0-0.5,0c-0.1,0-0.1,0-0.2,0s-0.1,0-0.2,0l-0.1,0c0-0.1,0-0.1,0-0.1s0,0,0,0c0,0-0.1-0.1-0.1-0.2s-0.1-0.2,0-0.3
		c0-0.1-0.1-0.1-0.1-0.2c0,0.1-0.1,0.2-0.1,0.3l0,0.1l-0.1,0c0,0,0,0,0,0.1s0,0,0,0.1l-0.1,0.2c0,0,0,0,0,0s0,0,0,0
		c0,0.1,0,0.1-0.1,0.2s0,0.1-0.1,0.2c0,0.1-0.1,0.2-0.1,0.3s0,0.2,0,0.3l0,0.1c0,0-0.1,0.1-0.1,0.1s-0.1,0.1-0.1,0.1c0,0,0,0-0.1,0
		s0,0-0.1,0l0,0.1l-0.1,0c-0.1,0-0.1,0-0.2,0s-0.1,0-0.1,0l-0.1,0c-0.1-0.1-0.2-0.1-0.2-0.2s-0.1-0.1-0.2-0.1
		c-0.1-0.1-0.1-0.2-0.1-0.2s0-0.1,0-0.1c0,0,0-0.1,0-0.1s0-0.1,0-0.1l-0.2-0.1l0.1-0.1l0-0.2c0.2-0.4,0.3-0.8,0.5-1.1
		s0.4-0.7,0.5-1.1c0.1-0.1,0.1-0.3,0.2-0.4s0.1-0.3,0.2-0.4c0,0,0-0.1,0-0.1s0-0.1,0-0.1c0.1-0.1,0.2-0.3,0.2-0.4s0.1-0.2,0.2-0.3
		c0.1-0.1,0.1-0.3,0.2-0.4s0.2-0.3,0.3-0.4l0.2-0.1c0,0,0.1,0,0.1,0s0.1,0,0.1,0l0.2,0c0.2-0.1,0.4-0.2,0.6-0.4s0.3-0.4,0.5-0.7
		l0.1-0.2l0.2,0.1c0,0,0.1,0,0.2,0.1s0.1,0,0.2,0.1c0.1,0,0.3,0.1,0.4,0.1s0.2,0.1,0.3,0.2c0,0.1,0.1,0.2,0.1,0.3s0,0.1,0,0.2
		c0,0.1,0,0.3,0.1,0.4s0,0.3,0,0.4c0,0.1,0.1,0.3,0.1,0.4s0.1,0.3,0.1,0.4c0,0.2,0.1,0.4,0.1,0.5s0.1,0.3,0.2,0.5c0.1,0,0.1,0,0.1,0
		c0,0,0.1,0,0.1,0s0.1,0,0.1,0l0.1,0l0,0.1c0,0,0,0.1,0.1,0.1c0.1,0,0.2,0,0.2,0.1s0.1,0.1,0.1,0.1c0,0,0.1,0.1,0.1,0.1l0.2,0.1
		L24,24.8c-0.1,0.1-0.2,0.3-0.3,0.4s-0.3,0.2-0.5,0.3c0,0,0,0.1,0,0.1s0,0.1,0,0.1c0,0.1,0,0.3,0.1,0.4S23.3,26.5,23.3,26.7
		L23.3,26.7z M19.9,24.7c0.2,0,0.4,0,0.6-0.1s0.4-0.1,0.6-0.1c-0.1-0.2-0.1-0.5-0.2-0.7s-0.1-0.5-0.2-0.8l-0.1,0.1
		c-0.2,0.2-0.3,0.3-0.5,0.6s-0.3,0.4-0.4,0.6c0,0.1-0.1,0.1-0.1,0.2s-0.1,0.1-0.1,0.2c0,0,0.1,0,0.1,0S19.9,24.7,19.9,24.7z"/>
	<path class="st0" d="M30.1,22.1c-0.2,0-0.4,0-0.6,0s-0.4,0.1-0.7,0.1c-0.2,0-0.3,0-0.5,0.1s-0.3,0-0.4,0c-0.1,0.2-0.1,0.3-0.2,0.5
		s-0.1,0.3-0.2,0.4c-0.1,0.1-0.1,0.3-0.2,0.4s-0.1,0.3-0.1,0.4c-0.1,0.1-0.1,0.2-0.2,0.3s-0.1,0.2-0.1,0.4c-0.1,0.1-0.2,0.2-0.2,0.4
		s-0.1,0.2-0.1,0.3l0,0.1c0,0-0.1,0.1-0.1,0.1s0,0.1-0.1,0.1c0,0.1,0,0.2-0.1,0.3c0,0,0,0.1,0,0.1s0,0.1,0,0.1c0,0.1,0,0.1-0.1,0.2
		c0,0,0,0.1,0,0.1s0,0.1,0,0.1c0,0.1,0,0.2,0,0.2c0,0,0,0.1,0.1,0.1s0,0.1,0,0.1c0,0,0.1,0.1,0.1,0.1c0,0,0.1,0.1,0.1,0.1l0.1,0.1
		c0,0.2,0,0.4-0.1,0.5C26.5,27.9,26.3,28,26,28h-0.1c0,0-0.1-0.1-0.1-0.1c-0.1,0-0.1,0-0.2-0.1s-0.1,0-0.1-0.1
		c-0.1,0-0.2-0.1-0.2-0.1l-0.1-0.1c0-0.1,0-0.1,0-0.1c-0.1-0.1-0.1-0.1-0.1-0.2s0-0.2-0.1-0.3c0-0.1,0-0.1-0.1-0.2s0-0.1-0.1-0.2
		c0-0.5,0-0.8,0.1-1.1s0.2-0.6,0.3-0.9c0.1-0.2,0.1-0.3,0.2-0.5s0.1-0.3,0.2-0.5l0.1-0.1c0.1-0.1,0.1-0.2,0.1-0.3s0.1-0.2,0.1-0.3
		c0-0.1,0-0.1,0.1-0.2s0-0.1,0.1-0.1c0,0-0.1,0-0.1,0s-0.1,0-0.1,0c0,0-0.1,0-0.1,0s-0.1,0-0.1,0c-0.1,0-0.1,0-0.1,0
		c-0.1,0-0.2,0.1-0.3,0.1h-0.1c0,0,0,0-0.1,0s0,0-0.1,0c-0.1,0-0.1,0-0.2,0c-0.1,0-0.2,0-0.3,0h-0.1c0,0,0,0-0.1,0s0,0-0.1,0
		c-0.1,0-0.1,0-0.2,0s-0.1,0-0.2-0.1c-0.1-0.1-0.2-0.2-0.2-0.2l-0.1-0.1c0,0,0-0.1,0-0.1s0-0.1,0-0.1c0-0.1-0.1-0.2-0.1-0.3
		s0-0.2,0-0.3c0-0.1,0-0.1,0-0.1s0-0.1,0.1-0.1l0-0.2l0.2,0h0.3c0.3,0,0.5,0,0.8,0s0.5,0,0.8-0.1c0.2,0,0.3,0,0.5,0s0.3,0,0.5,0
		c0-0.1,0.1-0.1,0.1-0.2l0.1-0.1c0.1,0,0.2,0,0.3,0.1s0.1,0.1,0.1,0.1c0.2,0,0.3,0,0.5-0.1s0.4,0,0.5-0.1c0.3,0,0.5-0.1,0.8-0.1
		s0.5,0,0.8,0c0.1,0,0.2,0,0.3,0s0.2,0,0.3,0l0.1,0.1c0,0,0.1,0.1,0.1,0.1s0.1,0.1,0.1,0.1c0.1,0.1,0.2,0.2,0.3,0.3s0.1,0.3,0.1,0.5
		c-0.1,0.1-0.1,0.1-0.1,0.2L31,22l-0.1,0c0,0-0.1,0-0.1,0s-0.1,0-0.1,0c0,0-0.1,0-0.1,0s-0.1,0-0.1,0c-0.1,0-0.1,0-0.2,0
		S30.2,22.1,30.1,22.1z"/>
	<path class="st0" d="M41.8,27.5c-0.1,0-0.2,0.1-0.2,0.1s-0.1,0-0.2,0c-0.3-0.2-0.5-0.6-0.5-1.2s0.1-1.3,0.4-2.1c0,0,0.1-0.1,0.1-0.1l-0.1-0.1
		c0,0-0.1,0-0.1,0s0,0-0.1,0.1c-0.2,0.1-0.4,0.3-0.7,0.5s-0.5,0.3-0.8,0.4s-0.5,0.2-0.8,0.3s-0.5,0.1-0.8,0.1c-0.7,0-1.1-0.3-1.5-1
		l-0.1-0.2l-0.1,0.2c0,0-0.1,0.1-0.1,0.2s-0.1,0.2-0.1,0.3S36,25.3,36,25.4s0,0.2,0,0.3c-0.1,0.1-0.1,0.2-0.2,0.2s-0.1,0.2-0.2,0.3
		c0,0.1,0,0.1,0,0.2c0,0.1-0.1,0.1-0.1,0.2c0,0-0.1,0.1-0.1,0.1s-0.1,0.1-0.1,0.1c0,0,0,0.1,0,0.1s0,0.1,0,0.1c0,0.1,0,0.1,0,0.2
		c-0.1,0.3-0.2,0.5-0.3,0.5s-0.2,0.1-0.3,0.1c-0.1,0-0.2,0-0.3,0c-0.1-0.1-0.2-0.3-0.3-0.5s-0.1-0.4-0.2-0.6s-0.1-0.4-0.1-0.7
		s0-0.4,0.1-0.6c0,0,0-0.1,0.1-0.2s0.1-0.3,0.2-0.6s0.2-0.5,0.3-0.8s0.3-0.6,0.4-0.8s0.2-0.5,0.4-0.7s0.2-0.4,0.3-0.5
		c0.1-0.1,0.1-0.2,0.2-0.3s0.1-0.2,0.1-0.2c0.1-0.2,0.3-0.4,0.4-0.6s0.3-0.3,0.6-0.4c0.2,0.1,0.3,0.2,0.4,0.2l0,0.1
		c0,0.1,0.1,0.1,0.1,0.1c0.1,0,0.2,0,0.2,0.1s0.1,0,0.2,0.1c0.1,0.1,0.1,0.1,0.2,0.2c0.1,0.1,0.1,0.2,0.2,0.3s0.1,0.2,0.1,0.3
		s0.1,0.2,0.1,0.3s0,0.2-0.1,0.3l0,0.1c0,0.1,0,0.2,0,0.3c0,0.1,0,0.1,0,0.2s0,0.1,0,0.2c0.1,0.1,0.3,0.2,0.4,0.2
		c0.1,0,0.2,0,0.3-0.1s0.2-0.1,0.3-0.2c0.1,0,0.1-0.1,0.2-0.1s0.1-0.1,0.2-0.1c0.1-0.1,0.3-0.3,0.4-0.4s0.2-0.2,0.4-0.3
		c0.2-0.2,0.5-0.4,0.7-0.6s0.4-0.5,0.5-0.8c0.1,0,0.2-0.1,0.2-0.1s0.2,0,0.3,0.1s0.2,0.1,0.3,0.1c0,0,0,0,0.1,0s0,0,0.1,0
		c0,0.1,0,0.1,0.1,0.2c0,0,0.1,0,0.1,0s0,0,0,0c0.1,0.1,0.2,0.1,0.2,0.2c0.1,0.2,0.2,0.3,0.3,0.4c0,0.1,0,0.2,0,0.2s0,0.1,0.1,0.2
		c0,0,0,0,0,0.1s0,0.1,0,0.1l-0.2,0l0,0.2c0,0.1,0,0.2,0,0.4s-0.1,0.2-0.1,0.3c0,0.2,0,0.4,0,0.5s0,0.2,0,0.3s0,0.2-0.1,0.3
		s-0.1,0.2-0.1,0.3c0,0.5,0,1-0.2,1.4s-0.3,0.8-0.5,1.2c0,0,0,0.1-0.1,0.1s0,0.1-0.1,0.1c-0.1,0-0.1,0-0.2,0.1S41.8,27.5,41.8,27.5z
		"/>
	<path class="st0" d="M45.9,26.9c0,0.2,0,0.4,0,0.6s-0.2,0.2-0.3,0.3s-0.3,0.1-0.4,0.1s-0.3,0-0.4,0c-0.1-0.1-0.1-0.2-0.2-0.4s-0.1-0.3-0.2-0.5
		s-0.1-0.3-0.1-0.5s-0.1-0.3-0.1-0.5c0-0.1,0.1-0.2,0.1-0.3s0-0.2,0-0.4s0-0.3,0-0.4s0-0.3,0-0.4c0.1-0.3,0.1-0.6,0.2-0.9
		s0.2-0.6,0.3-0.9c0-0.1,0-0.1,0-0.2s0-0.1,0-0.2c0,0,0-0.1,0.1-0.1s0.1,0,0.1-0.1c0-0.1,0-0.2,0-0.2s0-0.1,0-0.2
		c0-0.1,0.1-0.2,0.1-0.3s0.1-0.2,0.1-0.4c0.1,0,0.1-0.1,0.2-0.2s0.1-0.1,0.2-0.2s0.1-0.1,0.2-0.1s0.2-0.1,0.3-0.1
		c0.1,0.1,0.1,0.2,0.1,0.3s0,0.2,0.1,0.3s0,0.2,0.1,0.3s0.1,0.1,0.2,0.2c0,0.1,0,0.1,0,0.2s0,0.2,0,0.3s0,0.2,0.1,0.2
		s0.1,0.1,0.1,0.1c-0.1,0.4-0.3,0.7-0.4,1.1s-0.2,0.7-0.3,1.1s-0.1,0.7-0.1,1.1S45.9,26.5,45.9,26.9z"/>
	<path class="st0" d="M55.6,25.6c-0.2,0.3-0.4,0.6-0.7,0.8s-0.6,0.3-1,0.5s-0.8,0.2-1.2,0.3s-0.8,0.2-1.2,0.4c-0.1,0-0.2,0-0.3,0s-0.2,0-0.2,0
		s-0.1,0-0.2,0s-0.1,0-0.2,0c0,0-0.1,0-0.1,0s0,0,0,0.1c-0.1,0-0.3,0-0.4,0s-0.2,0-0.3,0c-0.1,0-0.2,0-0.3,0s-0.2,0-0.3,0
		c-0.6,0-1-0.2-1.4-0.6s-0.5-0.9-0.6-1.6c0,0,0-0.1,0-0.1s0,0-0.1,0c0-0.1,0-0.1,0-0.2s0-0.1,0-0.2c0.2-0.4,0.4-0.8,0.7-1.2
		s0.6-0.7,0.9-1c0.1,0,0.1-0.1,0.1-0.1s0.1-0.1,0.1-0.1s0.1-0.1,0.1-0.1s0.1-0.1,0.2-0.1c0.2-0.2,0.4-0.4,0.6-0.5s0.5-0.3,0.7-0.5
		s0.5-0.3,0.7-0.4s0.5-0.3,0.7-0.5c0.1,0,0.1,0.1,0.2,0s0.1,0,0.1,0c0.1,0.1,0.1,0.2,0.2,0.2s0.2,0.1,0.3,0.1s0.2,0.1,0.3,0.2
		s0.2,0.2,0.2,0.3c0,0-0.1,0-0.1,0.1s0,0.1,0,0.1s0,0.1,0,0.1s0,0.1-0.1,0.1c0,0,0,0.1,0.1,0.1s0.1,0,0.1,0.1s0,0.1,0,0.1
		s0,0.1,0,0.1c-0.2,0.1-0.3,0.2-0.5,0.3s-0.4,0.2-0.6,0.3S52,22.9,51.8,23s-0.4,0.3-0.7,0.4s-0.4,0.3-0.6,0.5s-0.4,0.4-0.6,0.6
		s-0.4,0.4-0.6,0.7s-0.3,0.4-0.5,0.7c0,0,0,0.1,0.1,0.1s0,0,0.1,0.1c0.3,0,0.5,0,0.7,0s0.4,0,0.7,0c0,0,0,0,0-0.1s0-0.1,0.1-0.1
		c0.4,0,0.9-0.1,1.2-0.2s0.8-0.2,1.2-0.3c-0.1,0-0.1,0-0.2-0.1s-0.1,0-0.1-0.1c0,0,0-0.1,0-0.1s0.1-0.1,0.1-0.1
		c-0.1-0.1-0.2-0.1-0.3-0.2s-0.1-0.2-0.1-0.4c0,0,0.1-0.1,0.1-0.1s0-0.1-0.1-0.1c0,0-0.1,0-0.1,0s0,0,0,0s0,0,0,0s0,0-0.1,0
		c0-0.1,0-0.1,0.1-0.2s0-0.1,0.1-0.2l0.8-0.5c0.1,0.1,0.2,0.1,0.3,0.2s0.3,0.1,0.4,0.2S54,24,54.1,24s0.3,0.1,0.4,0.2
		c0.1,0,0.2,0.1,0.3,0.2s0.2,0.2,0.2,0.2s0.2,0.2,0.2,0.2s0.2,0.1,0.3,0.2c0,0.1,0,0.2,0,0.2S55.6,25.5,55.6,25.6z"/>
	<path class="st0" d="M61.1,26.6c0,0.2,0,0.4-0.1,0.5s-0.1,0.2-0.3,0.3s-0.2,0.2-0.4,0.2s-0.3,0.1-0.4,0.2c-0.1,0-0.1-0.1-0.2-0.1
		s-0.1-0.1-0.2-0.1c-0.1-0.2-0.2-0.4-0.3-0.5s-0.1-0.3-0.1-0.5c0,0,0-0.1,0-0.1s0-0.2,0-0.3s0-0.2,0-0.3s0-0.1,0-0.1
		c-0.2,0-0.4,0.1-0.6,0.1s-0.4,0.1-0.6,0.2s-0.4,0.2-0.5,0.3s-0.3,0.2-0.4,0.2c0,0,0,0.1,0,0.2s-0.1,0.2-0.1,0.3S57,27.3,57,27.3
		s-0.1,0.1-0.2,0.1c0,0,0,0,0,0.1s0,0.1,0,0.1c-0.1,0-0.2,0.1-0.3,0.1s-0.2,0.1-0.3,0.1s-0.2,0.1-0.3,0.1s-0.2,0-0.4-0.1
		c0,0,0-0.1-0.1-0.1s-0.1-0.1-0.1-0.1s-0.1-0.1-0.1-0.1s0,0,0-0.1c0,0-0.1,0,0-0.1s0-0.1,0.1,0c-0.1-0.1-0.1-0.2-0.2-0.3
		s-0.1-0.2-0.1-0.3c0,0,0,0,0-0.1s0-0.1,0-0.1s0-0.1,0-0.1s0,0,0.1,0c0-0.1,0-0.1,0-0.2s0-0.1,0-0.1s0-0.1,0-0.1s0-0.1,0-0.1
		c0.1-0.2,0.2-0.4,0.2-0.6s0.1-0.4,0.1-0.5c0.1-0.1,0.1-0.1,0.1-0.2s0.1-0.2,0.1-0.3s0-0.2,0-0.3s0-0.2,0-0.2c0,0,0.1-0.1,0.1,0
		c0-0.3,0.1-0.5,0.1-0.9s0.1-0.6,0.1-0.9s0.1-0.6,0.2-0.8s0.3-0.4,0.5-0.4c0,0.2,0.1,0.3,0.2,0.4s0.2,0.2,0.2,0.4s0.2,0.2,0.3,0.3
		s0.2,0.3,0.3,0.4c0,0.1,0,0.3,0,0.5s-0.1,0.4-0.1,0.6s-0.1,0.4-0.1,0.6s-0.1,0.3-0.1,0.5c0,0,0,0.1,0.1,0.1s0,0,0,0.1
		c0.2,0,0.4-0.1,0.6-0.1s0.4-0.1,0.6-0.1s0.4-0.1,0.6-0.2s0.4-0.1,0.5-0.2c0-0.3,0.1-0.6,0.2-0.9s0.1-0.6,0-0.9c0,0,0.1-0.1,0.1-0.1
		s0.1-0.1,0.1-0.1c0-0.1-0.1-0.3,0-0.5s0-0.3,0.1-0.5s0.1-0.3,0.2-0.4s0.2-0.2,0.4-0.2c0.1,0.1,0.2,0.3,0.2,0.4s0.1,0.3,0.2,0.4
		s0.1,0.3,0.2,0.4s0.2,0.2,0.3,0.3c0,0.2,0,0.5,0.1,0.7s0,0.5,0,0.7c-0.1,0.3-0.1,0.6-0.2,0.9s-0.1,0.6-0.2,0.9
		c-0.1,0.1-0.1,0.1-0.1,0.2s-0.1,0.2-0.1,0.2s-0.1,0.2-0.1,0.2S61.1,26,61,26c0,0.1,0,0.2,0,0.3S61.1,26.5,61.1,26.6z"/>
	<path class="st0" d="M68.8,22.1c-0.2,0-0.4,0-0.6,0s-0.4,0.1-0.7,0.1c-0.2,0-0.3,0-0.5,0.1s-0.3,0-0.4,0c-0.1,0.2-0.1,0.3-0.2,0.5
		s-0.1,0.3-0.2,0.4c-0.1,0.1-0.1,0.3-0.2,0.4S66,23.8,66,24c-0.1,0.1-0.1,0.2-0.2,0.3s-0.1,0.2-0.1,0.4c-0.1,0.1-0.2,0.2-0.2,0.4
		s-0.1,0.2-0.1,0.3l0,0.1c0,0-0.1,0.1-0.1,0.1s0,0.1-0.1,0.1c0,0.1,0,0.2-0.1,0.3c0,0,0,0.1,0,0.1s0,0.1,0,0.1c0,0.1,0,0.1-0.1,0.2
		c0,0,0,0.1,0,0.1s0,0.1,0,0.1c0,0.1,0,0.2,0,0.2c0,0,0,0.1,0.1,0.1s0,0.1,0,0.1c0,0,0.1,0.1,0.1,0.1c0,0,0.1,0.1,0.1,0.1l0.1,0.1
		c0,0.2,0,0.4-0.1,0.5C65.2,27.9,65,28,64.7,28h-0.1c0,0-0.1-0.1-0.1-0.1c-0.1,0-0.1,0-0.2-0.1s-0.1,0-0.1-0.1
		c-0.1,0-0.2-0.1-0.2-0.1l-0.1-0.1c0-0.1,0-0.1,0-0.1c-0.1-0.1-0.1-0.1-0.1-0.2s0-0.2-0.1-0.3c0-0.1,0-0.1-0.1-0.2s0-0.1-0.1-0.2
		c0-0.5,0-0.8,0.1-1.1s0.2-0.6,0.3-0.9c0.1-0.2,0.1-0.3,0.2-0.5s0.1-0.3,0.2-0.5l0.1-0.1c0.1-0.1,0.1-0.2,0.1-0.3s0.1-0.2,0.1-0.3
		c0-0.1,0-0.1,0.1-0.2s0-0.1,0.1-0.1c0,0-0.1,0-0.1,0s-0.1,0-0.1,0c0,0-0.1,0-0.1,0s-0.1,0-0.1,0c-0.1,0-0.1,0-0.1,0
		c-0.1,0-0.2,0.1-0.3,0.1h-0.1c0,0,0,0-0.1,0s0,0-0.1,0c-0.1,0-0.1,0-0.2,0c-0.1,0-0.2,0-0.3,0h-0.1c0,0,0,0-0.1,0s0,0-0.1,0
		c-0.1,0-0.1,0-0.2,0s-0.1,0-0.2-0.1c-0.1-0.1-0.2-0.2-0.2-0.2l-0.1-0.1c0,0,0-0.1,0-0.1s0-0.1,0-0.1c0-0.1-0.1-0.2-0.1-0.3
		s0-0.2,0-0.3c0-0.1,0-0.1,0-0.1s0-0.1,0.1-0.1l0-0.2l0.2,0h0.3c0.3,0,0.5,0,0.8,0s0.5,0,0.8-0.1c0.2,0,0.3,0,0.5,0s0.3,0,0.5,0
		c0-0.1,0.1-0.1,0.1-0.2l0.1-0.1c0.1,0,0.2,0,0.3,0.1s0.1,0.1,0.1,0.1c0.2,0,0.3,0,0.5-0.1s0.4,0,0.5-0.1c0.3,0,0.5-0.1,0.8-0.1
		s0.5,0,0.8,0c0.1,0,0.2,0,0.3,0s0.2,0,0.3,0l0.1,0.1c0,0,0.1,0.1,0.1,0.1s0.1,0.1,0.1,0.1c0.1,0.1,0.2,0.2,0.3,0.3s0.1,0.3,0.1,0.5
		c-0.1,0.1-0.1,0.1-0.1,0.2L69.6,22l-0.1,0c0,0-0.1,0-0.1,0s-0.1,0-0.1,0c0,0-0.1,0-0.1,0s-0.1,0-0.1,0c-0.1,0-0.1,0-0.2,0
		S68.8,22.1,68.8,22.1z"/>
	<path class="st0" d="M79.1,24.2c0,0.1,0,0.2,0,0.3s0.1,0.2,0.1,0.3s0.1,0.2,0.1,0.3s0.1,0.2,0.1,0.3c0,0.1,0,0.2,0,0.4s0,0.3-0.1,0.4
		s-0.1,0.2-0.2,0.3S79,26.5,79,26.5c-0.1,0.1-0.2,0.3-0.4,0.3s-0.3,0.2-0.4,0.3c-0.1,0.1-0.2,0.1-0.3,0.1s-0.2,0-0.3,0.1
		c-0.1,0-0.2,0.1-0.3,0.1s-0.2,0.1-0.4,0.1s-0.3,0.1-0.4,0.1s-0.2,0-0.3,0c-0.2,0.1-0.5,0.1-0.7,0.2s-0.5,0-0.8-0.1
		c-0.3,0-0.5,0-0.8,0s-0.4-0.2-0.6-0.3s-0.3-0.3-0.5-0.5s-0.2-0.4-0.3-0.6c-0.1-0.4,0-0.8,0-1.2s0.2-0.7,0.4-1s0.4-0.6,0.6-0.9
		s0.4-0.5,0.7-0.8c0,0,0.1,0,0.1,0s0.1,0,0.1-0.1s0-0.1,0.1-0.1s0.1-0.1,0.1-0.1c0.1-0.1,0.1-0.2,0.2-0.3s0.2-0.1,0.3-0.3
		c0.1,0,0.1,0,0.2-0.1s0.1-0.1,0.1-0.1s0.1-0.1,0.1-0.1s0.1-0.1,0.2-0.1v-0.1c0.1-0.1,0.2-0.1,0.3-0.2s0.1-0.2,0.2-0.3
		c0.1,0,0.1,0,0.2,0s0.1,0,0.2,0c0.1-0.1,0.1-0.2,0.2-0.2s0.1-0.1,0.2-0.2c0.1,0,0.2,0.1,0.3,0.1s0.2,0.1,0.3,0.2
		c0,0.1,0,0.1,0.1,0.2s0.1,0.1,0.1,0.1s0.1,0.1,0.1,0.1s0.1,0.1,0.1,0.2c0,0,0.1,0,0.1,0s0,0,0.1,0c0,0.1,0.1,0.2,0.1,0.2
		s0.1,0.1,0.1,0.2c0,0.1-0.1,0.2-0.1,0.2S78.1,21.9,78,22c0,0.1,0,0.1,0,0.1s0.1,0,0.1,0.1c0,0.1,0,0.1,0,0.2c0.2,0.3,0.4,0.6,0.5,1
		S78.9,23.9,79.1,24.2z M77.7,25.3c0-0.1,0.1-0.2,0.1-0.2s0.1-0.1,0.1-0.2c0-0.1-0.1-0.1-0.1-0.1s0-0.1,0-0.2
		c-0.2-0.2-0.3-0.5-0.4-0.8s-0.3-0.5-0.4-0.8c0,0,0,0.1-0.1,0.1s-0.1,0-0.1,0c0,0.1,0,0.1-0.1,0.1s-0.1,0-0.1,0s-0.1,0-0.1,0
		s-0.1,0-0.1-0.1c-0.2,0.2-0.5,0.4-0.7,0.5s-0.4,0.4-0.6,0.6c0,0-0.1,0-0.1,0s0,0-0.1,0c-0.1,0.1-0.1,0.3-0.2,0.4s-0.2,0.2-0.3,0.4
		s-0.2,0.3-0.2,0.4S74,25.7,74,25.9c0.1,0.1,0.3,0.2,0.5,0.2s0.4,0,0.6,0s0.4,0,0.6-0.1s0.4-0.1,0.5-0.1c0.3-0.1,0.6-0.2,0.8-0.3
		S77.4,25.4,77.7,25.3z"/>
	<path class="st0" d="M83.4,25.7c0,0.1,0,0.2-0.1,0.3s-0.1,0.2-0.2,0.3s-0.1,0.2-0.2,0.3s-0.1,0.2-0.2,0.2c0,0.1,0,0.2,0,0.2s0,0.1,0,0.2
		c-0.1,0.3-0.3,0.5-0.5,0.6s-0.5,0.1-0.7-0.1c-0.1-0.1-0.2-0.1-0.2-0.2s-0.1-0.2-0.2-0.2c0-0.1,0-0.3,0-0.4s-0.1-0.2-0.2-0.2
		c0-0.2-0.1-0.3-0.1-0.5s-0.1-0.4-0.1-0.6s-0.1-0.4-0.1-0.6s0-0.4,0-0.5c0-0.1,0-0.1,0-0.2s-0.1-0.1-0.1-0.2c0-0.2,0-0.4,0-0.6
		s0-0.4,0-0.6c0-0.2,0-0.4,0-0.6s0-0.4-0.1-0.6s0-0.4,0-0.5s0-0.3,0.1-0.4c0-0.1,0.1-0.2,0.2-0.2s0.2-0.1,0.2-0.2
		c0.2,0,0.3,0.1,0.4,0.2s0.1,0.2,0.1,0.4c0.2,0.1,0.3,0.2,0.4,0.4s0.2,0.3,0.2,0.5s0.1,0.4,0.1,0.6s0,0.4,0.1,0.7s0,0.4,0,0.6
		s0,0.4,0.1,0.5c0.3-0.4,0.5-0.8,0.7-1.1s0.4-0.6,0.6-0.9s0.4-0.6,0.7-0.9s0.6-0.6,1-1c0.1,0,0.1,0,0.2,0s0.1,0,0.1,0.1s0.1,0,0.1,0
		s0.1,0,0.2,0c0,0.1,0.1,0.1,0.1,0.2s0,0.1,0,0.1s0,0.1,0,0.1s0.1,0.1,0.1,0.2c0,0,0,0.1,0,0.1s0,0.1,0,0.1s0,0.1,0,0.1s0,0,0.1,0
		c0,0.1-0.1,0.2-0.1,0.3S86,22,86,22.2c-0.2,0.2-0.4,0.5-0.6,0.7s-0.4,0.5-0.6,0.8s-0.4,0.5-0.6,0.8s-0.4,0.6-0.5,0.9
		c0,0-0.1,0-0.1,0s0,0-0.1,0.1S83.5,25.6,83.4,25.7C83.4,25.6,83.4,25.7,83.4,25.7z"/>
	<path class="st0" d="M91.8,21.1c0,0.1,0,0.1,0,0.1s0,0.1,0,0.1s0,0,0,0.1s0,0.1,0,0.1c-0.2,0.3-0.4,0.4-0.6,0.5s-0.4,0.2-0.7,0.2
		s-0.5,0.1-0.8,0.1s-0.5,0.1-0.8,0.3c-0.1,0-0.2,0-0.3,0s-0.2,0.1-0.4,0c0,0-0.1,0.1-0.2,0.1s-0.1,0-0.2,0.1c0,0.1,0,0.1,0,0.2
		s0,0.1,0,0.2c0.3,0,0.6,0,0.9,0s0.7-0.1,1-0.1c0,0,0,0.1,0,0.1s0,0,0,0.1c0.1,0,0.1,0.1,0.2,0.1s0.1,0.1,0.2,0.2s0.1,0.1,0.2,0.1
		s0.1,0,0.2,0c0,0.1,0.1,0.1,0.1,0.2s0,0.2,0,0.2c-0.1,0.1-0.3,0.2-0.4,0.3s-0.3,0.2-0.4,0.2s-0.3,0.1-0.4,0.2S89.2,25,89,25
		c0,0-0.1,0-0.1,0s0,0-0.1,0c-0.1,0-0.2,0.1-0.3,0s-0.2,0-0.3,0C88.2,25,88.1,25,88,25s-0.2,0-0.3,0c-0.1,0.2-0.2,0.3-0.3,0.5
		s-0.2,0.4-0.3,0.6c0.3,0,0.5,0.1,0.7,0s0.3,0,0.5,0s0.3,0,0.5-0.1s0.4,0,0.6,0c0.2-0.1,0.3-0.1,0.6-0.2s0.4-0.1,0.6-0.1
		c0.1,0,0.1,0.1,0.2,0.1s0.1,0.1,0.1,0.2s0.1,0.1,0.1,0.1s0.1,0.1,0.2,0c0,0,0.1,0.1,0.1,0.1s0,0.1,0,0.1s0,0.1,0,0.1s0.1,0,0.1,0
		c-0.1,0.3-0.3,0.5-0.4,0.6s-0.3,0.2-0.5,0.3s-0.4,0.1-0.7,0.2s-0.5,0.1-0.8,0.1c-0.1,0-0.1,0-0.2,0s-0.1,0-0.2,0
		c-0.2,0-0.4,0.1-0.6,0.1s-0.5,0-0.8,0s-0.5,0-0.7-0.1s-0.4-0.2-0.6-0.3c-0.1-0.1-0.1-0.1-0.1-0.2s-0.1-0.1-0.2-0.2
		c0-0.1,0-0.2,0-0.3s0-0.3-0.1-0.4s0-0.3-0.1-0.4s0-0.3,0-0.4c0-0.1,0.1-0.2,0.1-0.3s0.1-0.2,0.1-0.3c0,0,0.1,0,0.1-0.1s0,0,0.1,0
		c0-0.1,0.1-0.3,0.2-0.4s0.1-0.2,0.2-0.4s0.1-0.2,0.2-0.4s0.1-0.3,0.2-0.4c-0.1-0.1-0.2-0.2-0.2-0.3s-0.1-0.2-0.1-0.4s0-0.2-0.1-0.4
		s0-0.3-0.1-0.4c0.1-0.1,0.2-0.2,0.3-0.3s0.2-0.1,0.4-0.2s0.3-0.1,0.4-0.1s0.3-0.1,0.5-0.1c0.3-0.1,0.6-0.2,0.8-0.2s0.5-0.1,0.7-0.1
		s0.5-0.1,0.7-0.1s0.6-0.1,0.9-0.1c0.1,0.1,0.1,0.1,0.2,0.1c0-0.1,0.1-0.1,0.1-0.1s0.1,0,0.1-0.1c0.1,0.1,0.2,0.2,0.3,0.3
		S91.7,21.1,91.8,21.1z"/>
	<path class="st0" d="M93.3,26.5c-0.1,0.3-0.2,0.5-0.2,0.7s-0.2,0.3-0.3,0.5c-0.1,0-0.2,0-0.2,0s-0.1,0.1-0.1,0.1c-0.1,0-0.1,0-0.2,0
		s-0.1,0-0.1-0.1s-0.1,0-0.1-0.1s-0.1,0-0.2,0c0-0.1,0-0.1-0.1-0.2s-0.1-0.1-0.2-0.1c0-0.1,0-0.1,0-0.2s0-0.1,0-0.1s0-0.1,0-0.1
		s0-0.1,0-0.1c0,0-0.1,0-0.1-0.1s-0.1-0.1-0.1-0.2c0-0.1,0-0.3,0.1-0.4s0.1-0.2,0.1-0.4s0.1-0.2,0.1-0.3s0-0.2,0-0.3
		c0,0,0.1,0,0.1,0s0-0.1,0-0.1s0-0.1,0-0.2s0-0.1,0-0.1c0.1-0.2,0.1-0.4,0.2-0.6s0.1-0.4,0.1-0.6s0.1-0.4,0.1-0.6s0.1-0.4,0.2-0.6
		c0.1,0,0.2,0,0.3,0s0.2,0.1,0.2,0.1c0.2-0.2,0.4-0.3,0.5-0.6s0.3-0.4,0.5-0.7s0.3-0.4,0.5-0.6s0.5-0.3,0.8-0.3
		c0.2,0.1,0.3,0.2,0.5,0.4s0.3,0.3,0.5,0.5c0.1,0,0.1,0.1,0.2,0.1s0.1,0.1,0.2,0.1v0.1c0.1,0.1,0.2,0.2,0.2,0.3s0.1,0.2,0.2,0.4
		s0.1,0.3,0.1,0.4s0.1,0.3,0.2,0.4c0,0,0,0.1,0,0.1s0,0.1,0,0.1s0,0.1,0,0.1s0,0.1,0,0.1c0,0.3-0.1,0.6-0.3,0.8s-0.4,0.4-0.7,0.5
		s-0.6,0.3-0.9,0.3s-0.6,0.2-0.9,0.3c0,0,0,0,0,0s0,0,0,0.1c0.2,0.1,0.3,0.2,0.4,0.3s0.2,0.1,0.3,0.2s0.2,0.1,0.3,0.1
		s0.3,0.1,0.5,0.1s0.4,0.1,0.5,0.1s0.2,0.1,0.3,0.1s0.2,0,0.3,0s0.2,0,0.4,0c0.1,0.1,0.1,0.2,0.2,0.3s0.1,0.2,0.1,0.3s0,0.2,0,0.3
		s0,0.2-0.1,0.2c0,0,0,0,0.1,0s0.1,0,0.1,0c0,0-0.1,0.1-0.1,0.1s-0.1,0.1-0.1,0.1S97.7,28,97.7,28s-0.1,0.1-0.2,0.1
		c-0.2,0.1-0.5,0.1-0.9,0s-0.8-0.2-1.4-0.5c-0.3-0.1-0.5-0.2-0.7-0.3s-0.3-0.2-0.5-0.2s-0.2-0.2-0.4-0.3S93.5,26.6,93.3,26.5z
		 M95,22.5c-0.1,0.1-0.2,0.2-0.3,0.3s-0.2,0.2-0.3,0.3s-0.2,0.2-0.3,0.4S94,23.8,94,23.9c0.3,0,0.6-0.1,0.9-0.2s0.6-0.2,0.8-0.3
		c0-0.2-0.1-0.4-0.3-0.6S95.2,22.5,95,22.5z"/>
	<path class="st0" d="M98.1,22.4c0.1-0.2,0.1-0.3,0.3-0.4s0.3-0.2,0.4-0.3s0.3-0.2,0.5-0.2s0.3-0.1,0.4-0.1c0.3-0.1,0.6-0.3,1-0.4
		s0.7-0.2,1.1-0.3s0.8-0.2,1.1-0.2s0.8,0,1.2,0.1c0,0.1,0.1,0.2,0.1,0.2s0.1,0.1,0.1,0.2s0.1,0.1,0.1,0.2s0.1,0.1,0.1,0.2
		c0.1,0.1,0.1,0.1,0.2,0.2s0.1,0.2,0,0.3c-0.1,0.1-0.2,0.1-0.2,0.2s-0.2,0.1-0.2,0.1c-0.3-0.1-0.6-0.1-0.9-0.1s-0.6,0-0.8,0.1
		c-0.1-0.1-0.2-0.1-0.3-0.1s-0.2,0-0.3,0s-0.2,0.1-0.3,0.1s-0.2,0-0.3,0c-0.1,0.1-0.2,0.1-0.3,0.1s-0.2,0-0.4,0.1c0,0,0,0.1,0,0.1
		s0,0,0,0.1c0,0.1,0.1,0.1,0.2,0.1s0.2,0,0.2,0.1s0.2,0.1,0.2,0.1s0.1,0.1,0.1,0.2c0.1,0,0.2,0,0.3,0.1s0.2,0.1,0.2,0.2
		s0.1,0.2,0.1,0.3s0,0.2,0,0.2c0,0.1,0.1,0.1,0.1,0.1s0.1,0,0.1,0c0,0.1,0.1,0.2,0.2,0.3s0.2,0.2,0.2,0.3c0,0.2,0,0.4,0,0.5
		s0,0.3-0.1,0.5c-0.1,0.3-0.3,0.5-0.5,0.8s-0.4,0.4-0.7,0.6s-0.5,0.3-0.8,0.5s-0.6,0.2-0.9,0.3c0,0-0.1,0-0.1,0s0,0,0-0.1
		c-0.1,0.1-0.1,0.1-0.2,0.1s-0.2,0-0.2,0s-0.2,0-0.3,0s-0.2,0-0.3,0c-0.1-0.1-0.1-0.1-0.1-0.2s-0.1-0.1-0.1-0.2c0,0-0.1,0-0.1-0.1
		s0-0.1,0-0.1c0-0.1,0.1-0.1,0.1-0.1s0,0,0,0s0,0-0.1,0s0,0,0-0.1c0-0.1,0-0.1,0-0.2s0-0.2,0-0.3s0-0.2,0-0.2s0.1-0.1,0.2-0.2
		c0.3,0,0.5,0,0.8,0s0.5-0.1,0.7-0.2s0.4-0.2,0.6-0.3s0.4-0.2,0.6-0.3c0-0.1,0.1-0.1,0.1-0.2s0.1-0.1,0.1-0.1s0.1-0.1,0.1-0.1
		s0.1-0.1,0.1-0.2c0-0.1,0-0.1,0-0.1s-0.1,0-0.1-0.1l-0.1,0c-0.1-0.1-0.3-0.2-0.5-0.2s-0.3-0.1-0.5-0.2c-0.1,0-0.2,0.1-0.2,0
		s-0.2,0-0.3-0.1c-0.3,0-0.5,0-0.8-0.1s-0.5-0.1-0.7-0.2c0,0,0-0.1-0.1-0.1s-0.1,0-0.1,0c0-0.1-0.1-0.1-0.1-0.2s-0.1-0.1-0.1-0.2
		c0-0.1,0-0.2,0-0.2s0-0.1-0.1-0.2c0-0.1,0.1-0.2,0.1-0.2S98.1,22.5,98.1,22.4z"/>
	<path class="st0" d="M106.6,27.6c-0.2,0.1-0.5,0.1-0.7,0.2s-0.5,0.1-0.8,0.1c-0.4,0-0.7-0.1-0.9-0.3c0-0.1-0.1-0.1-0.1-0.2c0,0,0-0.1-0.1-0.1
		s0-0.1,0-0.1c-0.1-0.1-0.2-0.2-0.2-0.4s-0.1-0.3-0.1-0.4s0-0.3,0-0.5s0-0.3,0.1-0.4c0,0,0-0.1,0-0.1s0-0.1,0-0.1
		c0-0.1,0.1-0.2,0.1-0.4s0.1-0.2,0.1-0.3c0-0.1,0-0.1,0-0.2s0.1-0.2,0.1-0.2c0.1-0.3,0.2-0.5,0.3-0.8s0.2-0.4,0.2-0.6
		c0.1-0.4,0.3-0.7,0.4-1s0.2-0.7,0.3-1.1c0.1,0,0.1-0.1,0.1-0.1c0,0,0.1,0,0.1,0c0.1,0.1,0.3,0.1,0.5,0.2s0.3,0.1,0.5,0.1
		c0.1,0,0.1,0.1,0.1,0.1s0,0,0,0.1c0.1,0.1,0.2,0.2,0.2,0.3s0.1,0.2,0.1,0.4c0,0.1-0.1,0.1-0.1,0.1c0,0.2-0.1,0.3-0.1,0.4
		s-0.1,0.2-0.1,0.3c-0.1,0.1-0.1,0.2-0.2,0.4s-0.1,0.3-0.1,0.4c0,0-0.1,0.1-0.1,0.1s0,0.1,0,0.1s0,0.1-0.1,0.1s0,0.1-0.1,0.1
		c0,0.2-0.1,0.4-0.1,0.5s-0.1,0.3-0.2,0.4c-0.1,0.2-0.2,0.5-0.3,0.7s-0.1,0.5-0.1,0.8c0,0,0.1,0,0.1,0s0.1,0,0.1,0
		c0.1,0,0.2,0,0.2,0c0.2-0.1,0.5-0.2,0.8-0.2s0.6,0,0.8,0c0.1,0,0.2,0,0.3,0s0.2,0,0.3,0c0.1,0,0.1,0.1,0.1,0.1s0,0,0.1,0
		c0.1,0,0.1,0,0.1,0c0.1,0.1,0.2,0.1,0.3,0.2s0.2,0.1,0.3,0.1c0.1,0,0.2,0.1,0.3,0.1s0.2,0.1,0.2,0.1l0.1,0.5
		c0.1,0.1,0.1,0.1,0.1,0.1c0,0.1,0,0.1,0,0.1l0,0.1c-0.1,0-0.2,0.1-0.2,0.1s-0.1,0.1-0.1,0.1c-0.1,0-0.1,0-0.1,0s-0.1,0-0.1,0
		c-0.1,0-0.2,0-0.4,0.1c-0.2-0.1-0.4-0.1-0.7-0.1c-0.1,0-0.2,0-0.3,0s-0.2,0-0.3,0c-0.1,0-0.2,0-0.3,0s-0.2,0-0.3,0L106.6,27.6z"/>
	<path class="st0" d="M116.4,21.1c0,0.1,0,0.1,0,0.1s0,0.1,0,0.1s0,0,0,0.1s0,0.1,0,0.1c-0.2,0.3-0.4,0.4-0.6,0.5s-0.4,0.2-0.7,0.2
		s-0.5,0.1-0.8,0.1s-0.5,0.1-0.8,0.3c-0.1,0-0.2,0-0.3,0s-0.2,0.1-0.4,0c0,0-0.1,0.1-0.2,0.1s-0.1,0-0.2,0.1c0,0.1,0,0.1,0,0.2
		s0,0.1,0,0.2c0.3,0,0.6,0,0.9,0s0.7-0.1,1-0.1c0,0,0,0.1,0,0.1s0,0,0,0.1c0.1,0,0.1,0.1,0.2,0.1s0.1,0.1,0.2,0.2s0.1,0.1,0.2,0.1
		s0.1,0,0.2,0c0,0.1,0.1,0.1,0.1,0.2s0,0.2,0,0.2c-0.1,0.1-0.3,0.2-0.4,0.3s-0.3,0.2-0.4,0.2s-0.3,0.1-0.4,0.2s-0.3,0.1-0.5,0.1
		c0,0-0.1,0-0.1,0s0,0-0.1,0c-0.1,0-0.2,0.1-0.3,0s-0.2,0-0.3,0c-0.1,0-0.2-0.1-0.3-0.1s-0.2,0-0.3,0c-0.1,0.2-0.2,0.3-0.3,0.5
		s-0.2,0.4-0.3,0.6c0.3,0,0.5,0.1,0.7,0s0.3,0,0.5,0s0.3,0,0.5-0.1s0.4,0,0.6,0c0.2-0.1,0.3-0.1,0.6-0.2s0.4-0.1,0.6-0.1
		c0.1,0,0.1,0.1,0.2,0.1s0.1,0.1,0.1,0.2s0.1,0.1,0.1,0.1s0.1,0.1,0.2,0c0,0,0.1,0.1,0.1,0.1s0,0.1,0,0.1s0,0.1,0,0.1s0.1,0,0.1,0
		c-0.1,0.3-0.3,0.5-0.4,0.6s-0.3,0.2-0.5,0.3s-0.4,0.1-0.7,0.2s-0.5,0.1-0.8,0.1c-0.1,0-0.1,0-0.2,0s-0.1,0-0.2,0
		c-0.2,0-0.4,0.1-0.6,0.1s-0.5,0-0.8,0s-0.5,0-0.7-0.1s-0.4-0.2-0.6-0.3c-0.1-0.1-0.1-0.1-0.1-0.2s-0.1-0.1-0.2-0.2
		c0-0.1,0-0.2,0-0.3s0-0.3-0.1-0.4s0-0.3-0.1-0.4s0-0.3,0-0.4c0-0.1,0.1-0.2,0.1-0.3s0.1-0.2,0.1-0.3c0,0,0.1,0,0.1-0.1s0,0,0.1,0
		c0-0.1,0.1-0.3,0.2-0.4s0.1-0.2,0.2-0.4s0.1-0.2,0.2-0.4s0.1-0.3,0.2-0.4c-0.1-0.1-0.2-0.2-0.2-0.3s-0.1-0.2-0.1-0.4s0-0.2-0.1-0.4
		s0-0.3-0.1-0.4c0.1-0.1,0.2-0.2,0.3-0.3s0.2-0.1,0.4-0.2s0.3-0.1,0.4-0.1s0.3-0.1,0.5-0.1c0.3-0.1,0.6-0.2,0.8-0.2s0.5-0.1,0.7-0.1
		s0.5-0.1,0.7-0.1s0.6-0.1,0.9-0.1c0.1,0.1,0.1,0.1,0.2,0.1c0-0.1,0.1-0.1,0.1-0.1s0.1,0,0.1-0.1c0.1,0.1,0.2,0.2,0.3,0.3
		S116.3,21.1,116.4,21.1z"/>
	<path class="st0" d="M122.7,21.1c0,0.1,0,0.1,0,0.1s0,0.1,0,0.1s0,0,0,0.1s0,0.1,0,0.1c-0.2,0.3-0.4,0.4-0.6,0.5s-0.4,0.2-0.7,0.2
		s-0.5,0.1-0.8,0.1s-0.5,0.1-0.8,0.3c-0.1,0-0.2,0-0.3,0s-0.2,0.1-0.4,0c0,0-0.1,0.1-0.2,0.1s-0.1,0-0.2,0.1c0,0.1,0,0.1,0,0.2
		s0,0.1,0,0.2c0.3,0,0.6,0,0.9,0s0.7-0.1,1-0.1c0,0,0,0.1,0,0.1s0,0,0,0.1c0.1,0,0.1,0.1,0.2,0.1s0.1,0.1,0.2,0.2s0.1,0.1,0.2,0.1
		s0.1,0,0.2,0c0,0.1,0.1,0.1,0.1,0.2s0,0.2,0,0.2c-0.1,0.1-0.3,0.2-0.4,0.3s-0.3,0.2-0.4,0.2s-0.3,0.1-0.4,0.2S120,25,119.8,25
		c0,0-0.1,0-0.1,0s0,0-0.1,0c-0.1,0-0.2,0.1-0.3,0s-0.2,0-0.3,0c-0.1,0-0.2-0.1-0.3-0.1s-0.2,0-0.3,0c-0.1,0.2-0.2,0.3-0.3,0.5
		s-0.2,0.4-0.3,0.6c0.3,0,0.5,0.1,0.7,0s0.3,0,0.5,0s0.3,0,0.5-0.1s0.4,0,0.6,0c0.2-0.1,0.3-0.1,0.6-0.2s0.4-0.1,0.6-0.1
		c0.1,0,0.1,0.1,0.2,0.1s0.1,0.1,0.1,0.2s0.1,0.1,0.1,0.1s0.1,0.1,0.2,0c0,0,0.1,0.1,0.1,0.1s0,0.1,0,0.1s0,0.1,0,0.1s0.1,0,0.1,0
		c-0.1,0.3-0.3,0.5-0.4,0.6s-0.3,0.2-0.5,0.3s-0.4,0.1-0.7,0.2s-0.5,0.1-0.8,0.1c-0.1,0-0.1,0-0.2,0s-0.1,0-0.2,0
		c-0.2,0-0.4,0.1-0.6,0.1s-0.5,0-0.8,0s-0.5,0-0.7-0.1s-0.4-0.2-0.6-0.3c-0.1-0.1-0.1-0.1-0.1-0.2s-0.1-0.1-0.2-0.2
		c0-0.1,0-0.2,0-0.3s0-0.3-0.1-0.4s0-0.3-0.1-0.4s0-0.3,0-0.4c0-0.1,0.1-0.2,0.1-0.3s0.1-0.2,0.1-0.3c0,0,0.1,0,0.1-0.1s0,0,0.1,0
		c0-0.1,0.1-0.3,0.2-0.4s0.1-0.2,0.2-0.4s0.1-0.2,0.2-0.4s0.1-0.3,0.2-0.4c-0.1-0.1-0.2-0.2-0.2-0.3s-0.1-0.2-0.1-0.4s0-0.2-0.1-0.4
		s0-0.3-0.1-0.4c0.1-0.1,0.2-0.2,0.3-0.3s0.2-0.1,0.4-0.2s0.3-0.1,0.4-0.1s0.3-0.1,0.5-0.1c0.3-0.1,0.6-0.2,0.8-0.2s0.5-0.1,0.7-0.1
		s0.5-0.1,0.7-0.1s0.6-0.1,0.9-0.1c0.1,0.1,0.1,0.1,0.2,0.1c0-0.1,0.1-0.1,0.1-0.1s0.1,0,0.1-0.1c0.1,0.1,0.2,0.2,0.3,0.3
		S122.6,21.1,122.7,21.1z"/>
	<path class="st0" d="M126.8,20.4c0.3,0,0.6,0.1,0.9,0.2s0.5,0.2,0.7,0.4c0.1,0.2,0.2,0.4,0.4,0.6s0.2,0.5,0.3,0.7s0.1,0.5,0.1,0.8
		s-0.1,0.5-0.2,0.8c-0.2,0.3-0.5,0.5-0.8,0.7s-0.7,0.3-1,0.4s-0.8,0.2-1.2,0.3s-0.8,0.2-1.2,0.2c0,0.2,0,0.4,0,0.6s0,0.4-0.1,0.6
		s-0.1,0.4-0.2,0.6s-0.2,0.4-0.3,0.5c-0.1,0-0.3,0-0.4,0.1s-0.3,0.1-0.4,0.1c-0.1,0-0.1-0.1-0.1-0.1s-0.1,0-0.2-0.1
		c0-0.1,0-0.2-0.1-0.2s-0.1-0.2-0.2-0.3s-0.1-0.2-0.1-0.2s0-0.2,0.1-0.2c-0.1-0.1-0.1-0.1-0.1-0.2c0.1-0.1,0.1-0.2,0.1-0.4
		s0.1-0.3,0.1-0.5s0-0.3,0-0.4s-0.1-0.2-0.2-0.3c0,0,0,0,0,0s0,0,0.1,0c-0.1,0-0.1-0.1-0.1-0.2s0-0.2-0.1-0.2c0,0,0-0.1,0-0.1
		s0,0,0.1,0c0-0.1,0-0.3,0-0.4s0.1-0.2,0.1-0.4s0.1-0.2,0.2-0.3s0.2-0.2,0.2-0.3c0.1,0,0.1,0,0.1,0s0,0,0.1,0
		c0.1-0.1,0.2-0.2,0.2-0.2s0.1-0.2,0.1-0.3c0.1-0.2,0.1-0.3,0.2-0.5s0.2-0.3,0.3-0.5s0.2-0.3,0.3-0.4s0.2-0.2,0.4-0.2
		c0.1-0.1,0.2-0.2,0.4-0.2s0.3-0.1,0.5-0.2s0.3-0.1,0.5-0.1s0.3,0,0.5,0.1C126.8,20.5,126.8,20.5,126.8,20.4
		C126.8,20.5,126.8,20.4,126.8,20.4z M126.4,23.3c0.2-0.1,0.4-0.2,0.6-0.2s0.4-0.1,0.6-0.3c-0.1-0.1-0.2-0.2-0.4-0.2
		s-0.4-0.1-0.6-0.1s-0.4,0-0.6,0.1s-0.4,0.1-0.6,0.3c0,0.1-0.1,0.3-0.1,0.3s-0.1,0.2-0.1,0.3c0,0,0,0.1,0.1,0.1s0.1,0,0.1,0.1
		c0.2-0.1,0.4-0.1,0.5-0.2S126.2,23.3,126.4,23.3z"/>
</g>
<g>
</g>
<g>
</g>
<g>
</g>
<g>
</g>
<g>
</g>
<g>
</g>
</svg>
