<?xml version="1.0" encoding="utf-8"?>
<!-- Generator: Adobe Illustrator 21.1.0, SVG Export Plug-In . SVG Version: 6.00 Build 0)  -->
<svg version="1.1" id="Ebene_1" xmlns="http://www.w3.org/2000/svg" xmlns:xlink="http://www.w3.org/1999/xlink" x="0px" y="0px"
	 viewBox="0 0 195.7 34" style="enable-background:new 0 0 195.7 34;" xml:space="preserve">
<style type="text/css">
	.st0{fill:#fefefe;}
</style>
<g>
	<path class="st0" d="M1.5,10.8c-0.2-0.1-0.4-0.3-0.5-0.6S0.8,9.8,0.8,9.6c0-0.2,0.1-0.3,0.1-0.4s0.2-0.2,0.3-0.3s0.2-0.1,0.3-0.2
		s0.2-0.1,0.3-0.1L2,8.7c0,0,0.1,0.1,0.1,0.1s0.1,0.1,0.1,0.1c0.1,0,0.1-0.1,0.1-0.1s0-0.1,0.1-0.2c0-0.1,0.1-0.2,0.1-0.3
		S2.6,8.1,2.6,8c0-0.1,0-0.1,0-0.2s0-0.1,0-0.1c0,0-0.1-0.1-0.1-0.1s-0.1,0-0.1,0c0,0,0,0-0.1,0s-0.1,0-0.1,0
		C2.2,7.5,2.2,7.4,2.1,7.4S2,7.3,2,7.2S1.9,7.1,1.9,7S1.8,6.9,1.8,6.9L1.7,6.8l0.1-0.1c0,0,0,0,0-0.1s0-0.1,0-0.1c0-0.1,0-0.2,0-0.2
		l0-0.1C1.8,6,1.8,6,1.8,5.9L2,5.8c0.2,0,0.4-0.1,0.6-0.2s0.4-0.1,0.6-0.2s0.4-0.1,0.6-0.2S4,5.2,4.2,5.1C4.2,5.1,4.3,5,4.4,5
		s0.1,0,0.2,0c0.1,0,0.1,0,0.2,0s0.1,0,0.1-0.1c0.1,0,0.3-0.1,0.4-0.1c0.2-0.1,0.5-0.1,0.9-0.2S7,4.5,7.4,4.4l0.2,0c0,0,0.1,0,0.1,0
		s0.1,0,0.1,0c0.4,0,0.7,0.1,0.8,0.4c0.1,0,0.1,0.1,0.2,0.1S9.1,5,9.2,5.1c0,0,0.1,0.1,0.1,0.1s0.1,0,0.1,0.1l0.1,0.1
		c0.1,0.2,0.1,0.4,0,0.6C9.4,6,9.4,6,9.3,6.1s-0.1,0-0.2,0L9,6.2c-0.1,0-0.2,0-0.2,0s-0.1,0-0.2,0c-0.2,0-0.5,0-0.8,0
		S7.2,6.3,6.9,6.3S6.2,6.5,5.9,6.5S5.4,6.7,5.1,6.8C5.1,6.8,5,6.9,4.9,6.9c0,0-0.1,0-0.1,0.1c0,0.1,0,0.1,0,0.2s0,0.1,0,0.2
		c0,0,0,0.1,0,0.1s0,0.1,0,0.1C4.6,7.8,4.5,8,4.5,8.3L4.4,8.4c0,0-0.1,0.1-0.1,0.1s0,0.1,0,0.2l0,0.1c0.2,0,0.3,0,0.5-0.1
		s0.3,0,0.5-0.1c0.2,0,0.4-0.1,0.7-0.1s0.5,0,0.7,0h0.5L7,8.7l0.1,0L7.1,8.9c0.1,0,0.1,0,0.1,0.1s0.1,0,0.1,0l0.1,0.1
		c0,0,0.1,0.1,0.1,0.1s0.1,0.1,0.1,0.2l0,0.1L7,10.2l-0.1,0.1l-0.1,0c-0.1,0-0.3,0-0.4,0c-0.1,0-0.1,0-0.2,0.1s-0.1,0-0.2,0
		c-0.2,0-0.3,0.1-0.5,0.1s-0.3,0-0.4,0.1c-0.2,0-0.3,0.1-0.5,0.1s-0.3,0.1-0.5,0.1c-0.1,0-0.1,0-0.2,0s0,0,0,0c-0.1,0-0.2,0-0.2,0
		s-0.2,0-0.2,0.1c0,0-0.1,0.1-0.1,0.1s0,0.1,0,0.1c0,0.1,0,0.1-0.1,0.2s-0.1,0.1-0.1,0.2l0,0.2c-0.1,0-0.1,0-0.1,0s0,0,0,0
		c0,0.1,0,0.1,0,0.2S3,12,3,12c0,0,0,0.1,0,0.1s0,0,0,0.1C3,12.3,3.1,12.5,3,12.6c0,0.1-0.1,0.3-0.2,0.4s-0.2,0.2-0.3,0.3
		c-0.1,0-0.2,0-0.3,0s-0.1,0-0.2-0.1c0,0-0.1,0-0.1,0s-0.1,0-0.1,0L1.7,13c0,0-0.1-0.1-0.1-0.1s-0.1-0.1-0.1-0.1
		c0-0.1-0.1-0.1-0.1-0.2s-0.1-0.1-0.1-0.2c-0.1-0.3-0.1-0.5,0-0.7s0.1-0.4,0.1-0.5c0-0.1,0-0.1,0-0.2S1.5,10.9,1.5,10.8z"/>
	<path class="st0" d="M14.5,9.7c0,0.1,0,0.2,0,0.3s0.1,0.2,0.1,0.3s0.1,0.2,0.1,0.3s0.1,0.2,0.1,0.3c0,0.1,0,0.2,0,0.4
		s0,0.3-0.1,0.4s-0.1,0.2-0.2,0.3s-0.1,0.2-0.2,0.2c-0.1,0.1-0.2,0.3-0.4,0.3s-0.3,0.2-0.4,0.3c-0.1,0.1-0.2,0.1-0.3,0.1
		s-0.2,0-0.3,0.1c-0.1,0-0.2,0.1-0.3,0.1s-0.2,0.1-0.4,0.1s-0.3,0.1-0.4,0.1s-0.2,0-0.3,0c-0.2,0.1-0.5,0.1-0.7,0.2s-0.5,0-0.8-0.1
		c-0.3,0-0.5,0-0.8,0S8.8,13.1,8.6,13s-0.3-0.3-0.5-0.5s-0.2-0.4-0.3-0.6c-0.1-0.4,0-0.8,0-1.2s0.2-0.7,0.4-1s0.4-0.6,0.6-0.9
		S9.3,8.3,9.5,8c0,0,0.1,0,0.1,0s0.1,0,0.1-0.1s0-0.1,0.1-0.1s0.1-0.1,0.1-0.1c0.1-0.1,0.1-0.2,0.2-0.3s0.2-0.1,0.3-0.3
		c0.1,0,0.1,0,0.2-0.1s0.1-0.1,0.1-0.1S10.8,7,10.8,7s0.1-0.1,0.2-0.1V6.8c0.1-0.1,0.2-0.1,0.3-0.2s0.1-0.2,0.2-0.3
		c0.1,0,0.1,0,0.2,0s0.1,0,0.2,0C12,6.1,12,6,12.1,6s0.1-0.1,0.2-0.2c0.1,0,0.2,0.1,0.3,0.1s0.2,0.1,0.3,0.2c0,0.1,0,0.1,0.1,0.2
		s0.1,0.1,0.1,0.1s0.1,0.1,0.1,0.1s0.1,0.1,0.1,0.2c0,0,0.1,0,0.1,0s0,0,0.1,0c0,0.1,0.1,0.2,0.1,0.2s0.1,0.1,0.1,0.2
		c0,0.1-0.1,0.2-0.1,0.2s-0.1,0.1-0.1,0.2c0,0.1,0,0.1,0,0.1s0.1,0,0.1,0.1c0,0.1,0,0.1,0,0.2c0.2,0.3,0.4,0.6,0.5,1
		S14.3,9.4,14.5,9.7z M13,10.8c0-0.1,0.1-0.2,0.1-0.2s0.1-0.1,0.1-0.2c0-0.1-0.1-0.1-0.1-0.1s0-0.1,0-0.2c-0.2-0.2-0.3-0.5-0.4-0.8
		s-0.3-0.5-0.4-0.8c0,0,0,0.1-0.1,0.1s-0.1,0-0.1,0c0,0.1,0,0.1-0.1,0.1s-0.1,0-0.1,0s-0.1,0-0.1,0s-0.1,0-0.1-0.1
		c-0.2,0.2-0.5,0.4-0.7,0.5s-0.4,0.4-0.6,0.6c0,0-0.1,0-0.1,0s0,0-0.1,0C10.1,9.9,10,10,9.9,10.2s-0.2,0.2-0.3,0.4s-0.2,0.3-0.2,0.4
		s-0.1,0.3-0.1,0.5c0.1,0.1,0.3,0.2,0.5,0.2s0.4,0,0.6,0s0.4,0,0.6-0.1s0.4-0.1,0.5-0.1c0.3-0.1,0.6-0.2,0.8-0.3S12.8,10.9,13,10.8z
		"/>
	<path class="st0" d="M17.1,12c-0.1,0.3-0.2,0.5-0.2,0.7s-0.2,0.3-0.3,0.5c-0.1,0-0.2,0-0.2,0s-0.1,0.1-0.1,0.1c-0.1,0-0.1,0-0.2,0
		s-0.1,0-0.1-0.1s-0.1,0-0.1-0.1s-0.1,0-0.2,0c0-0.1,0-0.1-0.1-0.2s-0.1-0.1-0.2-0.1c0-0.1,0-0.1,0-0.2s0-0.1,0-0.1s0-0.1,0-0.1
		s0-0.1,0-0.1c0,0-0.1,0-0.1-0.1s-0.1-0.1-0.1-0.2c0-0.1,0-0.3,0.1-0.4s0.1-0.2,0.1-0.4s0.1-0.2,0.1-0.3s0-0.2,0-0.3
		c0,0,0.1,0,0.1,0s0-0.1,0-0.1s0-0.1,0-0.2s0-0.1,0-0.1c0.1-0.2,0.1-0.4,0.2-0.6S15.9,9.2,16,9s0.1-0.4,0.1-0.6s0.1-0.4,0.2-0.6
		c0.1,0,0.2,0,0.3,0S16.8,8,16.8,8c0.2-0.2,0.4-0.3,0.5-0.6s0.3-0.4,0.5-0.7s0.3-0.4,0.5-0.6s0.5-0.3,0.8-0.3
		c0.2,0.1,0.3,0.2,0.5,0.4s0.3,0.3,0.5,0.5c0.1,0,0.1,0.1,0.2,0.1s0.1,0.1,0.2,0.1v0.1c0.1,0.1,0.2,0.2,0.2,0.3s0.1,0.2,0.2,0.4
		s0.1,0.3,0.1,0.4s0.1,0.3,0.2,0.4c0,0,0,0.1,0,0.1s0,0.1,0,0.1s0,0.1,0,0.1s0,0.1,0,0.1c0,0.3-0.1,0.6-0.3,0.8s-0.4,0.4-0.7,0.5
		s-0.6,0.3-0.9,0.3s-0.6,0.2-0.9,0.3c0,0,0,0,0,0s0,0,0,0.1c0.2,0.1,0.3,0.2,0.4,0.3s0.2,0.1,0.3,0.2s0.2,0.1,0.3,0.1
		s0.3,0.1,0.5,0.1s0.4,0.1,0.5,0.1s0.2,0.1,0.3,0.1s0.2,0,0.3,0s0.2,0,0.4,0c0.1,0.1,0.1,0.2,0.2,0.3s0.1,0.2,0.1,0.3s0,0.2,0,0.3
		s0,0.2-0.1,0.2c0,0,0,0,0.1,0s0.1,0,0.1,0c0,0-0.1,0.1-0.1,0.1s-0.1,0.1-0.1,0.1s-0.1,0.1-0.1,0.1s-0.1,0.1-0.2,0.1
		c-0.2,0.1-0.5,0.1-0.9,0s-0.8-0.2-1.4-0.5c-0.3-0.1-0.5-0.2-0.7-0.3s-0.3-0.2-0.5-0.2s-0.2-0.2-0.4-0.3S17.3,12.1,17.1,12z M18.8,8
		c-0.1,0.1-0.2,0.2-0.3,0.3s-0.2,0.2-0.3,0.3S18,8.8,17.9,9s-0.1,0.3-0.2,0.5c0.3,0,0.6-0.1,0.9-0.2s0.6-0.2,0.8-0.3
		c0-0.2-0.1-0.4-0.3-0.6S18.9,8,18.8,8z"/>
	<path class="st0" d="M32.7,6.6c0,0.1,0,0.1,0,0.1s0,0.1,0,0.1s0,0,0,0.1s0,0.1,0,0.1c-0.2,0.3-0.4,0.4-0.6,0.5s-0.4,0.2-0.7,0.2
		s-0.5,0.1-0.8,0.1S30.1,8,29.9,8.2c-0.1,0-0.2,0-0.3,0s-0.2,0.1-0.4,0c0,0-0.1,0.1-0.2,0.1s-0.1,0-0.2,0.1c0,0.1,0,0.1,0,0.2
		s0,0.1,0,0.2c0.3,0,0.6,0,0.9,0s0.7-0.1,1-0.1c0,0,0,0.1,0,0.1s0,0,0,0.1C30.9,8.9,30.9,9,31,9s0.1,0.1,0.2,0.2s0.1,0.1,0.2,0.1
		s0.1,0,0.2,0c0,0.1,0.1,0.1,0.1,0.2s0,0.2,0,0.2c-0.1,0.1-0.3,0.2-0.4,0.3s-0.3,0.2-0.4,0.2s-0.3,0.1-0.4,0.2s-0.3,0.1-0.5,0.1
		c0,0-0.1,0-0.1,0s0,0-0.1,0c-0.1,0-0.2,0.1-0.3,0s-0.2,0-0.3,0c-0.1,0-0.2-0.1-0.3-0.1s-0.2,0-0.3,0c-0.1,0.2-0.2,0.3-0.3,0.5
		s-0.2,0.4-0.3,0.6c0.3,0,0.5,0.1,0.7,0s0.3,0,0.5,0s0.3,0,0.5-0.1s0.4,0,0.6,0c0.2-0.1,0.3-0.1,0.6-0.2s0.4-0.1,0.6-0.1
		c0.1,0,0.1,0.1,0.2,0.1s0.1,0.1,0.1,0.2s0.1,0.1,0.1,0.1s0.1,0.1,0.2,0c0,0,0.1,0.1,0.1,0.1s0,0.1,0,0.1s0,0.1,0,0.1s0.1,0,0.1,0
		c-0.1,0.3-0.3,0.5-0.4,0.6s-0.3,0.2-0.5,0.3s-0.4,0.1-0.7,0.2s-0.5,0.1-0.8,0.1c-0.1,0-0.1,0-0.2,0s-0.1,0-0.2,0
		c-0.2,0-0.4,0.1-0.6,0.1s-0.5,0-0.8,0s-0.5,0-0.7-0.1s-0.4-0.2-0.6-0.3c-0.1-0.1-0.1-0.1-0.1-0.2s-0.1-0.1-0.2-0.2
		c0-0.1,0-0.2,0-0.3s0-0.3-0.1-0.4s0-0.3-0.1-0.4s0-0.3,0-0.4c0-0.1,0.1-0.2,0.1-0.3s0.1-0.2,0.1-0.3c0,0,0.1,0,0.1-0.1s0,0,0.1,0
		c0-0.1,0.1-0.3,0.2-0.4s0.1-0.2,0.2-0.4s0.1-0.2,0.2-0.4s0.1-0.3,0.2-0.4c-0.1-0.1-0.2-0.2-0.2-0.3S27,8.3,27,8.1s0-0.2-0.1-0.4
		s0-0.3-0.1-0.4c0.1-0.1,0.2-0.2,0.3-0.3s0.2-0.1,0.4-0.2s0.3-0.1,0.4-0.1s0.3-0.1,0.5-0.1c0.3-0.1,0.6-0.2,0.8-0.2s0.5-0.1,0.7-0.1
		s0.5-0.1,0.7-0.1s0.6-0.1,0.9-0.1c0.1,0.1,0.1,0.1,0.2,0.1c0-0.1,0.1-0.1,0.1-0.1S32,6.1,32,6c0.1,0.1,0.2,0.2,0.3,0.3
		S32.5,6.5,32.7,6.6z"/>
	<path class="st0" d="M36.3,11.1c0,0.1,0,0.2-0.1,0.3s-0.1,0.2-0.2,0.3s-0.1,0.2-0.2,0.3s-0.1,0.2-0.2,0.2c0,0.1,0,0.2,0,0.2
		s0,0.1,0,0.2c-0.1,0.3-0.3,0.5-0.5,0.6s-0.5,0.1-0.7-0.1c-0.1-0.1-0.2-0.1-0.2-0.2s-0.1-0.2-0.2-0.2c0-0.1,0-0.3,0-0.4
		s-0.1-0.2-0.2-0.2c0-0.2-0.1-0.3-0.1-0.5s-0.1-0.4-0.1-0.6s-0.1-0.4-0.1-0.6s0-0.4,0-0.5c0-0.1,0-0.1,0-0.2s-0.1-0.1-0.1-0.2
		c0-0.2,0-0.4,0-0.6s0-0.4,0-0.6c0-0.2,0-0.4,0-0.6s0-0.4-0.1-0.6s0-0.4,0-0.5s0-0.3,0.1-0.4c0-0.1,0.1-0.2,0.2-0.2s0.2-0.1,0.2-0.2
		c0.2,0,0.3,0.1,0.4,0.2s0.1,0.2,0.1,0.4c0.2,0.1,0.3,0.2,0.4,0.4s0.2,0.3,0.2,0.5s0.1,0.4,0.1,0.6s0,0.4,0.1,0.7s0,0.4,0,0.6
		s0,0.4,0.1,0.5c0.3-0.4,0.5-0.8,0.7-1.1s0.4-0.6,0.6-0.9s0.4-0.6,0.7-0.9s0.6-0.6,1-1c0.1,0,0.1,0,0.2,0s0.1,0,0.1,0.1s0.1,0,0.1,0
		s0.1,0,0.2,0c0,0.1,0.1,0.1,0.1,0.2s0,0.1,0,0.1s0,0.1,0,0.1s0.1,0.1,0.1,0.2c0,0,0,0.1,0,0.1s0,0.1,0,0.1s0,0.1,0,0.1s0,0,0.1,0
		c0,0.1-0.1,0.2-0.1,0.3s-0.1,0.2-0.1,0.3c-0.2,0.2-0.4,0.5-0.6,0.7s-0.4,0.5-0.6,0.8s-0.4,0.5-0.6,0.8s-0.4,0.6-0.5,0.9
		c0,0-0.1,0-0.1,0s0,0-0.1,0.1S36.4,11.1,36.3,11.1C36.4,11.1,36.3,11.1,36.3,11.1z"/>
	<path class="st0" d="M44.8,6.6c0,0.1,0,0.1,0,0.1s0,0.1,0,0.1s0,0,0,0.1s0,0.1,0,0.1c-0.2,0.3-0.4,0.4-0.6,0.5s-0.4,0.2-0.7,0.2
		S43,7.8,42.7,7.9S42.2,8,42,8.2c-0.1,0-0.2,0-0.3,0s-0.2,0.1-0.4,0c0,0-0.1,0.1-0.2,0.1s-0.1,0-0.2,0.1c0,0.1,0,0.1,0,0.2
		s0,0.1,0,0.2c0.3,0,0.6,0,0.9,0s0.7-0.1,1-0.1c0,0,0,0.1,0,0.1s0,0,0,0.1C42.9,8.9,43,9,43,9s0.1,0.1,0.2,0.2s0.1,0.1,0.2,0.1
		s0.1,0,0.2,0c0,0.1,0.1,0.1,0.1,0.2s0,0.2,0,0.2c-0.1,0.1-0.3,0.2-0.4,0.3s-0.3,0.2-0.4,0.2s-0.3,0.1-0.4,0.2s-0.3,0.1-0.5,0.1
		c0,0-0.1,0-0.1,0s0,0-0.1,0c-0.1,0-0.2,0.1-0.3,0s-0.2,0-0.3,0c-0.1,0-0.2-0.1-0.3-0.1s-0.2,0-0.3,0c-0.1,0.2-0.2,0.3-0.3,0.5
		s-0.2,0.4-0.3,0.6c0.3,0,0.5,0.1,0.7,0s0.3,0,0.5,0s0.3,0,0.5-0.1s0.4,0,0.6,0c0.2-0.1,0.3-0.1,0.6-0.2s0.4-0.1,0.6-0.1
		c0.1,0,0.1,0.1,0.2,0.1s0.1,0.1,0.1,0.2s0.1,0.1,0.1,0.1s0.1,0.1,0.2,0c0,0,0.1,0.1,0.1,0.1s0,0.1,0,0.1s0,0.1,0,0.1s0.1,0,0.1,0
		c-0.1,0.3-0.3,0.5-0.4,0.6s-0.3,0.2-0.5,0.3s-0.4,0.1-0.7,0.2s-0.5,0.1-0.8,0.1c-0.1,0-0.1,0-0.2,0s-0.1,0-0.2,0
		c-0.2,0-0.4,0.1-0.6,0.1s-0.5,0-0.8,0s-0.5,0-0.7-0.1s-0.4-0.2-0.6-0.3c-0.1-0.1-0.1-0.1-0.1-0.2s-0.1-0.1-0.2-0.2
		c0-0.1,0-0.2,0-0.3s0-0.3-0.1-0.4s0-0.3-0.1-0.4s0-0.3,0-0.4c0-0.1,0.1-0.2,0.1-0.3s0.1-0.2,0.1-0.3c0,0,0.1,0,0.1-0.1s0,0,0.1,0
		c0-0.1,0.1-0.3,0.2-0.4s0.1-0.2,0.2-0.4s0.1-0.2,0.2-0.4s0.1-0.3,0.2-0.4c-0.1-0.1-0.2-0.2-0.2-0.3s-0.1-0.2-0.1-0.4s0-0.2-0.1-0.4
		s0-0.3-0.1-0.4c0.1-0.1,0.2-0.2,0.3-0.3s0.2-0.1,0.4-0.2s0.3-0.1,0.4-0.1s0.3-0.1,0.5-0.1c0.3-0.1,0.6-0.2,0.8-0.2s0.5-0.1,0.7-0.1
		s0.5-0.1,0.7-0.1s0.6-0.1,0.9-0.1c0.1,0.1,0.1,0.1,0.2,0.1c0-0.1,0.1-0.1,0.1-0.1s0.1,0,0.1-0.1c0.1,0.1,0.2,0.2,0.3,0.3
		S44.6,6.5,44.8,6.6z"/>
	<path class="st0" d="M46.3,12c-0.1,0.3-0.2,0.5-0.2,0.7s-0.2,0.3-0.3,0.5c-0.1,0-0.2,0-0.2,0s-0.1,0.1-0.1,0.1c-0.1,0-0.1,0-0.2,0
		s-0.1,0-0.1-0.1s-0.1,0-0.1-0.1s-0.1,0-0.2,0c0-0.1,0-0.1-0.1-0.2s-0.1-0.1-0.2-0.1c0-0.1,0-0.1,0-0.2s0-0.1,0-0.1s0-0.1,0-0.1
		s0-0.1,0-0.1c0,0-0.1,0-0.1-0.1s-0.1-0.1-0.1-0.2c0-0.1,0-0.3,0.1-0.4s0.1-0.2,0.1-0.4s0.1-0.2,0.1-0.3s0-0.2,0-0.3
		c0,0,0.1,0,0.1,0s0-0.1,0-0.1s0-0.1,0-0.2s0-0.1,0-0.1c0.1-0.2,0.1-0.4,0.2-0.6s0.1-0.4,0.1-0.6s0.1-0.4,0.1-0.6s0.1-0.4,0.2-0.6
		c0.1,0,0.2,0,0.3,0S45.9,8,45.9,8c0.2-0.2,0.4-0.3,0.5-0.6S46.8,7,47,6.8s0.3-0.4,0.5-0.6S48,6,48.3,5.9c0.2,0.1,0.3,0.2,0.5,0.4
		s0.3,0.3,0.5,0.5c0.1,0,0.1,0.1,0.2,0.1s0.1,0.1,0.2,0.1v0.1c0.1,0.1,0.2,0.2,0.2,0.3s0.1,0.2,0.2,0.4s0.1,0.3,0.1,0.4
		s0.1,0.3,0.2,0.4c0,0,0,0.1,0,0.1s0,0.1,0,0.1s0,0.1,0,0.1s0,0.1,0,0.1c0,0.3-0.1,0.6-0.3,0.8s-0.4,0.4-0.7,0.5s-0.6,0.3-0.9,0.3
		s-0.6,0.2-0.9,0.3c0,0,0,0,0,0s0,0,0,0.1c0.2,0.1,0.3,0.2,0.4,0.3s0.2,0.1,0.3,0.2s0.2,0.1,0.3,0.1s0.3,0.1,0.5,0.1
		s0.4,0.1,0.5,0.1s0.2,0.1,0.3,0.1s0.2,0,0.3,0s0.2,0,0.4,0c0.1,0.1,0.1,0.2,0.2,0.3s0.1,0.2,0.1,0.3s0,0.2,0,0.3s0,0.2-0.1,0.2
		c0,0,0,0,0.1,0s0.1,0,0.1,0c0,0-0.1,0.1-0.1,0.1s-0.1,0.1-0.1,0.1s-0.1,0.1-0.1,0.1s-0.1,0.1-0.2,0.1c-0.2,0.1-0.5,0.1-0.9,0
		s-0.8-0.2-1.4-0.5c-0.3-0.1-0.5-0.2-0.7-0.3s-0.3-0.2-0.5-0.2s-0.2-0.2-0.4-0.3S46.4,12.1,46.3,12z M47.9,8
		c-0.1,0.1-0.2,0.2-0.3,0.3s-0.2,0.2-0.3,0.3S47.2,8.8,47.1,9s-0.1,0.3-0.2,0.5c0.3,0,0.6-0.1,0.9-0.2s0.6-0.2,0.8-0.3
		c0-0.2-0.1-0.4-0.3-0.6S48.1,8,47.9,8z"/>
	<path class="st0" d="M54.4,10.1c-0.1,0-0.1,0.1-0.1,0.2s-0.1,0.1-0.1,0.2c0,0.1-0.1,0.2-0.1,0.2s-0.1,0.1-0.2,0.2
		c0,0.1-0.1,0.2-0.1,0.3s-0.1,0.1-0.2,0.2c-0.1,0.3-0.3,0.7-0.6,1c0,0.1,0,0.1-0.1,0.2s-0.1,0.1-0.1,0.2c0,0,0,0,0,0.1s0,0,0,0.1
		l0,0.1c0,0.1-0.1,0.1-0.1,0.2s-0.1,0.1-0.1,0.1c0,0,0,0.1-0.1,0.1l-0.2,0.1c-0.6-0.1-0.9-0.4-1-0.9l0-0.1c0,0,0-0.1,0-0.1
		s0-0.1,0-0.1c0-0.1,0.1-0.2,0.1-0.3s0.1-0.2,0.2-0.3c0-0.1,0.1-0.1,0.1-0.3s0.1-0.3,0.3-0.5c0.1-0.2,0.2-0.3,0.3-0.4
		s0.1-0.2,0.2-0.3c-0.1-0.1-0.2-0.2-0.3-0.3c-0.1-0.2-0.2-0.4-0.3-0.6s-0.1-0.3-0.2-0.5c0-0.1,0-0.2,0-0.3s0-0.1,0-0.2
		c0-0.1,0-0.2-0.1-0.3s0-0.2,0-0.3c0-0.1-0.1-0.1-0.1-0.2l0-0.1c0-0.1,0-0.1,0-0.2s0-0.2-0.1-0.3c0-0.1,0-0.2-0.1-0.3s0-0.2,0-0.3
		s0-0.2,0.1-0.3s0.1-0.2,0.2-0.2l0.2,0c0.1,0,0.1,0.1,0.2,0.1s0.1,0.1,0.2,0.1c0.1,0,0.2,0.1,0.2,0.1s0.2,0.1,0.2,0.2l0.1,0.2
		l0.2,0.1v0.1c0,0,0,0.1,0,0.1c0,0.1,0,0.2,0,0.2l0,0.1c0,0.1,0,0.2,0,0.3s0,0.2,0.1,0.3s0,0.2,0.1,0.3s0,0.2,0,0.3
		c0,0,0.1-0.1,0.1-0.1c0,0,0,0,0,0s0,0,0,0l0.7-0.9l0-0.1l0.2-0.2C54.4,7,54.4,7,54.5,6.9s0.1-0.1,0.1-0.2l0.1-0.1
		C55,6.2,55.4,6,55.8,5.9l0.2,0L56,6c0,0.1,0.1,0.2,0.2,0.2s0.2,0.1,0.3,0.2l0.1,0.1c0,0.1,0.1,0.1,0.1,0.2s0,0.1,0,0.1l0,0.1
		c-0.1,0.2-0.1,0.3-0.2,0.4s-0.2,0.2-0.3,0.2c-0.1,0.1-0.1,0.1-0.2,0.2S56,7.9,55.9,7.9L55.8,8c-0.2,0.1-0.3,0.2-0.3,0.4l0,0.1h-0.1
		c0,0,0,0-0.1,0s-0.1,0.1-0.1,0.2c-0.1,0.1-0.1,0.1-0.1,0.2S55,9,55,9c0,0,0,0.1,0,0.1s0,0.1,0,0.1c-0.1,0.1-0.2,0.2-0.2,0.2
		s-0.1,0.1-0.1,0.2s-0.1,0.1-0.1,0.2s-0.1,0.1-0.1,0.2L54.4,10.1z"/>
	<path class="st0" d="M63.8,11.1c0,0.1,0,0.2-0.1,0.3s-0.1,0.2-0.2,0.3s-0.1,0.2-0.2,0.3s-0.1,0.2-0.2,0.2c0,0.1,0,0.2,0,0.2
		s0,0.1,0,0.2c-0.1,0.3-0.3,0.5-0.5,0.6s-0.5,0.1-0.7-0.1c-0.1-0.1-0.2-0.1-0.2-0.2s-0.1-0.2-0.2-0.2c0-0.1,0-0.3,0-0.4
		s-0.1-0.2-0.2-0.2c0-0.2-0.1-0.3-0.1-0.5s-0.1-0.4-0.1-0.6s-0.1-0.4-0.1-0.6s0-0.4,0-0.5c0-0.1,0-0.1,0-0.2s-0.1-0.1-0.1-0.2
		c0-0.2,0-0.4,0-0.6s0-0.4,0-0.6c0-0.2,0-0.4,0-0.6s0-0.4-0.1-0.6s0-0.4,0-0.5s0-0.3,0.1-0.4c0-0.1,0.1-0.2,0.2-0.2s0.2-0.1,0.2-0.2
		c0.2,0,0.3,0.1,0.4,0.2s0.1,0.2,0.1,0.4C61.8,6.7,62,6.8,62.1,7s0.2,0.3,0.2,0.5s0.1,0.4,0.1,0.6s0,0.4,0.1,0.7s0,0.4,0,0.6
		s0,0.4,0.1,0.5c0.3-0.4,0.5-0.8,0.7-1.1s0.4-0.6,0.6-0.9s0.4-0.6,0.7-0.9s0.6-0.6,1-1c0.1,0,0.1,0,0.2,0s0.1,0,0.1,0.1s0.1,0,0.1,0
		s0.1,0,0.2,0c0,0.1,0.1,0.1,0.1,0.2s0,0.1,0,0.1s0,0.1,0,0.1s0.1,0.1,0.1,0.2c0,0,0,0.1,0,0.1s0,0.1,0,0.1s0,0.1,0,0.1s0,0,0.1,0
		c0,0.1-0.1,0.2-0.1,0.3s-0.1,0.2-0.1,0.3c-0.2,0.2-0.4,0.5-0.6,0.7s-0.4,0.5-0.6,0.8s-0.4,0.5-0.6,0.8s-0.4,0.6-0.5,0.9
		c0,0-0.1,0-0.1,0s0,0-0.1,0.1S63.9,11.1,63.8,11.1C63.8,11.1,63.8,11.1,63.8,11.1z"/>
	<path class="st0" d="M71.5,12.2c0,0.1-0.1,0.3-0.2,0.4S71.1,12.9,71,13s-0.3,0.2-0.4,0.3s-0.3,0.1-0.5,0.1c-0.1,0-0.2,0-0.2-0.1
		s-0.1-0.1-0.1-0.1c0,0,0,0-0.1,0s0,0-0.1,0l-0.1-0.1l0-0.2c0-0.1,0-0.1,0-0.1s-0.1-0.1-0.1-0.1c0,0,0,0-0.1-0.1s0,0-0.1-0.1
		l-0.2-0.2l0.3-0.1c0.2-0.1,0.3-0.1,0.4-0.2s0.1-0.2,0.1-0.4c-0.2,0-0.3,0-0.4,0s-0.2,0.1-0.3,0.1c-0.1,0-0.3,0.1-0.4,0.1
		s-0.3,0-0.5,0c-0.1,0-0.1,0-0.2,0s-0.1,0-0.2,0l-0.1,0c0-0.1,0-0.1,0-0.1s0,0,0,0c0,0-0.1-0.1-0.1-0.2s-0.1-0.2,0-0.3
		c0-0.1-0.1-0.1-0.1-0.2c0,0.1-0.1,0.2-0.1,0.3l0,0.1l-0.1,0c0,0,0,0,0,0.1s0,0,0,0.1l-0.1,0.2c0,0,0,0,0,0s0,0,0,0
		c0,0.1,0,0.1-0.1,0.2s0,0.1-0.1,0.2c0,0.1-0.1,0.2-0.1,0.3s0,0.2,0,0.3l0,0.1c0,0-0.1,0.1-0.1,0.1S66.5,13,66.5,13c0,0,0,0-0.1,0
		s0,0-0.1,0l0,0.1l-0.1,0c-0.1,0-0.1,0-0.2,0s-0.1,0-0.1,0l-0.1,0c-0.1-0.1-0.2-0.1-0.2-0.2s-0.1-0.1-0.2-0.1
		c-0.1-0.1-0.1-0.2-0.1-0.2s0-0.1,0-0.1c0,0,0-0.1,0-0.1s0-0.1,0-0.1L65,12.3l0.1-0.1l0-0.2c0.2-0.4,0.3-0.8,0.5-1.1
		s0.4-0.7,0.5-1.1c0.1-0.1,0.1-0.3,0.2-0.4s0.1-0.3,0.2-0.4c0,0,0-0.1,0-0.1s0-0.1,0-0.1c0.1-0.1,0.2-0.3,0.2-0.4s0.1-0.2,0.2-0.3
		C67,8,67.1,7.9,67.2,7.8s0.2-0.3,0.3-0.4l0.2-0.1c0,0,0.1,0,0.1,0s0.1,0,0.1,0l0.2,0c0.2-0.1,0.4-0.2,0.6-0.4s0.3-0.4,0.5-0.7
		L69.2,6l0.2,0.1c0,0,0.1,0,0.2,0.1s0.1,0,0.2,0.1c0.1,0,0.3,0.1,0.4,0.1s0.2,0.1,0.3,0.2c0,0.1,0.1,0.2,0.1,0.3s0,0.1,0,0.2
		c0,0.1,0,0.3,0.1,0.4s0,0.3,0,0.4c0,0.1,0.1,0.3,0.1,0.4s0.1,0.3,0.1,0.4c0,0.2,0.1,0.4,0.1,0.5s0.1,0.3,0.2,0.5c0.1,0,0.1,0,0.1,0
		c0,0,0.1,0,0.1,0s0.1,0,0.1,0l0.1,0l0,0.1c0,0,0,0.1,0.1,0.1c0.1,0,0.2,0,0.2,0.1s0.1,0.1,0.1,0.1c0,0,0.1,0.1,0.1,0.1l0.2,0.1
		l-0.1,0.2c-0.1,0.1-0.2,0.3-0.3,0.4s-0.3,0.2-0.5,0.3c0,0,0,0.1,0,0.1s0,0.1,0,0.1c0,0.1,0,0.3,0.1,0.4S71.6,12,71.5,12.2
		L71.5,12.2z M68.1,10.2c0.2,0,0.4,0,0.6-0.1s0.4-0.1,0.6-0.1c-0.1-0.2-0.1-0.5-0.2-0.7s-0.1-0.5-0.2-0.8L69,8.7
		c-0.2,0.2-0.3,0.3-0.5,0.6s-0.3,0.4-0.4,0.6c0,0.1-0.1,0.1-0.1,0.2s-0.1,0.1-0.1,0.2c0,0,0.1,0,0.1,0S68.1,10.2,68.1,10.2z"/>
	<path class="st0" d="M75.4,13.1c-0.2,0.1-0.5,0.1-0.7,0.2s-0.5,0.1-0.8,0.1c-0.4,0-0.7-0.1-0.9-0.3c0-0.1-0.1-0.1-0.1-0.2
		c0,0,0-0.1-0.1-0.1s0-0.1,0-0.1c-0.1-0.1-0.2-0.2-0.2-0.4s-0.1-0.3-0.1-0.4s0-0.3,0-0.5s0-0.3,0.1-0.4c0,0,0-0.1,0-0.1s0-0.1,0-0.1
		c0-0.1,0.1-0.2,0.1-0.4s0.1-0.2,0.1-0.3c0-0.1,0-0.1,0-0.2s0.1-0.2,0.1-0.2c0.1-0.3,0.2-0.5,0.3-0.8s0.2-0.4,0.2-0.6
		c0.1-0.4,0.3-0.7,0.4-1s0.2-0.7,0.3-1.1C74.2,6,74.2,6,74.2,6c0,0,0.1,0,0.1,0c0.1,0.1,0.3,0.1,0.5,0.2s0.3,0.1,0.5,0.1
		c0.1,0,0.1,0.1,0.1,0.1s0,0,0,0.1c0.1,0.1,0.2,0.2,0.2,0.3s0.1,0.2,0.1,0.4c0,0.1-0.1,0.1-0.1,0.1c0,0.2-0.1,0.3-0.1,0.4
		S75.4,7.9,75.4,8c-0.1,0.1-0.1,0.2-0.2,0.4s-0.1,0.3-0.1,0.4c0,0-0.1,0.1-0.1,0.1s0,0.1,0,0.1S75,9,75,9.1s0,0.1-0.1,0.1
		c0,0.2-0.1,0.4-0.1,0.5s-0.1,0.3-0.2,0.4c-0.1,0.2-0.2,0.5-0.3,0.7s-0.1,0.5-0.1,0.8c0,0,0.1,0,0.1,0s0.1,0,0.1,0
		c0.1,0,0.2,0,0.2,0c0.2-0.1,0.5-0.2,0.8-0.2s0.6,0,0.8,0c0.1,0,0.2,0,0.3,0s0.2,0,0.3,0c0.1,0,0.1,0.1,0.1,0.1s0,0,0.1,0
		c0.1,0,0.1,0,0.1,0c0.1,0.1,0.2,0.1,0.3,0.2s0.2,0.1,0.3,0.1c0.1,0,0.2,0.1,0.3,0.1s0.2,0.1,0.2,0.1l0.1,0.5
		c0.1,0.1,0.1,0.1,0.1,0.1c0,0.1,0,0.1,0,0.1l0,0.1c-0.1,0-0.2,0.1-0.2,0.1s-0.1,0.1-0.1,0.1c-0.1,0-0.1,0-0.1,0s-0.1,0-0.1,0
		c-0.1,0-0.2,0-0.4,0.1c-0.2-0.1-0.4-0.1-0.7-0.1c-0.1,0-0.2,0-0.3,0s-0.2,0-0.3,0c-0.1,0-0.2,0-0.3,0s-0.2,0-0.3,0L75.4,13.1z"/>
	<path class="st0" d="M85.1,6.5c0,0.2,0,0.3,0.1,0.4s0.1,0.2,0.1,0.4c0,0.1,0.1,0.2,0.1,0.3s0.1,0.2,0.1,0.4
		c-0.1,0.2-0.1,0.4-0.1,0.6S85.3,9,85.3,9.1c-0.1,0.3-0.2,0.5-0.4,0.7s-0.2,0.4-0.3,0.6c0,0-0.1,0.1-0.1,0.1s-0.1,0.1-0.1,0.2
		c0,0,0,0.1-0.1,0.1s0,0.1-0.1,0.1l-0.2-0.1l0,0.3l-0.2,0l-0.1,0.1c-0.1,0.3-0.3,0.5-0.5,0.7s-0.3,0.3-0.6,0.5s-0.4,0.3-0.7,0.4
		s-0.6,0.2-0.9,0.4c-0.1,0-0.2,0-0.3,0s-0.2,0-0.3,0c-0.1,0-0.3,0-0.6,0c0-0.1-0.1-0.1-0.1-0.1s-0.1,0-0.1,0
		c-0.1-0.1-0.2-0.2-0.3-0.3s-0.1-0.3-0.2-0.4c0-0.1-0.1-0.2-0.1-0.2s-0.1-0.2-0.1-0.2l0.2-0.1L79,11.5c0,0,0,0-0.1-0.1s0,0-0.1-0.1
		l0-0.2c0-0.5,0-1,0-1.5s0.1-0.8,0.2-1.2V8.3c0-0.2,0-0.3,0.1-0.4s0-0.2,0.1-0.3c0-0.2,0.1-0.3,0.1-0.5c0.1,0,0.2-0.1,0.2-0.1
		s0.1-0.1,0.1-0.2c0.1,0,0.2,0,0.2,0S79.9,7,80,7c0,0.1,0.1,0.1,0.1,0.2s0.1,0.2,0.3,0.2c0,0.1,0,0.1,0.1,0.2s0.1,0.1,0.1,0.2
		c0.1,0.1,0.1,0.3,0.2,0.4s0.1,0.3,0.1,0.4c-0.1,0.1-0.1,0.3-0.2,0.5s-0.1,0.4-0.1,0.6s0,0.4,0,0.6s0.1,0.3,0.1,0.5l0.1,0.2l0.2,0
		c0.2-0.1,0.4-0.1,0.6-0.2s0.4-0.2,0.5-0.3s0.3-0.2,0.5-0.4s0.3-0.3,0.5-0.5s0.3-0.4,0.4-0.6s0.2-0.5,0.3-0.7s0.1-0.5,0.2-0.7
		S84,7.1,84,6.9c0.1,0,0.2-0.1,0.2-0.3l0-0.1c0,0,0-0.1,0-0.2c0-0.1,0.2-0.3,0.3-0.3c0.1,0.1,0.2,0.2,0.3,0.3S85.1,6.4,85.1,6.5z"/>
	<path class="st0" d="M91.8,6.6c0,0.1,0,0.1,0,0.1s0,0.1,0,0.1s0,0,0,0.1s0,0.1,0,0.1c-0.2,0.3-0.4,0.4-0.6,0.5s-0.4,0.2-0.7,0.2
		S90,7.8,89.8,7.9S89.2,8,89,8.2c-0.1,0-0.2,0-0.3,0s-0.2,0.1-0.4,0c0,0-0.1,0.1-0.2,0.1S88,8.4,88,8.4c0,0.1,0,0.1,0,0.2
		s0,0.1,0,0.2c0.3,0,0.6,0,0.9,0s0.7-0.1,1-0.1c0,0,0,0.1,0,0.1s0,0,0,0.1C90,8.9,90,9,90.1,9s0.1,0.1,0.2,0.2s0.1,0.1,0.2,0.1
		s0.1,0,0.2,0c0,0.1,0.1,0.1,0.1,0.2s0,0.2,0,0.2c-0.1,0.1-0.3,0.2-0.4,0.3s-0.3,0.2-0.4,0.2s-0.3,0.1-0.4,0.2s-0.3,0.1-0.5,0.1
		c0,0-0.1,0-0.1,0s0,0-0.1,0c-0.1,0-0.2,0.1-0.3,0s-0.2,0-0.3,0c-0.1,0-0.2-0.1-0.3-0.1s-0.2,0-0.3,0c-0.1,0.2-0.2,0.3-0.3,0.5
		s-0.2,0.4-0.3,0.6c0.3,0,0.5,0.1,0.7,0s0.3,0,0.5,0s0.3,0,0.5-0.1s0.4,0,0.6,0c0.2-0.1,0.3-0.1,0.6-0.2s0.4-0.1,0.6-0.1
		c0.1,0,0.1,0.1,0.2,0.1s0.1,0.1,0.1,0.2s0.1,0.1,0.1,0.1s0.1,0.1,0.2,0c0,0,0.1,0.1,0.1,0.1s0,0.1,0,0.1s0,0.1,0,0.1s0.1,0,0.1,0
		c-0.1,0.3-0.3,0.5-0.4,0.6s-0.3,0.2-0.5,0.3s-0.4,0.1-0.7,0.2s-0.5,0.1-0.8,0.1c-0.1,0-0.1,0-0.2,0s-0.1,0-0.2,0
		c-0.2,0-0.4,0.1-0.6,0.1s-0.5,0-0.8,0s-0.5,0-0.7-0.1s-0.4-0.2-0.6-0.3c-0.1-0.1-0.1-0.1-0.1-0.2s-0.1-0.1-0.2-0.2
		c0-0.1,0-0.2,0-0.3s0-0.3-0.1-0.4s0-0.3-0.1-0.4s0-0.3,0-0.4c0-0.1,0.1-0.2,0.1-0.3s0.1-0.2,0.1-0.3c0,0,0.1,0,0.1-0.1s0,0,0.1,0
		c0-0.1,0.1-0.3,0.2-0.4s0.1-0.2,0.2-0.4s0.1-0.2,0.2-0.4s0.1-0.3,0.2-0.4c-0.1-0.1-0.2-0.2-0.2-0.3s-0.1-0.2-0.1-0.4s0-0.2-0.1-0.4
		s0-0.3-0.1-0.4c0.1-0.1,0.2-0.2,0.3-0.3s0.2-0.1,0.4-0.2s0.3-0.1,0.4-0.1s0.3-0.1,0.5-0.1c0.3-0.1,0.6-0.2,0.8-0.2s0.5-0.1,0.7-0.1
		s0.5-0.1,0.7-0.1s0.6-0.1,0.9-0.1c0.1,0.1,0.1,0.1,0.2,0.1c0-0.1,0.1-0.1,0.1-0.1s0.1,0,0.1-0.1c0.1,0.1,0.2,0.2,0.3,0.3
		S91.6,6.5,91.8,6.6z"/>
	<path class="st0" d="M91.6,11.5c0,0,0.1,0.1,0.2,0.1s0.2,0.1,0.4,0.2s0.2,0.1,0.4,0.1s0.2,0.1,0.2,0.1c0.1,0.2,0.1,0.3,0.1,0.4
		s0,0.2,0.1,0.4c0,0-0.1,0.1-0.1,0.2s0,0.2,0,0.2c0,0.1,0,0.1,0,0.1s0,0-0.1,0.1c0,0,0,0,0,0.1s0,0.1,0,0.1c0,0,0,0.1-0.1,0.1
		s0,0-0.1,0.1c0,0.1-0.1,0.1-0.1,0.2s0,0,0,0s0,0,0,0s0,0.1-0.1,0.1c-0.1,0.1-0.1,0.2-0.2,0.3s-0.1,0.2-0.2,0.3
		c-0.1,0.1-0.2,0.2-0.4,0.4s-0.3,0.2-0.5,0.3c-0.1,0-0.2-0.1-0.3-0.2s-0.3-0.1-0.4-0.2s-0.2-0.2-0.3-0.3s-0.1-0.2,0-0.3
		c0.1-0.1,0.3-0.3,0.4-0.5s0.2-0.4,0.3-0.7s0.1-0.5,0.2-0.7s0.1-0.5,0.2-0.7c0,0,0.1,0,0.1,0s0.1,0,0.1-0.1S91.5,11.6,91.6,11.5
		C91.6,11.5,91.6,11.5,91.6,11.5z"/>
	<path class="st0" d="M7.7,22c-0.2,0-0.4,0-0.6,0s-0.4,0.1-0.7,0.1c-0.2,0-0.3,0-0.5,0.1s-0.3,0-0.4,0c-0.1,0.2-0.1,0.3-0.2,0.5
		S5.2,22.9,5.2,23c-0.1,0.1-0.1,0.3-0.2,0.4s-0.1,0.3-0.1,0.4c-0.1,0.1-0.1,0.2-0.2,0.3s-0.1,0.2-0.1,0.4c-0.1,0.1-0.2,0.2-0.2,0.4
		s-0.1,0.2-0.1,0.3l0,0.1c0,0-0.1,0.1-0.1,0.1s0,0.1-0.1,0.1c0,0.1,0,0.2-0.1,0.3c0,0,0,0.1,0,0.1s0,0.1,0,0.1c0,0.1,0,0.1-0.1,0.2
		c0,0,0,0.1,0,0.1s0,0.1,0,0.1c0,0.1,0,0.2,0,0.2c0,0,0,0.1,0.1,0.1s0,0.1,0,0.1c0,0,0.1,0.1,0.1,0.1c0,0,0.1,0.1,0.1,0.1l0.1,0.1
		c0,0.2,0,0.4-0.1,0.5c-0.1,0.1-0.3,0.2-0.6,0.2H3.4c0,0-0.1-0.1-0.1-0.1c-0.1,0-0.1,0-0.2-0.1s-0.1,0-0.1-0.1
		c-0.1,0-0.2-0.1-0.2-0.1l-0.1-0.1c0-0.1,0-0.1,0-0.1c-0.1-0.1-0.1-0.1-0.1-0.2s0-0.2-0.1-0.3c0-0.1,0-0.1-0.1-0.2s0-0.1-0.1-0.2
		c0-0.5,0-0.8,0.1-1.1s0.2-0.6,0.3-0.9c0.1-0.2,0.1-0.3,0.2-0.5s0.1-0.3,0.2-0.5l0.1-0.1c0.1-0.1,0.1-0.2,0.1-0.3s0.1-0.2,0.1-0.3
		c0-0.1,0-0.1,0.1-0.2s0-0.1,0.1-0.1c0,0-0.1,0-0.1,0s-0.1,0-0.1,0c0,0-0.1,0-0.1,0s-0.1,0-0.1,0c-0.1,0-0.1,0-0.1,0
		c-0.1,0-0.2,0.1-0.3,0.1H2.7c0,0,0,0-0.1,0s0,0-0.1,0c-0.1,0-0.1,0-0.2,0c-0.1,0-0.2,0-0.3,0H2c0,0,0,0-0.1,0s0,0-0.1,0
		c-0.1,0-0.1,0-0.2,0s-0.1,0-0.2-0.1c-0.1-0.1-0.2-0.2-0.2-0.2l-0.1-0.1c0,0,0-0.1,0-0.1s0-0.1,0-0.1c0-0.1-0.1-0.2-0.1-0.3
		s0-0.2,0-0.3c0-0.1,0-0.1,0-0.1s0-0.1,0.1-0.1l0-0.2l0.2,0h0.3c0.3,0,0.5,0,0.8,0s0.5,0,0.8-0.1c0.2,0,0.3,0,0.5,0s0.3,0,0.5,0
		c0-0.1,0.1-0.1,0.1-0.2l0.1-0.1c0.1,0,0.2,0,0.3,0.1s0.1,0.1,0.1,0.1c0.2,0,0.3,0,0.5-0.1s0.4,0,0.5-0.1c0.3,0,0.5-0.1,0.8-0.1
		s0.5,0,0.8,0c0.1,0,0.2,0,0.3,0s0.2,0,0.3,0l0.1,0.1c0,0,0.1,0.1,0.1,0.1s0.1,0.1,0.1,0.1c0.1,0.1,0.2,0.2,0.3,0.3s0.1,0.3,0.1,0.5
		c-0.1,0.1-0.1,0.1-0.1,0.2l-0.1,0.1l-0.1,0c0,0-0.1,0-0.1,0s-0.1,0-0.1,0c0,0-0.1,0-0.1,0S8,22,8,22c-0.1,0-0.1,0-0.2,0
		S7.7,22,7.7,22z"/>
	<path class="st0" d="M12.8,26.5c0,0.2,0,0.4-0.1,0.5s-0.1,0.2-0.3,0.3s-0.2,0.2-0.4,0.2s-0.3,0.1-0.4,0.2c-0.1,0-0.1-0.1-0.2-0.1
		s-0.1-0.1-0.2-0.1c-0.1-0.2-0.2-0.4-0.3-0.5s-0.1-0.3-0.1-0.5c0,0,0-0.1,0-0.1s0-0.2,0-0.3s0-0.2,0-0.3s0-0.1,0-0.1
		c-0.2,0-0.4,0.1-0.6,0.1S10,25.9,9.8,26s-0.4,0.2-0.5,0.3S9,26.4,8.9,26.5c0,0,0,0.1,0,0.2s-0.1,0.2-0.1,0.3s-0.1,0.2-0.2,0.3
		s-0.1,0.1-0.2,0.1c0,0,0,0,0,0.1s0,0.1,0,0.1c-0.1,0-0.2,0.1-0.3,0.1S8,27.7,7.9,27.7s-0.2,0.1-0.3,0.1s-0.2,0-0.4-0.1
		c0,0,0-0.1-0.1-0.1S7.1,27.5,7,27.5S7,27.4,6.9,27.4s0,0,0-0.1c0,0-0.1,0,0-0.1s0-0.1,0.1,0c-0.1-0.1-0.1-0.2-0.2-0.3
		s-0.1-0.2-0.1-0.3c0,0,0,0,0-0.1s0-0.1,0-0.1s0-0.1,0-0.1s0,0,0.1,0c0-0.1,0-0.1,0-0.2s0-0.1,0-0.1s0-0.1,0-0.1s0-0.1,0-0.1
		c0.1-0.2,0.2-0.4,0.2-0.6s0.1-0.4,0.1-0.5c0.1-0.1,0.1-0.1,0.1-0.2s0.1-0.2,0.1-0.3s0-0.2,0-0.3s0-0.2,0-0.2c0,0,0.1-0.1,0.1,0
		c0-0.3,0.1-0.5,0.1-0.9s0.1-0.6,0.1-0.9S7.9,21.2,8,21s0.3-0.4,0.5-0.4c0,0.2,0.1,0.3,0.2,0.4s0.2,0.2,0.2,0.4s0.2,0.2,0.3,0.3
		s0.2,0.3,0.3,0.4c0,0.1,0,0.3,0,0.5S9.3,23,9.3,23.2s-0.1,0.4-0.1,0.6s-0.1,0.3-0.1,0.5c0,0,0,0.1,0.1,0.1s0,0,0,0.1
		c0.2,0,0.4-0.1,0.6-0.1s0.4-0.1,0.6-0.1s0.4-0.1,0.6-0.2s0.4-0.1,0.5-0.2c0-0.3,0.1-0.6,0.2-0.9s0.1-0.6,0-0.9c0,0,0.1-0.1,0.1-0.1
		s0.1-0.1,0.1-0.1c0-0.1-0.1-0.3,0-0.5s0-0.3,0.1-0.5s0.1-0.3,0.2-0.4s0.2-0.2,0.4-0.2c0.1,0.1,0.2,0.3,0.2,0.4s0.1,0.3,0.2,0.4
		s0.1,0.3,0.2,0.4s0.2,0.2,0.3,0.3c0,0.2,0,0.5,0.1,0.7s0,0.5,0,0.7c-0.1,0.3-0.1,0.6-0.2,0.9s-0.1,0.6-0.2,0.9
		c-0.1,0.1-0.1,0.1-0.1,0.2s-0.1,0.2-0.1,0.2s-0.1,0.2-0.1,0.2s-0.1,0.1-0.1,0.2c0,0.1,0,0.2,0,0.3S12.7,26.3,12.8,26.5z"/>
	<path class="st0" d="M19.9,26.6c0,0.1-0.1,0.3-0.2,0.4s-0.2,0.3-0.3,0.4s-0.3,0.2-0.4,0.3s-0.3,0.1-0.5,0.1c-0.1,0-0.2,0-0.2-0.1
		s-0.1-0.1-0.1-0.1c0,0,0,0-0.1,0s0,0-0.1,0L18,27.5l0-0.2c0-0.1,0-0.1,0-0.1s-0.1-0.1-0.1-0.1c0,0,0,0-0.1-0.1s0,0-0.1-0.1
		l-0.2-0.2l0.3-0.1c0.2-0.1,0.3-0.1,0.4-0.2s0.1-0.2,0.1-0.4c-0.2,0-0.3,0-0.4,0S17.7,26,17.6,26c-0.1,0-0.3,0.1-0.4,0.1
		s-0.3,0-0.5,0c-0.1,0-0.1,0-0.2,0s-0.1,0-0.2,0l-0.1,0c0-0.1,0-0.1,0-0.1s0,0,0,0c0,0-0.1-0.1-0.1-0.2s-0.1-0.2,0-0.3
		c0-0.1-0.1-0.1-0.1-0.2c0,0.1-0.1,0.2-0.1,0.3l0,0.1l-0.1,0c0,0,0,0,0,0.1s0,0,0,0.1l-0.1,0.2c0,0,0,0,0,0s0,0,0,0
		c0,0.1,0,0.1-0.1,0.2s0,0.1-0.1,0.2c0,0.1-0.1,0.2-0.1,0.3s0,0.2,0,0.3l0,0.1c0,0-0.1,0.1-0.1,0.1s-0.1,0.1-0.1,0.1c0,0,0,0-0.1,0
		s0,0-0.1,0l0,0.1l-0.1,0c-0.1,0-0.1,0-0.2,0s-0.1,0-0.1,0l-0.1,0c-0.1-0.1-0.2-0.1-0.2-0.2s-0.1-0.1-0.2-0.1
		c-0.1-0.1-0.1-0.2-0.1-0.2s0-0.1,0-0.1c0,0,0-0.1,0-0.1s0-0.1,0-0.1l-0.2-0.1l0.1-0.1l0-0.2c0.2-0.4,0.3-0.8,0.5-1.1
		s0.4-0.7,0.5-1.1c0.1-0.1,0.1-0.3,0.2-0.4s0.1-0.3,0.2-0.4c0,0,0-0.1,0-0.1s0-0.1,0-0.1c0.1-0.1,0.2-0.3,0.2-0.4s0.1-0.2,0.2-0.3
		c0.1-0.1,0.1-0.3,0.2-0.4s0.2-0.3,0.3-0.4l0.2-0.1c0,0,0.1,0,0.1,0s0.1,0,0.1,0l0.2,0c0.2-0.1,0.4-0.2,0.6-0.4s0.3-0.4,0.5-0.7
		l0.1-0.2l0.2,0.1c0,0,0.1,0,0.2,0.1s0.1,0,0.2,0.1c0.1,0,0.3,0.1,0.4,0.1s0.2,0.1,0.3,0.2c0,0.1,0.1,0.2,0.1,0.3s0,0.1,0,0.2
		c0,0.1,0,0.3,0.1,0.4s0,0.3,0,0.4c0,0.1,0.1,0.3,0.1,0.4s0.1,0.3,0.1,0.4c0,0.2,0.1,0.4,0.1,0.5s0.1,0.3,0.2,0.5c0.1,0,0.1,0,0.1,0
		c0,0,0.1,0,0.1,0s0.1,0,0.1,0l0.1,0l0,0.1c0,0,0,0.1,0.1,0.1c0.1,0,0.2,0,0.2,0.1s0.1,0.1,0.1,0.1c0,0,0.1,0.1,0.1,0.1l0.2,0.1
		l-0.1,0.2c-0.1,0.1-0.2,0.3-0.3,0.4s-0.3,0.2-0.5,0.3c0,0,0,0.1,0,0.1s0,0.1,0,0.1c0,0.1,0,0.3,0.1,0.4S20,26.4,19.9,26.6
		L19.9,26.6z M16.6,24.6c0.2,0,0.4,0,0.6-0.1s0.4-0.1,0.6-0.1c-0.1-0.2-0.1-0.5-0.2-0.7s-0.1-0.5-0.2-0.8l-0.1,0.1
		c-0.2,0.2-0.3,0.3-0.5,0.6s-0.3,0.4-0.4,0.6c0,0.1-0.1,0.1-0.1,0.2s-0.1,0.1-0.1,0.2c0,0,0.1,0,0.1,0S16.5,24.6,16.6,24.6z"/>
	<path class="st0" d="M26.8,22c-0.2,0-0.4,0-0.6,0s-0.4,0.1-0.7,0.1c-0.2,0-0.3,0-0.5,0.1s-0.3,0-0.4,0c-0.1,0.2-0.1,0.3-0.2,0.5
		s-0.1,0.3-0.2,0.4c-0.1,0.1-0.1,0.3-0.2,0.4S24,23.7,24,23.9c-0.1,0.1-0.1,0.2-0.2,0.3s-0.1,0.2-0.1,0.4c-0.1,0.1-0.2,0.2-0.2,0.4
		s-0.1,0.2-0.1,0.3l0,0.1c0,0-0.1,0.1-0.1,0.1s0,0.1-0.1,0.1c0,0.1,0,0.2-0.1,0.3c0,0,0,0.1,0,0.1s0,0.1,0,0.1c0,0.1,0,0.1-0.1,0.2
		c0,0,0,0.1,0,0.1s0,0.1,0,0.1c0,0.1,0,0.2,0,0.2c0,0,0,0.1,0.1,0.1s0,0.1,0,0.1c0,0,0.1,0.1,0.1,0.1c0,0,0.1,0.1,0.1,0.1l0.1,0.1
		c0,0.2,0,0.4-0.1,0.5c-0.1,0.1-0.3,0.2-0.6,0.2h-0.1c0,0-0.1-0.1-0.1-0.1c-0.1,0-0.1,0-0.2-0.1s-0.1,0-0.1-0.1
		c-0.1,0-0.2-0.1-0.2-0.1l-0.1-0.1c0-0.1,0-0.1,0-0.1c-0.1-0.1-0.1-0.1-0.1-0.2s0-0.2-0.1-0.3c0-0.1,0-0.1-0.1-0.2s0-0.1-0.1-0.2
		c0-0.5,0-0.8,0.1-1.1s0.2-0.6,0.3-0.9c0.1-0.2,0.1-0.3,0.2-0.5s0.1-0.3,0.2-0.5l0.1-0.1c0.1-0.1,0.1-0.2,0.1-0.3s0.1-0.2,0.1-0.3
		c0-0.1,0-0.1,0.1-0.2s0-0.1,0.1-0.1c0,0-0.1,0-0.1,0s-0.1,0-0.1,0c0,0-0.1,0-0.1,0s-0.1,0-0.1,0c-0.1,0-0.1,0-0.1,0
		c-0.1,0-0.2,0.1-0.3,0.1h-0.1c0,0,0,0-0.1,0s0,0-0.1,0c-0.1,0-0.1,0-0.2,0c-0.1,0-0.2,0-0.3,0h-0.1c0,0,0,0-0.1,0s0,0-0.1,0
		c-0.1,0-0.1,0-0.2,0s-0.1,0-0.2-0.1c-0.1-0.1-0.2-0.2-0.2-0.2l-0.1-0.1c0,0,0-0.1,0-0.1s0-0.1,0-0.1c0-0.1-0.1-0.2-0.1-0.3
		s0-0.2,0-0.3c0-0.1,0-0.1,0-0.1s0-0.1,0.1-0.1l0-0.2l0.2,0h0.3c0.3,0,0.5,0,0.8,0s0.5,0,0.8-0.1c0.2,0,0.3,0,0.5,0s0.3,0,0.5,0
		c0-0.1,0.1-0.1,0.1-0.2l0.1-0.1c0.1,0,0.2,0,0.3,0.1s0.1,0.1,0.1,0.1c0.2,0,0.3,0,0.5-0.1s0.4,0,0.5-0.1c0.3,0,0.5-0.1,0.8-0.1
		s0.5,0,0.8,0c0.1,0,0.2,0,0.3,0s0.2,0,0.3,0l0.1,0.1c0,0,0.1,0.1,0.1,0.1s0.1,0.1,0.1,0.1c0.1,0.1,0.2,0.2,0.3,0.3s0.1,0.3,0.1,0.5
		c-0.1,0.1-0.1,0.1-0.1,0.2l-0.1,0.1l-0.1,0c0,0-0.1,0-0.1,0s-0.1,0-0.1,0c0,0-0.1,0-0.1,0s-0.1,0-0.1,0c-0.1,0-0.1,0-0.2,0
		S26.8,22,26.8,22z"/>
	<path class="st0" d="M30.5,22.3c0.1-0.2,0.1-0.3,0.3-0.4s0.3-0.2,0.4-0.3s0.3-0.2,0.5-0.2s0.3-0.1,0.4-0.1c0.3-0.1,0.6-0.3,1-0.4
		s0.7-0.2,1.1-0.3s0.8-0.2,1.1-0.2s0.8,0,1.2,0.1c0,0.1,0.1,0.2,0.1,0.2s0.1,0.1,0.1,0.2s0.1,0.1,0.1,0.2s0.1,0.1,0.1,0.2
		c0.1,0.1,0.1,0.1,0.2,0.2s0.1,0.2,0,0.3C37.1,22,37,22,37,22.1s-0.2,0.1-0.2,0.1c-0.3-0.1-0.6-0.1-0.9-0.1s-0.6,0-0.8,0.1
		c-0.1-0.1-0.2-0.1-0.3-0.1s-0.2,0-0.3,0s-0.2,0.1-0.3,0.1s-0.2,0-0.3,0c-0.1,0.1-0.2,0.1-0.3,0.1s-0.2,0-0.4,0.1c0,0,0,0.1,0,0.1
		s0,0,0,0.1c0,0.1,0.1,0.1,0.2,0.1s0.2,0,0.2,0.1s0.2,0.1,0.2,0.1S34,23,34,23c0.1,0,0.2,0,0.3,0.1s0.2,0.1,0.2,0.2s0.1,0.2,0.1,0.3
		s0,0.2,0,0.2c0,0.1,0.1,0.1,0.1,0.1s0.1,0,0.1,0c0,0.1,0.1,0.2,0.2,0.3s0.2,0.2,0.2,0.3c0,0.2,0,0.4,0,0.5s0,0.3-0.1,0.5
		c-0.1,0.3-0.3,0.5-0.5,0.8S34.3,26.8,34,27s-0.5,0.3-0.8,0.5s-0.6,0.2-0.9,0.3c0,0-0.1,0-0.1,0s0,0,0-0.1c-0.1,0.1-0.1,0.1-0.2,0.1
		s-0.2,0-0.2,0s-0.2,0-0.3,0s-0.2,0-0.3,0c-0.1-0.1-0.1-0.1-0.1-0.2S31,27.5,31,27.4c0,0-0.1,0-0.1-0.1s0-0.1,0-0.1
		c0-0.1,0.1-0.1,0.1-0.1s0,0,0,0s0,0-0.1,0s0,0,0-0.1c0-0.1,0-0.1,0-0.2s0-0.2,0-0.3s0-0.2,0-0.2s0.1-0.1,0.2-0.2c0.3,0,0.5,0,0.8,0
		s0.5-0.1,0.7-0.2s0.4-0.2,0.6-0.3s0.4-0.2,0.6-0.3c0-0.1,0.1-0.1,0.1-0.2s0.1-0.1,0.1-0.1s0.1-0.1,0.1-0.1s0.1-0.1,0.1-0.2
		c0-0.1,0-0.1,0-0.1s-0.1,0-0.1-0.1l-0.1,0c-0.1-0.1-0.3-0.2-0.5-0.2s-0.3-0.1-0.5-0.2c-0.1,0-0.2,0.1-0.2,0s-0.2,0-0.3-0.1
		c-0.3,0-0.5,0-0.8-0.1s-0.5-0.1-0.7-0.2c0,0,0-0.1-0.1-0.1s-0.1,0-0.1,0c0-0.1-0.1-0.1-0.1-0.2s-0.1-0.1-0.1-0.2c0-0.1,0-0.2,0-0.2
		s0-0.1-0.1-0.2c0-0.1,0.1-0.2,0.1-0.2S30.5,22.4,30.5,22.3z"/>
	<path class="st0" d="M39,27.5c-0.2,0.1-0.5,0.1-0.7,0.2s-0.5,0.1-0.8,0.1c-0.4,0-0.7-0.1-0.9-0.3c0-0.1-0.1-0.1-0.1-0.2
		c0,0,0-0.1-0.1-0.1s0-0.1,0-0.1c-0.1-0.1-0.2-0.2-0.2-0.4S36,26.4,36,26.2s0-0.3,0-0.5s0-0.3,0.1-0.4c0,0,0-0.1,0-0.1s0-0.1,0-0.1
		c0-0.1,0.1-0.2,0.1-0.4s0.1-0.2,0.1-0.3c0-0.1,0-0.1,0-0.2s0.1-0.2,0.1-0.2c0.1-0.3,0.2-0.5,0.3-0.8s0.2-0.4,0.2-0.6
		c0.1-0.4,0.3-0.7,0.4-1s0.2-0.7,0.3-1.1c0.1,0,0.1-0.1,0.1-0.1c0,0,0.1,0,0.1,0c0.1,0.1,0.3,0.1,0.5,0.2s0.3,0.1,0.5,0.1
		c0.1,0,0.1,0.1,0.1,0.1s0,0,0,0.1c0.1,0.1,0.2,0.2,0.2,0.3s0.1,0.2,0.1,0.4c0,0.1-0.1,0.1-0.1,0.1c0,0.2-0.1,0.3-0.1,0.4
		S39,22.3,39,22.4c-0.1,0.1-0.1,0.2-0.2,0.4s-0.1,0.3-0.1,0.4c0,0-0.1,0.1-0.1,0.1s0,0.1,0,0.1s0,0.1-0.1,0.1s0,0.1-0.1,0.1
		c0,0.2-0.1,0.4-0.1,0.5s-0.1,0.3-0.2,0.4c-0.1,0.2-0.2,0.5-0.3,0.7s-0.1,0.5-0.1,0.8c0,0,0.1,0,0.1,0s0.1,0,0.1,0
		c0.1,0,0.2,0,0.2,0c0.2-0.1,0.5-0.2,0.8-0.2s0.6,0,0.8,0c0.1,0,0.2,0,0.3,0s0.2,0,0.3,0c0.1,0,0.1,0.1,0.1,0.1s0,0,0.1,0
		c0.1,0,0.1,0,0.1,0c0.1,0.1,0.2,0.1,0.3,0.2s0.2,0.1,0.3,0.1c0.1,0,0.2,0.1,0.3,0.1s0.2,0.1,0.2,0.1l0.1,0.5
		c0.1,0.1,0.1,0.1,0.1,0.1c0,0.1,0,0.1,0,0.1l0,0.1c-0.1,0-0.2,0.1-0.2,0.1s-0.1,0.1-0.1,0.1c-0.1,0-0.1,0-0.1,0s-0.1,0-0.1,0
		c-0.1,0-0.2,0-0.4,0.1c-0.2-0.1-0.4-0.1-0.7-0.1c-0.1,0-0.2,0-0.3,0s-0.2,0-0.3,0c-0.1,0-0.2,0-0.3,0s-0.2,0-0.3,0L39,27.5z"/>
	<path class="st0" d="M48.8,21c0,0.1,0,0.1,0,0.1s0,0.1,0,0.1s0,0,0,0.1s0,0.1,0,0.1c-0.2,0.3-0.4,0.4-0.6,0.5s-0.4,0.2-0.7,0.2
		s-0.5,0.1-0.8,0.1s-0.5,0.1-0.8,0.3c-0.1,0-0.2,0-0.3,0s-0.2,0.1-0.4,0c0,0-0.1,0.1-0.2,0.1s-0.1,0-0.2,0.1c0,0.1,0,0.1,0,0.2
		s0,0.1,0,0.2c0.3,0,0.6,0,0.9,0s0.7-0.1,1-0.1c0,0,0,0.1,0,0.1s0,0,0,0.1c0.1,0,0.1,0.1,0.2,0.1s0.1,0.1,0.2,0.2s0.1,0.1,0.2,0.1
		s0.1,0,0.2,0c0,0.1,0.1,0.1,0.1,0.2s0,0.2,0,0.2c-0.1,0.1-0.3,0.2-0.4,0.3s-0.3,0.2-0.4,0.2s-0.3,0.1-0.4,0.2s-0.3,0.1-0.5,0.1
		c0,0-0.1,0-0.1,0s0,0-0.1,0c-0.1,0-0.2,0.1-0.3,0s-0.2,0-0.3,0c-0.1,0-0.2-0.1-0.3-0.1s-0.2,0-0.3,0c-0.1,0.2-0.2,0.3-0.3,0.5
		S44.1,25.8,44,26c0.3,0,0.5,0.1,0.7,0s0.3,0,0.5,0s0.3,0,0.5-0.1s0.4,0,0.6,0c0.2-0.1,0.3-0.1,0.6-0.2s0.4-0.1,0.6-0.1
		c0.1,0,0.1,0.1,0.2,0.1s0.1,0.1,0.1,0.2s0.1,0.1,0.1,0.1s0.1,0.1,0.2,0c0,0,0.1,0.1,0.1,0.1s0,0.1,0,0.1s0,0.1,0,0.1s0.1,0,0.1,0
		c-0.1,0.3-0.3,0.5-0.4,0.6s-0.3,0.2-0.5,0.3s-0.4,0.1-0.7,0.2s-0.5,0.1-0.8,0.1c-0.1,0-0.1,0-0.2,0s-0.1,0-0.2,0
		c-0.2,0-0.4,0.1-0.6,0.1s-0.5,0-0.8,0s-0.5,0-0.7-0.1s-0.4-0.2-0.6-0.3c-0.1-0.1-0.1-0.1-0.1-0.2S42.7,27,42.6,27
		c0-0.1,0-0.2,0-0.3s0-0.3-0.1-0.4s0-0.3-0.1-0.4s0-0.3,0-0.4c0-0.1,0.1-0.2,0.1-0.3s0.1-0.2,0.1-0.3c0,0,0.1,0,0.1-0.1s0,0,0.1,0
		c0-0.1,0.1-0.3,0.2-0.4s0.1-0.2,0.2-0.4s0.1-0.2,0.2-0.4s0.1-0.3,0.2-0.4c-0.1-0.1-0.2-0.2-0.2-0.3s-0.1-0.2-0.1-0.4s0-0.2-0.1-0.4
		s0-0.3-0.1-0.4c0.1-0.1,0.2-0.2,0.3-0.3s0.2-0.1,0.4-0.2s0.3-0.1,0.4-0.1s0.3-0.1,0.5-0.1c0.3-0.1,0.6-0.2,0.8-0.2s0.5-0.1,0.7-0.1
		s0.5-0.1,0.7-0.1s0.6-0.1,0.9-0.1c0.1,0.1,0.1,0.1,0.2,0.1c0-0.1,0.1-0.1,0.1-0.1s0.1,0,0.1-0.1c0.1,0.1,0.2,0.2,0.3,0.3
		S48.7,20.9,48.8,21z"/>
	<path class="st0" d="M55.1,21c0,0.1,0,0.1,0,0.1s0,0.1,0,0.1s0,0,0,0.1s0,0.1,0,0.1c-0.2,0.3-0.4,0.4-0.6,0.5s-0.4,0.2-0.7,0.2
		s-0.5,0.1-0.8,0.1s-0.5,0.1-0.8,0.3c-0.1,0-0.2,0-0.3,0s-0.2,0.1-0.4,0c0,0-0.1,0.1-0.2,0.1s-0.1,0-0.2,0.1c0,0.1,0,0.1,0,0.2
		s0,0.1,0,0.2c0.3,0,0.6,0,0.9,0s0.7-0.1,1-0.1c0,0,0,0.1,0,0.1s0,0,0,0.1c0.1,0,0.1,0.1,0.2,0.1s0.1,0.1,0.2,0.2s0.1,0.1,0.2,0.1
		s0.1,0,0.2,0c0,0.1,0.1,0.1,0.1,0.2s0,0.2,0,0.2c-0.1,0.1-0.3,0.2-0.4,0.3s-0.3,0.2-0.4,0.2s-0.3,0.1-0.4,0.2s-0.3,0.1-0.5,0.1
		c0,0-0.1,0-0.1,0s0,0-0.1,0c-0.1,0-0.2,0.1-0.3,0s-0.2,0-0.3,0c-0.1,0-0.2-0.1-0.3-0.1s-0.2,0-0.3,0c-0.1,0.2-0.2,0.3-0.3,0.5
		s-0.2,0.4-0.3,0.6c0.3,0,0.5,0.1,0.7,0s0.3,0,0.5,0s0.3,0,0.5-0.1s0.4,0,0.6,0c0.2-0.1,0.3-0.1,0.6-0.2s0.4-0.1,0.6-0.1
		c0.1,0,0.1,0.1,0.2,0.1s0.1,0.1,0.1,0.2s0.1,0.1,0.1,0.1s0.1,0.1,0.2,0c0,0,0.1,0.1,0.1,0.1s0,0.1,0,0.1s0,0.1,0,0.1s0.1,0,0.1,0
		c-0.1,0.3-0.3,0.5-0.4,0.6s-0.3,0.2-0.5,0.3s-0.4,0.1-0.7,0.2s-0.5,0.1-0.8,0.1c-0.1,0-0.1,0-0.2,0s-0.1,0-0.2,0
		c-0.2,0-0.4,0.1-0.6,0.1s-0.5,0-0.8,0s-0.5,0-0.7-0.1s-0.4-0.2-0.6-0.3C49,27.3,49,27.2,49,27.1S48.9,27,48.8,27c0-0.1,0-0.2,0-0.3
		s0-0.3-0.1-0.4s0-0.3-0.1-0.4s0-0.3,0-0.4c0-0.1,0.1-0.2,0.1-0.3s0.1-0.2,0.1-0.3c0,0,0.1,0,0.1-0.1s0,0,0.1,0
		c0-0.1,0.1-0.3,0.2-0.4s0.1-0.2,0.2-0.4s0.1-0.2,0.2-0.4s0.1-0.3,0.2-0.4c-0.1-0.1-0.2-0.2-0.2-0.3s-0.1-0.2-0.1-0.4s0-0.2-0.1-0.4
		s0-0.3-0.1-0.4c0.1-0.1,0.2-0.2,0.3-0.3s0.2-0.1,0.4-0.2s0.3-0.1,0.4-0.1s0.3-0.1,0.5-0.1c0.3-0.1,0.6-0.2,0.8-0.2s0.5-0.1,0.7-0.1
		s0.5-0.1,0.7-0.1s0.6-0.1,0.9-0.1c0.1,0.1,0.1,0.1,0.2,0.1c0-0.1,0.1-0.1,0.1-0.1s0.1,0,0.1-0.1c0.1,0.1,0.2,0.2,0.3,0.3
		S54.9,20.9,55.1,21z"/>
	<path class="st0" d="M59.2,20.3c0.3,0,0.6,0.1,0.9,0.2s0.5,0.2,0.7,0.4c0.1,0.2,0.2,0.4,0.4,0.6s0.2,0.5,0.3,0.7s0.1,0.5,0.1,0.8
		s-0.1,0.5-0.2,0.8c-0.2,0.3-0.5,0.5-0.8,0.7s-0.7,0.3-1,0.4s-0.8,0.2-1.2,0.3s-0.8,0.2-1.2,0.2c0,0.2,0,0.4,0,0.6s0,0.4-0.1,0.6
		s-0.1,0.4-0.2,0.6s-0.2,0.4-0.3,0.5c-0.1,0-0.3,0-0.4,0.1s-0.3,0.1-0.4,0.1c-0.1,0-0.1-0.1-0.1-0.1s-0.1,0-0.2-0.1
		c0-0.1,0-0.2-0.1-0.2s-0.1-0.2-0.2-0.3s-0.1-0.2-0.1-0.2s0-0.2,0.1-0.2c-0.1-0.1-0.1-0.1-0.1-0.2c0.1-0.1,0.1-0.2,0.1-0.4
		s0.1-0.3,0.1-0.5s0-0.3,0-0.4s-0.1-0.2-0.2-0.3c0,0,0,0,0,0s0,0,0.1,0c-0.1,0-0.1-0.1-0.1-0.2s0-0.2-0.1-0.2c0,0,0-0.1,0-0.1
		s0,0,0.1,0c0-0.1,0-0.3,0-0.4s0.1-0.2,0.1-0.4s0.1-0.2,0.2-0.3s0.2-0.2,0.2-0.3c0.1,0,0.1,0,0.1,0s0,0,0.1,0
		c0.1-0.1,0.2-0.2,0.2-0.2s0.1-0.2,0.1-0.3c0.1-0.2,0.1-0.3,0.2-0.5s0.2-0.3,0.3-0.5s0.2-0.3,0.3-0.4s0.2-0.2,0.4-0.2
		c0.1-0.1,0.2-0.2,0.4-0.2s0.3-0.1,0.5-0.2s0.3-0.1,0.5-0.1s0.3,0,0.5,0.1C59.1,20.4,59.2,20.4,59.2,20.3
		C59.2,20.3,59.2,20.3,59.2,20.3z M58.7,23.1c0.2-0.1,0.4-0.2,0.6-0.2s0.4-0.1,0.6-0.3c-0.1-0.1-0.2-0.2-0.4-0.2s-0.4-0.1-0.6-0.1
		s-0.4,0-0.6,0.1s-0.4,0.1-0.6,0.3c0,0.1-0.1,0.3-0.1,0.3s-0.1,0.2-0.1,0.3c0,0,0,0.1,0.1,0.1s0.1,0,0.1,0.1
		c0.2-0.1,0.4-0.1,0.5-0.2S58.5,23.2,58.7,23.1z"/>
	<path class="st0" d="M61.3,22.3c0.1-0.2,0.1-0.3,0.3-0.4s0.3-0.2,0.4-0.3s0.3-0.2,0.5-0.2s0.3-0.1,0.4-0.1c0.3-0.1,0.6-0.3,1-0.4
		s0.7-0.2,1.1-0.3s0.8-0.2,1.1-0.2s0.8,0,1.2,0.1c0,0.1,0.1,0.2,0.1,0.2s0.1,0.1,0.1,0.2s0.1,0.1,0.1,0.2s0.1,0.1,0.1,0.2
		c0.1,0.1,0.1,0.1,0.2,0.2s0.1,0.2,0,0.3c-0.1,0.1-0.2,0.1-0.2,0.2s-0.2,0.1-0.2,0.1c-0.3-0.1-0.6-0.1-0.9-0.1s-0.6,0-0.8,0.1
		c-0.1-0.1-0.2-0.1-0.3-0.1s-0.2,0-0.3,0s-0.2,0.1-0.3,0.1s-0.2,0-0.3,0c-0.1,0.1-0.2,0.1-0.3,0.1s-0.2,0-0.4,0.1c0,0,0,0.1,0,0.1
		s0,0,0,0.1c0,0.1,0.1,0.1,0.2,0.1s0.2,0,0.2,0.1s0.2,0.1,0.2,0.1s0.1,0.1,0.1,0.2c0.1,0,0.2,0,0.3,0.1s0.2,0.1,0.2,0.2
		s0.1,0.2,0.1,0.3s0,0.2,0,0.2c0,0.1,0.1,0.1,0.1,0.1s0.1,0,0.1,0c0,0.1,0.1,0.2,0.2,0.3s0.2,0.2,0.2,0.3c0,0.2,0,0.4,0,0.5
		s0,0.3-0.1,0.5c-0.1,0.3-0.3,0.5-0.5,0.8s-0.4,0.4-0.7,0.6s-0.5,0.3-0.8,0.5s-0.6,0.2-0.9,0.3c0,0-0.1,0-0.1,0s0,0,0-0.1
		c-0.1,0.1-0.1,0.1-0.2,0.1s-0.2,0-0.2,0s-0.2,0-0.3,0s-0.2,0-0.3,0c-0.1-0.1-0.1-0.1-0.1-0.2s-0.1-0.1-0.1-0.2c0,0-0.1,0-0.1-0.1
		s0-0.1,0-0.1c0-0.1,0.1-0.1,0.1-0.1s0,0,0,0s0,0-0.1,0s0,0,0-0.1c0-0.1,0-0.1,0-0.2s0-0.2,0-0.3s0-0.2,0-0.2s0.1-0.1,0.2-0.2
		c0.3,0,0.5,0,0.8,0s0.5-0.1,0.7-0.2s0.4-0.2,0.6-0.3s0.4-0.2,0.6-0.3c0-0.1,0.1-0.1,0.1-0.2s0.1-0.1,0.1-0.1s0.1-0.1,0.1-0.1
		s0.1-0.1,0.1-0.2c0-0.1,0-0.1,0-0.1s-0.1,0-0.1-0.1l-0.1,0c-0.1-0.1-0.3-0.2-0.5-0.2s-0.3-0.1-0.5-0.2c-0.1,0-0.2,0.1-0.2,0
		s-0.2,0-0.3-0.1c-0.3,0-0.5,0-0.8-0.1s-0.5-0.1-0.7-0.2c0,0,0-0.1-0.1-0.1s-0.1,0-0.1,0c0-0.1-0.1-0.1-0.1-0.2s-0.1-0.1-0.1-0.2
		c0-0.1,0-0.2,0-0.2s0-0.1-0.1-0.2c0-0.1,0.1-0.2,0.1-0.2S61.3,22.4,61.3,22.3z"/>
	<path class="st0" d="M71.6,25.2c-0.2-0.1-0.4-0.3-0.5-0.6s-0.2-0.5-0.2-0.7c0-0.2,0.1-0.3,0.1-0.4s0.2-0.2,0.3-0.3s0.2-0.1,0.3-0.2
		s0.2-0.1,0.3-0.1l0.2,0.1c0,0,0.1,0.1,0.1,0.1s0.1,0.1,0.1,0.1c0.1,0,0.1-0.1,0.1-0.1s0-0.1,0.1-0.2c0-0.1,0.1-0.2,0.1-0.3
		s0.1-0.2,0.1-0.3c0-0.1,0-0.1,0-0.2s0-0.1,0-0.1c0,0-0.1-0.1-0.1-0.1s-0.1,0-0.1,0c0,0,0,0-0.1,0s-0.1,0-0.1,0
		c-0.1-0.1-0.2-0.2-0.2-0.2s-0.1-0.1-0.1-0.2S72,21.5,72,21.4s-0.1-0.1-0.1-0.1l-0.1-0.1l0.1-0.1c0,0,0,0,0-0.1s0-0.1,0-0.1
		c0-0.1,0-0.2,0-0.2l0-0.1c0.1-0.1,0.1-0.2,0.1-0.2l0.1-0.1c0.2,0,0.4-0.1,0.6-0.2s0.4-0.1,0.6-0.2s0.4-0.1,0.6-0.2s0.4-0.1,0.6-0.2
		c0.1-0.1,0.1-0.1,0.2-0.1s0.1,0,0.2,0c0.1,0,0.1,0,0.2,0s0.1,0,0.1-0.1c0.1,0,0.3-0.1,0.4-0.1c0.2-0.1,0.5-0.1,0.9-0.2
		s0.8-0.1,1.3-0.2l0.2,0c0,0,0.1,0,0.1,0s0.1,0,0.1,0c0.4,0,0.7,0.1,0.8,0.4c0.1,0,0.1,0.1,0.2,0.1s0.1,0.1,0.2,0.2
		c0,0,0.1,0.1,0.1,0.1s0.1,0,0.1,0.1l0.1,0.1c0.1,0.2,0.1,0.4,0,0.6c0,0.1-0.1,0.1-0.2,0.2s-0.1,0-0.2,0l-0.2,0.1
		c-0.1,0-0.2,0-0.2,0s-0.1,0-0.2,0c-0.2,0-0.5,0-0.8,0s-0.6,0.1-0.9,0.1s-0.6,0.1-0.9,0.2s-0.6,0.2-0.8,0.2c-0.1,0-0.1,0.1-0.2,0.1
		c0,0-0.1,0-0.1,0.1c0,0.1,0,0.1,0,0.2s0,0.1,0,0.2c0,0,0,0.1,0,0.1s0,0.1,0,0.1c-0.2,0.2-0.2,0.4-0.2,0.7l-0.1,0.1
		c0,0-0.1,0.1-0.1,0.1s0,0.1,0,0.2l0,0.1c0.2,0,0.3,0,0.5-0.1s0.3,0,0.5-0.1c0.2,0,0.4-0.1,0.7-0.1s0.5,0,0.7,0h0.5l-0.1,0.1l0.1,0
		l-0.1,0.2c0.1,0,0.1,0,0.1,0.1s0.1,0,0.1,0l0.1,0.1c0,0,0.1,0.1,0.1,0.1s0.1,0.1,0.1,0.2l0,0.1l-0.6,0.7L77,24.7l-0.1,0
		c-0.1,0-0.3,0-0.4,0c-0.1,0-0.1,0-0.2,0.1s-0.1,0-0.2,0c-0.2,0-0.3,0.1-0.5,0.1s-0.3,0-0.4,0.1C75,25,74.9,25,74.7,25
		s-0.3,0.1-0.5,0.1c-0.1,0-0.1,0-0.2,0s0,0,0,0c-0.1,0-0.2,0-0.2,0s-0.2,0-0.2,0.1c0,0-0.1,0.1-0.1,0.1s0,0.1,0,0.1
		c0,0.1,0,0.1-0.1,0.2s-0.1,0.1-0.1,0.2l0,0.2c-0.1,0-0.1,0-0.1,0s0,0,0,0c0,0.1,0,0.1,0,0.2s0,0.1-0.1,0.2c0,0,0,0.1,0,0.1
		s0,0,0,0.1c0.1,0.1,0.1,0.3,0.1,0.5c0,0.1-0.1,0.3-0.2,0.4s-0.2,0.2-0.3,0.3c-0.1,0-0.2,0-0.3,0s-0.1,0-0.2-0.1c0,0-0.1,0-0.1,0
		s-0.1,0-0.1,0l-0.1-0.1c0,0-0.1-0.1-0.1-0.1s-0.1-0.1-0.1-0.1c0-0.1-0.1-0.1-0.1-0.2s-0.1-0.1-0.1-0.2c-0.1-0.3-0.1-0.5,0-0.7
		s0.1-0.4,0.1-0.5c0-0.1,0-0.1,0-0.2S71.6,25.3,71.6,25.2z"/>
	<path class="st0" d="M84.1,26.6c0,0.1-0.1,0.3-0.2,0.4s-0.2,0.3-0.3,0.4s-0.3,0.2-0.4,0.3s-0.3,0.1-0.5,0.1c-0.1,0-0.2,0-0.2-0.1
		s-0.1-0.1-0.1-0.1c0,0,0,0-0.1,0s0,0-0.1,0l-0.1-0.1l0-0.2c0-0.1,0-0.1,0-0.1S82.1,27.1,82,27c0,0,0,0-0.1-0.1s0,0-0.1-0.1
		l-0.2-0.2l0.3-0.1c0.2-0.1,0.3-0.1,0.4-0.2s0.1-0.2,0.1-0.4c-0.2,0-0.3,0-0.4,0S81.9,26,81.7,26c-0.1,0-0.3,0.1-0.4,0.1
		s-0.3,0-0.5,0c-0.1,0-0.1,0-0.2,0s-0.1,0-0.2,0l-0.1,0c0-0.1,0-0.1,0-0.1s0,0,0,0c0,0-0.1-0.1-0.1-0.2s-0.1-0.2,0-0.3
		c0-0.1-0.1-0.1-0.1-0.2c0,0.1-0.1,0.2-0.1,0.3l0,0.1l-0.1,0c0,0,0,0,0,0.1s0,0,0,0.1l-0.1,0.2c0,0,0,0,0,0s0,0,0,0
		c0,0.1,0,0.1-0.1,0.2s0,0.1-0.1,0.2c0,0.1-0.1,0.2-0.1,0.3s0,0.2,0,0.3l0,0.1c0,0-0.1,0.1-0.1,0.1s-0.1,0.1-0.1,0.1c0,0,0,0-0.1,0
		s0,0-0.1,0l0,0.1l-0.1,0c-0.1,0-0.1,0-0.2,0s-0.1,0-0.1,0l-0.1,0c-0.1-0.1-0.2-0.1-0.2-0.2s-0.1-0.1-0.2-0.1
		c-0.1-0.1-0.1-0.2-0.1-0.2s0-0.1,0-0.1c0,0,0-0.1,0-0.1s0-0.1,0-0.1l-0.2-0.1l0.1-0.1l0-0.2c0.2-0.4,0.3-0.8,0.5-1.1
		s0.4-0.7,0.5-1.1c0.1-0.1,0.1-0.3,0.2-0.4s0.1-0.3,0.2-0.4c0,0,0-0.1,0-0.1s0-0.1,0-0.1c0.1-0.1,0.2-0.3,0.2-0.4s0.1-0.2,0.2-0.3
		c0.1-0.1,0.1-0.3,0.2-0.4s0.2-0.3,0.3-0.4l0.2-0.1c0,0,0.1,0,0.1,0s0.1,0,0.1,0l0.2,0c0.2-0.1,0.4-0.2,0.6-0.4s0.3-0.4,0.5-0.7
		l0.1-0.2l0.2,0.1c0,0,0.1,0,0.2,0.1s0.1,0,0.2,0.1c0.1,0,0.3,0.1,0.4,0.1s0.2,0.1,0.3,0.2c0,0.1,0.1,0.2,0.1,0.3s0,0.1,0,0.2
		c0,0.1,0,0.3,0.1,0.4s0,0.3,0,0.4c0,0.1,0.1,0.3,0.1,0.4s0.1,0.3,0.1,0.4c0,0.2,0.1,0.4,0.1,0.5s0.1,0.3,0.2,0.5c0.1,0,0.1,0,0.1,0
		c0,0,0.1,0,0.1,0s0.1,0,0.1,0l0.1,0l0,0.1c0,0,0,0.1,0.1,0.1c0.1,0,0.2,0,0.2,0.1s0.1,0.1,0.1,0.1c0,0,0.1,0.1,0.1,0.1l0.2,0.1
		l-0.1,0.2c-0.1,0.1-0.2,0.3-0.3,0.4s-0.3,0.2-0.5,0.3c0,0,0,0.1,0,0.1s0,0.1,0,0.1c0,0.1,0,0.3,0.1,0.4S84.1,26.4,84.1,26.6
		L84.1,26.6z M80.7,24.6c0.2,0,0.4,0,0.6-0.1s0.4-0.1,0.6-0.1c-0.1-0.2-0.1-0.5-0.2-0.7s-0.1-0.5-0.2-0.8l-0.1,0.1
		c-0.2,0.2-0.3,0.3-0.5,0.6s-0.3,0.4-0.4,0.6c0,0.1-0.1,0.1-0.1,0.2s-0.1,0.1-0.1,0.2c0,0,0.1,0,0.1,0S80.6,24.6,80.7,24.6z"/>
	<path class="st0" d="M89.7,27.6c-0.1,0-0.3,0-0.5,0s-0.4,0-0.5,0.1c-0.4,0-0.8-0.1-1.3-0.2s-0.8-0.2-1.2-0.3
		c-0.1-0.1-0.2-0.2-0.2-0.2s-0.2-0.1-0.3-0.2c-0.2-0.1-0.3-0.3-0.5-0.5s-0.2-0.4-0.3-0.7s-0.1-0.5-0.1-0.7s0-0.5,0-0.7
		c0.1-0.4,0.3-0.7,0.5-0.9s0.4-0.5,0.7-0.8c0.1,0,0.2-0.1,0.2-0.1s0.1-0.1,0.2-0.1s0.1-0.1,0.2-0.1s0.1-0.1,0.2-0.2
		c0.2,0,0.3-0.1,0.4-0.2s0.2-0.2,0.4-0.2s0.2-0.2,0.4-0.2s0.3-0.1,0.4-0.2c0.1-0.1,0.1-0.1,0.2-0.2s0.2-0.1,0.3-0.1s0.2-0.1,0.3-0.1
		s0.1-0.1,0.2-0.2c0,0.1,0.1,0.1,0.2,0.1s0.1,0,0.2-0.1c0,0,0.1,0,0.1,0s0.1,0,0.1,0.1s0,0,0.1,0s0,0,0.1-0.1c0,0,0.1,0,0,0.1
		s0,0.1,0,0.1c0.1,0,0.1,0,0.2,0s0.1,0.1,0.2,0.1c0,0,0,0.1,0,0.1s0,0.1,0,0.1c0.2,0.1,0.4,0.2,0.4,0.3s0.1,0.3,0,0.5
		s-0.2,0.3-0.3,0.5s-0.3,0.2-0.5,0.3c-0.4,0.1-0.7,0.2-1.1,0.3s-0.6,0.3-0.8,0.5c-0.2,0.1-0.4,0.1-0.5,0.2s-0.3,0.2-0.4,0.3
		s-0.3,0.2-0.4,0.4s-0.2,0.2-0.4,0.4c0,0.1,0,0.2-0.1,0.3s-0.1,0.1-0.1,0.2c0,0.1,0,0.2,0.1,0.3s0.1,0.2,0.1,0.3
		c0.5,0.2,1.1,0.3,1.6,0.3s1.2,0.1,1.8,0.1c0.1,0.1,0.1,0.2,0.2,0.2s0.1,0.1,0.2,0.2s0.1,0.2,0.2,0.2s0,0.2,0,0.3
		c-0.1,0.1-0.2,0.2-0.4,0.3S89.9,27.5,89.7,27.6z"/>
	<path class="st0" d="M93.5,26.8c0,0.2,0,0.4,0,0.6s-0.2,0.2-0.3,0.3s-0.3,0.1-0.4,0.1s-0.3,0-0.4,0c-0.1-0.1-0.1-0.2-0.2-0.4
		S92,27,91.9,26.8s-0.1-0.3-0.1-0.5s-0.1-0.3-0.1-0.5c0-0.1,0.1-0.2,0.1-0.3s0-0.2,0-0.4s0-0.3,0-0.4s0-0.3,0-0.4
		c0.1-0.3,0.1-0.6,0.2-0.9s0.2-0.6,0.3-0.9c0-0.1,0-0.1,0-0.2s0-0.1,0-0.2c0,0,0-0.1,0.1-0.1s0.1,0,0.1-0.1c0-0.1,0-0.2,0-0.2
		s0-0.1,0-0.2c0-0.1,0.1-0.2,0.1-0.3s0.1-0.2,0.1-0.4c0.1,0,0.1-0.1,0.2-0.2s0.1-0.1,0.2-0.2s0.1-0.1,0.2-0.1s0.2-0.1,0.3-0.1
		c0.1,0.1,0.1,0.2,0.1,0.3s0,0.2,0.1,0.3s0,0.2,0.1,0.3s0.1,0.1,0.2,0.2c0,0.1,0,0.1,0,0.2s0,0.2,0,0.3s0,0.2,0.1,0.2
		s0.1,0.1,0.1,0.1c-0.1,0.4-0.3,0.7-0.4,1.1s-0.2,0.7-0.3,1.1s-0.1,0.7-0.1,1.1S93.4,26.4,93.5,26.8z"/>
	<path class="st0" d="M97.3,25.5c-0.1,0-0.1,0.1-0.2,0.1S97,25.7,97,25.8S97,25.9,96.9,26s-0.1,0.1-0.1,0.1c0,0.1,0,0.1-0.1,0.2
		s-0.1,0.1-0.1,0.1s-0.1,0.1-0.1,0.2s0,0.1,0,0.2c-0.1,0-0.1,0.1-0.1,0.2s0,0.2-0.1,0.2s-0.1,0.1-0.1,0.2s-0.1,0.1-0.3,0.1
		c0,0,0,0.1,0,0.1s0,0,0,0.1c-0.1,0-0.2,0-0.2,0s-0.1,0-0.2,0.1c-0.1,0-0.3-0.1-0.4-0.2s-0.2-0.2-0.3-0.4s-0.1-0.3-0.2-0.4
		s-0.1-0.3-0.2-0.4c0-0.1,0-0.2,0-0.3s0-0.2-0.1-0.2c0.4-0.8,0.8-1.7,1.3-2.6s0.9-1.8,1.3-2.7c0.2,0.1,0.4,0.2,0.5,0.2
		s0.3,0.2,0.5,0.3s0.3,0.3,0.4,0.4s0.2,0.3,0.2,0.5c0,0,0,0.1-0.1,0.1s0,0-0.1,0c0,0,0,0.1,0.1,0.1s0,0,0,0s0,0,0,0.1s0,0.1,0,0.1
		c0,0-0.1,0-0.1,0s0,0-0.1,0c0,0.1,0,0.2,0,0.2s0,0.1-0.1,0.1s0,0.1-0.1,0.1s0,0.1,0,0.2c0,0,0,0-0.1,0s0,0,0,0s0,0,0,0s0,0-0.1,0
		c0,0.2,0,0.3,0,0.5s0,0.3,0,0.5s0,0.4,0,0.6s0,0.4,0.1,0.6c0.3-0.2,0.5-0.4,0.7-0.6s0.3-0.5,0.4-0.9s0.2-0.7,0.2-1s0.1-0.7,0.2-1.1
		c0.1-0.1,0.1-0.2,0.2-0.3s0.1-0.2,0.1-0.3s0.1-0.2,0.1-0.3s0.1-0.2,0.1-0.3c0.1,0,0.2,0.1,0.3,0.1s0.2,0.1,0.2,0.2s0.1,0.1,0.2,0.2
		s0.2,0.1,0.3,0.1c0.1,0.1,0.2,0.3,0.3,0.4s0.1,0.3,0.2,0.4c0,0.1-0.1,0.1-0.1,0.2s0,0.2-0.1,0.2s-0.1,0.2-0.1,0.2s-0.1,0.1-0.2,0.2
		c0,0.2-0.1,0.4-0.1,0.6s-0.1,0.3-0.1,0.5s-0.1,0.3-0.1,0.5s0,0.4,0,0.6c-0.1,0.2-0.1,0.4-0.2,0.6s-0.1,0.4-0.2,0.6
		c-0.1,0.1-0.2,0.2-0.3,0.4s-0.1,0.3-0.2,0.4c0,0-0.1,0-0.1,0s0,0-0.1,0c0,0,0,0.1,0,0.1s0,0,0,0s0,0,0,0.1s0,0.1,0,0.1
		c-0.1,0-0.2,0.1-0.3,0.2s-0.2,0.2-0.3,0.2s-0.2,0.1-0.4,0.1s-0.3,0-0.5-0.1c-0.3-0.2-0.6-0.5-0.8-0.8S97.4,25.9,97.3,25.5z"/>
	<path class="st0" d="M109.9,25.5c-0.2,0.3-0.4,0.6-0.7,0.8s-0.6,0.3-1,0.5S107.4,27,107,27s-0.8,0.2-1.2,0.4c-0.1,0-0.2,0-0.3,0
		s-0.2,0-0.2,0s-0.1,0-0.2,0s-0.1,0-0.2,0c0,0-0.1,0-0.1,0s0,0,0,0.1c-0.1,0-0.3,0-0.4,0s-0.2,0-0.3,0c-0.1,0-0.2,0-0.3,0
		s-0.2,0-0.3,0c-0.6,0-1-0.2-1.4-0.6s-0.5-0.9-0.6-1.6c0,0,0-0.1,0-0.1s0,0-0.1,0c0-0.1,0-0.1,0-0.2s0-0.1,0-0.2
		c0.2-0.4,0.4-0.8,0.7-1.2s0.6-0.7,0.9-1c0.1,0,0.1-0.1,0.1-0.1s0.1-0.1,0.1-0.1s0.1-0.1,0.1-0.1s0.1-0.1,0.2-0.1
		c0.2-0.2,0.4-0.4,0.6-0.5s0.5-0.3,0.7-0.5s0.5-0.3,0.7-0.4s0.5-0.3,0.7-0.5c0.1,0,0.1,0.1,0.2,0s0.1,0,0.1,0
		c0.1,0.1,0.1,0.2,0.2,0.2s0.2,0.1,0.3,0.1s0.2,0.1,0.3,0.2s0.2,0.2,0.2,0.3c0,0-0.1,0-0.1,0.1s0,0.1,0,0.1s0,0.1,0,0.1
		s0,0.1-0.1,0.1c0,0,0,0.1,0.1,0.1s0.1,0,0.1,0.1s0,0.1,0,0.1s0,0.1,0,0.1c-0.2,0.1-0.3,0.2-0.5,0.3s-0.4,0.2-0.6,0.3
		s-0.4,0.2-0.6,0.3s-0.4,0.3-0.7,0.4s-0.4,0.3-0.6,0.5s-0.4,0.4-0.6,0.6s-0.4,0.4-0.6,0.7s-0.3,0.4-0.5,0.7c0,0,0,0.1,0.1,0.1
		s0,0,0.1,0.1c0.3,0,0.5,0,0.7,0s0.4,0,0.7,0c0,0,0,0,0-0.1s0-0.1,0.1-0.1c0.4,0,0.9-0.1,1.2-0.2s0.8-0.2,1.2-0.3
		c-0.1,0-0.1,0-0.2-0.1s-0.1,0-0.1-0.1c0,0,0-0.1,0-0.1s0.1-0.1,0.1-0.1c-0.1-0.1-0.2-0.1-0.3-0.2s-0.1-0.2-0.1-0.4
		c0,0,0.1-0.1,0.1-0.1s0-0.1-0.1-0.1c0,0-0.1,0-0.1,0s0,0,0,0s0,0,0,0s0,0-0.1,0c0-0.1,0-0.1,0.1-0.2s0-0.1,0.1-0.2l0.8-0.5
		c0.1,0.1,0.2,0.1,0.3,0.2s0.3,0.1,0.4,0.2s0.3,0.1,0.4,0.2s0.3,0.1,0.4,0.2c0.1,0,0.2,0.1,0.3,0.2s0.2,0.2,0.2,0.2s0.2,0.2,0.2,0.2
		s0.2,0.1,0.3,0.2c0,0.1,0,0.2,0,0.2S109.9,25.4,109.9,25.5z"/>
	<path class="st0" d="M117,27.5c-0.2,0.1-0.5,0.1-0.7,0.2s-0.5,0.1-0.8,0.1c-0.4,0-0.7-0.1-0.9-0.3c0-0.1-0.1-0.1-0.1-0.2
		c0,0,0-0.1-0.1-0.1s0-0.1,0-0.1c-0.1-0.1-0.2-0.2-0.2-0.4s-0.1-0.3-0.1-0.4s0-0.3,0-0.5s0-0.3,0.1-0.4c0,0,0-0.1,0-0.1s0-0.1,0-0.1
		c0-0.1,0.1-0.2,0.1-0.4s0.1-0.2,0.1-0.3c0-0.1,0-0.1,0-0.2s0.1-0.2,0.1-0.2c0.1-0.3,0.2-0.5,0.3-0.8s0.2-0.4,0.2-0.6
		c0.1-0.4,0.3-0.7,0.4-1s0.2-0.7,0.3-1.1c0.1,0,0.1-0.1,0.1-0.1c0,0,0.1,0,0.1,0c0.1,0.1,0.3,0.1,0.5,0.2s0.3,0.1,0.5,0.1
		c0.1,0,0.1,0.1,0.1,0.1s0,0,0,0.1c0.1,0.1,0.2,0.2,0.2,0.3s0.1,0.2,0.1,0.4c0,0.1-0.1,0.1-0.1,0.1c0,0.2-0.1,0.3-0.1,0.4
		s-0.1,0.2-0.1,0.3c-0.1,0.1-0.1,0.2-0.2,0.4s-0.1,0.3-0.1,0.4c0,0-0.1,0.1-0.1,0.1s0,0.1,0,0.1s0,0.1-0.1,0.1s0,0.1-0.1,0.1
		c0,0.2-0.1,0.4-0.1,0.5s-0.1,0.3-0.2,0.4c-0.1,0.2-0.2,0.5-0.3,0.7s-0.1,0.5-0.1,0.8c0,0,0.1,0,0.1,0s0.1,0,0.1,0
		c0.1,0,0.2,0,0.2,0c0.2-0.1,0.5-0.2,0.8-0.2s0.6,0,0.8,0c0.1,0,0.2,0,0.3,0s0.2,0,0.3,0c0.1,0,0.1,0.1,0.1,0.1s0,0,0.1,0
		c0.1,0,0.1,0,0.1,0c0.1,0.1,0.2,0.1,0.3,0.2s0.2,0.1,0.3,0.1c0.1,0,0.2,0.1,0.3,0.1s0.2,0.1,0.2,0.1l0.1,0.5
		c0.1,0.1,0.1,0.1,0.1,0.1c0,0.1,0,0.1,0,0.1l0,0.1c-0.1,0-0.2,0.1-0.2,0.1s-0.1,0.1-0.1,0.1c-0.1,0-0.1,0-0.1,0s-0.1,0-0.1,0
		c-0.1,0-0.2,0-0.4,0.1c-0.2-0.1-0.4-0.1-0.7-0.1c-0.1,0-0.2,0-0.3,0s-0.2,0-0.3,0c-0.1,0-0.2,0-0.3,0s-0.2,0-0.3,0L117,27.5z"/>
	<path class="st0" d="M126.8,21c0,0.1,0,0.1,0,0.1s0,0.1,0,0.1s0,0,0,0.1s0,0.1,0,0.1c-0.2,0.3-0.4,0.4-0.6,0.5s-0.4,0.2-0.7,0.2
		s-0.5,0.1-0.8,0.1s-0.5,0.1-0.8,0.3c-0.1,0-0.2,0-0.3,0s-0.2,0.1-0.4,0c0,0-0.1,0.1-0.2,0.1s-0.1,0-0.2,0.1c0,0.1,0,0.1,0,0.2
		s0,0.1,0,0.2c0.3,0,0.6,0,0.9,0s0.7-0.1,1-0.1c0,0,0,0.1,0,0.1s0,0,0,0.1c0.1,0,0.1,0.1,0.2,0.1s0.1,0.1,0.2,0.2s0.1,0.1,0.2,0.1
		s0.1,0,0.2,0c0,0.1,0.1,0.1,0.1,0.2s0,0.2,0,0.2c-0.1,0.1-0.3,0.2-0.4,0.3s-0.3,0.2-0.4,0.2s-0.3,0.1-0.4,0.2s-0.3,0.1-0.5,0.1
		c0,0-0.1,0-0.1,0s0,0-0.1,0c-0.1,0-0.2,0.1-0.3,0s-0.2,0-0.3,0c-0.1,0-0.2-0.1-0.3-0.1s-0.2,0-0.3,0c-0.1,0.2-0.2,0.3-0.3,0.5
		s-0.2,0.4-0.3,0.6c0.3,0,0.5,0.1,0.7,0s0.3,0,0.5,0s0.3,0,0.5-0.1s0.4,0,0.6,0c0.2-0.1,0.3-0.1,0.6-0.2s0.4-0.1,0.6-0.1
		c0.1,0,0.1,0.1,0.2,0.1s0.1,0.1,0.1,0.2s0.1,0.1,0.1,0.1s0.1,0.1,0.2,0c0,0,0.1,0.1,0.1,0.1s0,0.1,0,0.1s0,0.1,0,0.1s0.1,0,0.1,0
		c-0.1,0.3-0.3,0.5-0.4,0.6s-0.3,0.2-0.5,0.3s-0.4,0.1-0.7,0.2s-0.5,0.1-0.8,0.1c-0.1,0-0.1,0-0.2,0s-0.1,0-0.2,0
		c-0.2,0-0.4,0.1-0.6,0.1s-0.5,0-0.8,0s-0.5,0-0.7-0.1s-0.4-0.2-0.6-0.3c-0.1-0.1-0.1-0.1-0.1-0.2s-0.1-0.1-0.2-0.2
		c0-0.1,0-0.2,0-0.3s0-0.3-0.1-0.4s0-0.3-0.1-0.4s0-0.3,0-0.4c0-0.1,0.1-0.2,0.1-0.3s0.1-0.2,0.1-0.3c0,0,0.1,0,0.1-0.1s0,0,0.1,0
		c0-0.1,0.1-0.3,0.2-0.4s0.1-0.2,0.2-0.4s0.1-0.2,0.2-0.4s0.1-0.3,0.2-0.4c-0.1-0.1-0.2-0.2-0.2-0.3s-0.1-0.2-0.1-0.4s0-0.2-0.1-0.4
		s0-0.3-0.1-0.4c0.1-0.1,0.2-0.2,0.3-0.3s0.2-0.1,0.4-0.2s0.3-0.1,0.4-0.1s0.3-0.1,0.5-0.1c0.3-0.1,0.6-0.2,0.8-0.2s0.5-0.1,0.7-0.1
		s0.5-0.1,0.7-0.1s0.6-0.1,0.9-0.1c0.1,0.1,0.1,0.1,0.2,0.1c0-0.1,0.1-0.1,0.1-0.1s0.1,0,0.1-0.1c0.1,0.1,0.2,0.2,0.3,0.3
		S126.7,20.9,126.8,21z"/>
	<path class="st0" d="M128.2,27.2c0,0.3-0.2,0.4-0.4,0.6c-0.1,0-0.2,0-0.2,0s-0.1,0-0.2-0.1c-0.1,0-0.1-0.1-0.2-0.1l-0.1-0.1
		c0,0,0-0.1-0.1-0.1s-0.1-0.1-0.1-0.1c-0.1-0.1-0.1-0.2-0.2-0.3c0-0.2-0.1-0.4,0-0.6s0.1-0.3,0.1-0.5c0,0,0-0.1,0-0.1s0-0.1,0-0.1
		c-0.2-0.1-0.4-0.3-0.5-0.5s-0.2-0.4-0.2-0.6c0-0.1,0.1-0.3,0.1-0.4s0.1-0.2,0.2-0.2s0.2-0.1,0.3-0.1s0.2-0.1,0.3-0.1l0.2,0.1
		c0.1,0.1,0.1,0.1,0.2,0.2c0.1,0,0.1-0.1,0.1-0.1s0-0.1,0.1-0.2c0-0.1,0-0.1,0.1-0.2s0.1-0.1,0.1-0.2c0-0.1,0-0.2,0-0.3
		c-0.1,0-0.1-0.1-0.2-0.1c0,0-0.1,0-0.1,0c-0.1-0.1-0.2-0.1-0.2-0.2s-0.1-0.1-0.1-0.1c0-0.1-0.1-0.2-0.2-0.2l-0.1-0.1l0.1-0.1
		c0,0,0,0,0-0.1s0-0.1,0-0.1c0-0.1,0-0.1,0-0.2l0-0.1c0.1-0.1,0.1-0.1,0.1-0.1l0.1-0.1c0.2,0,0.3-0.1,0.5-0.1s0.3-0.1,0.5-0.2
		c0.1,0,0.3-0.1,0.5-0.1s0.3-0.1,0.5-0.1c0.1,0,0.1-0.1,0.2-0.1s0.1,0,0.2,0c0,0,0.1,0,0.1,0s0.1,0,0.1,0c0.1,0,0.2-0.1,0.3-0.1
		c0.2-0.1,0.5-0.1,0.8-0.2s0.7-0.1,1.1-0.2l0.2,0c0,0,0.1,0,0.1,0s0.1,0,0.1,0c0.4,0,0.6,0.1,0.7,0.3c0.1,0,0.1,0.1,0.2,0.1
		s0.1,0.1,0.2,0.1c0,0,0,0.1,0.1,0.1s0,0,0.1,0c0.1,0.2,0.2,0.4,0.1,0.5c-0.1,0.1-0.2,0.2-0.3,0.2l-0.1,0.1c-0.1,0-0.2,0-0.2,0
		s-0.1,0-0.1,0c-0.2,0-0.4,0-0.7,0s-0.5,0.1-0.8,0.1s-0.5,0.1-0.8,0.2s-0.5,0.1-0.7,0.2l-0.2,0.1c-0.1,0.1-0.1,0.2-0.1,0.2
		s0,0.1,0,0.1c0,0,0,0.1,0,0.1s0,0.1,0,0.1c-0.1,0.2-0.2,0.4-0.2,0.6c-0.1,0.1-0.1,0.2-0.1,0.2s0,0.1,0,0.2c0.1,0.1,0.3,0.1,0.4,0.1
		s0.3,0,0.4-0.1c0.2,0,0.4-0.1,0.6-0.1s0.4,0,0.6,0h0.4l-0.1,0.1l0.1,0.2c0,0,0.1,0,0.1,0s0,0,0.1,0l0.1,0.1c0,0,0.1,0,0.1,0.1
		s0,0.1,0.1,0.2l-0.5,0.7l-0.2,0c-0.1,0-0.3,0-0.4,0c-0.1,0-0.1,0-0.2,0s-0.1,0-0.2,0c-0.2,0-0.3,0.1-0.4,0.1s-0.2,0-0.3,0
		c-0.1,0-0.3,0-0.4,0.1s-0.3,0.1-0.4,0.1c-0.1,0-0.1,0-0.2,0c-0.1,0-0.1,0-0.2,0s-0.1,0-0.2,0.1c0,0-0.1,0.1-0.1,0.1s0,0.1,0,0.1
		c0,0.1-0.1,0.2-0.1,0.3v0.2c-0.1,0.1-0.1,0.1-0.1,0.2s0,0.1,0,0.1c0,0,0,0,0,0.1s0,0,0,0.1C128.2,26.9,128.2,27.1,128.2,27.2z"/>
	<path class="st0" d="M138.7,22c-0.2,0-0.4,0-0.6,0s-0.4,0.1-0.7,0.1c-0.2,0-0.3,0-0.5,0.1s-0.3,0-0.4,0c-0.1,0.2-0.1,0.3-0.2,0.5
		s-0.1,0.3-0.2,0.4c-0.1,0.1-0.1,0.3-0.2,0.4s-0.1,0.3-0.1,0.4c-0.1,0.1-0.1,0.2-0.2,0.3s-0.1,0.2-0.1,0.4c-0.1,0.1-0.2,0.2-0.2,0.4
		s-0.1,0.2-0.1,0.3l0,0.1c0,0-0.1,0.1-0.1,0.1s0,0.1-0.1,0.1c0,0.1,0,0.2-0.1,0.3c0,0,0,0.1,0,0.1s0,0.1,0,0.1c0,0.1,0,0.1-0.1,0.2
		c0,0,0,0.1,0,0.1s0,0.1,0,0.1c0,0.1,0,0.2,0,0.2c0,0,0,0.1,0.1,0.1s0,0.1,0,0.1c0,0,0.1,0.1,0.1,0.1c0,0,0.1,0.1,0.1,0.1l0.1,0.1
		c0,0.2,0,0.4-0.1,0.5c-0.1,0.1-0.3,0.2-0.6,0.2h-0.1c0,0-0.1-0.1-0.1-0.1c-0.1,0-0.1,0-0.2-0.1s-0.1,0-0.1-0.1
		c-0.1,0-0.2-0.1-0.2-0.1l-0.1-0.1c0-0.1,0-0.1,0-0.1c-0.1-0.1-0.1-0.1-0.1-0.2s0-0.2-0.1-0.3c0-0.1,0-0.1-0.1-0.2s0-0.1-0.1-0.2
		c0-0.5,0-0.8,0.1-1.1s0.2-0.6,0.3-0.9c0.1-0.2,0.1-0.3,0.2-0.5s0.1-0.3,0.2-0.5l0.1-0.1c0.1-0.1,0.1-0.2,0.1-0.3s0.1-0.2,0.1-0.3
		c0-0.1,0-0.1,0.1-0.2s0-0.1,0.1-0.1c0,0-0.1,0-0.1,0s-0.1,0-0.1,0c0,0-0.1,0-0.1,0s-0.1,0-0.1,0c-0.1,0-0.1,0-0.1,0
		c-0.1,0-0.2,0.1-0.3,0.1h-0.1c0,0,0,0-0.1,0s0,0-0.1,0c-0.1,0-0.1,0-0.2,0c-0.1,0-0.2,0-0.3,0H133c0,0,0,0-0.1,0s0,0-0.1,0
		c-0.1,0-0.1,0-0.2,0s-0.1,0-0.2-0.1c-0.1-0.1-0.2-0.2-0.2-0.2l-0.1-0.1c0,0,0-0.1,0-0.1s0-0.1,0-0.1c0-0.1-0.1-0.2-0.1-0.3
		s0-0.2,0-0.3c0-0.1,0-0.1,0-0.1s0-0.1,0.1-0.1l0-0.2l0.2,0h0.3c0.3,0,0.5,0,0.8,0s0.5,0,0.8-0.1c0.2,0,0.3,0,0.5,0s0.3,0,0.5,0
		c0-0.1,0.1-0.1,0.1-0.2l0.1-0.1c0.1,0,0.2,0,0.3,0.1s0.1,0.1,0.1,0.1c0.2,0,0.3,0,0.5-0.1s0.4,0,0.5-0.1c0.3,0,0.5-0.1,0.8-0.1
		s0.5,0,0.8,0c0.1,0,0.2,0,0.3,0s0.2,0,0.3,0l0.1,0.1c0,0,0.1,0.1,0.1,0.1s0.1,0.1,0.1,0.1c0.1,0.1,0.2,0.2,0.3,0.3s0.1,0.3,0.1,0.5
		c-0.1,0.1-0.1,0.1-0.1,0.2l-0.1,0.1l-0.1,0c0,0-0.1,0-0.1,0s-0.1,0-0.1,0c0,0-0.1,0-0.1,0s-0.1,0-0.1,0c-0.1,0-0.1,0-0.2,0
		S138.7,22,138.7,22z"/>
	<path class="st0" d="M145,27.6c-0.3,0-0.7,0-0.9,0s-0.5-0.2-0.8-0.4s-0.4-0.4-0.6-0.6s-0.3-0.5-0.4-0.7c-0.1-0.5-0.1-1,0.1-1.4
		s0.3-0.8,0.5-1.2s0.5-0.7,0.7-1s0.5-0.6,0.8-0.9c0.1,0,0.1,0,0.1,0s0.1-0.1,0.1-0.1s0.1-0.1,0.1-0.1s0.1-0.1,0.1-0.1
		c0-0.1,0.1-0.1,0.1-0.2s0.1-0.1,0.2-0.1s0.1-0.1,0.2-0.1s0.1-0.1,0.1-0.2c0.1,0,0.1,0,0.2-0.1s0.1-0.1,0.2-0.1s0.1-0.1,0.2-0.1
		s0.1-0.1,0.2-0.1v-0.2c0.2-0.1,0.3-0.2,0.4-0.3s0.2-0.2,0.3-0.4c0.1,0,0.2,0,0.2,0s0.1,0,0.2,0c0.1-0.1,0.1-0.2,0.2-0.3
		s0.2-0.1,0.3-0.2c0.1,0.1,0.2,0.1,0.4,0.1s0.3,0.1,0.4,0.2c0,0.1,0,0.2,0.1,0.2s0.1,0.1,0.2,0.1s0.1,0.1,0.2,0.1s0.1,0.1,0.1,0.2
		c0,0,0.1,0,0.1,0s0,0,0.1,0c0,0.1,0,0.1,0,0.2s0,0.1,0.1,0.1s0,0.1,0.1,0.1s0,0.1,0.1,0.1c0,0.1-0.1,0.2-0.1,0.3s-0.1,0.2-0.2,0.2
		c0,0.1,0,0.1,0.1,0.1s0.1,0,0.1,0.1c0,0.1,0,0.1,0,0.2c0.2,0.4,0.4,0.8,0.6,1.2s0.4,0.8,0.6,1.2c0,0.1,0,0.2,0,0.3s0.1,0.2,0.1,0.3
		s0.1,0.2,0.1,0.3s0.1,0.2,0.1,0.3c0,0.1,0,0.3,0,0.4s0,0.3-0.1,0.4s-0.1,0.3-0.2,0.4s-0.2,0.2-0.3,0.3c-0.1,0.2-0.3,0.3-0.5,0.4
		s-0.4,0.2-0.5,0.3c-0.1,0.1-0.2,0.1-0.4,0.1s-0.3,0.1-0.4,0.1c-0.1,0.1-0.2,0.1-0.4,0.2s-0.3,0.1-0.4,0.2s-0.3,0.1-0.4,0.1
		s-0.3,0-0.4,0c-0.3,0.1-0.6,0.2-0.8,0.2S145.4,27.7,145,27.6z M145.2,23.4c-0.1,0.2-0.2,0.3-0.3,0.5s-0.2,0.3-0.3,0.4
		s-0.2,0.3-0.3,0.5s-0.1,0.4-0.1,0.6c0.2,0.1,0.3,0.2,0.6,0.2s0.4,0,0.7,0s0.5,0,0.7-0.1s0.4-0.1,0.6-0.1c0-0.1,0-0.1,0.1-0.1
		c0.3,0,0.6-0.1,0.9-0.3s0.6-0.3,0.9-0.5c0-0.1,0.1-0.2,0.2-0.2s0.1-0.2,0.1-0.3c0-0.1-0.1-0.1-0.1-0.2s0-0.1,0-0.2
		c-0.2-0.3-0.4-0.6-0.5-0.9s-0.3-0.6-0.5-0.9c0,0,0,0.1-0.1,0.1s-0.1,0-0.2,0c0,0.1-0.1,0.1-0.1,0.2s-0.1,0-0.2,0s-0.1,0-0.2,0
		s-0.1-0.1-0.2-0.1c-0.3,0.2-0.5,0.4-0.8,0.6s-0.5,0.4-0.7,0.7C145.3,23.4,145.3,23.4,145.2,23.4C145.3,23.4,145.2,23.4,145.2,23.4z
		"/>
	<path class="st0" d="M153,26.4c-0.1,0.3-0.2,0.5-0.2,0.7s-0.2,0.3-0.3,0.5c-0.1,0-0.2,0-0.2,0s-0.1,0.1-0.1,0.1c-0.1,0-0.1,0-0.2,0
		s-0.1,0-0.1-0.1s-0.1,0-0.1-0.1s-0.1,0-0.2,0c0-0.1,0-0.1-0.1-0.2s-0.1-0.1-0.2-0.1c0-0.1,0-0.1,0-0.2s0-0.1,0-0.1s0-0.1,0-0.1
		s0-0.1,0-0.1c0,0-0.1,0-0.1-0.1s-0.1-0.1-0.1-0.2c0-0.1,0-0.3,0.1-0.4s0.1-0.2,0.1-0.4s0.1-0.2,0.1-0.3s0-0.2,0-0.3
		c0,0,0.1,0,0.1,0s0-0.1,0-0.1s0-0.1,0-0.2s0-0.1,0-0.1c0.1-0.2,0.1-0.4,0.2-0.6s0.1-0.4,0.1-0.6s0.1-0.4,0.1-0.6s0.1-0.4,0.2-0.6
		c0.1,0,0.2,0,0.3,0s0.2,0.1,0.2,0.1c0.2-0.2,0.4-0.3,0.5-0.6s0.3-0.4,0.5-0.7s0.3-0.4,0.5-0.6s0.5-0.3,0.8-0.3
		c0.2,0.1,0.3,0.2,0.5,0.4s0.3,0.3,0.5,0.5c0.1,0,0.1,0.1,0.2,0.1s0.1,0.1,0.2,0.1v0.1c0.1,0.1,0.2,0.2,0.2,0.3s0.1,0.2,0.2,0.4
		s0.1,0.3,0.1,0.4s0.1,0.3,0.2,0.4c0,0,0,0.1,0,0.1s0,0.1,0,0.1s0,0.1,0,0.1s0,0.1,0,0.1c0,0.3-0.1,0.6-0.3,0.8s-0.4,0.4-0.7,0.5
		s-0.6,0.3-0.9,0.3s-0.6,0.2-0.9,0.3c0,0,0,0,0,0s0,0,0,0.1c0.2,0.1,0.3,0.2,0.4,0.3s0.2,0.1,0.3,0.2s0.2,0.1,0.3,0.1
		s0.3,0.1,0.5,0.1s0.4,0.1,0.5,0.1s0.2,0.1,0.3,0.1s0.2,0,0.3,0s0.2,0,0.4,0c0.1,0.1,0.1,0.2,0.2,0.3s0.1,0.2,0.1,0.3s0,0.2,0,0.3
		s0,0.2-0.1,0.2c0,0,0,0,0.1,0s0.1,0,0.1,0c0,0-0.1,0.1-0.1,0.1s-0.1,0.1-0.1,0.1s-0.1,0.1-0.1,0.1s-0.1,0.1-0.2,0.1
		c-0.2,0.1-0.5,0.1-0.9,0s-0.8-0.2-1.4-0.5c-0.3-0.1-0.5-0.2-0.7-0.3s-0.3-0.2-0.5-0.2s-0.2-0.2-0.4-0.3S153.2,26.5,153,26.4z
		 M154.7,22.4c-0.1,0.1-0.2,0.2-0.3,0.3s-0.2,0.2-0.3,0.3s-0.2,0.2-0.3,0.4s-0.1,0.3-0.2,0.5c0.3,0,0.6-0.1,0.9-0.2s0.6-0.2,0.8-0.3
		c0-0.2-0.1-0.4-0.3-0.6S154.9,22.4,154.7,22.4z"/>
	<path class="st0" d="M164,26.4c-0.1,0.3-0.2,0.5-0.2,0.7s-0.2,0.3-0.3,0.5c-0.1,0-0.2,0-0.2,0s-0.1,0.1-0.1,0.1c-0.1,0-0.1,0-0.2,0
		s-0.1,0-0.1-0.1s-0.1,0-0.1-0.1s-0.1,0-0.2,0c0-0.1,0-0.1-0.1-0.2s-0.1-0.1-0.2-0.1c0-0.1,0-0.1,0-0.2s0-0.1,0-0.1s0-0.1,0-0.1
		s0-0.1,0-0.1c0,0-0.1,0-0.1-0.1s-0.1-0.1-0.1-0.2c0-0.1,0-0.3,0.1-0.4s0.1-0.2,0.1-0.4s0.1-0.2,0.1-0.3s0-0.2,0-0.3
		c0,0,0.1,0,0.1,0s0-0.1,0-0.1s0-0.1,0-0.2s0-0.1,0-0.1c0.1-0.2,0.1-0.4,0.2-0.6s0.1-0.4,0.1-0.6s0.1-0.4,0.1-0.6s0.1-0.4,0.2-0.6
		c0.1,0,0.2,0,0.3,0s0.2,0.1,0.2,0.1c0.2-0.2,0.4-0.3,0.5-0.6s0.3-0.4,0.5-0.7s0.3-0.4,0.5-0.6s0.5-0.3,0.8-0.3
		c0.2,0.1,0.3,0.2,0.5,0.4s0.3,0.3,0.5,0.5c0.1,0,0.1,0.1,0.2,0.1s0.1,0.1,0.2,0.1v0.1c0.1,0.1,0.2,0.2,0.2,0.3s0.1,0.2,0.2,0.4
		s0.1,0.3,0.1,0.4s0.1,0.3,0.2,0.4c0,0,0,0.1,0,0.1s0,0.1,0,0.1s0,0.1,0,0.1s0,0.1,0,0.1c0,0.3-0.1,0.6-0.3,0.8s-0.4,0.4-0.7,0.5
		S166.4,25,166,25s-0.6,0.2-0.9,0.3c0,0,0,0,0,0s0,0,0,0.1c0.2,0.1,0.3,0.2,0.4,0.3s0.2,0.1,0.3,0.2s0.2,0.1,0.3,0.1
		s0.3,0.1,0.5,0.1s0.4,0.1,0.5,0.1s0.2,0.1,0.3,0.1s0.2,0,0.3,0s0.2,0,0.4,0c0.1,0.1,0.1,0.2,0.2,0.3s0.1,0.2,0.1,0.3s0,0.2,0,0.3
		s0,0.2-0.1,0.2c0,0,0,0,0.1,0s0.1,0,0.1,0c0,0-0.1,0.1-0.1,0.1s-0.1,0.1-0.1,0.1s-0.1,0.1-0.1,0.1s-0.1,0.1-0.2,0.1
		c-0.2,0.1-0.5,0.1-0.9,0s-0.8-0.2-1.4-0.5c-0.3-0.1-0.5-0.2-0.7-0.3s-0.3-0.2-0.5-0.2s-0.2-0.2-0.4-0.3S164.1,26.5,164,26.4z
		 M165.6,22.4c-0.1,0.1-0.2,0.2-0.3,0.3s-0.2,0.2-0.3,0.3s-0.2,0.2-0.3,0.4s-0.1,0.3-0.2,0.5c0.3,0,0.6-0.1,0.9-0.2s0.6-0.2,0.8-0.3
		c0-0.2-0.1-0.4-0.3-0.6S165.8,22.4,165.6,22.4z"/>
	<path class="st0" d="M171.1,26.8c0,0.2,0,0.4,0,0.6s-0.2,0.2-0.3,0.3s-0.3,0.1-0.4,0.1s-0.3,0-0.4,0c-0.1-0.1-0.1-0.2-0.2-0.4
		s-0.1-0.3-0.2-0.5s-0.1-0.3-0.1-0.5s-0.1-0.3-0.1-0.5c0-0.1,0.1-0.2,0.1-0.3s0-0.2,0-0.4s0-0.3,0-0.4s0-0.3,0-0.4
		c0.1-0.3,0.1-0.6,0.2-0.9s0.2-0.6,0.3-0.9c0-0.1,0-0.1,0-0.2s0-0.1,0-0.2c0,0,0-0.1,0.1-0.1s0.1,0,0.1-0.1c0-0.1,0-0.2,0-0.2
		s0-0.1,0-0.2c0-0.1,0.1-0.2,0.1-0.3s0.1-0.2,0.1-0.4c0.1,0,0.1-0.1,0.2-0.2s0.1-0.1,0.2-0.2s0.1-0.1,0.2-0.1s0.2-0.1,0.3-0.1
		c0.1,0.1,0.1,0.2,0.1,0.3s0,0.2,0.1,0.3s0,0.2,0.1,0.3s0.1,0.1,0.2,0.2c0,0.1,0,0.1,0,0.2s0,0.2,0,0.3s0,0.2,0.1,0.2
		s0.1,0.1,0.1,0.1c-0.1,0.4-0.3,0.7-0.4,1.1s-0.2,0.7-0.3,1.1s-0.1,0.7-0.1,1.1S171,26.4,171.1,26.8z"/>
	<path class="st0" d="M180.7,25.5c-0.2,0.3-0.4,0.6-0.7,0.8s-0.6,0.3-1,0.5s-0.8,0.2-1.2,0.3s-0.8,0.2-1.2,0.4c-0.1,0-0.2,0-0.3,0
		s-0.2,0-0.2,0s-0.1,0-0.2,0s-0.1,0-0.2,0c0,0-0.1,0-0.1,0s0,0,0,0.1c-0.1,0-0.3,0-0.4,0s-0.2,0-0.3,0c-0.1,0-0.2,0-0.3,0
		s-0.2,0-0.3,0c-0.6,0-1-0.2-1.4-0.6s-0.5-0.9-0.6-1.6c0,0,0-0.1,0-0.1s0,0-0.1,0c0-0.1,0-0.1,0-0.2s0-0.1,0-0.2
		c0.2-0.4,0.4-0.8,0.7-1.2s0.6-0.7,0.9-1c0.1,0,0.1-0.1,0.1-0.1s0.1-0.1,0.1-0.1s0.1-0.1,0.1-0.1s0.1-0.1,0.2-0.1
		c0.2-0.2,0.4-0.4,0.6-0.5s0.5-0.3,0.7-0.5s0.5-0.3,0.7-0.4s0.5-0.3,0.7-0.5c0.1,0,0.1,0.1,0.2,0s0.1,0,0.1,0
		c0.1,0.1,0.1,0.2,0.2,0.2s0.2,0.1,0.3,0.1s0.2,0.1,0.3,0.2s0.2,0.2,0.2,0.3c0,0-0.1,0-0.1,0.1s0,0.1,0,0.1s0,0.1,0,0.1
		s0,0.1-0.1,0.1c0,0,0,0.1,0.1,0.1s0.1,0,0.1,0.1s0,0.1,0,0.1s0,0.1,0,0.1c-0.2,0.1-0.3,0.2-0.5,0.3s-0.4,0.2-0.6,0.3
		s-0.4,0.2-0.6,0.3s-0.4,0.3-0.7,0.4s-0.4,0.3-0.6,0.5s-0.4,0.4-0.6,0.6s-0.4,0.4-0.6,0.7s-0.3,0.4-0.5,0.7c0,0,0,0.1,0.1,0.1
		s0,0,0.1,0.1c0.3,0,0.5,0,0.7,0s0.4,0,0.7,0c0,0,0,0,0-0.1s0-0.1,0.1-0.1c0.4,0,0.9-0.1,1.2-0.2s0.8-0.2,1.2-0.3
		c-0.1,0-0.1,0-0.2-0.1s-0.1,0-0.1-0.1c0,0,0-0.1,0-0.1s0.1-0.1,0.1-0.1c-0.1-0.1-0.2-0.1-0.3-0.2s-0.1-0.2-0.1-0.4
		c0,0,0.1-0.1,0.1-0.1s0-0.1-0.1-0.1c0,0-0.1,0-0.1,0s0,0,0,0s0,0,0,0s0,0-0.1,0c0-0.1,0-0.1,0.1-0.2s0-0.1,0.1-0.2l0.8-0.5
		c0.1,0.1,0.2,0.1,0.3,0.2s0.3,0.1,0.4,0.2s0.3,0.1,0.4,0.2s0.3,0.1,0.4,0.2c0.1,0,0.2,0.1,0.3,0.2s0.2,0.2,0.2,0.2s0.2,0.2,0.2,0.2
		s0.2,0.1,0.3,0.2c0,0.1,0,0.2,0,0.2S180.7,25.4,180.7,25.5z"/>
	<path class="st0" d="M186.2,26.5c0,0.2,0,0.4-0.1,0.5s-0.1,0.2-0.3,0.3s-0.2,0.2-0.4,0.2s-0.3,0.1-0.4,0.2c-0.1,0-0.1-0.1-0.2-0.1
		s-0.1-0.1-0.2-0.1c-0.1-0.2-0.2-0.4-0.3-0.5s-0.1-0.3-0.1-0.5c0,0,0-0.1,0-0.1s0-0.2,0-0.3s0-0.2,0-0.3s0-0.1,0-0.1
		c-0.2,0-0.4,0.1-0.6,0.1s-0.4,0.1-0.6,0.2s-0.4,0.2-0.5,0.3s-0.3,0.2-0.4,0.2c0,0,0,0.1,0,0.2s-0.1,0.2-0.1,0.3s-0.1,0.2-0.2,0.3
		s-0.1,0.1-0.2,0.1c0,0,0,0,0,0.1s0,0.1,0,0.1c-0.1,0-0.2,0.1-0.3,0.1s-0.2,0.1-0.3,0.1s-0.2,0.1-0.3,0.1s-0.2,0-0.4-0.1
		c0,0,0-0.1-0.1-0.1s-0.1-0.1-0.1-0.1s-0.1-0.1-0.1-0.1s0,0,0-0.1c0,0-0.1,0,0-0.1s0-0.1,0.1,0c-0.1-0.1-0.1-0.2-0.2-0.3
		s-0.1-0.2-0.1-0.3c0,0,0,0,0-0.1s0-0.1,0-0.1s0-0.1,0-0.1s0,0,0.1,0c0-0.1,0-0.1,0-0.2s0-0.1,0-0.1s0-0.1,0-0.1s0-0.1,0-0.1
		c0.1-0.2,0.2-0.4,0.2-0.6s0.1-0.4,0.1-0.5c0.1-0.1,0.1-0.1,0.1-0.2s0.1-0.2,0.1-0.3s0-0.2,0-0.3s0-0.2,0-0.2c0,0,0.1-0.1,0.1,0
		c0-0.3,0.1-0.5,0.1-0.9s0.1-0.6,0.1-0.9s0.1-0.6,0.2-0.8s0.3-0.4,0.5-0.4c0,0.2,0.1,0.3,0.2,0.4s0.2,0.2,0.2,0.4s0.2,0.2,0.3,0.3
		s0.2,0.3,0.3,0.4c0,0.1,0,0.3,0,0.5s-0.1,0.4-0.1,0.6s-0.1,0.4-0.1,0.6s-0.1,0.3-0.1,0.5c0,0,0,0.1,0.1,0.1s0,0,0,0.1
		c0.2,0,0.4-0.1,0.6-0.1s0.4-0.1,0.6-0.1s0.4-0.1,0.6-0.2s0.4-0.1,0.5-0.2c0-0.3,0.1-0.6,0.2-0.9s0.1-0.6,0-0.9c0,0,0.1-0.1,0.1-0.1
		s0.1-0.1,0.1-0.1c0-0.1-0.1-0.3,0-0.5s0-0.3,0.1-0.5s0.1-0.3,0.2-0.4s0.2-0.2,0.4-0.2c0.1,0.1,0.2,0.3,0.2,0.4s0.1,0.3,0.2,0.4
		s0.1,0.3,0.2,0.4s0.2,0.2,0.3,0.3c0,0.2,0,0.5,0.1,0.7s0,0.5,0,0.7c-0.1,0.3-0.1,0.6-0.2,0.9s-0.1,0.6-0.2,0.9
		c-0.1,0.1-0.1,0.1-0.1,0.2s-0.1,0.2-0.1,0.2s-0.1,0.2-0.1,0.2s-0.1,0.1-0.1,0.2c0,0.1,0,0.2,0,0.3S186.2,26.3,186.2,26.5z"/>
	<path class="st0" d="M193.9,22c-0.2,0-0.4,0-0.6,0s-0.4,0.1-0.7,0.1c-0.2,0-0.3,0-0.5,0.1s-0.3,0-0.4,0c-0.1,0.2-0.1,0.3-0.2,0.5
		s-0.1,0.3-0.2,0.4c-0.1,0.1-0.1,0.3-0.2,0.4s-0.1,0.3-0.1,0.4c-0.1,0.1-0.1,0.2-0.2,0.3s-0.1,0.2-0.1,0.4c-0.1,0.1-0.2,0.2-0.2,0.4
		s-0.1,0.2-0.1,0.3l0,0.1c0,0-0.1,0.1-0.1,0.1s0,0.1-0.1,0.1c0,0.1,0,0.2-0.1,0.3c0,0,0,0.1,0,0.1s0,0.1,0,0.1c0,0.1,0,0.1-0.1,0.2
		c0,0,0,0.1,0,0.1s0,0.1,0,0.1c0,0.1,0,0.2,0,0.2c0,0,0,0.1,0.1,0.1s0,0.1,0,0.1c0,0,0.1,0.1,0.1,0.1c0,0,0.1,0.1,0.1,0.1l0.1,0.1
		c0,0.2,0,0.4-0.1,0.5c-0.1,0.1-0.3,0.2-0.6,0.2h-0.1c0,0-0.1-0.1-0.1-0.1c-0.1,0-0.1,0-0.2-0.1s-0.1,0-0.1-0.1
		c-0.1,0-0.2-0.1-0.2-0.1l-0.1-0.1c0-0.1,0-0.1,0-0.1c-0.1-0.1-0.1-0.1-0.1-0.2s0-0.2-0.1-0.3c0-0.1,0-0.1-0.1-0.2s0-0.1-0.1-0.2
		c0-0.5,0-0.8,0.1-1.1s0.2-0.6,0.3-0.9c0.1-0.2,0.1-0.3,0.2-0.5s0.1-0.3,0.2-0.5l0.1-0.1c0.1-0.1,0.1-0.2,0.1-0.3s0.1-0.2,0.1-0.3
		c0-0.1,0-0.1,0.1-0.2s0-0.1,0.1-0.1c0,0-0.1,0-0.1,0s-0.1,0-0.1,0c0,0-0.1,0-0.1,0s-0.1,0-0.1,0c-0.1,0-0.1,0-0.1,0
		c-0.1,0-0.2,0.1-0.3,0.1h-0.1c0,0,0,0-0.1,0s0,0-0.1,0c-0.1,0-0.1,0-0.2,0c-0.1,0-0.2,0-0.3,0h-0.1c0,0,0,0-0.1,0s0,0-0.1,0
		c-0.1,0-0.1,0-0.2,0s-0.1,0-0.2-0.1c-0.1-0.1-0.2-0.2-0.2-0.2l-0.1-0.1c0,0,0-0.1,0-0.1s0-0.1,0-0.1c0-0.1-0.1-0.2-0.1-0.3
		s0-0.2,0-0.3c0-0.1,0-0.1,0-0.1s0-0.1,0.1-0.1l0-0.2l0.2,0h0.3c0.3,0,0.5,0,0.8,0s0.5,0,0.8-0.1c0.2,0,0.3,0,0.5,0s0.3,0,0.5,0
		c0-0.1,0.1-0.1,0.1-0.2l0.1-0.1c0.1,0,0.2,0,0.3,0.1s0.1,0.1,0.1,0.1c0.2,0,0.3,0,0.5-0.1s0.4,0,0.5-0.1c0.3,0,0.5-0.1,0.8-0.1
		s0.5,0,0.8,0c0.1,0,0.2,0,0.3,0s0.2,0,0.3,0l0.1,0.1c0,0,0.1,0.1,0.1,0.1s0.1,0.1,0.1,0.1c0.1,0.1,0.2,0.2,0.3,0.3s0.1,0.3,0.1,0.5
		c-0.1,0.1-0.1,0.1-0.1,0.2l-0.1,0.1l-0.1,0c0,0-0.1,0-0.1,0s-0.1,0-0.1,0c0,0-0.1,0-0.1,0s-0.1,0-0.1,0c-0.1,0-0.1,0-0.2,0
		S193.9,22,193.9,22z"/>
</g>
<g>
</g>
<g>
</g>
<g>
</g>
<g>
</g>
<g>
</g>
<g>
</g>
</svg>
