<?xml version="1.0" encoding="utf-8"?>
<!-- Generator: Adobe Illustrator 21.1.0, SVG Export Plug-In . SVG Version: 6.00 Build 0)  -->
<svg version="1.1" id="Ebene_1" xmlns="http://www.w3.org/2000/svg" xmlns:xlink="http://www.w3.org/1999/xlink" x="0px" y="0px"
	 viewBox="0 0 127.5 34" style="enable-background:new 0 0 127.5 34;" xml:space="preserve">
<style type="text/css">
	.st0{fill:#1D1D1B;}
</style>
<g>
	<path class="st0" d="M1.9,10.9c-0.2-0.1-0.4-0.3-0.5-0.6S1.1,9.9,1.1,9.7s0.1-0.3,0.1-0.4S1.4,9.1,1.5,9s0.2-0.1,0.3-0.2
		S2,8.7,2.1,8.7l0.2,0.1l0.1,0.1L2.6,9c0.1,0,0.1-0.1,0.1-0.1s0-0.1,0.1-0.2c0-0.1,0.1-0.2,0.1-0.3S3,8.2,3,8.2C3,8.1,3,8,3,8V7.9
		c0-0.1,0-0.1,0-0.1H2.9c0,0,0,0-0.1,0s-0.1,0-0.1,0C2.6,7.6,2.5,7.6,2.5,7.5S2.4,7.4,2.4,7.3S2.3,7.2,2.3,7.1S2.2,7.1,2.2,7L2,6.9
		l0.1-0.1c0,0,0,0,0-0.1s0-0.1,0-0.1c0-0.1,0-0.2,0-0.2V6.3c0.1-0.1,0.1-0.2,0.1-0.2L2.3,6c0.2,0,0.4-0.1,0.6-0.2s0.4-0.1,0.6-0.2
		S3.8,5.5,4,5.4s0.4-0.1,0.6-0.2c0.1-0.1,0.1-0.1,0.2-0.1s0.1,0,0.2,0s0.1,0,0.2,0s0.1,0,0.1-0.1c0,0,0.2,0,0.3-0.1
		c0.2-0.1,0.5-0.1,0.9-0.2s0.8-0.1,1.3-0.2H8h0.1h0.1c0.4,0,0.7,0.1,0.8,0.4C9.1,4.9,9.1,5,9.2,5s0.1,0.1,0.2,0.2l0.1,0.1
		c0,0,0.1,0,0.1,0.1l0.1,0.1c0.1,0.2,0.1,0.4,0,0.6c0,0.1-0.1,0.1-0.2,0.2s-0.1,0-0.2,0L9.1,6.4c-0.1,0-0.2,0-0.2,0s-0.1,0-0.2,0
		c-0.2,0-0.5,0-0.8,0S7.3,6.5,7,6.5S6.6,6.6,6.3,6.6S5.7,6.8,5.5,6.9C5.4,6.9,5.4,7,5.3,7c0,0-0.1,0-0.1,0.1s0,0.1,0,0.2
		s0,0.1,0,0.2v0.1v0.1C4.9,7.9,4.8,8.1,4.8,8.4v0.1L4.7,8.6c0,0,0,0.1,0,0.2v0.1c0.2,0,0.3,0,0.5-0.1s0.3,0,0.5-0.1
		c0.2,0,0.4-0.1,0.7-0.1s0.5,0,0.7,0h0.5L7.5,8.7h0.1L7.5,9c0.1,0,0.1,0,0.1,0.1s0.1,0,0.1,0l0.1,0.1l0.1,0.1c0,0,0.1,0.1,0.1,0.2
		v0.1l-0.6,0.7l-0.1,0.1H7.2c-0.1,0-0.3,0-0.4,0c-0.1,0-0.1,0-0.2,0.1s-0.1,0-0.2,0c-0.2,0-0.3,0.1-0.5,0.1s-0.3,0-0.4,0.1
		c-0.2,0-0.3,0.1-0.5,0.1s-0.3,0.1-0.5,0.1c-0.1,0-0.1,0-0.2,0s0,0,0,0c-0.1,0-0.2,0-0.2,0s-0.2,0-0.2,0.1l-0.1,0.1v0.1
		c0,0.1,0,0.1-0.1,0.2s-0.1,0.1-0.1,0.2v0.2c-0.1,0-0.1,0-0.1,0l0,0c0,0.1,0,0.1,0,0.2s0,0.1-0.1,0.2v0.1c0,0,0,0,0,0.1
		c0.1,0.1,0.1,0.3,0.1,0.5c0,0.1-0.1,0.3-0.2,0.4s-0.3,0-0.4,0.1c-0.1,0-0.2,0-0.3,0s-0.1,0-0.2-0.1H2.3H2.2l-0.1-0.1
		C2,13.1,2,13,2,13l-0.1-0.1c0-0.1-0.1-0.1-0.1-0.2s-0.1-0.1-0.1-0.2c-0.1-0.3-0.1-0.5,0-0.7s0.1-0.4,0.1-0.5s0-0.1,0-0.2
		S1.9,11,1.9,10.9z"/>
	<path class="st0" d="M14.9,9.8c0,0.1,0,0.2,0,0.3s0.1,0.2,0.1,0.3s0.1,0.2,0.1,0.3s0.1,0.2,0.1,0.3s0,0.2,0,0.4s0,0.3-0.1,0.4
		S15,12,14.9,12.1s-0.1,0.2-0.2,0.2c-0.1,0.1-0.2,0.3-0.4,0.3s-0.3,0.2-0.4,0.3S13.7,13,13.6,13s-0.2,0-0.3,0.1
		c-0.1,0-0.2,0.1-0.3,0.1s-0.2,0.1-0.4,0.1s-0.3,0.1-0.4,0.1s-0.2,0-0.3,0c-0.2,0.1-0.5,0.1-0.7,0.2s-0.5,0-0.8-0.1
		c-0.3,0-0.5,0-0.8,0S9.2,13.3,9,13.2s-0.3-0.3-0.5-0.5s-0.2-0.4-0.3-0.6c-0.1-0.4,0-0.8,0-1.2s0.2-0.7,0.4-1S9,9.3,9.2,9
		s0.4-0.5,0.7-0.8H10c0,0,0.1,0,0.1-0.1s0-0.1,0.1-0.1s0.1-0.1,0.1-0.1c0.1-0.1,0.1-0.2,0.2-0.3s0.2-0.1,0.3-0.3
		c0.1,0,0.1,0,0.2-0.1s0.1-0.1,0.1-0.1L11.2,7c0,0,0.1,0,0.2,0V6.9c0.1-0.1,0.2-0.1,0.3-0.2s0.1-0.2,0.2-0.3c0.1,0,0.1,0,0.2,0
		s0.1,0,0.2,0c0.1-0.1,0.1-0.2,0.2-0.2s0.1-0.1,0.2-0.2c0.1,0,0.2,0,0.3,0s0.2,0.1,0.3,0.2c0,0.1,0,0.1,0.1,0.2s0.1,0.1,0.1,0.1
		l0.1,0.1c0,0,0.1,0.1,0.1,0.2h0.1c0,0,0,0,0.1,0C13.9,6.9,14,7,14,7s0,0,0,0.1s-0.1,0.2-0.1,0.2s-0.1,0.1-0.1,0.2s0,0.1,0,0.1
		s0.1,0,0.1,0.1s0,0.1,0,0.2c0.2,0.3,0.4,0.6,0.5,1S14.7,9.5,14.9,9.8z M13.4,10.9c0-0.1,0.1-0.2,0.1-0.2s0.1-0.1,0.1-0.2
		c0-0.1-0.1-0.1-0.1-0.1s0-0.1,0-0.2c-0.2-0.2-0.3-0.5-0.4-0.8s-0.3-0.5-0.4-0.8c0,0,0,0.1-0.1,0.1s-0.1,0-0.1,0
		c0,0.1,0,0.1-0.1,0.1s-0.1,0-0.1,0h-0.1L12,8.7c-0.2,0.2-0.5,0.4-0.7,0.5s-0.4,0.4-0.6,0.6h-0.1c0,0,0,0-0.1,0
		c-0.1,0.1-0.1,0.3-0.2,0.4s-0.2,0.2-0.3,0.4S9.8,10.9,9.8,11s-0.1,0.3-0.1,0.5c0.1,0.1,0.3,0.2,0.5,0.2s0.4,0,0.6,0s0.4,0,0.6-0.1
		s0.4-0.1,0.5-0.1c0.3-0.1,0.6-0.2,0.8-0.3S13.1,11,13.4,10.9z"/>
	<path class="st0" d="M17.5,12.1c-0.1,0.3-0.2,0.5-0.2,0.7s-0.2,0.3-0.3,0.5c-0.1,0-0.2,0-0.2,0l-0.1,0.1c-0.1,0-0.1,0-0.2,0
		s-0.1,0-0.1-0.1s-0.1,0-0.1-0.1s-0.1,0-0.2,0c0-0.1,0-0.1-0.1-0.2s-0.1-0.1-0.2-0.1c0-0.1,0-0.1,0-0.2s0-0.1,0-0.1v-0.1v-0.1
		c0,0-0.1,0-0.1-0.1s-0.1-0.1-0.1-0.2c0-0.1,0-0.3,0.1-0.4s0.1-0.2,0.1-0.4s0.1-0.2,0.1-0.3s0-0.2,0-0.3H16v-0.1c0,0,0-0.1,0-0.2
		s0-0.1,0-0.1c0.1-0.2,0.1-0.4,0.2-0.6s0.1-0.4,0.1-0.6s0.1-0.4,0.1-0.6s0.1-0.4,0.2-0.6c0.1,0,0.2,0,0.3,0S17.1,8,17.1,8
		c0.2-0.2,0.4-0.3,0.5-0.6s0.3-0.4,0.5-0.7s0.3-0.4,0.5-0.6s0.5-0.3,0.8-0.3c0.2,0.1,0.3,0.2,0.5,0.4s0.3,0.3,0.5,0.5
		c0.1,0,0.1,0.1,0.2,0.1s0.1,0.1,0.2,0.1V7C20.9,7.3,21,7.4,21,7.5s0.1,0.2,0.2,0.4c0.1,0.2,0.1,0.3,0.1,0.4s0.1,0.3,0.2,0.4v0.1
		v0.1V9v0.1c0,0.3-0.1,0.6-0.3,0.8s-0.4,0.4-0.7,0.5s-0.6,0.3-0.9,0.3S19,10.9,18.7,11l0,0c0,0,0,0,0,0.1c0.2,0.1,0.3,0.2,0.4,0.3
		s0.2,0.1,0.3,0.2s0.2,0.1,0.3,0.1s0.3,0.1,0.5,0.1s0.4,0.1,0.5,0.1S20.9,12,21,12s0.2,0,0.3,0s0.2,0,0.4,0c0.1,0.1,0.1,0.2,0.2,0.3
		s0.1,0.2,0.1,0.3s0,0.2,0,0.3s0,0.2-0.1,0.2c0,0,0,0,0.1,0s0.1,0,0.1,0L22,13.2l-0.1,0.1l-0.1,0.1c0,0-0.1,0.1-0.2,0.1
		c-0.2,0.1-0.5,0.1-0.9,0s-0.8-0.2-1.4-0.5c-0.3-0.1-0.5-0.2-0.7-0.3s-0.3-0.2-0.5-0.2s-0.2-0.2-0.4-0.3S17.6,12.2,17.5,12.1z
		 M19.1,8.1c-0.1,0.1-0.2,0.2-0.3,0.3s-0.2,0.2-0.3,0.3s-0.2,0.2-0.3,0.4S18.1,9.4,18,9.6c0.3,0,0.6-0.1,0.9-0.2s0.6-0.2,0.8-0.3
		c0-0.2-0.1-0.4-0.3-0.6S19.3,8.1,19.1,8.1z"/>
	<path class="st0" d="M27.2,12.9c-0.1-0.1-0.1-0.1-0.1-0.2s-0.1-0.2-0.2-0.2c0-0.1,0-0.3-0.1-0.4s-0.1-0.3-0.1-0.5s0-0.3-0.1-0.5
		s0-0.3,0-0.4c0-0.1,0-0.1,0.1-0.2s0.1-0.1,0.1-0.2s0.1-0.1,0.1-0.2s0-0.1,0-0.2c0,0,0.1,0,0.1-0.1s0-0.1,0.1,0
		c0.1-0.2,0.1-0.3,0.2-0.5s0.1-0.3,0.2-0.4s0.1-0.3,0.2-0.4s0.1-0.3,0.2-0.5c-0.1-0.1-0.2-0.3-0.3-0.4s-0.1-0.3-0.1-0.4
		s-0.1-0.3-0.1-0.5s0-0.3-0.1-0.5c0.1-0.1,0.2-0.3,0.3-0.3s0.3-0.2,0.4-0.2s0.3-0.1,0.5-0.1s0.4-0.1,0.6-0.1c0.4-0.1,0.7-0.2,1-0.3
		s0.7-0.2,1-0.2s0.6-0.1,0.9-0.1s0.7-0.1,1.1-0.2l0,0c0,0,0,0,0.1,0c0,0.1,0.1,0.1,0.1,0.1s0,0,0-0.1s0,0,0-0.1c0,0,0,0,0.1,0
		s0.1,0,0.1,0s0,0,0.1,0s0,0,0-0.1c0.1,0.2,0.2,0.3,0.4,0.4s0.3,0.2,0.5,0.3c0,0.1,0,0.1,0,0.2s0,0.1,0,0.1v0.1v0.1
		c-0.1,0.2-0.3,0.4-0.4,0.5s-0.3,0.2-0.5,0.3S33,6.7,32.8,6.7s-0.4,0.1-0.6,0.1S31.8,6.9,31.6,7S31.2,7.1,31,7.2c-0.1,0-0.1,0-0.2,0
		s-0.1,0-0.2,0s-0.1,0-0.2,0s-0.1,0-0.2,0c-0.1,0.1-0.1,0.1-0.2,0.1s-0.2,0-0.3,0.1c0,0.1,0.1,0.2,0.1,0.3s0,0.2,0,0.2
		c0.3,0,0.7,0,1.1,0s0.8-0.1,1.2-0.1v0.1c0,0,0,0,0,0.1c0.1,0,0.1,0.1,0.2,0.2s0.1,0.1,0.2,0.2s0.1,0.1,0.2,0.2s0.2,0.1,0.2,0.1
		c0,0.1,0.1,0.2,0.1,0.2s0,0.2,0,0.3c-0.2,0.1-0.3,0.2-0.5,0.3S32.2,9.7,32,9.7s-0.3,0.2-0.5,0.2S31.1,10,30.9,10h-0.1h-0.1
		c-0.1,0-0.2,0.1-0.3,0s-0.2,0-0.3,0c-0.1,0-0.3,0-0.4,0s-0.3,0-0.4-0.1c-0.1,0.2-0.3,0.4-0.4,0.6s-0.2,0.5-0.3,0.7
		c0.3,0,0.6,0.1,0.8,0.1s0.4,0,0.6,0s0.4,0,0.6-0.1s0.4,0,0.7,0c0.2-0.1,0.4-0.2,0.7-0.2s0.5-0.1,0.7-0.2c0.1,0,0.1,0.1,0.2,0.1
		s0.1,0.1,0.2,0.2s0.1,0.1,0.2,0.2s0.1,0.1,0.2,0l0.1,0.1c0,0,0,0.1,0,0.2s0,0.1,0.1,0.1s0.1,0,0.1,0c-0.1,0.3-0.3,0.5-0.5,0.7
		s-0.4,0.3-0.6,0.4S32.2,13,31.9,13s-0.6,0.1-1,0.2c-0.1,0-0.2,0-0.2,0s-0.1,0-0.2,0c-0.2,0-0.5,0.1-0.8,0.1s-0.6,0.1-0.9,0
		s-0.6,0-0.9-0.1S27.4,13.1,27.2,12.9z"/>
	<path class="st0" d="M37.9,11.3c0,0.1,0,0.2-0.1,0.3s-0.1,0.2-0.2,0.3s-0.1,0.2-0.2,0.3s-0.1,0.2-0.2,0.2c0,0.1,0,0.2,0,0.2
		s0,0.1,0,0.2c-0.1,0.3-0.3,0.5-0.5,0.6s-0.5,0.1-0.7-0.1c-0.1-0.1-0.2-0.1-0.2-0.2s-0.1-0.2-0.2-0.2c0-0.1,0-0.3,0-0.4
		s-0.1-0.2-0.2-0.2c0-0.2-0.1-0.3-0.1-0.5s-0.1-0.4-0.1-0.6s-0.1-0.4-0.1-0.6s0-0.4,0-0.5s0-0.1,0-0.2S35,9.8,34.9,9.7
		c0-0.2,0-0.4,0-0.6s0-0.4,0-0.6c0-0.2,0-0.4,0-0.6c0-0.2,0-0.4-0.1-0.6s0-0.4,0-0.5s0-0.3,0.1-0.4c0-0.1,0.1-0.2,0.2-0.2
		s0.2-0.1,0.2-0.2c0.2,0,0.3,0.1,0.4,0.2s0.1,0.2,0.1,0.4C36,6.7,36.1,6.8,36.2,7s0.2,0.3,0.2,0.5s0.1,0.4,0.1,0.6
		c0,0.2,0,0.4,0.1,0.7s0,0.4,0,0.6s0,0.4,0.1,0.5c0.3-0.4,0.5-0.8,0.7-1.1s0.4-0.6,0.6-0.9c0.2-0.3,0.4-0.6,0.7-0.9s0.6-0.6,1-1
		c0.1,0,0.1,0,0.2,0S40,6,40,6.1s0.1,0,0.1,0s0.1,0,0.2,0c0,0.1,0.1,0.1,0.1,0.2s0,0.1,0,0.1v0.1c0,0,0.1,0.1,0.1,0.2v0.1v0.1V7
		c0,0,0,0,0.1,0c0,0.1-0.1,0.2-0.1,0.3s-0.1,0.2-0.1,0.3c0,0.4-0.2,0.6-0.4,0.9S39.5,9,39.3,9.3s-0.4,0.5-0.6,0.8s-0.4,0.6-0.5,0.9
		h-0.1c0,0,0,0-0.1,0.1S38,11.2,37.9,11.3C38,11.2,38,11.3,37.9,11.3z"/>
	<path class="st0" d="M46.4,6.7C46.4,6.8,46.4,6.8,46.4,6.7v0.2c0,0,0,0,0,0.1s0,0.1,0,0.1c-0.2,0.3-0.4,0.4-0.6,0.5
		s-0.4,0.2-0.7,0.2S44.6,8,44.4,8s-0.5,0.1-0.8,0.3c-0.1,0-0.2,0-0.3,0s-0.2,0.1-0.4,0c0,0-0.1,0.1-0.2,0.1s-0.1,0-0.2,0.1
		c0,0.1,0,0.1,0,0.2s0,0.1,0,0.2c0.3,0,0.6,0,0.9,0s0.7-0.1,1-0.1v0.1c0,0,0,0,0,0.1c0.1,0,0.1,0.1,0.2,0.1s0.1,0.1,0.2,0.2
		S45,9.4,45,9.4s0.1,0,0.2,0c0,0.1,0.1,0.1,0.1,0.2s0,0.2,0,0.2c-0.1,0.1-0.3,0.2-0.4,0.3s-0.3,0.2-0.4,0.2s-0.3,0.1-0.4,0.2
		s-0.3,0.1-0.5,0.1h-0.1c0,0,0,0-0.1,0s-0.2,0.1-0.3,0s-0.2,0-0.3,0s-0.2-0.1-0.3-0.1s-0.2,0-0.3,0c-0.1,0.2-0.2,0.3-0.3,0.5
		s-0.2,0.4-0.3,0.6c0.3,0,0.5,0.1,0.7,0s0.3,0,0.5,0s0.3,0,0.5-0.1s0.4,0,0.6,0c0.2-0.1,0.3-0.1,0.6-0.2s0.4-0.1,0.6-0.1
		c0.1,0,0.1,0.1,0.2,0.1s0.1,0.1,0.1,0.2s0.1,0.1,0.1,0.1s0.1,0.1,0.2,0l0.1,0.1v0.1v0.1h0.1c-0.1,0.3-0.3,0.5-0.4,0.6
		s-0.3,0.2-0.5,0.3s-0.4,0.1-0.7,0.2s-0.5,0.1-0.8,0.1c-0.1,0-0.1,0-0.2,0s-0.1,0-0.2,0c-0.2,0-0.4,0.1-0.6,0.1s-0.5,0-0.8,0
		s-0.5,0-0.7-0.1s-0.4-0.2-0.6-0.3c-0.1-0.1-0.1-0.1-0.1-0.2s-0.1-0.1-0.2-0.2c0-0.1,0-0.2,0-0.3s0-0.3-0.1-0.4s0-0.3-0.1-0.4
		s0-0.3,0-0.4c0-0.1,0.1-0.2,0.1-0.3s0.1-0.2,0.1-0.3c0,0,0.1,0,0.1-0.1s0,0,0.1,0c0-0.1,0.1-0.3,0.2-0.4s0.1-0.2,0.2-0.4
		s0.1-0.2,0.2-0.4s0.1-0.3,0.2-0.4c-0.1-0.1-0.2-0.2-0.2-0.3s-0.1-0.2-0.1-0.4c0-0.2,0-0.2-0.1-0.4s0-0.3-0.1-0.4
		c0.1-0.1,0.2-0.2,0.3-0.3s0.2-0.1,0.4-0.2s0.3-0.1,0.4-0.1s0.3-0.1,0.5-0.1c0.3-0.1,0.6-0.2,0.8-0.2s0.5-0.1,0.7-0.1S44.2,6,44.4,6
		s0.6-0.1,0.9-0.1C45.4,6,45.4,6,45.5,6c0-0.1,0.1-0.1,0.1-0.1s0.1,0,0.1-0.1C45.8,5.9,45.9,6,46,6.1S46.3,6.7,46.4,6.7z"/>
	<path class="st0" d="M47.9,12.1c-0.1,0.3-0.2,0.5-0.2,0.7s-0.2,0.3-0.3,0.5c-0.1,0-0.2,0-0.2,0l-0.1,0.1c-0.1,0-0.1,0-0.2,0
		s-0.1,0-0.1-0.1s-0.1,0-0.1-0.1s-0.1,0-0.2,0c0-0.1,0-0.1-0.1-0.2s-0.1-0.1-0.2-0.1c0-0.1,0-0.1,0-0.2s0-0.1,0-0.1v-0.1v-0.1
		c0,0-0.1,0-0.1-0.1S46,12.2,46,12.1c0-0.1,0-0.3,0.1-0.4s0.1-0.2,0.1-0.4s0.1-0.2,0.1-0.3s0-0.2,0-0.3h0.1v-0.1c0,0,0-0.1,0-0.2
		s0-0.1,0-0.1c0.1-0.2,0.1-0.4,0.2-0.6s0.1-0.4,0.1-0.6s0.1-0.4,0.1-0.6S47,8.1,47.1,8c0.1,0,0.2,0,0.3,0s0.2,0.1,0.2,0.1
		C47.8,8,48,7.8,48.1,7.6s0.3-0.4,0.5-0.7s0.3-0.4,0.5-0.6S49.6,6,49.9,6c0.2,0.1,0.3,0.2,0.5,0.4s0.3,0.3,0.5,0.5
		C51,6.9,51,6.9,51,7s0.1,0.1,0.2,0.1v0.1c0.1,0.1,0.2,0.2,0.2,0.3s0.1,0.2,0.2,0.4c0.1,0.2,0.1,0.3,0.1,0.4s0.1,0.3,0.2,0.4v0.1
		v0.1V9v0.1c0,0.3-0.1,0.6-0.3,0.8s-0.4,0.4-0.7,0.5s-0.6,0.3-0.9,0.3s-0.6,0.2-0.9,0.3l0,0c0,0,0,0,0,0.1c0.2,0.1,0.3,0.2,0.4,0.3
		s0.2,0.1,0.3,0.2s0.2,0.1,0.3,0.1s0.3,0.1,0.5,0.1s0.4,0.1,0.5,0.1s0.2,0.1,0.3,0.1s0.2,0,0.3,0s0.2,0,0.4,0
		c0.1,0.1,0.1,0.2,0.2,0.3s0.1,0.2,0.1,0.3s0,0.2,0,0.3s0,0.2-0.1,0.2c0,0,0,0,0.1,0s0.1,0,0.1,0l-0.1,0.1l-0.1,0.1l-0.1,0.1
		c0,0-0.1,0.1-0.2,0.1c-0.2,0.1-0.5,0.1-0.9,0s-0.8-0.2-1.4-0.5c-0.3-0.1-0.5-0.2-0.7-0.3s-0.3-0.2-0.5-0.2s-0.2-0.2-0.4-0.3
		S48,12.2,47.9,12.1z M49.6,8.1c-0.1,0.1-0.2,0.2-0.3,0.3S49.1,8.6,49,8.7s-0.2,0.2-0.3,0.4s-0.1,0.3-0.2,0.5c0.3,0,0.6-0.1,0.9-0.2
		S50,9.1,50.2,9c0-0.2-0.1-0.4-0.3-0.6S49.7,8.1,49.6,8.1z"/>
	<path class="st0" d="M56,10.2c-0.1,0-0.1,0.1-0.1,0.2s-0.1,0.1-0.1,0.2c0,0.1-0.1,0.2-0.1,0.2s-0.1,0.1-0.2,0.2
		c0,0.1-0.1,0.2-0.1,0.3s-0.1,0.1-0.2,0.2c-0.1,0.3-0.3,0.7-0.6,1c0,0.1,0,0.1-0.1,0.2s-0.1,0.1-0.1,0.2c0,0,0,0,0,0.1s0,0,0,0.1
		v0.1c0,0.1-0.1,0.1-0.1,0.2s-0.1,0.1-0.1,0.1s0,0.1-0.1,0.1l-0.2,0.1c-0.6-0.1-0.9-0.4-1-0.9v-0.1v-0.1v-0.1c0-0.1,0.1-0.2,0.1-0.3
		s0.1-0.2,0.2-0.3c0-0.1,0.1-0.1,0.1-0.3s0.1-0.3,0.3-0.5c0.1-0.2,0.2-0.3,0.3-0.4s0.1-0.2,0.2-0.3c-0.1-0.1-0.2-0.2-0.3-0.3
		c-0.1-0.2-0.2-0.4-0.3-0.6S53.3,9,53.2,8.9c0-0.1,0-0.2,0-0.3s0-0.1,0-0.2c0-0.1,0-0.2-0.1-0.3c-0.1-0.1,0-0.2,0-0.3
		c-0.1,0-0.1,0-0.1-0.1V7.6c0-0.1,0-0.1,0-0.2s0-0.2-0.1-0.3c0-0.1,0-0.2-0.1-0.3s0-0.2,0-0.3s0-0.2,0.1-0.3S53,6,53.1,6h0.2
		c0.1,0,0.1,0.1,0.2,0.1s0.1,0.1,0.2,0.1c0.1,0,0.2,0.1,0.2,0.1s0.2,0.1,0.2,0.2l0.1,0.2l0.2,0.1V7v0.1c0,0.1,0,0.2,0,0.2v0.1
		c0,0.1,0,0.2,0,0.3s0,0.2,0.1,0.3c0.1,0.1,0,0.2,0.1,0.3s0,0.2,0,0.3l0.1-0.1l0,0l0,0l0.7-0.9V7.5l0.2-0.2C56,7.1,56.1,7.1,56.1,7
		s0.1-0.1,0.1-0.2l0.1-0.1C56.6,6.3,57,6.1,57.5,6h0.2v0.2c0,0.1,0.1,0.2,0.2,0.2s0.2,0.1,0.3,0.2l0.1,0.1c0,0.1,0.1,0.1,0.1,0.2
		s0,0.1,0,0.1v0.1c-0.1,0.2-0.1,0.3-0.2,0.4S58,7.6,57.9,7.7s-0.1,0.1-0.2,0.2S57.6,8,57.6,8.1l-0.1,0.1c-0.2,0.1-0.3,0.2-0.3,0.4
		v0.1H57c0,0,0,0-0.1,0s-0.1,0.1-0.1,0.2c0,0.1-0.1,0.1-0.1,0.2s0,0-0.1,0.1v0.1v0.1c-0.1,0.1-0.2,0.2-0.2,0.2s-0.1,0.1-0.1,0.2
		s-0.1,0.1-0.1,0.2s-0.1,0.1-0.1,0.2L56,10.2z"/>
	<path class="st0" d="M65.4,11.3c0,0.1,0,0.2-0.1,0.3s-0.1,0.2-0.2,0.3S65,12,65,12.1s-0.1,0.2-0.2,0.2c0,0.1,0,0.2,0,0.2
		s0,0.1,0,0.2c-0.1,0.3-0.3,0.5-0.5,0.6s-0.5,0.1-0.7-0.1c-0.1-0.1-0.2-0.1-0.2-0.2s-0.1-0.2-0.2-0.2c0-0.1,0-0.3,0-0.4
		s-0.1-0.2-0.2-0.2c0-0.2-0.1-0.3-0.1-0.5s-0.1-0.4-0.1-0.6s-0.1-0.4-0.1-0.6s0-0.4,0-0.5s0-0.1,0-0.2s-0.1-0.1-0.1-0.2
		c0-0.2,0-0.4,0-0.6s0-0.4,0-0.6c0-0.2,0-0.4,0-0.6s0-0.4-0.1-0.6s0-0.4,0-0.5s0-0.3,0.1-0.4c0-0.1,0.1-0.2,0.2-0.2S63,6,63,5.9
		c0.2,0,0.3,0.1,0.4,0.2s0.1,0.2,0.1,0.4c0.2,0.1,0.3,0.2,0.4,0.4s0.2,0.3,0.2,0.5S64,8.1,64,8.3s0,0.4,0.1,0.7s0,0.4,0,0.6
		s0,0.4,0.1,0.5c0.3-0.4,0.5-0.8,0.7-1.1s0.4-0.6,0.6-0.9c0.2-0.3,0.4-0.6,0.7-0.9s0.6-0.6,1-1c0.1,0,0.1,0,0.2,0s0.1,0,0.1,0.1
		s0.1,0,0.1,0s0.1,0,0.2,0c0,0.1,0.1,0.1,0.1,0.2s0,0.1,0,0.1v0.1c0,0,0.1,0.1,0.1,0.2V7v0.1v0.1c0,0,0,0,0.1,0
		c0,0.1-0.1,0.2-0.1,0.3s0,0.1,0,0.3c-0.2,0.2-0.4,0.5-0.6,0.7S67,9,66.8,9.3s-0.4,0.5-0.6,0.8s-0.4,0.6-0.5,0.9h-0.1
		c0,0,0,0-0.1,0.1S65.5,11.2,65.4,11.3C65.5,11.2,65.4,11.3,65.4,11.3z"/>
	<path class="st0" d="M73.2,12.3c0,0.1-0.1,0.3-0.2,0.4s-0.2,0.3-0.3,0.4s-0.3,0.2-0.4,0.3s-0.3,0.1-0.5,0.1c-0.1,0-0.2,0-0.2-0.1
		s-0.1-0.1-0.1-0.1s0,0-0.1,0s0,0-0.1,0l-0.1-0.1V13c0-0.1,0-0.1,0-0.1l-0.1-0.1c0,0,0,0-0.1-0.1s0,0-0.1-0.1l-0.2-0.2l0.3-0.1
		c0.2-0.1,0.3-0.1,0.4-0.2s0.1-0.2,0.1-0.4c-0.2,0-0.3,0-0.4,0s-0.2,0.1-0.3,0.1c-0.1,0-0.3,0.1-0.4,0.1s-0.3,0-0.5,0
		c-0.1,0-0.1,0-0.2,0s-0.1,0-0.2,0h-0.1c0-0.1,0-0.1,0-0.1l0,0c0,0-0.1-0.1-0.1-0.2s-0.1-0.2,0-0.3c0-0.1-0.1-0.1-0.1-0.2
		c0,0.1-0.1,0.2-0.1,0.3v0.1H69c0,0,0,0,0,0.1s0,0,0,0.1l-0.1,0.2l0,0l0,0c0,0.1,0,0.1-0.1,0.2s0,0.1-0.1,0.2c0,0.1-0.1,0.2-0.1,0.3
		s0,0.2,0,0.3V13l-0.1,0.1l-0.1,0.1c0,0,0,0-0.1,0s0,0-0.1,0v0.1h-0.1c-0.1,0-0.1,0-0.2,0s-0.1,0-0.1,0h-0.1
		c-0.1-0.1-0.2-0.1-0.2-0.2S67.4,13,67.3,13c-0.1-0.1-0.1-0.2-0.1-0.2v-0.1v-0.1v-0.1L67,12.4l0.1-0.1v-0.2c0.2-0.4,0.3-0.8,0.5-1.1
		s0.4-0.7,0.5-1.1C67.9,9.8,68,9.6,68,9.5s0.1-0.3,0.2-0.4V9V8.9c0.1-0.1,0.2-0.3,0.2-0.4s0.1-0.2,0.2-0.3s0.1-0.3,0.2-0.4
		s0.2-0.3,0.3-0.4l0.2-0.1h0.1h0.1h0.2c0.1,0,0.3-0.2,0.5-0.3s0.3-0.4,0.5-0.7l0.1-0.2L71,6.2c0,0,0.1,0,0.2,0.1s0.1,0,0.2,0.1
		c0.1,0,0.3,0.1,0.4,0.1S72,6.6,72,6.6c0,0.1,0.1,0.2,0.1,0.3s0,0.1,0,0.2s0,0.3,0.1,0.4s0,0.3,0,0.4s0.1,0.3,0.1,0.4
		s0.1,0.3,0.1,0.4c0,0.2,0.1,0.4,0.1,0.5s0.1,0.3,0.2,0.5c0.1,0,0.1,0,0.1,0h0.1H73h0.1v0.1c0,0,0,0.1,0.1,0.1s0.2,0,0.2,0.1
		s0.1,0.1,0.1,0.1l0.1,0.1l0.2,0.1l-0.1,0.2c-0.1,0.1-0.2,0.3-0.3,0.4s-0.3,0.2-0.5,0.3v0.1v0.1c0,0.1,0,0.3,0.1,0.4
		S73.2,12.1,73.2,12.3L73.2,12.3z M69.8,10.3c0.2,0,0.4,0,0.6-0.1s0.4-0.1,0.6-0.1c-0.1-0.2-0.1-0.5-0.2-0.7s-0.1-0.5-0.2-0.8
		l-0.1,0.1C70.3,8.9,70.2,9,70,9.3s-0.3,0.4-0.4,0.6c0,0.1-0.1,0.1-0.1,0.2s-0.1,0.1-0.1,0.2h0.1C69.5,10.3,69.7,10.3,69.8,10.3z"/>
	<path class="st0" d="M77,13.2c-0.2,0.1-0.5,0.1-0.7,0.2s-0.5,0.1-0.8,0.1c-0.4,0-0.7-0.1-0.9-0.3c0-0.1-0.1-0.1-0.1-0.2
		c0,0,0-0.1-0.1-0.1s0-0.1,0-0.1c-0.1-0.1-0.2-0.2-0.2-0.4s-0.1-0.3-0.1-0.4s0-0.3,0-0.5s0-0.3,0.1-0.4V11v-0.1
		c0-0.1,0.1-0.2,0.1-0.4s0.1-0.2,0.1-0.3s0-0.1,0-0.2s0.1-0.2,0.1-0.2c0.1-0.3,0.2-0.5,0.3-0.8S75,8.5,75,8.3c0.1-0.4,0.3-0.7,0.4-1
		s0.2-0.7,0.3-1.1c0.1,0,0.1-0.1,0.1-0.1h0.1c0.1,0.1,0.3,0.1,0.5,0.2s0.3,0.1,0.5,0.1C77,6.4,77,6.5,77,6.5s0,0,0,0.1
		c0.1,0.1,0.2,0.2,0.2,0.3s0.1,0.2,0.1,0.4c0,0.1-0.1,0.1-0.1,0.1c0,0.2-0.1,0.3-0.1,0.4s0,0.2-0.1,0.3c-0.1,0.1-0.1,0.2-0.2,0.4
		s-0.1,0.3-0.1,0.4L76.6,9v0.1c0,0,0,0.1-0.1,0.1s0,0.1-0.1,0.1c0,0.2-0.1,0.4-0.1,0.5s-0.1,0.3-0.2,0.4c-0.1,0.2-0.2,0.5-0.3,0.7
		s-0.1,0.5-0.1,0.8h0.1h0.1c0.1,0,0.2,0,0.2,0c0.2-0.1,0.5-0.2,0.8-0.2s0.6,0,0.8,0c0.1,0,0.2,0,0.3,0s0.2,0,0.3,0
		c0.1,0,0.1,0.1,0.1,0.1s0,0,0.1,0s0.1,0,0.1,0c0.1,0.1,0.2,0.1,0.3,0.2s0.2,0.1,0.3,0.1c0.1,0,0.2,0.1,0.3,0.1s0.2,0.1,0.2,0.1
		l0.1,0.5c0.1,0.1,0.1,0.1,0.1,0.1c0,0.1,0,0.1,0,0.1v0.1c-0.1,0-0.2,0.1-0.2,0.1l-0.1,0.1c-0.1,0-0.1,0-0.1,0h-0.1
		c-0.1,0-0.2,0-0.4,0.1c-0.2-0.1-0.4-0.1-0.7-0.1c-0.1,0-0.2,0-0.3,0s-0.2,0-0.3,0c-0.1,0-0.2,0-0.3,0s-0.2,0-0.3,0L77,13.2z"/>
	<path class="st0" d="M86.8,6.6c0,0.2,0,0.3,0.1,0.4S87,7.2,87,7.4c0,0.1,0.1,0.2,0.1,0.3s0.1,0.2,0.1,0.4c-0.1,0.2-0.1,0.4-0.1,0.6
		S87,9.1,86.9,9.3c-0.1,0.3-0.2,0.5-0.4,0.7s-0.2,0.4-0.3,0.6l-0.1,0.1c0,0-0.1,0.1-0.1,0.2c0,0,0,0.1-0.1,0.1s0.1,0,0.1,0l-0.2-0.1
		v0.3h-0.2l-0.1,0.1c-0.1,0.3-0.3,0.5-0.5,0.7s-0.3,0.3-0.6,0.5s-0.4,0.3-0.7,0.4s-0.6,0.2-0.9,0.4c-0.1,0-0.2,0-0.3,0s-0.2,0-0.3,0
		c-0.1,0-0.3,0-0.6,0c0-0.1-0.1-0.1-0.1-0.1h-0.1c-0.1-0.1-0.2-0.2-0.3-0.3s-0.1-0.3-0.2-0.4c0-0.1-0.1-0.2-0.1-0.2l-0.1-0.2
		l0.2-0.1l-0.3-0.3c0,0,0,0-0.1-0.1s0,0-0.1-0.1v-0.2c0-0.5,0-1,0-1.5s0.1-0.8,0.2-1.2V8.5c0-0.2,0-0.3,0.1-0.4s0-0.2,0.1-0.3
		c0-0.2,0.1-0.3,0.1-0.5c0.1,0,0.2-0.1,0.2-0.1s0.1-0.1,0.1-0.2c0.1,0,0.2,0,0.2,0s0.1,0.1,0.1,0.2s0.1,0.1,0.1,0.2s0.1,0.2,0.3,0.2
		c0,0.1,0,0.1,0.1,0.2s0.1,0.1,0.1,0.2c0.1,0.1,0.1,0.3,0.2,0.4s0.1,0.3,0.1,0.4c-0.1,0.1-0.1,0.3-0.2,0.5s-0.1,0.4-0.1,0.6
		s0,0.4,0,0.6s0.1,0.3,0.1,0.5l0.1,0.2h0.2c0.2-0.1,0.4-0.1,0.6-0.2s0.4-0.2,0.5-0.3s0.3-0.2,0.5-0.4s0.3-0.3,0.5-0.5
		s0.3-0.4,0.4-0.6s0.2-0.5,0.3-0.7s0.1-0.5,0.2-0.7s0.1-0.5,0.1-0.7c0.1,0,0.2-0.1,0.2-0.3V6.7c0,0,0-0.1,0-0.2s0.2-0.3,0.3-0.3
		c0.1,0.1,0.2,0.2,0.3,0.3S86.7,6.6,86.8,6.6z"/>
	<path class="st0" d="M93.4,6.7C93.4,6.8,93.4,6.8,93.4,6.7v0.2c0,0,0,0,0,0.1s0,0.1,0,0.1c-0.2,0.3-0.4,0.4-0.6,0.5
		s-0.4,0.2-0.7,0.2S91.7,8,91.4,8s-0.5,0.1-0.8,0.3c-0.1,0-0.2,0-0.3,0s-0.2,0.1-0.4,0c0,0-0.1,0.1-0.2,0.1s-0.1,0-0.2,0.1
		c0,0.1,0,0.1,0,0.2s0,0.1,0,0.2c0.3,0,0.6,0,0.9,0s0.7-0.1,1-0.1v0.1c0,0,0,0,0,0.1c0.1,0,0.1,0.1,0.2,0.1s0.1,0.1,0.2,0.2
		S92,9.4,92,9.4s0.1,0,0.2,0c0,0.1,0.1,0.1,0.1,0.2s0,0.2,0,0.2c-0.1,0.1-0.3,0.2-0.4,0.3s-0.3,0.2-0.4,0.2s-0.3,0.1-0.4,0.2
		s-0.3,0.1-0.5,0.1h-0.1c0,0,0,0-0.1,0s-0.2,0.1-0.3,0s-0.2,0-0.3,0c-0.1,0-0.2-0.1-0.3-0.1s-0.2,0-0.3,0c-0.1,0.2-0.2,0.3-0.3,0.5
		s-0.2,0.4-0.3,0.6c0.3,0,0.5,0.1,0.7,0s0.3,0,0.5,0s0.3,0,0.5-0.1s0.4,0,0.6,0c0.2-0.1,0.3-0.1,0.6-0.2s0.4-0.1,0.6-0.1
		c0.1,0,0.1,0.1,0.2,0.1s0.1,0.1,0.1,0.2s0.1,0.1,0.1,0.1s0.1,0.1,0.2,0l0.1,0.1v0.1v0.1h0.1c-0.1,0.3-0.3,0.5-0.4,0.6
		S92.1,13,92,13.1s-0.4,0.1-0.7,0.2s-0.5,0.1-0.8,0.1c-0.1,0-0.1,0-0.2,0s-0.1,0-0.2,0c-0.2,0-0.4,0.1-0.6,0.1s-0.5,0-0.8,0
		s-0.5,0-0.7-0.1s-0.4-0.2-0.6-0.3c-0.1-0.1-0.1-0.1-0.1-0.2s-0.1-0.1-0.2-0.2c0-0.1,0-0.2,0-0.3s0-0.3-0.1-0.4s0-0.3-0.1-0.4
		s0-0.3,0-0.4c0-0.1,0.1-0.2,0.1-0.3s0.1-0.2,0.1-0.3c0,0,0.1,0,0.1-0.1s0,0,0.1,0c0-0.1,0.1-0.3,0.2-0.4s0.1-0.2,0.2-0.4
		s0.1-0.2,0.2-0.4S88,9,88.1,8.9c-0.1-0.1-0.2-0.2-0.2-0.3s-0.1-0.2-0.1-0.4s0-0.2-0.1-0.4c-0.1-0.2,0-0.3-0.1-0.4
		c0.1-0.1,0.2-0.2,0.3-0.3s0.2-0.1,0.4-0.2s0.3-0.1,0.4-0.1s0.3-0.1,0.5-0.1c0.3-0.1,0.6-0.2,0.8-0.2s0.5-0.1,0.7-0.1
		s0.5-0.1,0.7-0.1s0.6-0.1,0.9-0.1c0.1,0.1,0.1,0.1,0.2,0.1c0-0.1,0.1-0.1,0.1-0.1s0.1,0,0.1-0.1c0.1,0.1,0.2,0.2,0.3,0.3
		S93.3,6.7,93.4,6.7z"/>
	<path class="st0" d="M93.2,11.6c0,0,0.1,0.1,0.2,0.1s0.2,0.1,0.4,0.2S94,12,94.2,12s0.2,0.1,0.2,0.1c0.1,0.2,0.1,0.3,0.1,0.4
		s0,0.2,0.1,0.4c0,0-0.1,0.1-0.1,0.2s0,0.2,0,0.2c0,0.1,0,0.1,0,0.1s0,0-0.1,0.1c0,0,0,0,0,0.1s0,0.1,0,0.1s0,0.1-0.1,0.1
		s0,0-0.1,0.1c0,0.1-0.1,0.1-0.1,0.2s0,0,0,0l0,0c0,0,0,0.1-0.1,0.1c-0.1,0.1-0.1,0.2-0.2,0.3s-0.1,0.2-0.2,0.3s-0.2,0.2-0.4,0.4
		s-0.3,0.2-0.5,0.3c-0.1,0-0.2-0.1-0.3-0.2s-0.3-0.1-0.4-0.2s-0.2-0.2-0.3-0.3s-0.1-0.2,0-0.3s0.3-0.3,0.4-0.5s0.2-0.4,0.3-0.7
		s0.1-0.5,0.2-0.7s0.1-0.5,0.2-0.7h0.1c0,0,0.1,0,0.1-0.1S93.1,11.7,93.2,11.6L93.2,11.6z"/>
	<path class="st0" d="M8,22.1c-0.2,0-0.4,0-0.6,0S7,22.2,6.7,22.2c-0.2,0-0.3,0-0.5,0.1s-0.3,0-0.4,0c-0.1,0.2-0.1,0.3-0.2,0.5
		s0,0.2-0.1,0.3s-0.1,0.3-0.2,0.4s0,0.3-0.1,0.5c-0.1,0.1-0.1,0.2-0.2,0.3s-0.1,0.2-0.1,0.4c-0.1,0.1-0.2,0.2-0.2,0.4
		s-0.1,0.2-0.1,0.3v0.1l-0.1,0.1c0,0,0,0.1-0.1,0.1c0,0.1,0,0.2-0.1,0.3v0.1v0.1c0,0.1,0,0.1-0.1,0.2v0.1v0.1c0,0.1,0,0.2,0,0.2
		s0,0.1,0.1,0.1s0,0.1,0,0.1l0.1,0.1l0.1,0.1l0.1,0.1c0,0.2,0,0.4-0.1,0.5C4.4,27.9,4.2,28,3.9,28H3.8l-0.1-0.1
		c-0.1,0-0.1,0-0.2-0.1s-0.1,0-0.1-0.1c-0.1,0-0.2-0.1-0.2-0.1l-0.1-0.1c0-0.1,0-0.1,0-0.1c0,0-0.1-0.1-0.1-0.2s0-0.2-0.1-0.3
		c0-0.1,0-0.1-0.1-0.2s0-0.1-0.1-0.2c0-0.5,0-0.8,0.1-1.1s0.2-0.6,0.3-0.9c0.1-0.2,0.1-0.3,0.2-0.5s0.1-0.3,0.2-0.5l0.1-0.1
		c0.1-0.1,0.1-0.2,0.1-0.3s0.1-0.2,0.1-0.3c0-0.1,0-0.1,0.1-0.2s0-0.1,0.1-0.1H3.9H3.8H3.7H3.6c-0.1,0-0.1,0-0.1,0
		c-0.1,0-0.2,0.1-0.3,0.1H3.1c0,0,0,0-0.1,0s0,0-0.1,0s-0.1,0-0.2,0s-0.2,0-0.3,0l0,0c0,0,0,0-0.1,0s0,0-0.1,0s-0.1,0-0.2,0
		s-0.1,0-0.2-0.1s-0.2-0.2-0.2-0.2l-0.1-0.1v-0.1V22c0-0.1-0.1-0.2-0.1-0.3s0-0.2,0-0.3c0-0.1,0-0.1,0-0.1s0-0.1,0.1-0.1V21h0.2H2
		c0.3,0,0.5,0,0.8,0s0.5,0,0.8-0.1c0.2,0,0.3,0,0.5,0s0.3,0,0.5,0c0-0.1,0.1-0.1,0.1-0.2l0.1-0.1c0.1,0,0.2,0,0.3,0.1
		s0.1,0.1,0.1,0.1c0.2,0,0.3,0,0.5-0.1s0.4,0,0.5-0.1c0.3,0,0.5-0.1,0.8-0.1s0.5,0,0.8,0c0.1,0,0.2,0,0.3,0s0.2,0,0.3,0l0.1,0.1
		l0.1,0.1l0.1,0.1C8.8,20.9,8.9,21,9,21.1s0.1,0.3,0.1,0.5C9,21.7,9,21.7,9,21.8L8.9,22H8.8H8.7H8.6H8.5H8.4c-0.1,0-0.1,0-0.2,0
		S8.1,22.1,8,22.1z"/>
	<path class="st0" d="M13.1,26.6c0,0.2,0,0.4-0.1,0.5s-0.1,0.2-0.3,0.3s-0.2,0.2-0.4,0.2s-0.3,0.1-0.4,0.2c-0.1,0-0.1-0.1-0.2-0.1
		s-0.1-0.1-0.2-0.1c-0.1-0.2-0.2-0.4-0.3-0.5s-0.1-0.3-0.1-0.5v-0.1c0,0,0-0.2,0-0.3s0-0.2,0-0.3s0-0.1,0-0.1
		c-0.2,0-0.4,0.1-0.6,0.1s-0.4,0.1-0.6,0.2s-0.4,0.2-0.5,0.3S9.1,26.6,9,26.6c0,0,0,0.1,0,0.2S8.9,27,8.9,27.1S9,27.3,9,27.3
		s-0.1,0.1-0.2,0.1c0,0,0,0,0,0.1s0,0.1,0,0.1c-0.1,0-0.2,0.1-0.3,0.1s-0.2,0.1-0.3,0.1S8,27.9,7.9,27.9s-0.2,0-0.4-0.1
		c0,0,0-0.1-0.1-0.1s-0.1-0.1-0.1-0.1l-0.1-0.1c0,0,0,0,0-0.1c0,0-0.1,0,0-0.1s0-0.1,0.1,0c-0.1-0.1-0.1-0.2-0.2-0.3S7,26.8,7,26.7
		c0,0,0,0,0-0.1s0-0.1,0-0.1v-0.1c0,0,0,0,0.1,0c0-0.1,0-0.1,0-0.2s0-0.1,0-0.1V26v-0.1c0.1-0.2,0.2-0.4,0.2-0.6s0.1-0.4,0.1-0.5
		c0.1-0.1,0.1-0.1,0.1-0.2s0.1-0.2,0.1-0.3s0-0.2,0-0.3s0-0.2,0-0.2s0.1-0.1,0.1,0c0-0.3,0.1-0.5,0.1-0.9s0.1-0.6,0.1-0.9
		s0.1-0.6,0.2-0.8s0.3-0.4,0.5-0.4c0,0.2,0.1,0.3,0.2,0.4S9,21.4,9,21.6s0.2,0.2,0.3,0.3s0.2,0.3,0.3,0.4c0,0.1,0,0.3,0,0.5
		s-0.1,0.4-0.1,0.6S9.4,23.8,9.4,24s-0.1,0.3-0.1,0.5c0,0,0,0.1,0.1,0.1s0,0,0,0.1c0.2,0,0.4-0.1,0.6-0.1s0.4-0.1,0.6-0.1
		s0.4-0.1,0.6-0.2s0.4-0.1,0.5-0.2c0-0.3,0.1-0.6,0.2-0.9s0.1-0.6,0-0.9l0.1-0.1l0.1-0.1c0-0.1-0.1-0.3,0-0.5s0-0.3,0.1-0.5
		s0.1-0.3,0.2-0.4s0.2-0.2,0.4-0.2c0.1,0.1,0.2,0.3,0.2,0.4s0.1,0.3,0.2,0.4s0.1,0.3,0.2,0.4s0.2,0.2,0.3,0.3c0,0.2,0,0.5,0.1,0.7
		s0,0.5,0,0.7c-0.1,0.3-0.1,0.6-0.2,0.9s-0.1,0.6-0.2,0.9c-0.1,0.1-0.1,0.1-0.1,0.2s-0.1,0.2-0.1,0.2l-0.1,0.2c0,0,0,0.2-0.1,0.2
		c0,0.1,0,0.2,0,0.3S13.1,26.5,13.1,26.6z"/>
	<path class="st0" d="M20.3,26.7c0,0.1-0.1,0.3-0.2,0.4s-0.2,0.3-0.3,0.4s-0.3,0.2-0.4,0.3s-0.3,0.1-0.5,0.1c-0.1,0-0.2,0-0.2-0.1
		s-0.1-0.1-0.1-0.1s0,0-0.1,0s0,0-0.1,0l-0.1-0.1v-0.2c0-0.1,0-0.1,0-0.1l-0.1-0.1c0,0,0,0-0.1-0.1s0,0-0.1-0.1l-0.2-0.2l0.3-0.1
		c0.2-0.1,0.3-0.1,0.4-0.2s0.1-0.2,0.1-0.4c-0.2,0-0.3,0-0.4,0s-0.2,0.1-0.3,0.1c-0.1,0-0.3,0.1-0.4,0.1s-0.3,0-0.5,0
		c-0.1,0-0.1,0-0.2,0s-0.1,0-0.2,0h-0.1c0-0.1,0-0.1,0-0.1l0,0c0,0-0.1-0.1-0.1-0.2s-0.1-0.2,0-0.3c0-0.1-0.1-0.1-0.1-0.2
		c0,0.1-0.1,0.2-0.1,0.3v0.1h-0.1c0,0,0,0,0,0.1s0,0,0,0.1L16,26.3l0,0l0,0c0,0.1,0,0.1-0.1,0.2s0,0.1-0.1,0.2
		c0,0.1-0.1,0.2-0.1,0.3s0,0.2,0,0.3v0.1l-0.1,0.1l-0.1,0.1c0,0,0,0-0.1,0s0,0-0.1,0v0.1h-0.1c-0.1,0-0.1,0-0.2,0s-0.1,0-0.1,0h-0.1
		c-0.1-0.1-0.2-0.1-0.2-0.2s-0.1-0.1-0.2-0.1c-0.1-0.1-0.1-0.2-0.1-0.2v-0.1V27v-0.1l-0.2-0.1l0.1-0.1v-0.2c0.2-0.4,0.3-0.8,0.5-1.1
		s0.4-0.7,0.5-1.1c0.1-0.1,0.1-0.3,0.2-0.4s0.1-0.3,0.2-0.4v-0.1v-0.1c0.1-0.1,0.2-0.3,0.2-0.4s0.1-0.2,0.2-0.3
		c0.1-0.1,0.1-0.3,0.2-0.4s0.2-0.3,0.3-0.4l0.2-0.1h0.1h0.1h0.2c0.2-0.1,0.4-0.2,0.6-0.4s0.3-0.4,0.5-0.7l0.1-0.2l0.2,0.1
		c0,0,0.1,0,0.2,0.1s0.1,0,0.2,0.1c0.1,0,0.3,0.1,0.4,0.1s0.2,0.1,0.3,0.2c0,0.1,0.1,0.2,0.1,0.3s0,0.1,0,0.2s0,0.3,0.1,0.4
		s0,0.3,0,0.4s0.1,0.3,0.1,0.4S20,23,20,23.1c0,0.2,0.1,0.4,0.1,0.5s0.1,0.3,0.2,0.5c0.1,0,0.1,0,0.1,0h0.1h0.1h0.1v0.1
		c0,0,0,0.1,0.1,0.1s0.2,0,0.2,0.1s0.1,0.1,0.1,0.1l0.1,0.1l0.2,0.1L21,24.8c-0.1,0.1-0.2,0.3-0.3,0.4s-0.3,0.2-0.5,0.3v0.1v0.1
		c0,0.1,0,0.3,0.1,0.4S20.3,26.5,20.3,26.7L20.3,26.7z M16.9,24.7c0.2,0,0.4,0,0.6-0.1s0.4-0.1,0.6-0.1C18,24.3,18,24,17.9,23.8
		s-0.1-0.5-0.2-0.8l-0.1,0.1c-0.2,0.2-0.3,0.3-0.5,0.6s-0.3,0.4-0.4,0.6c0,0.1-0.1,0.1-0.1,0.2s-0.1,0.1-0.1,0.2h0.1L16.9,24.7z"/>
	<path class="st0" d="M27.1,22.1c-0.2,0-0.4,0-0.6,0s-0.4,0.1-0.7,0.1c-0.2,0-0.3,0-0.5,0.1s-0.3,0-0.4,0c-0.1,0.2-0.1,0.3-0.2,0.5
		s-0.1,0.3-0.2,0.4s-0.1,0.3-0.2,0.4s-0.1,0.3-0.1,0.4c-0.1,0.1-0.1,0.2-0.2,0.3s-0.1,0.2-0.1,0.4c-0.1,0.1-0.2,0.2-0.2,0.4
		s-0.1,0.2-0.1,0.3v0.1l-0.1,0.1c0,0,0,0.1-0.1,0.1c0,0.1,0,0.2-0.1,0.3v0.1v0.1c0,0.1,0,0.1-0.1,0.2v0.1v0.1c0,0.1,0,0.2,0,0.2
		s0,0.1,0.1,0.1s0,0.1,0,0.1l0.1,0.1l0.1,0.1l0.1,0.1c0,0.2,0,0.4-0.1,0.5c0,0.1-0.2,0.2-0.5,0.2h-0.1l-0.1-0.1
		c-0.1,0-0.1,0-0.2-0.1s-0.1,0-0.1-0.1c-0.1,0-0.2-0.1-0.2-0.1l-0.1-0.1c0-0.1,0-0.1,0-0.1c-0.1-0.1-0.1-0.1-0.1-0.2s0-0.2-0.1-0.3
		c0-0.1,0-0.1-0.1-0.2s0-0.1-0.1-0.2c0-0.5,0-0.8,0.1-1.1s0.2-0.6,0.3-0.9c0.1-0.2,0.1-0.3,0.2-0.5s0.1-0.3,0.2-0.5l0.1-0.1
		c0.1-0.1,0.1-0.2,0.1-0.3s0.1-0.2,0.1-0.3c0-0.1,0-0.1,0.1-0.2s0-0.1,0.1-0.1H23h-0.1h-0.1h-0.1c-0.1,0-0.1,0-0.1,0
		c-0.1,0-0.2,0.1-0.3,0.1h-0.1c0,0,0,0-0.1,0s0,0-0.1,0s-0.1,0-0.2,0s-0.2,0-0.3,0h-0.1c0,0,0,0-0.1,0s0,0-0.1,0s-0.1,0-0.2,0
		s-0.1,0-0.2-0.1s-0.2-0.2-0.2-0.2l-0.1-0.1v-0.1V22c0-0.1-0.1-0.2-0.1-0.3s0-0.2,0-0.3c0-0.1,0-0.1,0-0.1s0-0.1,0.1-0.1V21h0.2H21
		c0.3,0,0.5,0,0.8,0s0.5,0,0.8-0.1c0.2,0,0.3,0,0.5,0s0.3,0,0.5,0c0-0.1,0.1-0.1,0.1-0.2l0.1-0.1c0.1,0,0.2,0,0.3,0.1
		s0.1,0.1,0.1,0.1c0.2,0,0.3,0,0.5-0.1s0.4,0,0.5-0.1c0.3,0,0.5-0.1,0.8-0.1s0.5,0,0.8,0c0.1,0,0.2,0,0.3,0s0.2,0,0.3,0l0.1,0.1
		l0.1,0.1l0.1,0.1c0.1,0.1,0.2,0.2,0.3,0.3s0.1,0.3,0.1,0.5C28,21.7,28,21.7,28,21.8l0,0.2h-0.1h-0.1h-0.1h-0.1h-0.1
		c-0.1,0-0.1,0-0.2,0S27.2,22.1,27.1,22.1z"/>
	<path class="st0" d="M38.8,27.5c-0.1,0-0.2,0.1-0.2,0.1s-0.1,0-0.2,0c-0.3-0.2-0.5-0.6-0.5-1.2s0.1-1.3,0.4-2.1l0.1-0.1l-0.1-0.1
		h-0.1c0,0,0,0-0.1,0.1c-0.2,0.1-0.4,0.3-0.7,0.5s-0.5,0.3-0.8,0.4s-0.5,0.2-0.8,0.3s-0.5,0.1-0.8,0.1c-0.7,0-1.1-0.3-1.5-1
		l-0.1-0.2l-0.1,0.2c0,0-0.1,0.1-0.1,0.2s-0.1,0.2-0.1,0.3S33,25.3,33,25.4s0,0.2,0,0.3c-0.1,0.1-0.1,0.2-0.2,0.2s-0.1,0.2-0.2,0.3
		c0,0.1,0,0.1,0,0.2s-0.1,0.1-0.1,0.2l-0.1,0.1l-0.1,0.1v0.1V27c0,0.1,0,0.1,0,0.2c-0.1,0.3-0.2,0.5-0.3,0.5s-0.2,0.1-0.3,0.1
		s-0.2,0-0.3,0c-0.1-0.1-0.2-0.3-0.3-0.5s-0.1-0.4-0.2-0.6s-0.1-0.4-0.1-0.7s0-0.4,0.1-0.6c0,0,0-0.1,0.1-0.2s0.1-0.3,0.2-0.6
		s0.2-0.5,0.3-0.8s0.3-0.6,0.4-0.8s0.2-0.5,0.4-0.7s0.2-0.4,0.3-0.5s0.1-0.2,0.2-0.3s0.1-0.2,0.1-0.2c0.1-0.2,0.3-0.4,0.4-0.6
		s0.3-0.3,0.6-0.4c0.2,0.1,0.3,0.2,0.4,0.2v0.1c0,0.1,0.1,0.1,0.1,0.1c0.1,0,0.2,0,0.2,0.1s0.1,0,0.2,0.1c0.1,0.1,0.1,0.1,0.2,0.2
		c0.1,0.1,0.1,0.2,0.2,0.3s0.1,0.2,0.1,0.3s0.1,0.2,0.1,0.3s0,0.2-0.1,0.3v0.1c0,0.1,0,0.2,0,0.3c0,0.1,0,0.1,0,0.2s0,0.1,0,0.2
		c0.1,0.1,0.3,0.2,0.4,0.2c0.1,0,0.2,0,0.3-0.1s0.2-0.1,0.3-0.2c0.1,0,0.1-0.1,0.2-0.1s0.1-0.1,0.2-0.1c0.1-0.1,0.3-0.3,0.4-0.4
		s0.2-0.2,0.4-0.3c0.2-0.2,0.5-0.4,0.7-0.6s0.4-0.5,0.5-0.8c0.1,0,0.2-0.1,0.2-0.1s0.2,0,0.3,0.1s0.2,0.1,0.3,0.1c0,0,0,0,0.1,0
		s0,0,0.1,0c0,0.1,0,0.1,0.1,0.2h0.1l0,0c0.1,0.1,0.2,0.1,0.2,0.2c0.1,0.2,0.2,0.3,0.3,0.4c0,0.1,0,0.2,0,0.2s0,0.1,0.1,0.2
		c0,0,0,0,0,0.1s0,0.1,0,0.1h-0.2v0.2c0,0.1,0,0.2,0,0.4s-0.1,0.2-0.1,0.3c0,0.2,0,0.4,0,0.5s0,0.2,0,0.3s0,0.2-0.1,0.3
		S40,24.4,40,24.5c0,0.5,0,1-0.2,1.4s-0.3,0.8-0.5,1.2c0,0,0,0.1-0.1,0.1s0,0.1-0.1,0.1s-0.1,0-0.2,0.1S38.8,27.5,38.8,27.5z"/>
	<path class="st0" d="M42.9,26.9c0,0.2,0,0.4,0,0.6s-0.2,0.2-0.3,0.3s-0.3,0.1-0.4,0.1s-0.3,0-0.4,0c-0.1-0.1-0.1-0.2-0.2-0.4
		s-0.1-0.3-0.2-0.5s-0.1-0.3-0.1-0.5s-0.1-0.3-0.1-0.5c0-0.1,0.1-0.2,0.1-0.3s0-0.2,0-0.4s0-0.3,0-0.4s0-0.3,0-0.4
		c0.1-0.3,0.1-0.6,0.2-0.9s0.2-0.6,0.3-0.9c0-0.1,0-0.1,0-0.2s0-0.1,0-0.2c0,0,0-0.1,0.1-0.1s0.1,0,0.1-0.1s0-0.2,0-0.2s0-0.1,0-0.2
		s0.1-0.2,0.1-0.3s0.1-0.2,0.1-0.4c0.1,0,0.1-0.1,0.2-0.2s0.1-0.1,0.2-0.2s0.1-0.1,0.2-0.1s0.2-0.1,0.3-0.1c0.1,0.1,0.1,0.2,0.1,0.3
		s0,0.2,0.1,0.3s0,0.2,0.1,0.3s0.1,0.1,0.2,0.2c0,0.1,0,0.1,0,0.2s0,0.2,0,0.3s0,0.2,0.1,0.2s0.1,0.1,0.1,0.1
		c-0.1,0.4-0.3,0.7-0.4,1.1s-0.2,0.7-0.3,1.1S43,25.2,43,25.6S42.9,26.5,42.9,26.9z"/>
	<path class="st0" d="M52.6,25.6c-0.2,0.3-0.4,0.6-0.7,0.8s-0.6,0.3-1,0.5s-0.8,0.2-1.2,0.3s-0.8,0.2-1.2,0.4c-0.1,0-0.2,0-0.3,0
		s-0.2,0-0.2,0s-0.1,0-0.2,0s-0.1,0-0.2,0h-0.1c0,0,0,0,0,0.1c-0.1,0-0.3,0-0.4,0s-0.2,0-0.3,0s-0.2,0-0.3,0s-0.2,0-0.3,0
		c-0.6,0-1-0.2-1.4-0.6s-0.5-0.9-0.6-1.6v-0.1c0,0,0,0-0.1,0c0-0.1,0-0.1,0-0.2s0-0.1,0-0.2c0.2-0.4,0.4-0.8,0.7-1.2s0.6-0.7,0.9-1
		c0.1,0,0.1-0.1,0.1-0.1l0.1-0.1l0.1-0.1c0,0,0.1-0.1,0.2-0.1c0.2-0.2,0.4-0.4,0.6-0.5s0.5-0.3,0.7-0.5s0.5-0.3,0.7-0.4
		s0.5-0.3,0.7-0.5c0.1,0,0.1,0.1,0.2,0s0.1,0,0.1,0c0.1,0.1,0.1,0.2,0.2,0.2s0.2,0.1,0.3,0.1s0.2,0.1,0.3,0.2s0.2,0.2,0.2,0.3
		c0,0-0.1,0-0.1,0.1s0,0.1,0,0.1v0.1c0,0,0,0.1-0.1,0.1c0,0,0,0.1,0.1,0.1s0.1,0,0.1,0.1s0,0.1,0,0.1v0.1c-0.2,0.1-0.3,0.2-0.5,0.3
		s-0.4,0.2-0.6,0.3S49,22.9,48.8,23s-0.4,0.3-0.7,0.4s-0.4,0.3-0.6,0.5s-0.4,0.4-0.6,0.6s-0.4,0.4-0.6,0.7s-0.3,0.4-0.5,0.7
		c0,0,0,0.1,0.1,0.1s0,0,0.1,0.1c0.3,0,0.5,0,0.7,0s0.4,0,0.7,0c0,0,0,0,0-0.1s0-0.1,0.1-0.1c0.4,0,0.9-0.1,1.2-0.2s0.8-0.2,1.2-0.3
		c-0.1,0-0.1,0-0.2-0.1s-0.1,0-0.1-0.1v-0.1l0.1-0.1c-0.1-0.1-0.2-0.1-0.3-0.2s-0.1-0.2-0.1-0.4l0.1-0.1c0,0,0-0.1-0.1-0.1h-0.1l0,0
		l0,0c0,0,0,0-0.1,0c0-0.1,0-0.1,0.1-0.2s0-0.1,0.1-0.2l0.8-0.5c0.1,0.1,0.2,0.1,0.3,0.2s0.3,0.1,0.4,0.2S51,24,51.1,24
		s0.3,0.1,0.4,0.2c0.1,0,0.2,0.1,0.3,0.2s0.2,0.2,0.2,0.2l0.2,0.2c0,0,0.2,0.1,0.3,0.2c0,0.1,0,0.2,0,0.2S52.6,25.5,52.6,25.6z"/>
	<path class="st0" d="M58.1,26.6c0,0.2,0,0.4-0.1,0.5s-0.1,0.2-0.3,0.3s-0.2,0.2-0.4,0.2s-0.3,0.1-0.4,0.2c-0.1,0-0.1-0.1-0.2-0.1
		s-0.1-0.1-0.2-0.1c-0.1-0.2-0.2-0.4-0.3-0.5s-0.1-0.3-0.1-0.5v-0.1c0,0,0-0.2,0-0.3s0-0.2,0-0.3s0-0.1,0-0.1
		c-0.2,0-0.4,0.1-0.6,0.1s-0.4,0.1-0.6,0.2s-0.4,0.2-0.5,0.3s-0.3,0.2-0.4,0.2c0,0,0,0.1,0,0.2s-0.1,0.2-0.1,0.3s0.1,0.2,0.1,0.2
		s-0.1,0.1-0.2,0.1c0,0,0,0,0,0.1s0,0.1,0,0.1c-0.1,0-0.2,0.1-0.3,0.1s-0.2,0.1-0.3,0.1s-0.2,0.1-0.3,0.1s-0.2,0-0.4-0.1
		c0,0,0-0.1-0.1-0.1s-0.1-0.1-0.1-0.1l-0.1-0.1c0,0,0,0,0-0.1c0,0-0.1,0,0-0.1s0-0.1,0.1,0c-0.1-0.1-0.1-0.2-0.2-0.3
		S52,26.8,52,26.7c0,0,0,0,0-0.1s0-0.1,0-0.1v-0.1c0,0,0,0,0.1,0c0-0.1,0-0.1,0-0.2s0-0.1,0-0.1V26v-0.1c0.1-0.2,0.2-0.4,0.2-0.6
		s0.1-0.4,0.1-0.5c0.1-0.1,0.1-0.1,0.1-0.2s0.1-0.2,0.1-0.3s0-0.2,0-0.3s0-0.2,0-0.2s0.1-0.1,0.1,0c0-0.3,0.1-0.5,0.1-0.9
		s0.1-0.6,0.1-0.9s0.1-0.6,0.2-0.8s0.3-0.4,0.5-0.4c0,0.2,0.1,0.3,0.2,0.4s0.2,0.2,0.2,0.4s0.2,0.2,0.3,0.3s0.2,0.3,0.3,0.4
		c0,0.1,0,0.3,0,0.5s-0.1,0.4-0.1,0.6s-0.1,0.4-0.1,0.6s-0.1,0.3-0.1,0.5c0,0,0,0.1,0.1,0.1s0,0,0,0.1c0.2,0,0.4-0.1,0.6-0.1
		s0.4-0.1,0.6-0.1s0.4-0.1,0.6-0.2s0.4-0.1,0.5-0.2c0-0.3,0.1-0.6,0.2-0.9s0.1-0.6,0-0.9l0.1-0.1l0.1-0.1c0-0.1-0.1-0.3,0-0.5
		s0-0.3,0.1-0.5s0.1-0.3,0.2-0.4s0.2-0.2,0.4-0.2c0.1,0.1,0.2,0.3,0.2,0.4s0.1,0.3,0.2,0.4s0.1,0.3,0.2,0.4s0.2,0.2,0.3,0.3
		c0,0.2,0,0.5,0.1,0.7s0,0.5,0,0.7c-0.1,0.3-0.1,0.6-0.2,0.9s-0.1,0.6-0.2,0.9c-0.1,0.1-0.1,0.1-0.1,0.2s-0.1,0.2-0.1,0.2l-0.1,0.2
		c0,0,0,0.2-0.1,0.2c0,0.1,0,0.2,0,0.3S58.1,26.5,58.1,26.6z"/>
	<path class="st0" d="M65.8,22.1c-0.2,0-0.4,0-0.6,0s-0.4,0.1-0.7,0.1c-0.2,0-0.3,0-0.5,0.1s-0.3,0-0.4,0c-0.1,0.2-0.1,0.3-0.2,0.5
		s-0.1,0.3-0.2,0.4s-0.1,0.3-0.2,0.4s0,0.2,0,0.4c-0.1,0.1-0.1,0.2-0.2,0.3s-0.1,0.2-0.1,0.4c-0.1,0.1-0.2,0.2-0.2,0.4
		s-0.1,0.2-0.1,0.3v0.1l-0.1,0.1c0,0,0,0.1-0.1,0.1c0,0.1,0,0.2-0.1,0.3v0.1v0.1c0,0.1,0,0.1-0.1,0.2v0.1v0.1c0,0.1,0,0.2,0,0.2
		s0,0.1,0.1,0.1s0,0.1,0,0.1l0.1,0.1l0.1,0.1l0.1,0.1c0,0.2,0,0.4-0.1,0.5C62.2,27.9,62,28,61.7,28h-0.1l-0.1-0.1
		c-0.1,0-0.1,0-0.2-0.1s-0.1,0-0.1-0.1c-0.1,0-0.2-0.1-0.2-0.1l-0.1-0.1c0-0.1,0-0.1,0-0.1c-0.1-0.1-0.1-0.1-0.1-0.2s0-0.2-0.1-0.3
		c0-0.1,0-0.1-0.1-0.2s0-0.1-0.1-0.2c0-0.5,0-0.8,0.1-1.1s0.2-0.6,0.3-0.9c0.1-0.2,0.1-0.3,0.2-0.5s0.1-0.3,0.2-0.5l0.1-0.1
		c0.1-0.1,0.1-0.2,0.1-0.3s0.1-0.2,0.1-0.3c0-0.1,0-0.1,0.1-0.2s0-0.1,0.1-0.1h-0.1h-0.1h-0.1h-0.1c-0.1,0-0.1,0-0.1,0
		c-0.1,0-0.2,0.1-0.3,0.1h-0.1c0,0,0,0-0.1,0s0,0-0.1,0s-0.1,0-0.2,0c-0.1,0-0.2,0-0.3,0h-0.1c0,0,0,0-0.1,0s0,0-0.1,0s-0.1,0-0.2,0
		s-0.1,0-0.2-0.1c-0.1-0.1-0.2-0.2-0.2-0.2l-0.1-0.1v-0.1V22c0-0.1-0.1-0.2-0.1-0.3s0-0.2,0-0.3c0-0.1,0-0.1,0-0.1s0-0.1,0.1-0.1V21
		h0.2h0.3c0.3,0,0.5,0,0.8,0s0.5,0,0.8-0.1c0.2,0,0.3,0,0.5,0s0.3,0,0.5,0c0-0.1,0.1-0.1,0.1-0.2l0.1-0.1c0.1,0,0.2,0,0.3,0.1
		s0.1,0.1,0.1,0.1c0.2,0,0.3,0,0.5-0.1s0.4,0,0.5-0.1c0.3,0,0.5-0.1,0.8-0.1s0.5,0,0.8,0c0.1,0,0.2,0,0.3,0s0.2,0,0.3,0l0.1,0.1
		l0.1,0.1l0.1,0.1c0.1,0.1,0.2,0.2,0.3,0.3s0.1,0.3,0.1,0.5c-0.1,0.1-0.1,0.1-0.1,0.2L66.6,22h-0.1h-0.1h-0.1h-0.1h-0.1
		c-0.1,0-0.1,0-0.2,0S65.8,22.1,65.8,22.1z"/>
	<path class="st0" d="M76.1,24.2c0,0.1,0,0.2,0,0.3s0.1,0.2,0.1,0.3s0.1,0.2,0.1,0.3s0.1,0.2,0.1,0.3c0,0.1,0,0.2,0,0.4
		s0,0.3-0.1,0.4s-0.1,0.2-0.2,0.3s-0.1,0-0.1,0c-0.1,0.1-0.2,0.3-0.4,0.3s-0.3,0.2-0.4,0.3c-0.1,0.1-0.2,0.1-0.3,0.1s-0.2,0-0.3,0.1
		c-0.1,0-0.2,0.1-0.3,0.1s-0.2,0.1-0.4,0.1s-0.3,0.1-0.4,0.1s-0.2,0-0.3,0c-0.2,0.1-0.5,0.1-0.7,0.2s-0.5,0-0.8-0.1
		c-0.3,0-0.5,0-0.8,0s-0.4-0.2-0.6-0.3s-0.3-0.3-0.5-0.5s-0.2-0.4-0.3-0.6c-0.1-0.4,0-0.8,0-1.2s0.2-0.7,0.4-1s0.4-0.6,0.6-0.9
		s0.4-0.5,0.7-0.8h0.1c0,0,0.1,0,0.1-0.1s0-0.1,0.1-0.1s0.1-0.1,0.1-0.1c0.1-0.1,0.1-0.2,0.2-0.3s0.2-0.1,0.3-0.3
		c0.1,0,0.1,0,0.2-0.1s0.1-0.1,0.1-0.1l0.1-0.1c0,0,0.1-0.1,0.2-0.1V21c0.1-0.1,0.2-0.1,0.3-0.2s0.1-0.2,0.2-0.3c0.1,0,0.1,0,0.2,0
		s0.1,0,0.2,0c0.1-0.1,0.1-0.2,0.2-0.2s0.1-0.1,0.2-0.2c0.1,0,0.2,0.1,0.3,0.1s0.2,0.1,0.3,0.2c0,0.1,0,0.1,0.1,0.2s0.1,0.1,0.1,0.1
		l0.1,0.1c0,0,0.1,0.1,0.1,0.2h0.1c0,0,0,0,0.1,0c0,0.1,0.1,0.2,0.1,0.2s0.1,0.1,0.1,0.2s-0.1,0.2-0.1,0.2S75.1,21.9,75,22
		c0,0.1,0,0.1,0,0.1s0.1,0,0.1,0.1s0,0.1,0,0.2c0.2,0.3,0.4,0.6,0.5,1S75.9,23.9,76.1,24.2z M74.7,25.3c0-0.1,0.1-0.2,0.1-0.2
		s0.1-0.1,0.1-0.2s-0.1-0.1-0.1-0.1s0-0.1,0-0.2c-0.2-0.2-0.3-0.5-0.4-0.8S74.1,23.3,74,23c0,0,0,0.1-0.1,0.1s-0.1,0-0.1,0
		c0,0.1,0,0.1-0.1,0.1s-0.1,0-0.1,0h-0.1c0,0-0.1,0-0.1-0.1c-0.2,0.2-0.5,0.4-0.7,0.5s-0.4,0.4-0.6,0.6H72c0,0,0,0-0.1,0
		c-0.1,0.1-0.1,0.3-0.2,0.4s-0.2,0.2-0.3,0.4s-0.2,0.3-0.2,0.4S71,25.7,71,25.9c0.1,0.1,0.3,0.2,0.5,0.2s0.4,0,0.6,0s0.4,0,0.6-0.1
		s0.4-0.1,0.5-0.1c0.3-0.1,0.6-0.2,0.8-0.3S74.4,25.4,74.7,25.3z"/>
	<path class="st0" d="M80.4,25.7c0,0.1,0,0.2-0.1,0.3s-0.1,0.2-0.2,0.3s-0.1,0.2-0.2,0.3s-0.1,0.2-0.2,0.2c0,0.1,0,0.2,0,0.2
		s0,0.1,0,0.2c-0.1,0.3-0.3,0.5-0.5,0.6s-0.5,0.1-0.7-0.1c-0.1-0.1-0.2-0.1-0.2-0.2s-0.1-0.2-0.2-0.2c0-0.1,0-0.3,0-0.4
		s-0.1-0.2-0.2-0.2c0-0.2-0.1-0.3-0.1-0.5s-0.1-0.4-0.1-0.6s-0.1-0.4-0.1-0.6s0-0.4,0-0.5s0-0.1,0-0.2s-0.1-0.1-0.1-0.2
		c0-0.2,0-0.4,0-0.6s0-0.4,0-0.6s0-0.4,0-0.6s0-0.4-0.1-0.6s0-0.4,0-0.5s0-0.3,0.1-0.4c0-0.1,0.1-0.2,0.2-0.2s0.2-0.1,0.2-0.2
		c0.2,0,0.3,0.1,0.4,0.2s0.1,0.2,0.1,0.4c0.2,0.1,0.3,0.2,0.4,0.4s0.2,0.3,0.2,0.5s0.1,0.4,0.1,0.6s0,0.4,0.1,0.7s0,0.4,0,0.6
		s0,0.4,0.1,0.5c0.3-0.4,0.5-0.8,0.7-1.1s0.4-0.6,0.6-0.9s0.4-0.6,0.7-0.9s0.6-0.6,1-1c0.1,0,0.1,0,0.2,0s0.1,0,0.1,0.1s0.1,0,0.1,0
		s0.1,0,0.2,0c0,0.1,0.1,0.1,0.1,0.2s0,0.1,0,0.1v0.1c0,0,0.1,0.1,0.1,0.2v0.1v0.1v0.1c0,0,0,0,0.1,0c0,0.1-0.1,0.2-0.1,0.3
		S83,22,83,22.2c-0.2,0.2-0.4,0.5-0.6,0.7s-0.4,0.5-0.6,0.8s-0.4,0.5-0.6,0.8s-0.4,0.6-0.5,0.9h-0.1c0,0,0,0-0.1,0.1
		S80.5,25.6,80.4,25.7C80.4,25.6,80.4,25.7,80.4,25.7z"/>
	<path class="st0" d="M88.8,21.1c0,0.1,0,0.1,0,0.1v0.1c0,0,0,0,0,0.1s0,0.1,0,0.1c-0.2,0.3-0.4,0.4-0.6,0.5s-0.4,0.2-0.7,0.2
		s-0.5,0.1-0.8,0.1s-0.5,0.1-0.8,0.3c-0.1,0-0.2,0-0.3,0s-0.2,0.1-0.4,0c0,0-0.1,0.1-0.2,0.1s-0.1,0-0.2,0.1c0,0.1,0,0.1,0,0.2
		s0,0.1,0,0.2c0.3,0,0.6,0,0.9,0s0.7-0.1,1-0.1v0.1c0,0,0,0,0,0.1c0.1,0,0.1,0.1,0.2,0.1s0.1,0.1,0.2,0.2s0.1,0.1,0.2,0.1
		s0.1,0,0.2,0c0,0.1,0.1,0.1,0.1,0.2s0,0.2,0,0.2c-0.1,0.1-0.3,0.2-0.4,0.3s-0.3,0.2-0.4,0.2s-0.3,0.1-0.4,0.2S86.2,25,86,25h-0.1
		c0,0,0,0-0.1,0s-0.2,0.1-0.3,0s-0.2,0-0.3,0c0,0-0.1,0-0.2,0s-0.2,0-0.3,0c-0.1,0.2-0.2,0.3-0.3,0.5s-0.2,0.4-0.3,0.6
		c0.3,0,0.5,0.1,0.7,0s0.3,0,0.5,0s0.3,0,0.5-0.1s0.4,0,0.6,0c0.2-0.1,0.3-0.1,0.6-0.2s0.4-0.1,0.6-0.1c0.1,0,0.1,0.1,0.2,0.1
		s0.1,0.1,0.1,0.2s0.1,0.1,0.1,0.1s0.1,0.1,0.2,0l0.1,0.1v0.1v0.1h0.1c-0.1,0.3-0.3,0.5-0.4,0.6s-0.3,0.2-0.5,0.3s-0.4,0.1-0.7,0.2
		s-0.5,0.1-0.8,0.1c-0.1,0-0.1,0-0.2,0s-0.1,0-0.2,0c-0.2,0-0.4,0.1-0.6,0.1s-0.5,0-0.8,0s-0.5,0-0.7-0.1s-0.4-0.2-0.6-0.3
		c-0.1-0.1-0.1-0.1-0.1-0.2s-0.1-0.1-0.2-0.2c0-0.1,0-0.2,0-0.3s0-0.3-0.1-0.4s0-0.3-0.1-0.4s0-0.3,0-0.4s0.1-0.2,0.1-0.3
		s0.1-0.2,0.1-0.3c0,0,0.1,0,0.1-0.1s0,0,0.1,0c0-0.1,0.1-0.3,0.2-0.4s0.1-0.2,0.2-0.4s0.1-0.2,0.2-0.4s0.1-0.3,0.2-0.4
		c-0.1-0.1-0.2-0.2-0.2-0.3s-0.1-0.2-0.1-0.4s0-0.2-0.1-0.4s0-0.3-0.1-0.4c0.1-0.1,0.2-0.2,0.3-0.3s0.2-0.1,0.4-0.2s0.3-0.1,0.4-0.1
		s0.3-0.1,0.5-0.1c0.3-0.1,0.6-0.2,0.8-0.2s0.5-0.1,0.7-0.1s0.5-0.1,0.7-0.1s0.6-0.1,0.9-0.1c0.1,0.1,0.1,0.1,0.2,0.1
		c0-0.1,0.1-0.1,0.1-0.1s0.1,0,0.1-0.1c0.1,0.1,0.2,0.2,0.3,0.3S88.7,21.1,88.8,21.1z"/>
	<path class="st0" d="M90.3,26.5c-0.1,0.3-0.2,0.5-0.2,0.7s-0.2,0.3-0.3,0.5c-0.1,0-0.2,0-0.2,0l-0.1,0.1c-0.1,0-0.1,0-0.2,0
		s-0.1,0-0.1-0.1s-0.1,0-0.1-0.1s-0.1,0-0.2,0c0-0.1,0-0.1-0.1-0.2s-0.1-0.1-0.2-0.1c0-0.1,0-0.1,0-0.2s0-0.1,0-0.1v-0.1v-0.1
		c0,0-0.1,0-0.1-0.1s-0.1-0.1-0.1-0.2s0-0.3,0.1-0.4s0.1-0.2,0.1-0.4s0.1-0.2,0.1-0.3s0-0.2,0-0.3h0.1V25c0,0,0-0.1,0-0.2
		s0-0.1,0-0.1c0.1-0.2,0.1-0.4,0.2-0.6s0.1-0.4,0.1-0.6s0.1-0.4,0.1-0.6s0.1-0.4,0.2-0.6c0.1,0,0.2,0,0.3,0s0.2,0.1,0.2,0.1
		c0.2-0.2,0.4-0.3,0.5-0.6s0.3-0.4,0.5-0.7s0.3-0.4,0.5-0.6s0.5-0.3,0.8-0.3c0.2,0.1,0.3,0.2,0.5,0.4s0.3,0.3,0.5,0.5
		c0.1,0,0.1,0.1,0.2,0.1s0.1,0.1,0.2,0.1v0.1c0.1,0.1,0.2,0.2,0.2,0.3s0.1,0.2,0.2,0.4s0.1,0.3,0.1,0.4s0.1,0.3,0.2,0.4V23v0.1v0.1
		v0.1c0,0.3-0.1,0.6-0.3,0.8s-0.4,0.4-0.7,0.5s-0.6,0.3-0.9,0.3s-0.6,0.2-0.9,0.3l0,0c0,0,0,0,0,0.1c0.2,0.1,0.3,0.2,0.4,0.3
		s0.2,0.1,0.3,0.2s0.2,0.1,0.3,0.1S92.8,26,93,26s0.4,0.1,0.5,0.1s0.2,0.1,0.3,0.1s0.2,0,0.3,0s0.2,0,0.4,0c0.1,0.1,0.1,0.2,0.2,0.3
		s0.1,0.2,0.1,0.3s0,0.2,0,0.3s0,0.2-0.1,0.2c0,0,0,0,0.1,0s0.1,0,0.1,0l-0.1,0.1l-0.1,0.1l0,0.5c0,0-0.1,0.1-0.2,0.1
		c-0.2,0.1-0.5,0.1-0.9,0s-0.8-0.2-1.4-0.5c-0.3-0.1-0.5-0.2-0.7-0.3s-0.3-0.2-0.5-0.2s-0.2-0.2-0.4-0.3S90.5,26.6,90.3,26.5z
		 M92,22.5c-0.1,0.1-0.2,0.2-0.3,0.3s-0.2,0.2-0.3,0.3s-0.2,0.2-0.3,0.4S91,23.8,91,23.9c0.3,0,0.6-0.1,0.9-0.2s0.6-0.2,0.8-0.3
		c0-0.2-0.1-0.4-0.3-0.6S92.2,22.5,92,22.5z"/>
	<path class="st0" d="M95.1,22.4c0.1-0.2,0.1-0.3,0.3-0.4s0.3-0.2,0.4-0.3s0.3-0.2,0.5-0.2s0.3-0.1,0.4-0.1c0.3-0.1,0.6-0.3,1-0.4
		s0.7-0.2,1.1-0.3s0.8-0.2,1.1-0.2s0.8,0,1.2,0.1c0,0.1,0.1,0.2,0.1,0.2s0.1,0.1,0.1,0.2s0.1,0.1,0.1,0.2s0.1,0.1,0.1,0.2
		c0.1,0.1,0.1,0.1,0.2,0.2s0.1,0.2,0,0.3c-0.1,0.1-0.2,0.1-0.2,0.2s-0.2,0.1-0.2,0.1c-0.3-0.1-0.6-0.1-0.9-0.1s-0.6,0-0.8,0.1
		c-0.1-0.1-0.2-0.1-0.3-0.1s-0.2,0-0.3,0s-0.2,0.1-0.3,0.1s-0.2,0-0.3,0c-0.1,0.1-0.2,0.1-0.3,0.1s-0.2,0-0.4,0.1v0.1c0,0,0,0,0,0.1
		s0.1,0.1,0.2,0.1s0.2,0,0.2,0.1s0.2,0.1,0.2,0.1s0.1,0.1,0.1,0.2c0.1,0,0.2,0,0.3,0.1s0.2,0.1,0.2,0.2s0.1,0.2,0.1,0.3s0,0.2,0,0.2
		c0,0.1,0.1,0.1,0.1,0.1h0.1c0,0.1,0.1,0.2,0.2,0.3s0.2,0.2,0.2,0.3c0,0.2,0,0.4,0,0.5s0,0.3-0.1,0.5c-0.1,0.3-0.3,0.5-0.5,0.8
		s-0.4,0.4-0.7,0.6s-0.5,0.3-0.8,0.5s-0.6,0.2-0.9,0.3h-0.1c0,0,0,0,0-0.1c-0.1,0.1-0.1,0.1-0.2,0.1s-0.2,0-0.2,0s-0.2,0-0.3,0
		s-0.2,0-0.3,0c-0.1-0.1-0.1-0.1-0.1-0.2s-0.1-0.1-0.1-0.2c0,0-0.1,0-0.1-0.1s0-0.1,0-0.1c0-0.1,0.1-0.1,0.1-0.1l0,0c0,0,0,0-0.1,0
		s0,0,0-0.1s0-0.1,0-0.2s0-0.2,0-0.3s0-0.2,0-0.2s0.1-0.1,0.2-0.2c0.3,0,0.5,0,0.8,0s0.5-0.1,0.7-0.2s0.4-0.2,0.6-0.3
		s0.4-0.2,0.6-0.3c0-0.1,0.1-0.1,0.1-0.2s0.1-0.1,0.1-0.1l0.1-0.1c0,0,0.1-0.1,0.1-0.2s0-0.1,0-0.1s-0.1,0-0.1-0.1h-0.1
		c-0.1-0.1-0.3-0.2-0.5-0.2s-0.3-0.1-0.5-0.2c-0.1,0-0.2,0.1-0.2,0s-0.2,0-0.3-0.1c-0.3,0-0.5,0-0.8-0.1s-0.5-0.1-0.7-0.2
		c0,0,0-0.1-0.1-0.1s-0.1,0-0.1,0c0-0.1-0.1-0.1-0.1-0.2s-0.1-0.1-0.1-0.2s0-0.2,0-0.2s0-0.1-0.1-0.2c0-0.1,0.1-0.2,0.1-0.2
		S95.1,22.5,95.1,22.4z"/>
	<path class="st0" d="M103.6,27.6c-0.2,0.1-0.5,0.1-0.7,0.2s-0.5,0.1-0.8,0.1c-0.4,0-0.7-0.1-0.9-0.3c0-0.1-0.1-0.1-0.1-0.2
		c0,0,0-0.1-0.1-0.1s0-0.1,0-0.1c-0.1-0.1-0.2-0.2-0.2-0.4s-0.1-0.3-0.1-0.4s0-0.3,0-0.5s0-0.3,0.1-0.4v-0.1v-0.1
		c0-0.1,0.1-0.2,0.1-0.4s0.1-0.2,0.1-0.3c0-0.1,0-0.1,0-0.2s0.1-0.2,0.1-0.2c0.1-0.3,0.2-0.5,0.3-0.8s0.2-0.4,0.2-0.6
		c0.1-0.4,0.3-0.7,0.4-1s0.2-0.7,0.3-1.1c0.1,0,0.1-0.1,0.1-0.1h0.1c0.1,0.1,0.3,0.1,0.5,0.2s0.3,0.1,0.5,0.1c0.1,0,0.1,0.1,0.1,0.1
		s0,0,0,0.1c0.1,0.1,0.2,0.2,0.2,0.3s0.1,0.2,0.1,0.4c0,0.1-0.1,0.1-0.1,0.1c0,0.2-0.1,0.3-0.1,0.4s-0.1,0.2-0.1,0.3
		c-0.1,0.1-0.1,0.2-0.2,0.4s-0.1,0.3-0.1,0.4l-0.1,0.1v0.1c0,0,0,0.1-0.1,0.1s0,0.1-0.1,0.1c0,0.2-0.1,0.4-0.1,0.5s-0.1,0.3-0.2,0.4
		c-0.1,0.2-0.2,0.5-0.3,0.7s-0.1,0.5-0.1,0.8h0.1h0.1c0.1,0,0.2,0,0.2,0c0.2-0.1,0.5-0.2,0.8-0.2s0.6,0,0.8,0c0.1,0,0.2,0,0.3,0
		s0.2,0,0.3,0c0.1,0,0.1,0.1,0.1,0.1s0,0,0.1,0s0.1,0,0.1,0c0.1,0.1,0.2,0.1,0.3,0.2s0.2,0.1,0.3,0.1c0.1,0,0.2,0.1,0.3,0.1
		s0.2,0.1,0.2,0.1l0.1,0.5c0.1,0.1,0.1,0.1,0.1,0.1c0,0.1,0,0.1,0,0.1v0.1c-0.1,0-0.2,0.1-0.2,0.1l-0.1,0.1c-0.1,0-0.1,0-0.1,0H106
		c-0.1,0-0.2,0-0.4,0.1c-0.2-0.1-0.4-0.1-0.7-0.1c-0.1,0-0.2,0-0.3,0s-0.2,0-0.3,0c-0.1,0-0.2,0-0.3,0s-0.2,0-0.3,0L103.6,27.6z"/>
	<path class="st0" d="M113.4,21.1c0,0.1,0,0.1,0,0.1v0.1c0,0,0,0,0,0.1s0,0.1,0,0.1c-0.2,0.3-0.4,0.4-0.6,0.5s-0.4,0.2-0.7,0.2
		s-0.5,0.1-0.8,0.1s-0.5,0.1-0.8,0.3c-0.1,0-0.2,0-0.3,0s-0.2,0.1-0.4,0c0,0-0.1,0.1-0.2,0.1s-0.1,0-0.2,0.1c0,0.1,0,0.1,0,0.2
		s0,0.1,0,0.2c0.3,0,0.6,0,0.9,0s0.7-0.1,1-0.1v0.1c0,0,0,0,0,0.1c0.1,0,0.1,0.1,0.2,0.1s0.1,0.1,0.2,0.2s0.1,0.1,0.2,0.1
		s0.1,0,0.2,0c0,0.1,0.1,0.1,0.1,0.2s0,0.2,0,0.2c-0.1,0.1-0.3,0.2-0.4,0.3s-0.3,0.2-0.4,0.2s-0.3,0.1-0.4,0.2s-0.3,0.1-0.5,0.1
		h-0.1c0,0,0,0-0.1,0s-0.2,0.1-0.3,0s-0.2,0-0.3,0c-0.1,0-0.2-0.1-0.3-0.1s-0.2,0-0.3,0c-0.1,0.2-0.2,0.3-0.3,0.5s-0.2,0.4-0.3,0.6
		c0.3,0,0.5,0.1,0.7,0s0.3,0,0.5,0s0.3,0,0.5-0.1s0.4,0,0.6,0c0.2-0.1,0.3-0.1,0.6-0.2s0.4-0.1,0.6-0.1c0.1,0,0.1,0.1,0.2,0.1
		s0.1,0.1,0.1,0.2s0.1,0.1,0.1,0.1s0.1,0.1,0.2,0l0.1,0.1v0.1v0.1h0.1c-0.1,0.3-0.3,0.5-0.4,0.6s-0.3,0.2-0.5,0.3s-0.4,0.1-0.7,0.2
		s-0.5,0.1-0.8,0.1c-0.1,0-0.1,0-0.2,0s-0.1,0-0.2,0c-0.2,0-0.4,0.1-0.6,0.1s-0.5,0-0.8,0s-0.5,0-0.7-0.1s-0.4-0.2-0.6-0.3
		c-0.1-0.1-0.1-0.1-0.1-0.2s-0.1-0.1-0.2-0.2c0-0.1,0-0.2,0-0.3s0-0.3-0.1-0.4s0-0.3-0.1-0.4s0-0.3,0-0.4s0.1-0.2,0.1-0.3
		s0.1-0.2,0.1-0.3c0,0,0.1,0,0.1-0.1s0,0,0.1,0c0-0.1,0.1-0.3,0.2-0.4s0.1-0.2,0.2-0.4s0.1-0.2,0.2-0.4s0.1-0.3,0.2-0.4
		c-0.1-0.1-0.2-0.2-0.2-0.3s-0.1-0.2-0.1-0.4s0-0.2-0.1-0.4s0-0.3-0.1-0.4c0.1-0.1,0.2-0.2,0.3-0.3s0.2-0.1,0.4-0.2s0.3-0.1,0.4-0.1
		s0.3-0.1,0.5-0.1c0.3-0.1,0.6-0.2,0.8-0.2s0.5-0.1,0.7-0.1s0.5-0.1,0.7-0.1s0.6-0.1,0.9-0.1c0.1,0.1,0.1,0.1,0.2,0.1
		c0-0.1,0.1-0.1,0.1-0.1s0.1,0,0.1-0.1c0.1,0.1,0.2,0.2,0.3,0.3S113.3,21.1,113.4,21.1z"/>
	<path class="st0" d="M119.7,21.1c0,0.1,0,0.1,0,0.1v0.1c0,0,0,0,0,0.1s0,0.1,0,0.1c-0.2,0.3-0.4,0.4-0.6,0.5s-0.4,0.2-0.7,0.2
		s-0.5,0.1-0.8,0.1s-0.5,0.1-0.8,0.3c-0.1,0-0.2,0-0.3,0s-0.2,0.1-0.4,0c0,0-0.1,0.1-0.2,0.1s-0.1,0-0.2,0.1c0,0.1,0,0.1,0,0.2
		s0,0.1,0,0.2c0.3,0,0.6,0,0.9,0s0.7-0.1,1-0.1v0.1c0,0,0,0,0,0.1c0.1,0,0.1,0.1,0.2,0.1s0.1,0.1,0.2,0.2s0.1,0.1,0.2,0.1
		s0.1,0,0.2,0c0,0.1,0.1,0.1,0.1,0.2s0,0.2,0,0.2c-0.1,0.1-0.3,0.2-0.4,0.3s-0.3,0.2-0.4,0.2s-0.3,0.1-0.4,0.2S117,25,116.8,25h-0.1
		c0,0,0,0-0.1,0s-0.2,0.1-0.3,0s-0.2,0-0.3,0c-0.1,0-0.2-0.1-0.3-0.1s-0.2,0-0.3,0c-0.1,0.2-0.2,0.3-0.3,0.5s-0.2,0.4-0.3,0.6
		c0.3,0,0.5,0.1,0.7,0s0.3,0,0.5,0s0.3,0,0.5-0.1s0.4,0,0.6,0c0.2-0.1,0.3-0.1,0.6-0.2s0.4-0.1,0.6-0.1c0.1,0,0.1,0.1,0.2,0.1
		s0.1,0.1,0.1,0.2s0.1,0.1,0.1,0.1s0.1,0.1,0.2,0l0.1,0.1v0.1v0.1h0.1c-0.1,0.3-0.3,0.5-0.4,0.6s-0.3,0.2-0.5,0.3s-0.4,0.1-0.7,0.2
		s-0.5,0.1-0.8,0.1c-0.1,0-0.1,0-0.2,0s-0.1,0-0.2,0c-0.2,0-0.4,0.1-0.6,0.1s-0.5,0-0.8,0s-0.5,0-0.7-0.1s-0.4-0.2-0.6-0.3
		c-0.1-0.1-0.1-0.1-0.1-0.2s-0.1-0.1-0.2-0.2c0-0.1,0-0.2,0-0.3s0-0.3-0.1-0.4s0-0.3-0.1-0.4s0-0.3,0-0.4s0.1-0.2,0.1-0.3
		s0.1-0.2,0.1-0.3c0,0,0.1,0,0.1-0.1s0,0,0.1,0c0-0.1,0.1-0.3,0.2-0.4s0.1-0.2,0.2-0.4s0.1-0.2,0.2-0.4s0.1-0.3,0.2-0.4
		c-0.1-0.1-0.2-0.2-0.2-0.3s-0.1-0.2-0.1-0.4s0-0.2-0.1-0.4s0-0.3-0.1-0.4c0.1-0.1,0.2-0.2,0.3-0.3s0.2-0.1,0.4-0.2s0.3-0.1,0.4-0.1
		s0.3-0.1,0.5-0.1c0.3-0.1,0.6-0.2,0.8-0.2s0.5-0.1,0.7-0.1s0.5-0.1,0.7-0.1s0.6-0.1,0.9-0.1c0.1,0.1,0.1,0.1,0.2,0.1
		c0-0.1,0.1-0.1,0.1-0.1s0.1,0,0.1-0.1c0.1,0.1,0.2,0.2,0.3,0.3S119.6,21.1,119.7,21.1z"/>
	<path class="st0" d="M123.8,20.4c0.3,0,0.6,0.1,0.9,0.2c0.3,0.1,0.5,0.2,0.7,0.4c0.1,0.2,0.2,0.4,0.4,0.6s0.2,0.5,0.3,0.7
		s0.1,0.5,0.1,0.8s-0.1,0.5-0.2,0.8c-0.2,0.3-0.5,0.5-0.8,0.7s-0.7,0.3-1,0.4s-0.8,0.2-1.2,0.3s-0.8,0.2-1.2,0.2c0,0.2,0,0.4,0,0.6
		s0,0.4-0.1,0.6s-0.1,0.4-0.2,0.6s-0.2,0.4-0.3,0.5c-0.1,0-0.3,0-0.4,0.1s-0.3,0.1-0.4,0.1s-0.1-0.1-0.1-0.1s-0.1,0-0.2-0.1
		c0-0.1,0-0.2-0.1-0.2s-0.1-0.2-0.2-0.3s-0.1-0.2-0.1-0.2s0-0.2,0.1-0.2c-0.1-0.1-0.1-0.1-0.1-0.2c0.1-0.1,0.1-0.2,0.1-0.4
		s0.1-0.3,0.1-0.5s0-0.3,0-0.4s-0.1-0.2-0.2-0.3l0,0c0,0,0,0,0.1,0c-0.1,0-0.1-0.1-0.1-0.2s0-0.2-0.1-0.2v-0.1c0,0,0,0,0.1,0
		c0-0.1,0-0.3,0-0.4s0.1-0.2,0.1-0.4s0.1-0.2,0.2-0.3s0.2-0.2,0.2-0.3c0.1,0,0.1,0,0.1,0s0,0,0.1,0c0.1-0.1,0.2-0.2,0.2-0.2
		s0.1-0.2,0.1-0.3c0.1-0.2,0.1-0.3,0.2-0.5s0.2-0.3,0.3-0.5s0.2-0.3,0.3-0.4s0.2-0.2,0.4-0.2c0.1-0.1,0.2-0.2,0.4-0.2
		s0.3-0.1,0.5-0.2s0.3-0.1,0.5-0.1s0.3,0,0.5,0.1C123.8,20.5,123.8,20.5,123.8,20.4C123.8,20.5,123.8,20.4,123.8,20.4z M123.4,23.3
		c0.2-0.1,0.4-0.2,0.6-0.2s0.4-0.1,0.6-0.3c-0.1-0.1-0.2-0.2-0.4-0.2s-0.4-0.1-0.6-0.1s-0.4,0-0.6,0.1s-0.4,0.1-0.6,0.3
		c0,0.1-0.1,0.3-0.1,0.3s-0.1,0.2-0.1,0.3c0,0,0,0.1,0.1,0.1s0.1,0,0.1,0.1c0.2-0.1,0.4-0.1,0.5-0.2S123.2,23.3,123.4,23.3z"/>
</g>
</svg>
